<svg width="177" height="217" viewBox="0 0 177 217" fill="none" xmlns="http://www.w3.org/2000/svg">
<g filter="url(#filter0_d)">
<path d="M81.4862 39.7683C81.4862 18.1779 63.9838 0.675537 42.3935 0.675537C20.8032 0.675537 3.30078 18.1779 3.30078 39.7683C3.30078 61.3586 20.8032 78.861 42.3935 78.861C63.9838 78.861 81.4862 61.3586 81.4862 39.7683Z" fill="url(#paint0_radial)"/>
</g>
<g opacity="0.5" filter="url(#filter1_f)">
<path d="M168.072 188.385C168.072 177.501 159.248 168.677 148.364 168.677C137.479 168.677 128.656 177.501 128.656 188.385C128.656 199.27 137.479 208.093 148.364 208.093C159.248 208.093 168.072 199.27 168.072 188.385Z" fill="url(#paint1_radial)"/>
</g>
<defs>
<filter id="filter0_d" x="-4.69922" y="0.675537" width="94.1855" height="94.1855" filterUnits="userSpaceOnUse" color-interpolation-filters="sRGB">
<feFlood flood-opacity="0" result="BackgroundImageFix"/>
<feColorMatrix in="SourceAlpha" type="matrix" values="0 0 0 0 0 0 0 0 0 0 0 0 0 0 0 0 0 0 127 0"/>
<feOffset dy="8"/>
<feGaussianBlur stdDeviation="4"/>
<feColorMatrix type="matrix" values="0 0 0 0 0.972549 0 0 0 0 0.298039 0 0 0 0 0.278431 0 0 0 0.13 0"/>
<feBlend mode="normal" in2="BackgroundImageFix" result="effect1_dropShadow"/>
<feBlend mode="normal" in="SourceGraphic" in2="effect1_dropShadow" result="shape"/>
</filter>
<filter id="filter1_f" x="120.656" y="160.677" width="55.4158" height="55.4158" filterUnits="userSpaceOnUse" color-interpolation-filters="sRGB">
<feFlood flood-opacity="0" result="BackgroundImageFix"/>
<feBlend mode="normal" in="SourceGraphic" in2="BackgroundImageFix" result="shape"/>
<feGaussianBlur stdDeviation="4" result="effect1_foregroundBlur"/>
</filter>
<radialGradient id="paint0_radial" cx="0" cy="0" r="1" gradientUnits="userSpaceOnUse" gradientTransform="translate(24.0199 18.6582) scale(59.3428)">
<stop stop-color="#FF5E00"/>
<stop offset="0.541" stop-color="#F54562"/>
<stop offset="1" stop-color="#C32DE1"/>
</radialGradient>
<radialGradient id="paint1_radial" cx="0" cy="0" r="1" gradientUnits="userSpaceOnUse" gradientTransform="translate(139.101 177.743) scale(29.9166)">
<stop stop-color="#FF5E00"/>
<stop offset="0.541" stop-color="#F54562"/>
<stop offset="1" stop-color="#C32DE1"/>
</radialGradient>
</defs>
</svg>
