<svg width="371" height="396" viewBox="0 0 371 396" fill="none" xmlns="http://www.w3.org/2000/svg">
<path d="M0 265C0 192.651 58.6507 134 131 134C203.349 134 262 192.651 262 265C262 337.349 203.349 396 131 396C58.6507 396 0 337.349 0 265Z" fill="url(#paint0_radial)"/>
<path d="M232 69.5C232 31.1162 263.116 0 301.5 0C339.884 0 371 31.1162 371 69.5C371 107.884 339.884 139 301.5 139C263.116 139 232 107.884 232 69.5Z" fill="url(#paint1_radial)"/>
<defs>
<radialGradient id="paint0_radial" cx="0" cy="0" r="1" gradientUnits="userSpaceOnUse" gradientTransform="translate(184.71 205.788) rotate(180) scale(192.308)">
<stop stop-color="#00BBFF"/>
<stop offset="0.53" stop-color="#9C42F5"/>
<stop offset="1" stop-color="#5D2DE1"/>
</radialGradient>
<radialGradient id="paint1_radial" cx="0" cy="0" r="1" gradientUnits="userSpaceOnUse" gradientTransform="translate(334.165 31.97) rotate(180) scale(105.501)">
<stop stop-color="#FF5E00"/>
<stop offset="0.541" stop-color="#F54562"/>
<stop offset="1" stop-color="#C32DE1"/>
</radialGradient>
</defs>
</svg>
