<svg width="598" height="338" viewBox="0 0 598 338" fill="none" xmlns="http://www.w3.org/2000/svg">
<path d="M598 80C598 35.8172 562.183 0 518 0C473.817 0 438 35.8172 438 80C438 124.183 473.817 160 518 160C562.183 160 598 124.183 598 80Z" fill="url(#paint0_radial)"/>
<path d="M337 169.5C337 76.44 261.56 1 168.5 1C75.44 1 0 76.44 0 169.5C0 262.56 75.44 338 168.5 338C261.56 338 337 262.56 337 169.5Z" fill="url(#paint1_radial)"/>
<defs>
<radialGradient id="paint0_radial" cx="0" cy="0" r="1" gradientUnits="userSpaceOnUse" gradientTransform="translate(480.4 36.8) scale(121.44)">
<stop stop-color="#FF5E00"/>
<stop offset="0.541" stop-color="#F54562"/>
<stop offset="1" stop-color="#C32DE1"/>
</radialGradient>
<radialGradient id="paint1_radial" cx="0" cy="0" r="1" gradientUnits="userSpaceOnUse" gradientTransform="translate(99.415 93.338) scale(247.358)">
<stop stop-color="#00BBFF"/>
<stop offset="0.53" stop-color="#9C42F5"/>
<stop offset="1" stop-color="#5D2DE1"/>
</radialGradient>
</defs>
</svg>
