<svg width="627" height="382" viewBox="0 0 627 382" fill="none" xmlns="http://www.w3.org/2000/svg">
<path d="M627 80C627 35.8172 591.183 0 547 0C502.817 0 467 35.8172 467 80C467 124.183 502.817 160 547 160C591.183 160 627 124.183 627 80Z" fill="url(#paint0_radial)"/>
<path d="M357 203.5C357 104.917 277.083 25 178.5 25C79.9172 25 0 104.917 0 203.5C0 302.083 79.9172 382 178.5 382C277.083 382 357 302.083 357 203.5Z" fill="url(#paint1_radial)"/>
<defs>
<radialGradient id="paint0_radial" cx="0" cy="0" r="1" gradientUnits="userSpaceOnUse" gradientTransform="translate(509.4 36.8) scale(121.44)">
<stop stop-color="#FF5E00"/>
<stop offset="0.541" stop-color="#F54562"/>
<stop offset="1" stop-color="#C32DE1"/>
</radialGradient>
<radialGradient id="paint1_radial" cx="0" cy="0" r="1" gradientUnits="userSpaceOnUse" gradientTransform="translate(105.315 122.818) scale(262.038)">
<stop stop-color="#00BBFF"/>
<stop offset="0.53" stop-color="#9C42F5"/>
<stop offset="1" stop-color="#5D2DE1"/>
</radialGradient>
</defs>
</svg>
