<svg width="359" height="415" viewBox="0 0 359 415" fill="none" xmlns="http://www.w3.org/2000/svg">
<path d="M97 284C97 211.651 155.651 153 228 153C300.349 153 359 211.651 359 284C359 356.349 300.349 415 228 415C155.651 415 97 356.349 97 284Z" fill="url(#paint0_radial)"/>
<path d="M0 69.5C0 31.1162 31.1162 0 69.5 0C107.884 0 139 31.1162 139 69.5C139 107.884 107.884 139 69.5 139C31.1162 139 0 107.884 0 69.5Z" fill="url(#paint1_radial)"/>
<defs>
<radialGradient id="paint0_radial" cx="0" cy="0" r="1" gradientUnits="userSpaceOnUse" gradientTransform="translate(281.71 224.788) rotate(180) scale(192.308)">
<stop stop-color="#00BBFF"/>
<stop offset="0.53" stop-color="#9C42F5"/>
<stop offset="1" stop-color="#5D2DE1"/>
</radialGradient>
<radialGradient id="paint1_radial" cx="0" cy="0" r="1" gradientUnits="userSpaceOnUse" gradientTransform="translate(102.165 31.97) rotate(180) scale(105.501)">
<stop stop-color="#FF5E00"/>
<stop offset="0.541" stop-color="#F54562"/>
<stop offset="1" stop-color="#C32DE1"/>
</radialGradient>
</defs>
</svg>
