<svg width="340" height="475" viewBox="0 0 340 475" fill="none" xmlns="http://www.w3.org/2000/svg">
<path d="M340 405C340 366.34 308.66 335 270 335C231.34 335 200 366.34 200 405C200 443.66 231.34 475 270 475C308.66 475 340 443.66 340 405Z" fill="url(#paint0_radial)"/>
<path d="M292 146C292 65.3664 226.634 0 146 0C65.3664 0 0 65.3664 0 146C0 226.634 65.3664 292 146 292C226.634 292 292 226.634 292 146Z" fill="url(#paint1_radial)"/>
<defs>
<radialGradient id="paint0_radial" cx="0" cy="0" r="1" gradientUnits="userSpaceOnUse" gradientTransform="translate(241.3 373.36) scale(102.76)">
<stop stop-color="#00BBFF"/>
<stop offset="0.53" stop-color="#9C42F5"/>
<stop offset="1" stop-color="#5D2DE1"/>
</radialGradient>
<radialGradient id="paint1_radial" cx="0" cy="0" r="1" gradientUnits="userSpaceOnUse" gradientTransform="translate(77.38 67.16) scale(221.628)">
<stop stop-color="#FF5E00"/>
<stop offset="0.541" stop-color="#F54562"/>
<stop offset="1" stop-color="#C32DE1"/>
</radialGradient>
</defs>
</svg>
