<svg
  width="1114"
  height="986"
  viewBox="0 0 1114 986"
  fill="none"
  xmlns="http://www.w3.org/2000/svg"
>
<path
    d="M1114 851C1114 776.442 1053.56 716 979 716C904.442 716 844 776.442 844 851C844 925.558 904.442 986 979 986C1053.56 986 1114 925.558 1114 851Z"
    fill="url(#paint0_radial)"
  />
<path
    d="M646 89C646 44.8172 610.183 9 566 9C521.817 9 486 44.8172 486 89C486 133.183 521.817 169 566 169C610.183 169 646 133.183 646 89Z"
    fill="url(#paint1_radial)"
  />
<path
    d="M337 168.5C337 75.44 261.56 0 168.5 0C75.44 0 0 75.44 0 168.5C0 261.56 75.44 337 168.5 337C261.56 337 337 261.56 337 168.5Z"
    fill="url(#paint2_radial)"
  />
<defs>
<radialGradient
      id="paint0_radial"
      cx="0"
      cy="0"
      r="1"
      gradientUnits="userSpaceOnUse"
      gradientTransform="translate(923.65 789.98) scale(198.18)"
    >
<stop stop-color="#00BBFF" />
<stop offset="0.53" stop-color="#9C42F5" />
<stop offset="1" stop-color="#5D2DE1" />
</radialGradient>
<radialGradient
      id="paint1_radial"
      cx="0"
      cy="0"
      r="1"
      gradientUnits="userSpaceOnUse"
      gradientTransform="translate(528.4 45.8) scale(121.44)"
    >
<stop stop-color="#FF5E00" />
<stop offset="0.541" stop-color="#F54562" />
<stop offset="1" stop-color="#C32DE1" />
</radialGradient>
<radialGradient
      id="paint2_radial"
      cx="0"
      cy="0"
      r="1"
      gradientUnits="userSpaceOnUse"
      gradientTransform="translate(99.415 92.338) scale(247.358)"
    >
<stop stop-color="#00BBFF" />
<stop offset="0.53" stop-color="#9C42F5" />
<stop offset="1" stop-color="#5D2DE1" />
</radialGradient>
</defs>
</svg>
