<svg width="820" height="1219" viewBox="0 0 820 1219" fill="none" xmlns="http://www.w3.org/2000/svg">
<path d="M820 92C820 -68.1626 690.163 -198 530 -198C369.837 -198 240 -68.1626 240 92C240 252.163 369.837 382 530 382C690.163 382 820 252.163 820 92Z" fill="url(#paint0_linear)"/>
<path d="M148 923C148 882.131 114.869 849 74 849C33.1309 849 0 882.131 0 923C0 963.869 33.1309 997 74 997C114.869 997 148 963.869 148 923Z" fill="url(#paint1_radial)"/>
<path d="M520 1084C520 1009.44 459.558 949 385 949C310.442 949 250 1009.44 250 1084C250 1158.56 310.442 1219 385 1219C459.558 1219 520 1158.56 520 1084Z" fill="url(#paint2_radial)"/>
<defs>
<linearGradient id="paint0_linear" x1="240" y1="-198" x2="820" y2="382" gradientUnits="userSpaceOnUse">
<stop stop-color="#FF00AA"/>
<stop offset="0.502" stop-color="#9C42F5"/>
<stop offset="1" stop-color="#5D2DE1"/>
</linearGradient>
<radialGradient id="paint1_radial" cx="0" cy="0" r="1" gradientUnits="userSpaceOnUse" gradientTransform="translate(39.22 883.04) scale(112.332)">
<stop stop-color="#FF5E00"/>
<stop offset="0.541" stop-color="#F54562"/>
<stop offset="1" stop-color="#C32DE1"/>
</radialGradient>
<radialGradient id="paint2_radial" cx="0" cy="0" r="1" gradientUnits="userSpaceOnUse" gradientTransform="translate(329.65 1022.98) scale(198.18)">
<stop stop-color="#00BBFF"/>
<stop offset="0.53" stop-color="#9C42F5"/>
<stop offset="1" stop-color="#5D2DE1"/>
</radialGradient>
</defs>
</svg>
