<svg width="1499" height="867" viewBox="0 0 1499 867" fill="none" xmlns="http://www.w3.org/2000/svg">
<path d="M1499 148.5C1499 66.4857 1432.51 0 1350.5 0C1268.49 0 1202 66.4857 1202 148.5C1202 230.514 1268.49 297 1350.5 297C1432.51 297 1499 230.514 1499 148.5Z" fill="url(#paint0_radial)"/>
<path d="M160 216C160 171.817 124.183 136 80 136C35.8172 136 0 171.817 0 216C0 260.183 35.8172 296 80 296C124.183 296 160 260.183 160 216Z" fill="url(#paint1_radial)"/>
<path d="M762 729.5C762 653.561 700.439 592 624.5 592C548.561 592 487 653.561 487 729.5C487 805.439 548.561 867 624.5 867C700.439 867 762 805.439 762 729.5Z" fill="url(#paint2_radial)"/>
<defs>
<radialGradient id="paint0_radial" cx="0" cy="0" r="1" gradientUnits="userSpaceOnUse" gradientTransform="translate(1280.71 68.31) scale(225.423)">
<stop stop-color="#FF5E00"/>
<stop offset="0.541" stop-color="#F54562"/>
<stop offset="1" stop-color="#C32DE1"/>
</radialGradient>
<radialGradient id="paint1_radial" cx="0" cy="0" r="1" gradientUnits="userSpaceOnUse" gradientTransform="translate(42.4 172.8) scale(121.44)">
<stop stop-color="#FF5E00"/>
<stop offset="0.541" stop-color="#F54562"/>
<stop offset="1" stop-color="#C32DE1"/>
</radialGradient>
<radialGradient id="paint2_radial" cx="0" cy="0" r="1" gradientUnits="userSpaceOnUse" gradientTransform="translate(568.125 667.35) scale(201.85)">
<stop stop-color="#00BBFF"/>
<stop offset="0.53" stop-color="#9C42F5"/>
<stop offset="1" stop-color="#5D2DE1"/>
</radialGradient>
</defs>
</svg>
