<svg width="495" height="437" viewBox="0 0 495 437" fill="none" xmlns="http://www.w3.org/2000/svg">
<path d="M495 80C495 35.8172 459.183 0 415 0C370.817 0 335 35.8172 335 80C335 124.183 370.817 160 415 160C459.183 160 495 124.183 495 80Z" fill="url(#paint0_radial)"/>
<path d="M337 268.5C337 175.44 261.56 100 168.5 100C75.44 100 0 175.44 0 268.5C0 361.56 75.44 437 168.5 437C261.56 437 337 361.56 337 268.5Z" fill="url(#paint1_radial)"/>
<defs>
<radialGradient id="paint0_radial" cx="0" cy="0" r="1" gradientUnits="userSpaceOnUse" gradientTransform="translate(377.4 36.8) scale(121.44)">
<stop stop-color="#FF5E00"/>
<stop offset="0.541" stop-color="#F54562"/>
<stop offset="1" stop-color="#C32DE1"/>
</radialGradient>
<radialGradient id="paint1_radial" cx="0" cy="0" r="1" gradientUnits="userSpaceOnUse" gradientTransform="translate(99.415 192.338) scale(247.358)">
<stop stop-color="#00BBFF"/>
<stop offset="0.53" stop-color="#9C42F5"/>
<stop offset="1" stop-color="#5D2DE1"/>
</radialGradient>
</defs>
</svg>
