<svg width="1082" height="1074" viewBox="0 0 1082 1074" fill="none" xmlns="http://www.w3.org/2000/svg">
<path d="M1082 890.5C1082 789.156 999.844 707 898.5 707C797.156 707 715 789.156 715 890.5C715 991.844 797.156 1074 898.5 1074C999.844 1074 1082 991.844 1082 890.5Z" fill="url(#paint0_radial)"/>
<path d="M596 80C596 35.8172 560.183 0 516 0C471.817 0 436 35.8172 436 80C436 124.183 471.817 160 516 160C560.183 160 596 124.183 596 80Z" fill="url(#paint1_radial)"/>
<path d="M337 268.5C337 175.44 261.56 100 168.5 100C75.44 100 0 175.44 0 268.5C0 361.56 75.44 437 168.5 437C261.56 437 337 361.56 337 268.5Z" fill="url(#paint2_radial)"/>
<defs>
<radialGradient id="paint0_radial" cx="0" cy="0" r="1" gradientUnits="userSpaceOnUse" gradientTransform="translate(812.255 791.41) scale(278.553)">
<stop stop-color="#FF5E00"/>
<stop offset="0.541" stop-color="#F54562"/>
<stop offset="1" stop-color="#C32DE1"/>
</radialGradient>
<radialGradient id="paint1_radial" cx="0" cy="0" r="1" gradientUnits="userSpaceOnUse" gradientTransform="translate(478.4 36.8) scale(121.44)">
<stop stop-color="#FF5E00"/>
<stop offset="0.541" stop-color="#F54562"/>
<stop offset="1" stop-color="#C32DE1"/>
</radialGradient>
<radialGradient id="paint2_radial" cx="0" cy="0" r="1" gradientUnits="userSpaceOnUse" gradientTransform="translate(99.415 192.338) scale(247.358)">
<stop stop-color="#00BBFF"/>
<stop offset="0.53" stop-color="#9C42F5"/>
<stop offset="1" stop-color="#5D2DE1"/>
</radialGradient>
</defs>
</svg>
