<svg width="139" height="127" viewBox="0 0 139 127" fill="none" xmlns="http://www.w3.org/2000/svg">
<path fill-rule="evenodd" clip-rule="evenodd" d="M96.556 23.999C93.6994 24.0001 91.7808 24.0008 89.34 20.058L87.0196 16.2619C86.8397 16.7546 86.6313 17.2375 86.385 17.7108L91.007 25.2544C91.7742 26.5004 93.3655 28.9151 95.8091 30.8179C95.7607 30.8179 95.7126 30.8179 95.6648 30.8179C92.8087 30.819 90.8902 30.8197 88.4497 26.8868L84.4622 20.3864C84.1686 20.7148 83.8561 21.0336 83.5246 21.333L89.1411 30.4992C89.9178 31.7548 91.4996 34.1599 93.9433 36.0627C93.8883 36.0627 93.8338 36.0627 93.7795 36.0627C90.9341 36.0641 89.0188 36.0651 86.5838 32.1316L81.1093 23.1971C80.7494 23.429 80.3705 23.6511 80.0012 23.8636L86.6785 34.7685C87.4457 36.0242 89.037 38.4196 91.4807 40.332C91.4323 40.332 91.3842 40.3321 91.3363 40.3321C88.4802 40.3332 86.5616 40.3339 84.1117 36.401L77.2355 25.1677C76.8283 25.3319 76.4115 25.4768 75.9948 25.6216L83.7708 38.3133C84.5285 39.5497 86.1577 41.9837 88.5635 43.8768C88.5152 43.8768 88.4673 43.8768 88.4196 43.8769C85.5724 43.8779 83.645 43.8787 81.2137 39.9458L72.9261 26.4136C72.8834 26.4233 72.8407 26.4306 72.798 26.4378C72.7555 26.4451 72.7129 26.4523 72.6703 26.4619C72.443 27.196 72.282 27.8721 72.282 28.5579C72.282 32.8077 75.0192 36.5552 78.3059 39.4529C78.0975 39.5495 77.7281 39.5882 77.3872 39.5882C76.7147 39.5882 76.279 39.5496 75.9664 39.4916C76.6855 41.1395 78.1619 43.2454 79.0227 44.4733C79.0802 44.5554 79.135 44.6336 79.1867 44.7074C80.2664 44.5143 81.8292 44.3597 82.8521 44.3597C83.9224 44.3597 84.0455 44.9972 84.0455 45.5671C84.0455 46.562 83.5909 47.3443 83.0605 47.7886C82.8616 47.2767 82.4638 46.6006 80.4748 46.6006C80.4647 46.6006 80.4487 46.6018 80.4281 46.6033C80.3904 46.6062 80.3371 46.6102 80.2759 46.6102C80.393 46.7412 80.5586 46.9055 80.7487 47.0942C81.5125 47.8522 82.6722 49.003 82.6722 49.9619C82.6722 50.7636 81.8197 51.9516 80.6832 51.9516C80.7495 51.7005 80.7495 51.459 80.7495 51.2852C80.7495 50.3096 79.897 49.1698 79.1867 48.3778C79.1999 48.5396 79.1992 48.579 79.1977 48.68C79.197 48.7237 79.1961 48.779 79.1961 48.8608C79.1961 51.1693 78.9877 52.2221 77.5576 52.2221C76.8908 52.2221 76.4212 51.8724 76.2302 51.7303C76.2205 51.723 76.2114 51.7163 76.2031 51.7102C77.1313 50.841 77.1787 50.1552 77.1787 48.8609C77.1787 48.5229 77.1787 48.1945 77.1692 47.7405C77.1692 47.4508 77.1787 47.0548 77.2261 46.7747C76.7051 46.707 76.4968 46.707 76.1084 46.707C76.1084 46.707 74.072 46.5428 73.5795 47.6246C73.5552 47.6016 73.5305 47.5782 73.5053 47.5544C72.9606 47.0389 72.2251 46.3428 72.2251 45.5673C72.2251 45.0361 72.4713 44.4372 73.5227 44.4372C73.6695 44.4372 73.9395 44.4731 74.2753 44.5177C74.8279 44.5912 75.5587 44.6883 76.2126 44.6883C75.9285 44.0509 74.6783 42.1867 73.5985 40.8345C73.4375 41.356 73.1723 41.9259 72.604 42.3895C72.5283 41.5201 72.0263 38.7674 70.7002 37.1544C70.684 37.2644 70.6673 37.3746 70.6504 37.4862C70.4994 38.4825 70.3309 39.5942 70.3309 41.7135C70.3309 47.4315 71.6853 51.6526 74.5457 52.4639C74.1763 53.1207 73.3807 53.7195 72.5662 53.7195C71.5552 53.7195 70.9909 52.6031 70.4353 51.5039C70.4131 51.46 70.391 51.4162 70.3688 51.3724C70.0657 52.2128 69.2227 54.2702 68.3892 54.2702C67.5463 54.2702 66.7128 52.2128 66.4097 51.3724C66.3822 51.4258 66.3548 51.4792 66.3273 51.5327C65.7682 52.6225 65.2054 53.7195 64.2123 53.7195C63.3883 53.7195 62.6021 53.1207 62.2328 52.4639C65.0932 51.6524 66.4382 47.4315 66.4382 41.7135C66.4382 39.6442 66.2775 38.5355 66.1358 37.557C66.1161 37.421 66.0967 37.2876 66.0782 37.1544C64.7428 38.7676 64.2408 41.5202 64.165 42.3895C63.5967 41.9259 63.341 41.356 63.18 40.8345C62.0908 42.1868 60.8406 44.0509 60.5659 44.6883C61.2099 44.6883 61.9335 44.5924 62.4862 44.5191C62.8277 44.4739 63.1039 44.4372 63.2559 44.4372C64.3072 44.4372 64.5535 45.0361 64.5535 45.5673C64.5535 46.3428 63.8179 47.0389 63.2732 47.5544C63.248 47.5782 63.2233 47.6016 63.1991 47.6246C62.7064 46.5428 60.6701 46.707 60.6701 46.707C60.2723 46.707 60.0639 46.707 59.5524 46.7747C59.5998 47.0548 59.6092 47.4508 59.5998 47.7405V48.8609C59.5998 50.1551 59.6377 50.8409 60.5753 51.7102C60.567 51.7163 60.558 51.723 60.5482 51.7303C60.3573 51.8725 59.8877 52.2221 59.2209 52.2221C57.7907 52.2221 57.5824 51.1692 57.5824 48.8608C57.5824 48.779 57.5815 48.7238 57.5808 48.68C57.5792 48.5791 57.5786 48.5396 57.5918 48.3778C56.8815 49.1699 56.029 50.3096 56.029 51.2852C56.029 51.3038 56.0289 51.3232 56.0288 51.3432C56.0279 51.5108 56.0267 51.7274 56.0859 51.9516C54.9587 51.9516 54.1063 50.7636 54.1063 49.9619C54.1063 49.01 55.249 47.8689 56.0081 47.1109C56.2041 46.9152 56.3745 46.745 56.4931 46.6102C56.4351 46.6102 56.3878 46.6066 56.3511 46.6038C56.3279 46.602 56.3089 46.6006 56.2942 46.6006C54.3147 46.6006 53.9169 47.2767 53.718 47.7886C53.1876 47.3443 52.7329 46.5619 52.7329 45.5671C52.7329 44.9972 52.8561 44.3597 53.9263 44.3597C54.9493 44.3597 56.512 44.5143 57.5918 44.7074C57.6429 44.6344 57.697 44.5571 57.7539 44.4759C58.6144 43.2483 60.0918 41.1405 60.8026 39.4916C60.4995 39.5495 60.0638 39.5882 59.3818 39.5882C59.0409 39.5882 58.681 39.5495 58.4726 39.4529C61.7498 36.5555 64.4871 32.8079 64.4871 28.5579C64.4871 27.8721 64.3355 27.196 64.1082 26.4619C64.0655 26.4523 64.0228 26.445 63.9802 26.4377C63.9376 26.4305 63.895 26.4233 63.8525 26.4136L55.5648 39.9458C53.1239 43.8787 51.2054 43.8779 48.3494 43.8769C48.3016 43.8768 48.2536 43.8768 48.2054 43.8768C50.6207 41.9837 52.2498 39.5497 53.0075 38.3133L60.7835 25.6216C60.3573 25.4768 59.95 25.3319 59.5427 25.1677L52.6571 36.401C50.2162 40.3339 48.2977 40.3332 45.4416 40.3321C45.3939 40.3321 45.3459 40.332 45.2976 40.332C47.7413 38.4197 49.3231 36.0242 50.0997 34.7685L56.7771 23.8636C56.3983 23.6511 56.0289 23.429 55.669 23.1971L50.1945 32.1316C47.7591 36.0651 45.8438 36.0641 42.9985 36.0627C42.9443 36.0627 42.8898 36.0627 42.835 36.0627C45.2787 34.1599 46.8605 31.7548 47.6371 30.4992L53.2537 21.333C52.9222 21.0336 52.6097 20.7148 52.3066 20.3864L48.3286 26.8868C45.8877 30.8197 43.9692 30.819 41.1132 30.8179C41.0654 30.8179 41.0174 30.8179 40.9691 30.8179C43.4034 28.9152 44.9946 26.5004 45.7713 25.2544L50.3932 17.7108C50.147 17.2375 49.9291 16.7546 49.7586 16.2619L47.4381 20.058C44.9972 24.0008 43.0694 24 40.2129 23.9989C40.1653 23.9989 40.1174 23.9989 40.0692 23.9989C42.5035 22.0962 44.1136 19.6718 44.8713 18.4258L49.4082 11.0271C49.8534 8.73788 51.0089 6.61295 52.7422 5.01925C52.1644 4.79711 51.6719 4.55563 51.3783 4.33348C53.0851 4.33348 54.7825 3.82446 56.2228 3.39252C57.2843 3.07419 58.2061 2.79774 58.8893 2.79774C59.9312 2.79774 60.6036 3.42557 60.6036 4.26588C60.5374 5.19313 59.5902 6.14935 57.8569 6.14935C57.4591 6.14935 56.9571 6.09142 56.4078 6.00448C55.4606 7.33749 54.7029 8.54484 54.7029 10.2738C54.7029 13.5095 58.501 16.04 62.3368 16.04C62.5547 16.04 62.7631 16.0303 62.9714 16.011C63.6181 13.7965 64.8637 12.2271 66.0106 10.7821C66.2243 10.5128 66.4345 10.2479 66.6369 9.98393C65.0929 9.41401 63.3691 7.90724 63.3691 7.23112C63.3691 7.17316 63.3975 7.14423 63.4543 7.16352C65.1307 7.81066 65.5096 7.92656 66.8356 8.19702C66.9208 8.21635 66.9871 8.20666 67.0629 8.18737C67.4228 8.07148 67.7449 7.45331 67.7449 7.39535C67.7042 7.38925 67.6383 7.38069 67.5516 7.36942C66.952 7.2915 65.3588 7.08445 64.2499 6.67094C63.2838 6.31356 62.7913 5.65677 62.7913 5.41529C62.7913 5.37662 62.8387 5.35734 62.8576 5.35734C62.9252 5.35734 63.0626 5.40531 63.262 5.47494C63.7896 5.65912 64.7512 5.99481 66.0022 5.99481C66.5537 5.99481 66.7232 5.97356 67.159 5.91893C67.2322 5.90977 67.3128 5.89966 67.4039 5.88856C66.9588 4.80677 66.1158 3.88919 65.1781 3.88919C64.7993 3.88919 63.9658 4.13067 63.2744 4.47838C62.7913 3.71534 62.3651 2.71082 62.3651 2.16026C62.3651 1.51311 62.9997 0.750071 64.7803 0.750071C65.2728 0.750071 65.7369 0.798366 66.1631 0.875636C66.5136 0.943239 66.8072 1.02051 67.1103 1.15574C67.0913 1.10745 67.0724 1.01086 67.0724 0.923926C67.0724 0.672802 67.2997 0.402344 68.1332 0.402344C68.8205 0.402344 69.5162 0.511705 70.252 0.62737C71.0778 0.757187 71.9542 0.894944 72.9259 0.894944C73.3995 0.894944 73.731 0.87561 73.9961 0.759716C73.8825 1.13643 73.371 1.68696 72.8975 2.13128C72.9135 2.15421 72.9312 2.179 72.9501 2.20565C73.2659 2.65014 73.9488 3.61115 73.9488 5.09649C73.9488 6.36792 73.5391 7.52884 73.1283 8.69302C72.7151 9.8638 72.3008 11.0379 72.3008 12.331C72.3008 13.4314 72.9015 14.4414 73.3645 15.2198C73.5436 15.5209 73.7021 15.7874 73.7973 16.0111C74.0151 16.0304 74.2235 16.0401 74.4413 16.0401C78.2772 16.0401 82.0752 13.5095 82.0752 10.2738C82.0752 8.54467 81.3175 7.33742 80.3704 6.0045C79.821 6.09142 79.319 6.14938 78.9212 6.14938C77.188 6.14938 76.2408 5.19315 76.1745 4.2659C76.1745 3.42559 76.847 2.79776 77.8794 2.79776C78.5684 2.79776 79.4956 3.07567 80.5612 3.39504C82.0005 3.82645 83.6923 4.3335 85.3904 4.3335C85.0968 4.55565 84.6137 4.79713 84.036 5.01927C85.7692 6.6129 86.9248 8.73796 87.3699 11.0271L91.8974 18.4258C92.6645 19.6718 94.2748 22.0961 96.6995 23.9989C96.6514 23.9989 96.6036 23.999 96.556 23.999ZM54.9483 5.69503C54.2379 6.32284 52.23 8.55417 52.23 11.3745C52.23 16.3102 57.0983 20.8885 62.6298 20.9175C62.5729 20.3862 62.5445 19.8164 62.5445 19.2079C62.5445 18.8312 62.554 18.4545 62.5919 18.1068C57.6949 18.1068 53.376 14.5234 53.376 10.399C53.376 8.38548 54.6225 6.84426 55.3803 5.90717C55.4042 5.87771 55.4275 5.84885 55.4503 5.82059C55.3814 5.80406 55.3107 5.78575 55.2391 5.76719C55.1433 5.74239 55.0458 5.71713 54.9483 5.69503ZM59.6934 45.2773L59.7218 45.1807L59.7218 45.1806C60.1195 44.0313 61.1993 42.3602 62.9326 40.216C62.7716 39.6364 62.6295 39.2597 62.0802 39.2597C61.7866 39.2597 61.6445 39.308 61.474 39.3756C60.8083 41.2246 58.3848 44.5852 57.9341 45.2101C57.8975 45.261 57.8739 45.2937 57.8653 45.3061L57.8369 45.335L57.799 45.3254L57.7944 45.3247C57.1092 45.218 55.3804 44.9487 53.9251 44.9487H53.8872C53.7356 44.9487 53.5557 44.9487 53.442 45.0646C53.3473 45.1612 53.2999 45.3254 53.2999 45.5669C53.2999 45.9339 53.4515 46.5617 53.6315 46.8322C54.143 46.272 54.9765 46.0112 56.2931 46.0112C56.6894 46.0112 57.1608 46.1358 57.4172 46.2036L57.4202 46.2044L57.638 46.2623L56.8803 47.035L56.8802 47.0351C55.6963 48.2425 54.6829 49.2759 54.6829 49.9617C54.6829 50.377 55.0807 50.9179 55.4501 51.1594C55.5165 49.8941 56.7762 48.2038 57.9885 47.2573L58.0927 47.18L58.1211 47.6243C58.124 47.718 58.1286 47.8241 58.1336 47.9399C58.1452 48.2063 58.159 48.5241 58.159 48.8606C58.159 51.2753 58.3958 51.6424 59.2198 51.6424C59.3429 51.6424 59.5324 51.6037 59.6555 51.5554C59.1914 50.976 59.0114 50.2033 59.0114 48.8607L59.0209 48.2426V47.7403C59.0209 47.1897 58.9735 46.784 58.9262 46.4557L58.9073 46.2721L58.9736 46.2625L59.0304 46.2528C59.4093 46.1949 60.1291 46.0983 60.669 46.0983C61.834 46.0983 62.6296 46.2046 63.1979 46.7551C63.5768 46.446 63.9651 45.9051 63.9651 45.5671C63.9651 45.0648 63.6526 45.0262 63.2548 45.0262C63.0647 45.0262 62.8833 45.0526 62.6362 45.0887L62.6012 45.0938C62.5728 45.0976 62.5436 45.1016 62.5134 45.1057C62.0108 45.1742 61.2535 45.2773 59.7881 45.2773H59.6934ZM75.293 39.3757C75.1225 39.3081 74.9899 39.2598 74.6963 39.2598V39.26C74.147 39.26 73.9954 39.6366 73.8439 40.2162C75.5771 42.3605 76.6569 44.0314 77.0452 45.1808L77.0831 45.2774H76.9884C75.5206 45.2774 74.7713 45.1751 74.2697 45.1067C74.2373 45.1023 74.2058 45.098 74.1753 45.0939L74.1406 45.0888C73.8933 45.0527 73.7118 45.0263 73.5217 45.0263C73.1145 45.0263 72.8114 45.0649 72.8114 45.5672C72.8114 45.9052 73.1997 46.4461 73.5786 46.7552C74.1469 46.2046 74.9425 46.0984 76.1075 46.0984C76.6474 46.0984 77.3578 46.195 77.7461 46.2529L77.8692 46.2722L77.8503 46.4557C77.803 46.7841 77.7461 47.1898 77.7461 47.7404L77.7556 48.2426L77.765 48.8608C77.765 50.2033 77.5756 50.976 77.121 51.5555C77.2347 51.6038 77.4336 51.6424 77.5567 51.6424C78.3712 51.6424 78.6175 51.2754 78.6175 48.8607C78.6175 48.3777 78.6365 47.9334 78.6554 47.6243L78.6743 47.18L78.7785 47.2573C80.0003 48.2038 81.2506 49.8941 81.3264 51.1594C81.6958 50.9179 82.0936 50.377 82.0936 49.9617C82.0936 49.2931 81.1214 48.2941 79.9843 47.1256L79.8962 47.0351L79.129 46.2623L79.2521 46.2237L79.3563 46.2044L79.376 46.1992C79.6353 46.1306 80.0861 46.0112 80.4739 46.0112C81.8001 46.0112 82.6241 46.272 83.1355 46.8322C83.325 46.5618 83.4765 45.934 83.4765 45.5669C83.4765 45.3255 83.4291 45.1612 83.3344 45.0647C83.2208 44.9488 83.0408 44.9488 82.8798 44.9488H82.8514C81.3927 44.9488 79.6499 45.2192 78.9774 45.3254L78.9301 45.3351L78.9111 45.3061C78.788 45.1419 76.0128 41.375 75.293 39.3757ZM67.2613 4.32342C67.7254 4.89323 68.0947 5.63689 68.2747 6.37092C68.5114 5.83006 68.7671 5.20231 68.7671 4.52625C68.7671 2.59448 67.2801 1.43542 64.7797 1.43542C63.6431 1.43542 63.0464 1.80246 63.0464 2.15984C63.0464 2.50757 63.3779 3.28992 63.5579 3.60867C64.0125 3.40584 64.7418 3.203 65.1775 3.203C66.1247 3.203 66.8351 3.8115 67.2613 4.32342ZM68.7861 2.3917C69.0987 2.81667 69.307 3.30928 69.3923 3.85984C70.7562 4.13028 71.6844 2.36272 70.3868 2.04397C70.5667 2.63315 69.6954 3.03882 69.6954 3.03882C69.6954 3.03882 69.3638 2.25647 69.7995 1.81216C69.0039 1.41616 68.805 1.89909 68.7861 2.3917ZM74.3648 19.2076C74.3648 19.7968 74.3269 20.3667 74.2606 20.9173C79.7445 20.8205 84.5467 16.2713 84.5467 11.3742C84.5467 8.55367 82.5387 6.32261 81.8283 5.69478C81.7429 5.71412 81.6575 5.73589 81.5722 5.75766C81.4871 5.77936 81.402 5.80105 81.3169 5.82034L81.3673 5.88207C82.1319 6.81666 83.4006 8.36747 83.4006 10.3987C83.4006 14.4845 79.1574 18.0293 74.3269 18.0969C74.3648 18.5218 74.3648 18.8887 74.3648 19.2074V19.2076ZM7.35227 70.8C7.35227 71.2857 7.29239 71.7115 7.17263 72.0774C7.05288 72.4367 6.88653 72.7494 6.67362 73.0155C6.46737 73.2817 6.22121 73.4946 5.94842 73.6543C5.66898 73.8139 5.38288 73.9404 5.08348 74.0202V74.0601C5.44941 74.1266 5.78874 74.2531 6.1081 74.446C6.42746 74.6323 6.70024 74.8718 6.93975 75.1512C7.17262 75.4373 7.36557 75.77 7.50529 76.1559C7.65167 76.5418 7.71819 76.9676 7.71819 77.4267C7.71819 77.9789 7.62505 78.4846 7.43877 78.9436C7.24582 79.4027 6.95306 79.8019 6.55387 80.1412C6.15468 80.4805 5.64902 80.74 5.04356 80.933C4.43145 81.1192 3.71288 81.2191 2.87462 81.2191H0.0136719V67.2271H2.71487C3.53989 67.2271 4.24514 67.3136 4.83066 67.48C5.41615 67.653 5.90184 67.8925 6.28107 68.2052C6.66032 68.5113 6.93309 68.8905 7.09943 69.3296C7.26577 69.7687 7.35227 70.2544 7.35227 70.8ZM5.56913 70.8599C5.56913 70.2079 5.34292 69.6756 4.88384 69.2564C4.4181 68.8373 3.69955 68.631 2.71492 68.631H1.7768V73.4546H2.69496C3.63974 73.4546 4.35164 73.2218 4.83731 72.7627C5.32965 72.3036 5.56913 71.6716 5.56913 70.8599ZM5.83531 77.3002C5.83531 76.5483 5.58915 75.9495 5.0968 75.5104C4.60446 75.0713 3.89255 74.8517 2.97437 74.8517H1.77678V79.7552H2.87458C3.91252 79.7552 4.671 79.549 5.13667 79.1364C5.60234 78.7239 5.83531 78.1118 5.83531 77.3002ZM16.7002 81.219H15.1965V80.1212H15.1566C15.1167 80.201 15.0302 80.3208 14.8971 80.4738C14.7574 80.6269 14.5844 80.7799 14.3782 80.9196C14.1653 81.0593 13.9125 81.1857 13.6197 81.2989C13.3203 81.4053 12.9876 81.4585 12.6217 81.4585C12.1892 81.4585 11.8033 81.392 11.4574 81.2656C11.1114 81.1392 10.8187 80.9329 10.5791 80.6468C10.333 80.3674 10.1467 79.9948 10.0203 79.5424C9.88719 79.09 9.82731 78.5311 9.82731 77.8724V71.4852H11.4707V77.7526C11.4707 78.5577 11.5971 79.1365 11.8632 79.4825C12.1294 79.8284 12.5352 80.0014 13.0874 80.0014C13.5598 80.0014 13.959 79.8817 14.285 79.6422C14.6111 79.4093 14.8639 79.1764 15.0568 78.9436V71.4852H16.7002V81.219ZM24.5178 81.2189V74.9515C24.5178 74.1264 24.3847 73.5343 24.1053 73.175C23.8325 72.8223 23.4067 72.6427 22.8411 72.6427C22.3554 72.6427 21.9496 72.7624 21.6236 73.0086C21.2976 73.2481 21.0381 73.4877 20.8518 73.7139V81.2188H19.2151V71.485H20.7121V72.5828H20.752C20.7919 72.503 20.8784 72.3832 21.0181 72.2235C21.1512 72.0705 21.3242 71.9241 21.5438 71.7777C21.7567 71.638 22.0161 71.5116 22.3089 71.4051C22.6083 71.2987 22.9476 71.2455 23.3269 71.2455C23.7593 71.2455 24.1519 71.3053 24.4978 71.4384C24.8505 71.5648 25.1499 71.7711 25.396 72.0505C25.6356 72.3366 25.8285 72.7092 25.9616 73.155C26.0946 73.6074 26.1612 74.1663 26.1612 74.8316V81.2188L24.5178 81.2189ZM28.1705 76.495C28.1705 75.5037 28.2969 74.6787 28.5564 74.02C28.8092 73.3547 29.1419 72.8224 29.5477 72.4166C29.9536 72.0107 30.4127 71.7246 30.925 71.5583C31.4373 71.3853 31.9563 71.3054 32.4686 71.3054C32.7813 71.3054 33.0474 71.3254 33.2803 71.372C33.5065 71.4252 33.6994 71.4784 33.8458 71.545V66.8876L35.4892 66.7013V81.2188H33.9855V80.1809H33.9456C33.9057 80.2607 33.8325 80.3738 33.726 80.5135C33.6129 80.6599 33.4665 80.7996 33.2802 80.9394C33.0873 81.0857 32.8544 81.2055 32.5683 81.3053C32.2822 81.4051 31.9562 81.4583 31.577 81.4583C31.1179 81.4583 30.6788 81.3652 30.2663 81.1855C29.8538 81.0059 29.4945 80.7131 29.1818 80.3139C28.8757 79.9147 28.6229 79.4024 28.4433 78.7703C28.2636 78.1449 28.1705 77.3865 28.1705 76.495ZM32.0227 80.0013C32.2756 80.0013 32.5084 79.968 32.708 79.8948C32.9143 79.8283 33.0873 79.7485 33.2336 79.642C33.3867 79.5422 33.5131 79.4358 33.6129 79.3293C33.7127 79.2228 33.7925 79.1297 33.8457 79.0432V73.0486C33.6994 72.9488 33.5264 72.8689 33.3268 72.8024C33.1338 72.7359 32.8877 72.7026 32.5883 72.7026C32.209 72.7026 31.8564 72.7625 31.5237 72.8956C31.1911 73.022 30.905 73.2349 30.6654 73.5343C30.4193 73.827 30.2263 74.2129 30.0866 74.692C29.9469 75.1644 29.8737 75.7432 29.8737 76.4285C29.8737 77.1071 29.9336 77.6726 30.0467 78.125C30.1598 78.5775 30.3195 78.9434 30.5191 79.2162C30.7253 79.4956 30.9515 79.6952 31.211 79.815C31.4638 79.9414 31.7366 80.0013 32.0227 80.0013ZM44.245 74.7718C44.245 75.1909 44.2313 75.5502 44.2051 75.8563C44.1719 76.1557 44.1451 76.4218 44.1252 76.6547H39.1551C39.2082 77.7991 39.4545 78.6441 39.8936 79.1896C40.3327 79.7286 40.9648 80.0013 41.7899 80.0013C42.076 80.0013 42.3288 79.9681 42.5617 79.8949C42.7879 79.8284 42.9875 79.7485 43.1605 79.6554C43.3269 79.5622 43.4665 79.4624 43.5863 79.3693C43.6994 79.2761 43.7859 79.2029 43.8391 79.1497L44.4445 80.3007C44.3879 80.363 44.3072 80.4397 44.1984 80.5432L44.1385 80.6001C44.0055 80.7265 43.8258 80.853 43.5929 80.9794C43.3667 81.1124 43.0806 81.2255 42.7413 81.3187C42.402 81.4118 42.0094 81.4584 41.5437 81.4584C40.9382 81.4584 40.386 81.3586 39.8937 81.1523C39.4013 80.9527 38.9822 80.6334 38.6362 80.2076C38.2902 79.7884 38.0307 79.2428 37.8378 78.5908C37.6448 77.9321 37.5517 77.147 37.5517 76.2289C37.5517 75.364 37.6515 74.6188 37.8511 73.9867C38.044 73.3613 38.3102 72.8423 38.6495 72.4365C38.9888 72.0306 39.3813 71.7312 39.8271 71.5383C40.2729 71.3387 40.7519 71.2455 41.2642 71.2455C42.1957 71.2455 42.9276 71.5383 43.4533 72.1238C43.9789 72.7093 44.245 73.5941 44.245 74.7718ZM41.1645 72.5828C40.579 72.5828 40.1133 72.8223 39.7606 73.308C39.4147 73.7937 39.2084 74.499 39.1552 75.4172H42.7014C42.715 75.3506 42.7279 75.2508 42.7346 75.1244C42.7414 74.9981 42.7414 74.8584 42.7414 74.7122V74.7119C42.7414 74.0333 42.6084 73.5077 42.3355 73.1351C42.0694 72.7625 41.6768 72.5828 41.1645 72.5828ZM50.6256 73.4544C50.5192 73.328 50.3262 73.1617 50.0401 72.9554C49.754 72.7425 49.3881 72.6427 48.9224 72.6427C48.4899 72.6427 48.1639 72.7425 47.931 72.9421C47.7048 73.1484 47.585 73.3879 47.585 73.674C47.585 74.0399 47.6915 74.3393 47.9044 74.5788C48.1107 74.8117 48.43 75.0646 48.8625 75.3373L49.4746 75.7033C50.1333 76.0958 50.6522 76.515 51.0315 76.9674C51.4107 77.4198 51.6037 78.0053 51.6037 78.7238C51.6037 79.4889 51.3309 80.141 50.7986 80.6665C50.2663 81.1921 49.5012 81.4583 48.4965 81.4583C48.1106 81.4583 47.7646 81.4183 47.4652 81.3385C47.1658 81.252 46.9063 81.1589 46.6868 81.0524C46.4606 80.946 46.2743 80.8262 46.1279 80.6998L46.1014 80.6757L46.1012 80.6755C45.9662 80.5528 45.8494 80.4467 45.762 80.3405L46.5537 79.0431C46.629 79.1246 46.7219 79.212 46.827 79.3109L46.8465 79.3292C46.9662 79.4357 47.0993 79.5421 47.2656 79.6419C47.4252 79.7484 47.6049 79.8282 47.8112 79.8947C48.0108 79.9679 48.2503 80.0012 48.5165 80.0012C49.0022 80.0012 49.3814 79.8881 49.6342 79.6752C49.8937 79.4556 50.0201 79.1961 50.0201 78.8834C50.0201 78.6506 49.9869 78.4576 49.9269 78.2846C49.867 78.1183 49.774 77.9653 49.6541 77.8322C49.5344 77.6925 49.388 77.5661 49.2084 77.4463C49.0354 77.3266 48.8291 77.1868 48.6029 77.0405L47.9908 76.6546C47.3854 76.262 46.9063 75.8495 46.567 75.4171C46.221 74.9846 46.048 74.4324 46.048 73.7537C46.048 73.3878 46.1213 73.0551 46.261 72.7491C46.4006 72.4497 46.6003 72.1835 46.8598 71.964C47.1126 71.7378 47.412 71.5648 47.7579 71.4384C48.1039 71.3053 48.4699 71.2454 48.8624 71.2454C49.2417 71.2454 49.5676 71.2787 49.8338 71.3519C50.1066 71.4317 50.3395 71.5249 50.5391 71.638C50.732 71.7511 50.8917 71.8708 51.0247 71.9839C51.1511 72.0971 51.2576 72.1968 51.3375 72.2767L50.6256 73.4544ZM58.6363 81.2188V74.9513C58.6363 74.1529 58.5165 73.5807 58.2903 73.2281C58.0574 72.8755 57.6915 72.7025 57.1725 72.7025C56.9064 72.7025 56.6669 72.7358 56.454 72.8023C56.2477 72.8688 56.0614 72.9553 55.8951 73.0552C55.7355 73.1549 55.5957 73.2681 55.4693 73.3878C55.3495 73.5142 55.2497 73.6207 55.1699 73.7138V81.2187H53.5265V71.485H55.0235V72.5827H55.07C55.1366 72.4696 55.2364 72.3366 55.3694 72.1835C55.5024 72.0305 55.6754 71.8841 55.8751 71.7378C56.0813 71.598 56.3142 71.4783 56.587 71.3851C56.8597 71.292 57.1591 71.2454 57.4985 71.2454C58.6096 71.2454 59.3881 71.6779 59.8471 72.5362C59.9403 72.4031 60.0733 72.2567 60.233 72.1037C60.3994 71.9507 60.5856 71.8043 60.8052 71.6779C61.0181 71.5515 61.2643 71.445 61.5304 71.3652C61.8032 71.2853 62.1026 71.2454 62.4219 71.2454C64.398 71.2454 65.3827 72.3898 65.3827 74.6918V81.2187H63.7393V74.9512C63.7393 74.1528 63.5997 73.5806 63.3135 73.228C63.0341 72.8754 62.6149 72.7024 62.056 72.7024C61.5969 72.7024 61.2177 72.8155 60.9116 73.0351C60.6122 73.2613 60.3661 73.4742 60.1931 73.6738C60.2197 73.8202 60.2396 73.9798 60.253 74.1528C60.2667 74.3192 60.273 74.4988 60.273 74.6918V81.2186L58.6363 81.2188ZM69.4745 81.2186H67.8378V71.4849H69.4745V81.2186ZM68.6628 69.1361C68.3301 69.1361 68.0573 69.0296 67.8577 68.8101C67.6515 68.5972 67.5517 68.3111 67.5517 67.9584C67.5517 67.6191 67.6515 67.3463 67.8577 67.1268C68.0573 66.9139 68.3301 66.8007 68.6628 66.8007C68.9888 66.8007 69.2549 66.9139 69.4612 67.1268C69.6608 67.3463 69.7606 67.6191 69.7606 67.9584C69.7606 68.3111 69.6608 68.5972 69.4612 68.8101C69.2549 69.0296 68.9888 69.1361 68.6628 69.1361ZM77.2988 81.2186V74.9512C77.2988 74.1261 77.1658 73.534 76.8863 73.1747C76.6068 72.822 76.1877 72.6424 75.6155 72.6424C75.1298 72.6424 74.7306 72.7622 74.4046 73.0083C74.0786 73.2478 73.8191 73.4874 73.6328 73.7136V81.2185H71.9894V71.4847H73.4931V72.5825H73.5329C73.5728 72.5027 73.6593 72.3829 73.7924 72.2232C73.9321 72.0702 74.1051 71.9238 74.3247 71.7774C74.5376 71.6377 74.7971 71.5113 75.0898 71.4048C75.3892 71.2984 75.7285 71.2452 76.1078 71.2452C76.5402 71.2452 76.9328 71.3051 77.2788 71.4381C77.6314 71.5645 77.9308 71.7708 78.1703 72.0502C78.4165 72.3363 78.6028 72.7089 78.7425 73.1547C78.8755 73.6071 78.9421 74.166 78.9421 74.8313V81.2186L77.2988 81.2186ZM83.0405 81.2186H81.3971V71.4848H83.0405V81.2186ZM82.2288 69.136C81.8895 69.136 81.6167 69.0295 81.4171 68.81C81.2108 68.5971 81.111 68.311 81.111 67.9583C81.111 67.619 81.2108 67.3462 81.4171 67.1267C81.6167 66.9138 81.8895 66.8007 82.2288 66.8007C82.5481 66.8007 82.8143 66.9138 83.0205 67.1267C83.2201 67.3462 83.3199 67.619 83.3199 67.9583C83.3199 68.311 83.2201 68.5971 83.0205 68.81C82.8143 69.0295 82.5481 69.136 82.2288 69.136ZM89.7471 73.4541C89.6406 73.3277 89.441 73.1613 89.1549 72.9551C88.8755 72.7422 88.5029 72.6424 88.0438 72.6424C87.6114 72.6424 87.2787 72.7422 87.0525 72.9418C86.8196 73.148 86.7065 73.3876 86.7065 73.6737C86.7065 74.0396 86.813 74.339 87.0192 74.5785C87.2321 74.8114 87.5515 75.0642 87.9839 75.337L88.5894 75.7029C89.2547 76.0955 89.7737 76.5146 90.153 76.967C90.5322 77.4195 90.7185 78.005 90.7185 78.7234C90.7185 79.4886 90.4524 80.1406 89.9201 80.6662C89.3812 81.1918 88.616 81.4579 87.618 81.4579C87.2254 81.4579 86.8794 81.418 86.5867 81.3382C86.2873 81.2517 86.0278 81.1585 85.8016 81.0521C85.582 80.9456 85.3957 80.8259 85.2494 80.6994C85.0964 80.5664 84.9766 80.4533 84.8834 80.3402L85.6752 79.0428C85.7504 79.1243 85.8434 79.2117 85.9485 79.3105L85.9679 79.3289C86.081 79.4353 86.2207 79.5418 86.3804 79.6416C86.54 79.748 86.7264 79.8279 86.926 79.8944C87.1323 79.9676 87.3651 80.0008 87.6379 80.0008C88.1236 80.0008 88.4962 79.8877 88.749 79.6748C89.0085 79.4553 89.1349 79.1958 89.1349 78.8831C89.1349 78.6502 89.1084 78.4573 89.0484 78.2843C88.9884 78.1179 88.8954 77.9649 88.7756 77.8319C88.6492 77.6921 88.5028 77.5657 88.3232 77.446L88.279 77.4154L88.2787 77.4152C88.1162 77.3025 87.9309 77.1741 87.7177 77.0401L87.1123 76.6542C86.5002 76.2617 86.0278 75.8492 85.6818 75.4167C85.3358 74.9842 85.1628 74.432 85.1628 73.7534C85.1628 73.3875 85.2361 73.0548 85.3758 72.7487C85.5221 72.4493 85.7217 72.1832 85.9745 71.9636C86.234 71.7374 86.5334 71.5644 86.8794 71.438C87.2254 71.305 87.5913 71.2451 87.9839 71.2451C88.3631 71.2451 88.6825 71.2783 88.9552 71.3515C89.228 71.4314 89.4609 71.5245 89.6539 71.6376C89.8535 71.7507 90.0131 71.8705 90.1395 71.9836C90.2726 72.0967 90.3724 72.1965 90.4523 72.2764L89.7471 73.4541ZM96.7996 72.8219H94.6705V78.2112C94.6705 78.9031 94.7571 79.3755 94.9367 79.6217C95.1097 79.8745 95.409 80.0009 95.8282 80.0009C96.0677 80.0009 96.2806 79.9677 96.4536 79.8945C96.6266 79.828 96.7597 79.7681 96.8395 79.7149L97.0591 81.0322C96.9991 81.0854 96.8329 81.1719 96.58 81.285C96.3206 81.3982 95.9746 81.458 95.5421 81.458C94.7038 81.458 94.0784 81.2252 93.6592 80.7594C93.24 80.2937 93.0271 79.5219 93.0271 78.4374V72.8219H91.8561V71.7308L93.0271 71.4846L93.2134 68.7699H94.6705V71.4846H97.0058L96.7996 72.8219ZM104.764 74.7714C104.764 75.1905 104.75 75.5498 104.724 75.8559C104.697 76.1553 104.671 76.4214 104.644 76.6543H99.6738C99.7338 77.7987 99.9799 78.6437 100.419 79.1892C100.858 79.7281 101.49 80.0009 102.309 80.0009C102.595 80.0009 102.854 79.9677 103.08 79.8945C103.313 79.8279 103.513 79.7481 103.679 79.6549C103.852 79.5618 103.992 79.462 104.105 79.3689C104.218 79.2757 104.305 79.2025 104.358 79.1493L104.97 80.3003C104.933 80.3407 104.884 80.3871 104.826 80.443C104.778 80.4884 104.724 80.54 104.664 80.5997C104.531 80.7261 104.344 80.8525 104.118 80.979C103.885 81.112 103.606 81.2251 103.267 81.3183C102.927 81.4114 102.528 81.458 102.069 81.458C101.464 81.458 100.911 81.3582 100.419 81.1519C99.9267 80.9523 99.5075 80.633 99.1615 80.2072C98.8156 79.788 98.5494 79.2424 98.3631 78.5904C98.1702 77.9317 98.077 77.1466 98.077 76.2285C98.077 75.3636 98.1768 74.6184 98.3698 73.9863C98.5694 73.3609 98.8355 72.8419 99.1682 72.4361C99.5075 72.0302 99.9 71.7308 100.346 71.5379C100.792 71.3383 101.271 71.2451 101.783 71.2451C102.714 71.2451 103.446 71.5379 103.972 72.1234C104.504 72.7089 104.764 73.5937 104.764 74.7714ZM101.683 72.5824C101.104 72.5824 100.639 72.8219 100.286 73.3076C99.9334 73.7933 99.7338 74.4986 99.6739 75.4168H103.227C103.24 75.3502 103.247 75.2504 103.253 75.124C103.26 74.9976 103.267 74.8579 103.267 74.7115C103.267 74.0329 103.127 73.5072 102.861 73.1347C102.588 72.7621 102.196 72.5824 101.683 72.5824ZM111.231 72.9218C111.191 72.8951 111.105 72.8619 110.965 72.822C110.832 72.782 110.652 72.7621 110.419 72.7621C109.907 72.7621 109.508 72.9018 109.215 73.1746C108.922 73.454 108.716 73.7534 108.596 74.0794V81.2185H106.953V71.4847H108.457V72.8021H108.496C108.563 72.6158 108.649 72.4295 108.756 72.2432C108.869 72.0635 109.002 71.8972 109.162 71.7575C109.328 71.6178 109.521 71.5047 109.741 71.4248C109.967 71.345 110.233 71.3051 110.539 71.3051C110.772 71.3051 110.958 71.325 111.098 71.365C111.238 71.4049 111.351 71.4381 111.431 71.4648L111.231 72.9218ZM114.491 81.2186H112.854V71.4848H114.491V81.2186ZM113.686 69.1361C113.347 69.1361 113.074 69.0296 112.874 68.81C112.668 68.5971 112.568 68.311 112.568 67.9584C112.568 67.6191 112.668 67.3463 112.874 67.1267C113.074 66.9138 113.347 66.8007 113.686 66.8007C114.005 66.8007 114.272 66.9138 114.471 67.1267C114.677 67.3463 114.777 67.6191 114.777 67.9584C114.777 68.311 114.677 68.5971 114.471 68.81C114.272 69.0296 114.005 69.1361 113.686 69.1361ZM123.819 81.2186H122.315V80.1208H122.275C122.236 80.2007 122.149 80.3204 122.016 80.4734C121.876 80.6265 121.71 80.7795 121.497 80.9192C121.291 81.0589 121.031 81.1854 120.738 81.2985C120.439 81.4049 120.106 81.4581 119.74 81.4581C119.315 81.4581 118.922 81.3916 118.576 81.2652C118.237 81.1388 117.937 80.9325 117.698 80.6464C117.452 80.367 117.265 79.9944 117.139 79.542C117.013 79.0896 116.946 78.5307 116.946 77.872V71.4848H118.589V77.7523C118.589 78.5573 118.722 79.1361 118.982 79.4821C119.248 79.828 119.654 80.001 120.213 80.001C120.685 80.001 121.084 79.8813 121.404 79.6418C121.73 79.4089 121.989 79.176 122.176 78.9432V71.4848H123.819L123.819 81.2186ZM131.437 81.2185V74.9511C131.437 74.1527 131.324 73.5805 131.091 73.2279C130.865 72.8753 130.492 72.7023 129.98 72.7023C129.707 72.7023 129.468 72.7355 129.261 72.8021C129.049 72.8686 128.862 72.9551 128.703 73.0549C128.543 73.1547 128.397 73.2678 128.277 73.3876C128.241 73.4255 128.206 73.4616 128.173 73.4961C128.096 73.5766 128.027 73.6484 127.971 73.7136V81.2185H126.334V71.4847H127.831V72.5825H127.871C127.937 72.4694 128.044 72.3363 128.177 72.1833C128.31 72.0303 128.476 71.8839 128.683 71.7375C128.882 71.5978 129.122 71.478 129.394 71.3849C129.661 71.2917 129.967 71.2452 130.306 71.2452C131.41 71.2452 132.196 71.6776 132.655 72.5359C132.748 72.4028 132.881 72.2565 133.04 72.1034C133.2 71.9504 133.393 71.804 133.606 71.6776C133.826 71.5512 134.065 71.4448 134.338 71.3649C134.611 71.2851 134.903 71.2452 135.229 71.2452C137.199 71.2452 138.19 72.3895 138.19 74.6915V81.2184H136.547V74.9509C136.547 74.1525 136.407 73.5803 136.121 73.2278C135.835 72.8751 135.416 72.7021 134.864 72.7021C134.404 72.7021 134.025 72.8153 133.719 73.0348C133.413 73.261 133.174 73.4739 133.001 73.6735C133.027 73.8199 133.047 73.9796 133.061 74.1526C133.074 74.3189 133.08 74.4985 133.08 74.6915V81.2184L131.437 81.2185ZM31.8338 93.2608H33.8232L34.0295 91.9235H31.8338V90.1803C31.8338 89.535 31.9403 89.0892 32.1399 88.843C32.3461 88.6035 32.6389 88.4771 33.0314 88.4771C33.251 88.4771 33.4306 88.5103 33.577 88.5702C33.73 88.6301 33.8431 88.69 33.923 88.7432L34.2689 87.3859C34.1891 87.3327 34.0294 87.2595 33.7832 87.1597C33.5371 87.0666 33.2443 87.02 32.8917 87.02C32.5257 87.02 32.1798 87.0732 31.8538 87.1797C31.5344 87.2861 31.2483 87.4658 31.0088 87.7053C30.7626 87.9515 30.5697 88.2642 30.4166 88.6434C30.2703 89.0227 30.1971 89.4751 30.1971 90.0007V91.9434L29.0194 92.1696V93.2608H30.1971V101.657H31.8338V93.2608ZM40.7559 101.657H42.253L42.2529 91.9234H40.6162V99.3818C40.4233 99.6146 40.1638 99.8475 39.8444 100.08C39.5184 100.32 39.1192 100.44 38.6468 100.44C38.0946 100.44 37.6821 100.267 37.4226 99.9207C37.1565 99.5748 37.0234 98.9959 37.0234 98.1909V91.9234H35.3867V98.3106C35.3867 98.9693 35.4465 99.5282 35.5796 99.9806C35.706 100.433 35.8923 100.806 36.1318 101.085C36.378 101.371 36.6708 101.577 37.0167 101.704C37.3627 101.83 37.7486 101.897 38.1811 101.897C38.547 101.897 38.8797 101.844 39.1724 101.737C39.4718 101.624 39.7247 101.498 39.9376 101.358C40.1438 101.218 40.3168 101.065 40.4499 100.912C40.5829 100.759 40.6761 100.639 40.716 100.559H40.7559V101.657ZM37.9349 89.8808C38.1278 89.6879 38.221 89.4351 38.221 89.129C38.221 88.8163 38.1278 88.5635 37.9349 88.3772C37.7486 88.1909 37.5157 88.0911 37.2496 88.0911C36.9768 88.0911 36.7506 88.1909 36.5576 88.3772C36.3714 88.5635 36.2782 88.8163 36.2782 89.129C36.2782 89.4351 36.3714 89.6879 36.5576 89.8808C36.7506 90.0671 36.9768 90.1603 37.2496 90.1603C37.5157 90.1603 37.7486 90.0671 37.9349 89.8808ZM41.0619 89.8808C41.2482 89.6879 41.3414 89.4351 41.3414 89.129C41.3414 88.8163 41.2482 88.5635 41.0619 88.3772C40.869 88.1909 40.6428 88.0911 40.37 88.0911C40.0972 88.0911 39.871 88.1909 39.678 88.3772C39.4917 88.5635 39.3986 88.8163 39.3986 89.129C39.3986 89.4351 39.4917 89.6879 39.678 89.8808C39.871 90.0671 40.0972 90.1603 40.37 90.1603C40.6428 90.1603 40.869 90.0671 41.0619 89.8808ZM48.7797 93.2608C48.9194 93.3007 49.0059 93.334 49.0459 93.3606L49.2454 91.9036C49.1656 91.877 49.0592 91.8437 48.9128 91.8038C48.7731 91.7639 48.5868 91.7439 48.3539 91.7439C48.0412 91.7439 47.7817 91.7838 47.5555 91.8636C47.3293 91.9435 47.143 92.0566 46.9767 92.1963C46.817 92.336 46.6773 92.5024 46.5708 92.682C46.4644 92.8683 46.3779 93.0546 46.3113 93.2409H46.2648V91.9235H44.7678V101.657H46.4111V94.5183C46.5309 94.1922 46.7371 93.8928 47.0299 93.6134C47.316 93.3406 47.7218 93.2009 48.2342 93.2009C48.467 93.2009 48.6467 93.2209 48.7797 93.2608ZM62 92.5157C62.1197 92.1498 62.1796 91.724 62.1796 91.2383C62.1796 90.6927 62.0931 90.207 61.9268 89.7679C61.7538 89.3288 61.481 88.9495 61.1018 88.6435C60.7292 88.3308 60.2435 88.0912 59.658 87.9183C59.0658 87.7519 58.3606 87.6654 57.5356 87.6654H54.841V101.657H57.702C58.5402 101.657 59.2588 101.558 59.8709 101.371C60.4764 101.178 60.982 100.919 61.3812 100.579C61.7804 100.24 62.0731 99.841 62.2594 99.3819C62.4524 98.9228 62.5456 98.4172 62.5456 97.865C62.5456 97.4059 62.4724 96.9801 62.3326 96.5942C62.1929 96.2083 62 95.8756 61.7671 95.5895C61.5276 95.3101 61.2481 95.0706 60.9354 94.8843C60.6161 94.6913 60.2768 94.5649 59.9108 94.4984V94.4585C60.2036 94.3786 60.4963 94.2522 60.7691 94.0925C61.0486 93.9329 61.2881 93.7199 61.501 93.4538C61.7072 93.1877 61.8736 92.875 62 92.5157ZM59.7045 89.6947C60.1636 90.1139 60.3965 90.6461 60.3965 91.2982C60.3965 92.1099 60.1504 92.7419 59.6647 93.201C59.179 93.66 58.4605 93.8929 57.5157 93.8929H56.6042V89.0693H57.5356C58.5269 89.0693 59.2455 89.2755 59.7045 89.6947ZM59.9175 95.9486C60.4098 96.3878 60.656 96.9866 60.656 97.7384C60.656 98.5501 60.4231 99.1622 59.9574 99.5747C59.4917 99.9872 58.7399 100.193 57.7019 100.193H56.6041V95.29H57.8017C58.7199 95.29 59.4252 95.5095 59.9175 95.9486ZM64.7146 101.657H66.3513V91.9235H64.7146V101.657ZM64.7346 89.2487C64.9342 89.4683 65.2069 89.5747 65.5463 89.5747C65.8656 89.5747 66.1318 89.4683 66.3314 89.2487C66.5376 89.0358 66.6374 88.7497 66.6374 88.3971C66.6374 88.0577 66.5376 87.785 66.3314 87.5654C66.1318 87.3525 65.8656 87.2394 65.5463 87.2394C65.2069 87.2394 64.9342 87.3525 64.7346 87.5654C64.5283 87.7849 64.4285 88.0577 64.4285 88.3971C64.4285 88.7497 64.5283 89.0358 64.7346 89.2487ZM70.6626 100.233C70.5428 100.074 70.4896 99.7876 70.4896 99.3817L70.4896 87.1395L68.8462 87.3258V99.5281C68.8462 100.393 69.0192 100.992 69.3519 101.331C69.6912 101.664 70.137 101.837 70.6892 101.837C71.0551 101.837 71.3479 101.804 71.5608 101.737C71.7803 101.664 71.9267 101.611 72.0066 101.571L71.8669 100.353C71.8137 100.386 71.7338 100.413 71.634 100.44C71.5342 100.466 71.4077 100.48 71.2614 100.48C70.9753 100.48 70.7757 100.4 70.6626 100.233ZM73.4304 94.4582C73.1708 95.1168 73.0445 95.9418 73.0445 96.9332C73.0445 97.8247 73.1377 98.5831 73.3173 99.2085C73.497 99.8406 73.7431 100.353 74.0558 100.752C74.3685 101.151 74.7278 101.444 75.1403 101.624C75.5528 101.803 75.992 101.896 76.4444 101.896C76.8236 101.896 77.1563 101.843 77.4424 101.743C77.7218 101.644 77.9613 101.524 78.1476 101.378C78.3406 101.238 78.487 101.098 78.6001 100.952C78.7065 100.812 78.7798 100.699 78.8196 100.619H78.8595V101.657H80.3632V87.1394L78.7198 87.3257V91.9831C78.5667 91.9166 78.3804 91.8634 78.1476 91.8101C77.9214 91.7636 77.6486 91.7436 77.3425 91.7436C76.8236 91.7436 76.3113 91.8235 75.799 91.9964C75.2867 92.1628 74.8276 92.4489 74.4217 92.8547C74.0158 93.2606 73.6832 93.7929 73.4304 94.4582ZM77.5821 100.333C77.3825 100.406 77.1496 100.439 76.8968 100.439C76.6107 100.439 76.3379 100.38 76.0851 100.253C75.8256 100.133 75.5994 99.9338 75.3931 99.6544C75.1935 99.3816 75.0338 99.0156 74.9207 98.5632C74.8009 98.1108 74.7477 97.5453 74.7477 96.8666C74.7477 96.1814 74.8143 95.6025 74.9607 95.1301C75.1004 94.6511 75.2933 94.2652 75.5395 93.9725C75.779 93.673 76.0651 93.4601 76.3978 93.3337C76.7304 93.2007 77.0831 93.1408 77.4623 93.1408C77.7617 93.1408 78.0079 93.174 78.2008 93.2406C78.4004 93.3071 78.5668 93.387 78.7198 93.4867V99.4814C78.6666 99.5679 78.5867 99.661 78.4869 99.7675C78.3871 99.8739 78.2606 99.9804 78.1077 100.08C77.9613 100.187 77.7883 100.266 77.5821 100.333ZM88.1808 101.657H89.6845V91.9231H88.0411V99.3815C87.8548 99.6144 87.5953 99.8473 87.2693 100.08C86.95 100.32 86.5508 100.439 86.0784 100.439C85.5195 100.439 85.1136 100.266 84.8475 99.9205C84.588 99.5745 84.455 98.9957 84.455 98.1906V91.9232H82.8117V98.3104C82.8117 98.9691 82.8782 99.5279 83.0046 99.9804C83.131 100.433 83.3173 100.805 83.5635 101.085C83.803 101.371 84.1024 101.577 84.4417 101.704C84.7877 101.83 85.1736 101.897 85.6127 101.897C85.972 101.897 86.3047 101.843 86.6041 101.737C86.9035 101.624 87.1563 101.497 87.3625 101.358C87.5688 101.218 87.7485 101.065 87.8815 100.912C88.0146 100.759 88.1011 100.639 88.141 100.559H88.1808V101.657ZM97.5089 95.3894V101.657L99.1456 101.657V95.2696C99.1456 94.6043 99.079 94.0454 98.946 93.593C98.8129 93.1472 98.62 92.7746 98.3804 92.4885C98.1343 92.2091 97.8415 92.0028 97.4889 91.8764C97.1362 91.7433 96.7437 91.6834 96.3112 91.6834C95.932 91.6834 95.5927 91.7367 95.2999 91.8431C95.0005 91.9496 94.7411 92.076 94.5281 92.2157C94.3086 92.3621 94.1356 92.5085 94.0025 92.6615C93.8628 92.8212 93.7763 92.9409 93.7364 93.0208H93.6965V91.923H92.1995V101.657H93.8429V94.1519C94.0292 93.9256 94.282 93.6861 94.608 93.4466C94.9341 93.2004 95.3399 93.0807 95.8256 93.0807C96.3911 93.0807 96.817 93.2603 97.0898 93.6129C97.3692 93.9723 97.5089 94.5644 97.5089 95.3894ZM107.356 93.2005H108.573L108.8 91.923H105.839C105.433 91.7633 105.001 91.6835 104.542 91.6835C104.082 91.6835 103.65 91.75 103.251 91.8831C102.858 92.0162 102.506 92.2224 102.206 92.4885C101.913 92.7613 101.674 93.1006 101.501 93.5132C101.328 93.9257 101.235 94.4047 101.235 94.9436C101.235 95.7154 101.388 96.3475 101.694 96.8399C101.993 97.3322 102.399 97.6915 102.898 97.9243V97.9643C102.832 97.9909 102.732 98.0441 102.605 98.1173C102.479 98.1905 102.346 98.2903 102.22 98.41C102.093 98.5298 101.98 98.6895 101.874 98.8758C101.774 99.0621 101.727 99.2883 101.727 99.5478C101.727 100.14 101.933 100.592 102.353 100.905V100.945L102.273 100.995L102.273 100.995C102.177 101.056 102.057 101.131 101.914 101.218C101.734 101.331 101.554 101.484 101.381 101.684C101.202 101.883 101.049 102.109 100.922 102.375C100.796 102.635 100.729 102.948 100.729 103.314C100.729 104.165 101.002 104.817 101.541 105.27C102.08 105.722 102.872 105.948 103.909 105.948C104.628 105.948 105.28 105.862 105.859 105.689C106.438 105.509 106.93 105.27 107.336 104.957C107.742 104.644 108.054 104.272 108.281 103.839C108.5 103.407 108.613 102.928 108.613 102.402C108.613 101.943 108.533 101.55 108.374 101.231C108.207 100.905 107.981 100.639 107.695 100.426C107.402 100.22 107.063 100.067 106.671 99.9736C106.278 99.8737 105.852 99.8272 105.393 99.8272H104.156C103.803 99.8272 103.55 99.7673 103.397 99.6342C103.238 99.5078 103.164 99.3415 103.164 99.1419C103.164 98.8957 103.251 98.7028 103.424 98.5497C103.603 98.4034 103.77 98.2969 103.936 98.2237L103.955 98.2264C104.041 98.2388 104.121 98.2503 104.196 98.2503H104.462C104.934 98.2503 105.373 98.1771 105.786 98.0241C106.198 97.8777 106.557 97.6582 106.864 97.3787C107.163 97.0926 107.402 96.7467 107.569 96.3342C107.742 95.9217 107.828 95.4559 107.828 94.9436C107.828 94.2983 107.669 93.7128 107.356 93.2005ZM103.304 101.284C103.524 101.331 103.77 101.351 104.056 101.351L105.293 101.351C105.792 101.351 106.192 101.451 106.484 101.644C106.784 101.837 106.93 102.176 106.93 102.648C106.93 103.147 106.697 103.586 106.225 103.972C105.752 104.358 105.021 104.551 104.036 104.551C102.885 104.551 102.313 104.032 102.313 102.988C102.313 102.748 102.339 102.535 102.399 102.349C102.466 102.169 102.539 102.01 102.632 101.877C102.732 101.743 102.832 101.624 102.951 101.531C103.064 101.437 103.184 101.358 103.304 101.284ZM105.726 93.4467C106.058 93.7395 106.225 94.2385 106.225 94.9438C106.225 95.649 106.058 96.148 105.726 96.4408C105.393 96.7402 104.994 96.8865 104.522 96.8865C104.076 96.8865 103.683 96.7402 103.344 96.4408C103.005 96.148 102.838 95.649 102.838 94.9438C102.838 94.2385 103.005 93.7395 103.344 93.4467C103.683 93.1473 104.089 93.001 104.561 93.001C105.007 93.001 105.393 93.1473 105.726 93.4467ZM20.583 122.095H22.0801L22.08 112.362H20.4367V119.82C20.2504 120.053 19.9976 120.286 19.6715 120.519C19.3455 120.758 18.9463 120.878 18.4739 120.878C17.9217 120.878 17.5092 120.705 17.2497 120.359C16.9836 120.013 16.8505 119.434 16.8505 118.629V112.362H15.2071V118.749C15.2071 119.407 15.2737 119.966 15.4001 120.419C15.5332 120.871 15.7195 121.244 15.959 121.523C16.2052 121.809 16.4979 122.016 16.8439 122.142C17.1832 122.268 17.5757 122.335 18.0082 122.335C18.3741 122.335 18.7068 122.282 18.9995 122.175C19.2989 122.062 19.5518 121.936 19.758 121.796C19.9709 121.656 20.1439 121.503 20.277 121.35C20.41 121.197 20.5032 121.077 20.5431 120.998H20.583V122.095ZM29.9045 115.828V122.095L31.5479 122.095V115.708C31.5479 115.043 31.4813 114.484 31.3483 114.031C31.2085 113.586 31.0222 113.213 30.7761 112.927C30.5365 112.647 30.2371 112.441 29.8845 112.315C29.5319 112.182 29.1393 112.122 28.7135 112.122C28.3343 112.122 27.995 112.175 27.6956 112.282C27.3962 112.388 27.1433 112.514 26.9238 112.654C26.7109 112.8 26.5312 112.947 26.3982 113.1C26.2651 113.26 26.1786 113.379 26.132 113.459H26.0921V112.361H24.5951V122.095H26.2385V114.59C26.4248 114.364 26.6842 114.125 27.0103 113.885C27.3296 113.639 27.7355 113.519 28.2212 113.519C28.7933 113.519 29.2125 113.699 29.492 114.051C29.7647 114.411 29.9045 115.003 29.9045 115.828ZM33.9364 114.896C33.6836 115.555 33.5572 116.38 33.5572 117.371C33.5572 118.263 33.6437 119.021 33.83 119.647C34.0096 120.279 34.2558 120.791 34.5685 121.19C34.8746 121.589 35.2405 121.882 35.653 122.062C36.0655 122.242 36.498 122.335 36.957 122.335C37.3363 122.335 37.669 122.281 37.9551 122.182C38.2345 122.082 38.474 121.962 38.6603 121.816C38.8532 121.676 38.9996 121.536 39.1061 121.39C39.2192 121.25 39.2924 121.137 39.3323 121.057H39.3722V122.095H40.8692V107.578L39.2325 107.764V112.421C39.0795 112.355 38.8932 112.302 38.6603 112.248C38.4341 112.202 38.1613 112.182 37.8486 112.182C37.3363 112.182 36.824 112.262 36.3117 112.435C35.7994 112.601 35.3403 112.887 34.9345 113.293C34.5286 113.699 34.1959 114.231 33.9364 114.896ZM38.0948 120.771C37.8885 120.844 37.6623 120.878 37.4028 120.878C37.1234 120.878 36.8506 120.818 36.5978 120.691C36.3383 120.572 36.1054 120.372 35.9058 120.093C35.6996 119.82 35.5465 119.454 35.4268 119.001C35.3137 118.549 35.2538 117.983 35.2538 117.305C35.2538 116.62 35.327 116.034 35.4667 115.568C35.613 115.089 35.806 114.703 36.0455 114.411C36.2917 114.111 36.5778 113.898 36.9104 113.772C37.2365 113.639 37.5957 113.579 37.975 113.579C38.2677 113.579 38.5139 113.612 38.7135 113.679C38.9064 113.745 39.0794 113.825 39.2325 113.925V119.92C39.1726 120.006 39.0994 120.099 38.993 120.206C38.8932 120.312 38.7667 120.419 38.6204 120.518C38.474 120.625 38.2944 120.705 38.0948 120.771ZM48.0282 108.103V122.095L49.7913 122.095V116.074H54.3887V114.67H49.7913V109.507H54.7747L54.8944 108.103H48.0282ZM56.4447 114.916C56.2384 115.568 56.132 116.333 56.132 117.225C56.132 118.143 56.2318 118.928 56.4247 119.567C56.6243 120.212 56.8905 120.738 57.2298 121.15C57.5625 121.563 57.9616 121.862 58.4207 122.049C58.8865 122.242 59.3855 122.335 59.9244 122.335C60.45 122.335 60.949 122.242 61.4214 122.049C61.8938 121.862 62.3129 121.563 62.6722 121.15C63.0249 120.738 63.3109 120.206 63.5106 119.56C63.7168 118.908 63.8166 118.13 63.8166 117.225C63.8166 116.333 63.7168 115.568 63.5239 114.916C63.3243 114.264 63.0581 113.739 62.7188 113.326C62.3795 112.914 61.9803 112.608 61.5278 112.415C61.0621 112.215 60.5631 112.122 60.0242 112.122C59.4986 112.122 58.9996 112.215 58.5338 112.415C58.0681 112.608 57.6556 112.914 57.2963 113.326C56.937 113.739 56.6576 114.264 56.4447 114.916ZM61.5478 114.397C61.927 114.989 62.1133 115.928 62.1133 117.225C62.1133 118.522 61.927 119.454 61.5544 120.026C61.1819 120.592 60.6629 120.878 59.9842 120.878C59.3123 120.878 58.78 120.592 58.4008 120.026C58.0282 119.454 57.8352 118.522 57.8352 117.225C57.8352 115.928 58.0215 114.989 58.3941 114.397C58.7667 113.812 59.2857 113.519 59.9643 113.519C60.6363 113.519 61.1686 113.812 61.5478 114.397ZM69.8978 113.699C70.0309 113.739 70.1174 113.772 70.1573 113.799L70.3635 112.342L70.3311 112.332C70.2507 112.307 70.1535 112.277 70.0308 112.242C69.8844 112.202 69.6981 112.182 69.4719 112.182C69.1592 112.182 68.8931 112.222 68.6669 112.302C68.4473 112.381 68.2544 112.495 68.088 112.634C67.9284 112.774 67.7953 112.94 67.6888 113.12C67.5756 113.306 67.4893 113.493 67.4227 113.679H67.3828V112.361H65.8792V122.095H67.5226V114.956C67.6423 114.63 67.8486 114.331 68.1413 114.051C68.4341 113.779 68.8333 113.639 69.3456 113.639C69.5785 113.639 69.7581 113.659 69.8978 113.699ZM75.3069 113.832C75.593 114.038 75.7859 114.205 75.8924 114.331L76.6042 113.153C76.5244 113.073 76.4179 112.974 76.2915 112.86C76.1651 112.747 75.9988 112.628 75.8058 112.514C75.6062 112.401 75.3734 112.308 75.1072 112.228C74.8344 112.155 74.5084 112.122 74.1358 112.122C73.7366 112.122 73.3707 112.182 73.0247 112.315C72.6854 112.441 72.3794 112.614 72.1265 112.84C71.8671 113.06 71.6674 113.326 71.5277 113.626C71.3881 113.932 71.3148 114.264 71.3148 114.63C71.3148 115.309 71.4878 115.861 71.8338 116.294C72.1731 116.726 72.6521 117.139 73.2576 117.531L73.8697 117.917C74.0959 118.063 74.3022 118.203 74.4752 118.323C74.6548 118.443 74.8012 118.569 74.9209 118.709C75.0408 118.842 75.1338 118.995 75.1937 119.161C75.2537 119.334 75.2869 119.527 75.2869 119.76C75.2869 120.073 75.1605 120.332 74.901 120.552C74.6482 120.765 74.2756 120.878 73.7899 120.878C73.5171 120.878 73.2842 120.844 73.078 120.771C72.8784 120.705 72.692 120.625 72.5324 120.518C72.3661 120.419 72.233 120.312 72.1132 120.206L72.0938 120.187C71.9887 120.089 71.8958 120.001 71.8205 119.92L71.0287 121.217C71.1162 121.323 71.2331 121.429 71.3682 121.552L71.3947 121.576C71.5411 121.703 71.7273 121.822 71.9536 121.929C72.1731 122.035 72.4392 122.129 72.732 122.215C73.0314 122.295 73.3774 122.335 73.7633 122.335C74.768 122.335 75.5331 122.069 76.0654 121.543C76.5976 121.017 76.8705 120.365 76.8705 119.6C76.8705 118.882 76.6775 118.296 76.2982 117.844C75.9257 117.391 75.4001 116.972 74.7414 116.58L74.1359 116.214C73.6968 115.941 73.3774 115.688 73.1712 115.455C72.9583 115.216 72.8585 114.916 72.8585 114.551C72.8585 114.264 72.9716 114.025 73.1978 113.819C73.4307 113.619 73.7567 113.519 74.1891 113.519C74.6549 113.519 75.0208 113.619 75.3069 113.832ZM84.1118 114.155L84.1121 114.155C84.1506 114.191 84.182 114.221 84.2089 114.244L84.8942 113.093C84.8144 113.013 84.7079 112.914 84.5815 112.801C84.4551 112.681 84.2888 112.574 84.0958 112.475C83.8962 112.375 83.6634 112.288 83.3839 112.222C83.1045 112.155 82.7851 112.122 82.4192 112.122C81.9335 112.122 81.4544 112.208 80.9754 112.395C80.4897 112.574 80.0572 112.867 79.6647 113.266C79.2721 113.666 78.9594 114.184 78.7133 114.837C78.4671 115.482 78.3473 116.274 78.3473 117.205C78.3473 118.163 78.4471 118.968 78.6534 119.62C78.853 120.266 79.1324 120.791 79.485 121.197C79.831 121.603 80.2435 121.896 80.7159 122.069C81.195 122.248 81.7006 122.335 82.2395 122.335C82.6188 122.335 82.9514 122.295 83.2442 122.222C83.5303 122.149 83.7831 122.055 83.9827 121.949C84.1823 121.842 84.3487 121.729 84.4751 121.616C84.608 121.496 84.7079 121.403 84.7745 121.324L84.1025 120.186C83.996 120.292 83.8097 120.439 83.5436 120.612C83.2841 120.785 82.8982 120.878 82.3992 120.878C82.0466 120.878 81.7272 120.811 81.4411 120.685C81.1484 120.552 80.9022 120.345 80.696 120.053C80.4964 119.767 80.3367 119.374 80.2236 118.888C80.1105 118.403 80.0506 117.804 80.0506 117.085C80.0506 116.433 80.1172 115.888 80.2435 115.435C80.3699 114.983 80.5496 114.61 80.7691 114.331C80.9954 114.045 81.2549 113.839 81.5609 113.712C81.867 113.586 82.193 113.519 82.5456 113.519C82.7851 113.519 83.0047 113.546 83.191 113.606C83.3839 113.672 83.5436 113.739 83.6767 113.819C83.8164 113.905 83.9228 113.985 84.016 114.065C84.0523 114.098 84.0839 114.128 84.1118 114.155ZM91.9268 115.828V122.095L93.5701 122.095V115.708C93.5701 114.424 93.3173 113.506 92.8183 112.953C92.3193 112.395 91.6406 112.122 90.789 112.122C90.4031 112.122 90.0571 112.168 89.7711 112.268C89.4783 112.375 89.2321 112.488 89.0259 112.627C88.8263 112.76 88.6666 112.894 88.5535 113.033C88.4403 113.166 88.3538 113.273 88.3007 113.353H88.2608V107.578L86.6174 107.764V122.095H88.2608V114.59C88.4471 114.364 88.7066 114.125 89.0259 113.885C89.352 113.639 89.7578 113.519 90.2435 113.519C90.8157 113.519 91.2349 113.699 91.5143 114.051C91.7871 114.411 91.9268 115.003 91.9268 115.828ZM101.335 122.095H102.832L102.832 112.361H101.188V119.82C101.002 120.053 100.742 120.285 100.423 120.518C100.097 120.758 99.6979 120.878 99.2255 120.878C98.6666 120.878 98.2608 120.705 98.0013 120.359C97.7351 120.013 97.6021 119.434 97.6021 118.629V112.361H95.9587V118.748C95.9587 119.407 96.0253 119.966 96.1517 120.418C96.2847 120.871 96.4644 121.244 96.7106 121.523C96.9567 121.809 97.2495 122.015 97.5955 122.142C97.9348 122.268 98.3273 122.335 98.7598 122.335C99.1257 122.335 99.4517 122.281 99.7511 122.175C100.051 122.062 100.303 121.935 100.51 121.796C100.723 121.656 100.896 121.503 101.029 121.35C101.162 121.197 101.255 121.077 101.288 120.997H101.335V122.095ZM110.656 115.828V122.095L112.299 122.095V115.708C112.299 115.042 112.226 114.484 112.093 114.031C111.96 113.585 111.774 113.213 111.528 112.927C111.281 112.647 110.989 112.441 110.636 112.315C110.283 112.181 109.891 112.122 109.458 112.122C109.079 112.122 108.746 112.175 108.447 112.281C108.148 112.388 107.895 112.514 107.675 112.654C107.462 112.8 107.283 112.947 107.15 113.1C107.017 113.259 106.93 113.379 106.884 113.459H106.844V112.361H105.347V122.095H106.99V114.59C107.176 114.364 107.436 114.124 107.755 113.885C108.081 113.639 108.487 113.519 108.973 113.519C109.545 113.519 109.964 113.698 110.237 114.051C110.516 114.41 110.656 115.003 110.656 115.828ZM120.51 113.639H121.72L121.947 112.361H118.986C118.58 112.201 118.148 112.122 117.689 112.122C117.23 112.122 116.804 112.188 116.405 112.321C116.005 112.454 115.659 112.661 115.36 112.927C115.061 113.199 114.828 113.539 114.648 113.951C114.475 114.364 114.389 114.843 114.389 115.382C114.389 116.154 114.535 116.786 114.841 117.278C115.147 117.77 115.546 118.13 116.045 118.362V118.402C115.979 118.429 115.879 118.482 115.753 118.555C115.626 118.629 115.493 118.728 115.367 118.848C115.24 118.968 115.127 119.128 115.027 119.314C114.921 119.5 114.874 119.726 114.874 119.986C114.874 120.578 115.081 121.03 115.5 121.343V121.383L115.439 121.422L115.379 121.459L115.286 121.518C115.22 121.56 115.147 121.606 115.067 121.656C114.881 121.769 114.701 121.922 114.528 122.122C114.349 122.321 114.202 122.547 114.069 122.814C113.943 123.073 113.876 123.386 113.876 123.752C113.876 124.603 114.149 125.255 114.688 125.708C115.234 126.16 116.019 126.386 117.063 126.386C117.775 126.386 118.427 126.3 119.006 126.127C119.585 125.947 120.084 125.708 120.49 125.395C120.889 125.082 121.208 124.71 121.428 124.277C121.654 123.845 121.76 123.366 121.76 122.84C121.76 122.381 121.681 121.989 121.521 121.669C121.361 121.343 121.135 121.077 120.842 120.864C120.55 120.658 120.21 120.505 119.818 120.412C119.425 120.312 118.999 120.265 118.54 120.265H117.303C116.95 120.265 116.697 120.205 116.544 120.072C116.391 119.946 116.311 119.78 116.311 119.58C116.311 119.334 116.398 119.141 116.577 118.988C116.75 118.841 116.917 118.735 117.083 118.662L117.102 118.665C117.188 118.677 117.268 118.688 117.343 118.688H117.609C118.081 118.688 118.527 118.615 118.939 118.462C119.345 118.316 119.704 118.096 120.011 117.817C120.317 117.531 120.549 117.185 120.722 116.772C120.889 116.36 120.975 115.894 120.975 115.382C120.975 114.736 120.816 114.151 120.51 113.639ZM116.451 121.722C116.671 121.769 116.917 121.789 117.203 121.789L118.44 121.789C118.939 121.789 119.339 121.889 119.638 122.082C119.931 122.275 120.084 122.614 120.084 123.086C120.084 123.585 119.844 124.025 119.372 124.41C118.899 124.796 118.168 124.989 117.183 124.989C116.032 124.989 115.46 124.47 115.46 123.426C115.46 123.186 115.486 122.973 115.553 122.787C115.613 122.607 115.686 122.448 115.786 122.315C115.879 122.182 115.985 122.062 116.098 121.969C116.212 121.875 116.331 121.796 116.451 121.722ZM118.873 113.885C119.206 114.178 119.372 114.677 119.372 115.382C119.372 116.087 119.206 116.586 118.873 116.879C118.54 117.178 118.141 117.325 117.669 117.325C117.223 117.325 116.83 117.178 116.491 116.879C116.158 116.586 115.985 116.087 115.985 115.382C115.985 114.677 116.158 114.178 116.491 113.885C116.83 113.585 117.236 113.439 117.709 113.439C118.154 113.439 118.54 113.585 118.873 113.885Z" fill="white"/>
</svg>
