<svg width="120" height="93" viewBox="0 0 120 93" fill="none" xmlns="http://www.w3.org/2000/svg">
<path fill-rule="evenodd" clip-rule="evenodd" d="M87.177 38.8392C88.065 36.3975 88.6181 33.847 88.8217 31.2571L65.7691 31.2567L64.294 38.8388H79.161C77.927 41.2338 76.2535 43.3753 74.2274 45.1513C70.302 48.6153 65.2443 50.5224 60.0092 50.5127C54.2943 50.5119 48.8137 48.2414 44.7728 44.2004C40.7318 40.1595 38.4614 34.6791 38.4607 28.9642C38.4626 23.2499 40.7335 17.77 44.7741 13.7293C48.8148 9.68855 54.2947 7.41766 60.0092 7.41575C63.0133 7.41263 65.985 8.03906 68.7324 9.25463C71.4799 10.4702 73.942 12.248 75.9604 14.4734L81.5577 9.70949C78.8497 6.67279 75.5296 4.24389 71.8155 2.58259C68.1014 0.921306 64.0777 0.0652652 60.0092 0.0708277C52.3451 0.0701629 44.9947 3.11388 39.575 8.53244C34.155 13.951 31.1094 21.3005 31.1082 28.9646C31.1081 32.7599 31.8555 36.5181 33.3079 40.0246C34.7603 43.531 36.889 46.7171 39.5727 49.4009C42.2564 52.0846 45.4426 54.2135 48.949 55.6658C52.4556 57.1182 56.2138 57.8655 60.0092 57.8655C66.5284 57.8766 72.8579 55.6715 77.9589 51.6118C82.1592 48.2939 85.3513 43.8708 87.177 38.8392ZM60.8569 24.7649C62.1539 23.4692 62.8834 21.7116 62.8851 19.8782C62.8849 18.0436 62.1562 16.2843 60.859 14.9871C59.5618 13.6899 57.8025 12.9611 55.9679 12.9609C54.1345 12.9626 52.3767 13.6921 51.081 14.9892C49.7853 16.2863 49.0575 18.0447 49.0579 19.8782C49.059 21.7105 49.7876 23.4672 51.0831 24.7629C52.3788 26.0586 54.1356 26.7869 55.9679 26.7882C57.8014 26.7884 59.5597 26.0606 60.8569 24.7649ZM28.2538 28.966C28.2505 23.7566 29.53 18.6265 31.9794 14.029C34.429 9.43138 37.9729 5.50777 42.2985 2.60473C28.2537 6.61864 14.2084 15.4057 0.16272 28.966C14.2075 42.5307 28.2527 51.3181 42.2985 55.3279C37.9729 52.4247 34.429 48.501 31.9794 43.9032C29.5298 39.3056 28.2503 34.1755 28.2538 28.966ZM88.0417 14.0288C85.5921 9.43127 82.0478 5.50771 77.7222 2.60473C91.7676 6.61467 105.813 15.4018 119.858 28.966C105.812 42.5259 91.7672 51.313 77.7222 55.3279C82.0478 52.4247 85.5921 48.501 88.0417 43.9034C90.4914 39.3058 91.7712 34.1755 91.7678 28.966C91.771 23.7564 90.4914 18.6264 88.0417 14.0288ZM2.26891 80.8529V77.3927L13.3892 72.2035V76.306L7.38434 79.0242L13.3892 81.7424V86.0421L2.26891 80.8529ZM117.794 80.8532V77.3929L106.673 72.2037V76.5034L112.678 79.2218L106.673 81.9401V86.042L117.794 80.8532ZM28.2891 92.8378C23.8403 92.8378 21.3697 91.7501 21.3697 89.773C21.3697 88.6854 22.2596 87.8454 23.7425 87.5486C22.7296 86.9805 22.1117 86.0908 22.1117 85.127C22.1117 83.8418 22.9765 82.8783 24.5832 82.31C23.9947 81.9282 23.5119 81.4044 23.1795 80.7869C22.8468 80.1693 22.6753 79.4777 22.6808 78.7764C22.6706 78.1468 22.8085 77.5235 23.0832 76.9569C23.3579 76.3901 23.7618 75.8959 24.2626 75.5139C25.3251 74.6488 26.709 74.2041 28.3893 74.2041C30.1689 74.2041 31.676 74.7231 32.7394 75.7115C33.4314 74.8216 34.4691 74.4019 35.9766 74.4019V77.5655C35.2999 77.5428 34.6237 77.6261 33.9729 77.8124C34.0488 78.1284 34.0901 78.4517 34.0961 78.7764C34.1091 79.41 33.9725 80.0376 33.6976 80.6085C33.4229 81.1796 33.0175 81.6778 32.5143 82.0631C31.4518 82.9277 30.0925 83.3483 28.3876 83.3483C27.7891 83.3436 27.1928 83.2774 26.608 83.1506C26.0148 83.3238 25.6936 83.5461 25.6936 83.8671C25.6936 84.3365 25.99 84.4853 26.7069 84.4853H31.5749C34.4168 84.4853 36.0239 85.7947 36.0239 88.0443C36.0239 91.0336 33.1079 92.8378 28.2891 92.8378ZM28.3384 90.1441C30.9828 90.1441 32.243 89.724 32.243 88.8587C32.243 88.3891 31.8229 88.1172 31.131 88.1172H27.4731C25.8174 88.1172 25.1255 88.3891 25.1255 89.0809C25.126 89.7981 26.1639 90.1441 28.3384 90.1441ZM28.4127 76.9235C27.2512 76.9235 26.5838 77.5907 26.5838 78.777C26.5838 79.9385 27.3007 80.6554 28.4127 80.6554C29.5248 80.6554 30.2167 79.9633 30.2167 78.777C30.2167 77.5907 29.5741 76.9227 28.4127 76.9227V76.9235ZM36.8377 80.828C36.8377 82.8543 37.4308 84.4605 38.6173 85.6714C39.8036 86.8578 41.4106 87.4506 43.4123 87.4497C45.9076 87.4497 47.6626 86.7829 48.9726 85.2999L46.7975 82.8782C46.0099 83.6913 44.9389 84.1693 43.8076 84.2127C42.053 84.2127 41.1881 83.4459 40.9162 81.8401H49.1444C49.1503 81.7408 49.1575 81.6347 49.1652 81.5226L49.1652 81.5225V81.5224C49.1898 81.16 49.2187 80.7359 49.2187 80.2828C49.2187 78.4303 48.6754 76.9717 47.5878 75.8597C46.5243 74.7477 45.0913 74.2041 43.3367 74.2041C41.4346 74.2041 39.8772 74.8222 38.6664 76.0826C37.4555 77.3192 36.8377 78.9006 36.8377 80.828ZM45.1662 79.3207H40.9899C41.2866 77.9368 42.0776 77.2194 43.2639 77.2194C44.4502 77.2194 45.1423 77.9368 45.1662 79.3207ZM52.6044 85.6714C51.4179 84.4605 50.8248 82.8543 50.8248 80.828C50.8248 78.9006 51.4422 77.3192 52.6533 76.0826C53.8642 74.8222 55.4215 74.2041 57.3237 74.2041C59.0784 74.2041 60.5114 74.7477 61.5748 75.8597C62.6623 76.9717 63.2058 78.4303 63.2058 80.2828C63.2058 80.7367 63.1769 81.1616 63.1523 81.5244C63.1447 81.6358 63.1375 81.7413 63.1317 81.8401H54.9025C55.1744 83.4459 56.0393 84.2127 57.7939 84.2127C58.9253 84.1695 59.9962 83.6913 60.7838 82.8782L62.9589 85.2999C61.6489 86.7829 59.8941 87.4497 57.3988 87.4497C55.3967 87.4506 53.7905 86.8578 52.6044 85.6714ZM54.977 79.3207H59.1534C59.1286 77.9366 58.4367 77.2199 57.2506 77.2199C56.0642 77.2199 55.2732 77.9368 54.9766 79.3207H54.977ZM78.5019 87.1546L73.5348 79.4694L78.3287 74.5021H73.3372L69.6304 78.481V69.115H65.4781V87.1546H69.6304V83.1758L70.5445 82.2124L73.5586 87.1546H78.5019ZM79.86 87.1546V69.115H84.0124V87.1546H79.86ZM86.2104 80.828C86.2104 82.8543 86.8036 84.4605 87.9899 85.6714C89.1763 86.8578 90.7823 87.4506 92.7842 87.4497C95.2795 87.4497 97.0347 86.7829 98.3445 85.2999L96.1694 82.8782C95.3818 83.6913 94.3107 84.1693 93.1793 84.2127C91.4247 84.2127 90.5598 83.4459 90.2879 81.8401H98.5177C98.5234 81.7419 98.5306 81.637 98.5381 81.5263C98.5627 81.1631 98.5916 80.7375 98.5916 80.2828C98.5916 78.4303 98.0482 76.9717 96.9608 75.8597C95.8974 74.7477 94.4641 74.2041 92.7095 74.2041C90.8074 74.2041 89.25 74.8222 88.0391 76.0826C86.8282 77.3192 86.2104 78.9006 86.2104 80.828ZM94.539 79.3207H90.3628C90.6592 77.9368 91.45 77.2199 92.6361 77.2199C93.8223 77.2199 94.5142 77.9366 94.539 79.3207Z" fill="white"/>
</svg>
