<svg width="134" height="59" viewBox="0 0 134 59" fill="none" xmlns="http://www.w3.org/2000/svg">
<path fill-rule="evenodd" clip-rule="evenodd" d="M60.7145 8.47242H52.686C52.9733 5.13784 54.2267 3.09614 56.9148 3.09614C59.7466 3.09614 60.7863 5.64063 60.7145 8.47242ZM57.0225 0.695312C51.1435 0.695312 49.1018 4.95827 49.1018 10.5159C49.1018 15.9263 51.1812 19.5482 56.8071 19.5482C60.8563 19.5482 63.4385 17.6825 64.0832 13.8128L60.6786 13.31C60.4272 15.8904 59.1738 17.2174 56.8789 17.2174C53.9052 17.2174 52.7219 15.0662 52.6501 10.7314H64.2268C64.2987 4.56681 62.5066 0.695312 57.0225 0.695312ZM20.3423 6.21468C20.3423 4.34896 20.3064 2.63049 20.2345 1.0898H23.7828L23.8546 3.81205C25.0021 1.80627 26.7223 0.696541 29.0531 0.696541C31.6317 0.696541 33.3179 1.8781 34.0703 4.06345C35.3255 1.8781 37.1876 0.696541 39.6962 0.696541C43.819 0.696541 45.2879 3.4188 45.2879 7.71946V19.1544H41.6696V7.93495C41.6696 5.35455 41.1309 3.27514 38.3709 3.27514C35.7546 3.27514 34.6072 5.42637 34.6072 8.43594V19.1544H31.023V8.00498C31.023 5.35455 30.522 3.27514 27.7979 3.27514C25.0021 3.27514 23.9265 5.96328 23.9265 8.54548V19.1544H20.3423V6.21468ZM67.1297 14.0996L70.6779 13.5627C70.748 15.9276 71.8254 17.2528 73.9389 17.2528C75.6951 17.2528 77.1999 16.2868 77.1999 14.4228C77.1999 12.523 75.5173 11.8784 73.0788 10.9805C69.7101 9.76304 67.487 8.90291 67.487 5.71377C67.487 2.12958 70.7857 0.696626 74.1544 0.696626C78.1336 0.696626 80.1394 2.27144 80.3908 5.67786L76.8784 6.18065C76.9503 3.91988 75.8387 2.95201 73.9389 2.95201C72.4323 2.95201 70.9994 3.70619 70.9994 5.35463C70.9994 6.8235 72.3264 7.64772 74.6572 8.50786C74.9324 8.60906 75.202 8.70629 75.4654 8.80124L75.4658 8.80136L75.4666 8.80166C78.5627 9.91784 80.7859 10.7193 80.7859 13.956C80.7859 17.8634 77.6667 19.5477 73.7952 19.5477C69.5305 19.5477 67.2733 17.6479 67.1297 14.0996ZM87.2542 13.5627L83.706 14.0996C83.8496 17.6479 86.1068 19.5477 90.3734 19.5477C94.2449 19.5477 97.3622 17.8634 97.3622 13.956C97.3622 10.7185 95.1393 9.91741 92.0408 8.80078L92.04 8.80048L92.0395 8.80029C91.7768 8.70564 91.5079 8.60872 91.2335 8.50786C88.9027 7.64772 87.5775 6.8235 87.5775 5.35463C87.5775 3.70619 89.0104 2.95201 90.5152 2.95201C92.415 2.95201 93.5266 3.91988 93.4548 6.18065L96.9671 5.67786C96.7175 2.27144 94.7081 0.696626 90.7307 0.696626C87.362 0.696626 84.0651 2.12958 84.0651 5.71377C84.0651 8.90291 86.2864 9.76304 89.6551 10.9805C92.0918 11.8784 93.778 12.523 93.778 14.4228C93.778 16.2868 92.2732 17.2528 90.5152 17.2528C88.4017 17.2528 87.3261 15.9276 87.2542 13.5627ZM103.82 8.47242H111.848C111.92 5.64063 110.88 3.09614 108.048 3.09614C105.362 3.09614 104.107 5.13784 103.82 8.47242ZM100.237 10.5159C100.237 4.95827 102.279 0.695312 108.156 0.695312C113.642 0.695312 115.432 4.56681 115.362 10.7314H103.784C103.855 15.0662 105.039 17.2174 108.013 17.2174C110.307 17.2174 111.563 15.8904 111.812 13.31L115.219 13.8128C114.572 17.6825 111.992 19.5482 107.942 19.5482C102.315 19.5482 100.237 15.9263 100.237 10.5159ZM33.8126 48.925H35.066L35.1019 49.8929C35.1019 53.477 34.1718 56.0215 30.9808 56.0215C29.1187 56.0215 27.754 54.8041 27.754 52.7588C27.754 50.1083 29.9411 48.925 33.8126 48.925ZM34.134 46.8097C29.1528 46.8097 24.1698 47.7057 24.1698 52.9743C24.1698 56.3807 26.4288 58.3505 29.7975 58.3505C32.2719 58.3505 34.0981 57.3485 35.2815 55.4128C35.3263 55.8139 35.3711 56.5512 35.4072 57.145L35.4072 57.1452L35.4072 57.1453L35.4073 57.1462C35.429 57.5036 35.4476 57.8089 35.4611 57.9573H38.8675C38.6861 56.2011 38.5784 54.0499 38.5784 51.7209V45.9854C38.5784 41.2179 36.5349 39.4994 31.8769 39.4994C28.1849 39.4994 25.4609 40.8606 25.2077 44.3011L28.7219 44.768C28.8296 42.7245 29.9052 41.7566 31.8769 41.7566C34.3477 41.7566 35.066 43.3332 35.066 45.8777V46.8097H34.134ZM43.2153 43.7998C43.2153 42.6523 43.1793 41.3612 43.1093 39.8924H46.6917L46.7294 42.5805C47.9828 40.5747 49.7749 39.4991 52.1398 39.4991C55.9754 39.4991 57.8752 41.7204 57.8752 45.9851V57.9569H54.291V47.2762C54.291 44.4444 54.0037 42.0795 50.9223 42.0795C48.0905 42.0795 46.7994 44.5162 46.7994 48.0645V57.9569H43.2153V43.7998ZM72.9934 39.8936L66.2542 47.7425L73.5662 57.9581H77.9387L70.2693 47.633L77.2581 39.8936H72.9934ZM66.2183 32.0446H62.5981V57.9581H66.2183V32.0446ZM82.5286 42.366H79.4096V39.8933H82.5286V37.5266C82.5286 33.8365 83.7461 31.8271 87.3285 31.8271C87.939 31.8271 88.7651 31.863 89.9825 31.9708V34.5152C89.6234 34.4811 89.2643 34.4811 88.7652 34.4811H88.7651C86.6479 34.4811 86.111 35.449 86.111 37.5643V39.8933H89.7652V42.366H86.111V57.9579H82.5286V42.366ZM92.8841 39.8936V52.0792C92.8841 56.2362 94.8199 58.3515 98.7273 58.3515C100.986 58.3515 102.741 57.24 104.032 55.3042L104.105 57.9582H107.688C107.58 56.0207 107.544 54.3022 107.544 52.7579V39.8936H103.96V50.1075C103.96 53.7617 102.635 55.8429 99.9106 55.8429C96.7915 55.8429 96.506 53.5121 96.506 50.6821V39.8936H92.8841ZM112.345 44.3684C112.345 43.8297 112.275 40.4233 112.237 39.8882H115.716L115.823 42.684C116.933 40.6765 118.653 39.5631 120.878 39.5631C121.13 39.5631 121.453 39.5991 121.666 39.6727L121.223 42.8546C121.112 42.8295 120.805 42.79 120.485 42.79C117.436 42.79 115.929 44.6898 115.929 48.0262V57.9581H112.345C112.381 54.9809 112.381 45.6936 112.345 44.3684ZM0.244751 42.366H3.36205V57.9579H6.94623V42.366H10.604V39.8933H6.94623V37.5643C6.94623 35.449 7.48494 34.4811 9.59845 34.4811H9.59862C10.1013 34.4811 10.4604 34.4811 10.8177 34.5152V31.9708C9.59845 31.863 8.77424 31.8271 8.1655 31.8271C4.58132 31.8271 3.36205 33.8365 3.36205 37.5266V39.8933H0.244751V42.366ZM13.7458 44.3684C13.7458 43.8297 13.674 40.4233 13.6381 39.8882H17.1145L17.2241 42.684C18.3356 40.6765 20.0576 39.5631 22.2789 39.5631C22.5285 39.5631 22.8517 39.5991 23.0672 39.6727L22.6255 42.8546C22.5105 42.8295 22.2071 42.79 21.8857 42.79C18.8366 42.79 17.3318 44.6898 17.3318 48.0262V57.9581H13.7458C13.7835 54.9809 13.7835 45.6936 13.7458 44.3684ZM126.205 42.4004V53.6953C126.205 57.0299 127.568 58.1055 130.867 58.1055C131.833 58.1055 132.766 58.0696 133.627 57.9277V55.3455C133.124 55.4156 132.371 55.4874 132.084 55.4874C130.042 55.4874 129.825 54.6632 129.825 52.6915V42.4004H133.519V39.8919H129.825V35.0525L126.205 36.5573V39.8919H123.962V42.4004H126.205Z" fill="white"/>
</svg>
