<svg width="100" height="112" viewBox="0 0 100 112" fill="none" xmlns="http://www.w3.org/2000/svg">
<path fill-rule="evenodd" clip-rule="evenodd" d="M21.8937 28.6753C21.8937 12.9703 34.6397 0.451904 50.1171 0.451904C65.5944 0.451904 78.3404 12.9703 78.3404 28.6753C78.3404 44.3802 65.5944 56.8987 50.1171 56.8987C34.4121 56.8987 21.8937 44.1526 21.8937 28.6753ZM67.4153 15.7016C69.0085 14.7912 70.6018 13.8808 71.9674 12.9703C70.8294 11.1495 69.2361 9.32861 67.1877 8.19057C67.0125 8.32193 66.8289 8.46171 66.6386 8.60667L66.6379 8.60721C65.8388 9.21567 64.92 9.91535 64.0012 10.4667C65.3668 12.0599 66.5048 13.8808 67.4153 15.7016ZM66.5048 7.28014C64.4564 5.68689 62.4079 4.54885 60.1318 3.63842C59.6766 4.09363 59.2214 4.54885 58.7662 5.23167L58.7662 5.2317C60.3594 6.59734 61.9527 7.96298 63.3183 9.55622C64.4564 8.8734 65.5944 8.19057 66.5048 7.28014ZM59.2214 11.4277C60.2836 11.023 61.3457 10.6184 62.4079 10.0114C61.0422 8.41818 59.449 7.05253 57.8557 5.91449C57.1729 6.59732 56.2625 7.05253 55.3521 7.50775C56.2625 8.8734 56.9453 10.4667 57.6281 12.0599C58.1592 11.8323 58.6903 11.63 59.2214 11.4277ZM57.8557 4.54885C58.0833 4.09363 58.5386 3.63842 58.9938 3.1832C57.1729 2.50038 55.1244 2.04516 53.076 2.04516C54.5091 2.58259 55.6603 3.26102 56.8623 3.96947L56.8624 3.96949L56.8624 3.96951L56.8625 3.96956C57.1876 4.16119 57.5165 4.35502 57.8557 4.54885ZM56.9452 5.23174L56.9453 5.23167C55.352 4.09363 53.7588 3.1832 52.1655 2.50038C52.6207 3.18314 53.0759 3.80901 53.5311 4.43487L53.5312 4.43504C53.9864 5.06096 54.4416 5.68689 54.8968 6.36971C55.5796 6.14211 56.2624 5.68693 56.9452 5.23174ZM53.5312 6.82493C52.6207 5.23167 51.7103 3.86602 50.5723 2.72798V7.28014C51.7103 7.28014 52.6207 7.05254 53.5311 6.82493L53.5312 6.82493ZM54.214 7.73536C53.076 8.19057 51.7103 8.41818 50.5723 8.41818V13.1979C52.6208 12.9703 54.6692 12.7427 56.4901 12.2875C55.8073 10.6943 55.1244 9.10101 54.214 7.73536ZM49.4342 7.28014V2.72798C48.5238 4.09363 47.6134 5.45928 46.4753 6.82493C46.6706 6.86397 46.8591 6.90302 47.0421 6.94092L47.0422 6.94093C47.9258 7.12394 48.68 7.28014 49.4342 7.28014ZM43.5164 5.23167C43.9717 5.68689 44.8821 6.1421 45.5649 6.36971C46.2477 5.00406 47.1582 3.86602 48.2962 2.72798C46.703 3.4108 45.1098 4.32121 43.5165 5.23163L43.5164 5.23167ZM42.3784 4.32124C43.9717 3.41081 45.5649 2.50038 47.1582 1.81755C45.1097 2.04516 43.0612 2.50038 41.2404 2.95559C41.468 3.4108 41.9232 3.86601 42.3784 4.32122L42.3784 4.32124ZM62.8631 44.1526C62.6355 45.0631 62.8631 48.022 66.5048 50.0704C72.8779 45.0631 77.2024 37.3244 76.7472 28.6753C76.7472 23.4403 75.3815 18.2053 72.4226 13.8808C70.8294 15.0188 69.2361 15.9292 67.6429 16.6121C67.8705 16.8397 68.3257 17.9777 68.3257 17.9777L68.5533 18.4329L66.96 17.7501C66.96 17.7501 66.7324 17.2949 66.7324 17.0673C66.5048 17.0673 66.0496 17.2949 66.0496 17.2949C66.0496 17.2949 65.1392 17.0673 64.0012 16.8397C64.0012 16.8397 65.3668 16.3845 66.2772 15.9292C65.3668 14.1084 64.2288 12.2875 62.8631 10.6943C62.4039 10.8911 61.9448 11.1068 61.4801 11.325C60.3326 11.8641 59.1518 12.4187 57.8557 12.7427L59.449 17.5225L58.311 17.9777L56.7177 13.1979C54.6692 13.8808 52.3932 14.1084 50.3447 14.1084V19.3434H51.0275C52.2197 19.3434 53.5853 19.1699 55.1244 18.9744C55.3484 18.946 55.576 18.9171 55.8073 18.8881H56.7177L55.1244 20.2538C55.0308 20.2672 54.938 20.2805 54.8458 20.2939C54.7795 20.3035 54.7135 20.313 54.6478 20.3225L54.6478 20.3225C53.2506 20.5251 51.9816 20.709 50.3447 20.709V22.7575H49.2066V14.336H46.4753C46.3615 14.2222 46.3046 14.1084 46.2477 13.9946C46.1908 13.8808 46.1339 13.767 46.0201 13.6532L45.7925 13.1979H46.2477C46.9306 13.4256 48.5238 13.4256 49.2066 13.4256V8.8734C48.0686 8.8734 46.9306 8.64579 45.7925 8.19057C45.3373 9.10101 43.9716 11.6047 43.9716 11.6047C43.9716 11.6047 43.744 11.6047 43.5164 11.3771C43.2888 11.3771 43.0612 11.1495 43.0612 11.1495C43.0612 11.1495 44.4269 8.8734 44.8821 7.96297C43.9717 7.50775 43.0612 7.05253 42.3784 6.36971C41.2404 7.05253 39.1919 8.8734 39.1919 8.8734C39.1919 8.8734 38.7367 8.64579 38.5091 8.64579C38.0538 8.41818 37.8262 8.41818 37.8262 8.41818C37.8262 8.41818 40.3299 6.36971 41.468 5.45928C41.2404 5.23167 41.0127 4.94716 40.7851 4.66264C40.5575 4.37814 40.3299 4.09363 40.1023 3.86602C30.0876 7.73536 23.4869 17.2949 23.2593 28.2201C24.625 27.082 26.6735 25.7164 27.5839 25.2612C28.7219 24.806 29.6323 23.6679 29.4047 22.3023C29.3784 22.1445 29.3339 21.9382 29.2807 21.6913L29.2806 21.691L29.2805 21.6907L29.2805 21.6907C28.8726 19.8001 27.9523 15.5345 30.7704 12.5151C33.9569 9.10101 38.9643 8.64579 43.744 12.7427C48.7514 17.0673 45.7925 21.1642 45.1097 22.0747C44.6545 22.5299 44.1993 23.4403 44.4269 24.3507C44.7203 25.2311 44.4463 25.3548 44.0925 25.5144C43.8975 25.6024 43.6782 25.7013 43.5164 25.944C43.5164 26.0129 43.5373 26.1027 43.5601 26.2007L43.5601 26.2007C43.6125 26.4264 43.6751 26.6957 43.5164 26.8544C43.4026 26.9682 43.2888 26.9682 43.2035 26.9682C43.1181 26.9682 43.0612 26.9682 43.0612 27.082C43.0612 27.1579 43.0865 27.2338 43.1118 27.3096L43.1118 27.3096C43.1624 27.4614 43.213 27.6131 43.0612 27.7649C42.9669 27.8591 42.8727 27.8753 42.7622 27.8943C42.606 27.9211 42.4174 27.9534 42.1508 28.2201C42.07 28.3009 41.9963 28.3889 41.921 28.4789C41.5717 28.8962 41.1851 29.3581 39.8747 29.3581C39.4352 29.3581 38.9014 29.2167 38.3492 29.0704L38.3492 29.0703C37.1855 28.762 35.94 28.432 35.3225 29.3581C34.9653 29.7153 35.0286 30.0726 35.0724 30.3198C35.0844 30.3876 35.0949 30.4472 35.0949 30.4962C35.5502 31.8618 36.4606 39.3729 36.4606 39.8281C37.1728 40.9676 38.7764 41.0374 40.1557 41.0975C40.9804 41.1334 41.7249 41.1658 42.1508 41.4213C42.3784 41.4213 42.606 41.4213 43.0612 41.1937C43.2888 40.9661 44.4269 40.0557 45.3373 40.0557C45.5649 40.0557 46.2477 40.0557 45.7925 40.7385C45.5649 40.9661 46.0201 41.1937 46.2477 40.9661C46.7029 40.7385 48.7514 39.8281 47.841 43.0146C46.9305 45.9735 44.6545 45.9735 43.0612 45.2907C42.8336 45.0631 42.606 45.0631 41.9232 45.2907C41.2404 45.5183 37.1434 46.2011 36.233 46.2011C36.1096 46.2011 35.9778 46.2053 35.8393 46.2097L35.8391 46.2097C34.9563 46.2377 33.8025 46.2744 32.8189 45.2907C32.136 46.2011 31.4532 47.5667 31.9084 48.7048C32.8185 49.6149 33.7286 50.2975 34.6387 50.98L34.6388 50.9801L34.6388 50.9801L34.6389 50.9801L34.6389 50.9802L34.639 50.9802L34.639 50.9803L34.639 50.9803L34.6391 50.9803L34.6391 50.9804L34.6392 50.9804L34.6392 50.9804L34.6392 50.9805L34.6393 50.9805L34.6393 50.9805L34.6394 50.9806L34.6394 50.9806L34.6394 50.9806L34.6395 50.9807L34.6395 50.9807L34.6396 50.9807L34.6396 50.9808L34.6396 50.9808L34.6397 50.9809C36.4606 51.4361 38.7367 51.2085 40.5575 50.5257C41.0127 50.298 46.4753 48.022 49.6618 47.7944C52.1655 47.7944 52.1655 45.5183 51.7103 44.3802C51.4827 43.4698 51.2551 41.8765 51.2551 40.9661C51.2551 40.0557 51.0275 38.69 49.2066 37.3244C47.3858 35.9587 46.2477 35.0483 46.2477 33.9103C46.2477 33.2274 46.4753 32.317 46.9306 32.0894C47.3858 31.8618 47.3858 31.4066 47.3858 31.179C47.1582 30.7238 46.9306 29.8133 48.0686 29.8133C48.0686 29.8133 48.5238 29.3581 48.5238 29.1305C48.5238 29.0889 48.5086 29.0091 48.4892 28.9079C48.4029 28.4564 48.2352 27.5789 48.979 27.7649C49.2066 27.7649 49.6618 27.5372 49.6618 27.082C49.6618 26.9798 49.5701 26.7973 49.4586 26.5757C49.0737 25.8103 48.4542 24.5783 50.5723 24.5783C52.1655 24.5783 54.214 23.8955 55.1244 22.7575C59.2214 17.5225 65.5944 16.6121 71.5122 22.3023C77.2024 27.5373 76.0644 35.7311 72.4226 39.3729C69.2361 42.787 66.7324 43.4698 64.2288 43.4698C64.1311 43.4698 64.023 43.4488 63.9111 43.4272C63.5015 43.3478 63.0419 43.2588 62.8631 44.1526ZM18.9345 8.41816L19.3897 7.96295L19.8449 7.73534L19.6173 8.87338C18.9345 12.9703 17.1136 16.6121 14.8375 18.6605L14.3823 19.1157L14.1547 18.2053V17.9777C13.4719 13.6531 17.3412 9.78381 18.9345 8.41816ZM11.6511 15.2471L11.4235 15.7023C11.1959 16.3851 10.7407 17.9784 10.5131 19.7993C10.0578 22.5306 10.2854 26.6275 12.5615 29.5864L12.7891 30.0416L13.0167 30.4968L13.472 28.676C13.9272 25.4895 13.2444 18.8888 12.1063 15.9299L11.6511 15.0195V15.2471ZM8.91977 27.0811V26.6259L9.14738 25.9431L9.83021 26.8535C12.1063 29.5848 15.2928 37.5511 15.2928 40.2824V41.1928L14.61 40.7376C8.91977 36.8683 8.69217 29.8124 8.91977 27.0811ZM9.83032 39.1451V39.6003C10.7407 43.6973 14.3825 50.0703 20.3003 52.1188L21.2107 52.3464L20.9831 51.4359C19.8451 48.477 14.1549 41.4212 10.5131 39.1451L9.83032 38.6899V39.1451ZM21.8448 14.1242L21.8935 14.1079V13.8803L21.8448 14.1242ZM21.8448 14.1242L21.2107 14.3355C16.8861 17.0668 14.8377 20.2533 14.8377 24.3503V25.2607L15.5205 24.8055C17.7966 22.757 20.9831 17.7496 21.6659 15.0183L21.8448 14.1242ZM19.1624 22.7567L18.9348 23.2119C17.7968 24.35 14.1551 28.2193 14.3827 32.9991C14.3827 33.6819 14.6103 34.5923 14.8379 35.2751L15.0655 35.958L15.5207 35.2751C17.3416 32.7715 19.6176 26.3984 19.39 23.4395V22.5291L19.1624 22.7567ZM19.1621 31.6336L19.3897 31.1784L19.6173 30.9508L19.8449 31.8612C20.0725 32.544 20.3001 33.6821 20.3001 35.0477C20.3001 38.9171 19.6173 43.6968 18.9345 45.2901L18.7069 45.9729L18.2516 45.2901C17.1136 43.4692 16.4308 41.6483 16.4308 39.8275C16.4308 37.0962 17.3412 34.3649 19.1621 31.6336ZM21.4382 40.0562L21.2106 40.5114C21.1779 40.6423 21.1452 40.7719 21.1127 40.9006L21.1125 40.9013C20.6934 42.5629 20.3165 44.0566 20.5278 45.7464C20.5278 49.3881 22.3486 52.347 25.5352 54.3955L25.9904 54.6231L26.218 53.9403V53.2575C26.218 50.2986 23.9419 42.5599 22.121 40.2838L21.6658 39.601L21.4382 40.0562ZM15.5206 52.3466L15.293 51.8914L15.0654 51.6638L15.9758 51.8914C19.1623 52.3466 28.2666 57.5816 29.6323 59.6301L30.0875 60.0853H29.4047C21.8936 61.4509 17.7967 56.216 15.5206 52.3466ZM26.4458 61.9056L25.3077 62.1332L26.4458 62.5884C31.2255 64.6369 37.1433 65.0921 40.785 63.954C42.1507 63.4988 42.8335 62.816 43.7439 61.9056C45.3732 62.0866 46.9705 62.5716 48.5018 63.263C47.0643 64.0259 42.7454 66.7271 39.8747 70.5547L39.6471 70.7823L39.8747 71.0099C39.9885 71.1237 40.2161 71.2944 40.4437 71.4651L40.4438 71.4651C40.6714 71.6358 40.899 71.8065 41.0128 71.9203H41.2404L41.468 71.6927C43.6121 69.1198 46.6539 66.098 50.1423 64.0932C53.7049 66.0887 56.8134 69.0764 58.9937 71.6927L59.2213 71.9203H59.4489C59.9041 71.6927 60.3593 71.2375 60.5869 71.0099L60.8145 70.7823L60.5869 70.5547C57.7224 66.7352 53.4157 64.1977 51.9691 63.3453L51.969 63.3452L51.9688 63.3451C51.9041 63.307 51.8451 63.2723 51.7923 63.2409C53.3745 62.5167 55.0289 62.0307 56.7177 61.9056C57.6282 62.816 58.5386 63.4988 59.6766 63.954C63.0907 65.0921 69.2361 64.6369 74.0159 62.5884L75.154 62.1332L74.0159 61.9056C63.3406 59.1844 55.1677 60.5058 50.2056 62.506C45.0678 60.5058 36.9118 59.1844 26.4458 61.9056ZM26.6734 49.6159V49.1607L26.4457 48.9331L27.1286 49.3883C29.6322 50.9816 36.6881 56.8994 37.1433 58.9478L37.3709 59.403H36.9157C29.177 60.0859 27.3562 54.1681 26.6734 49.6159ZM80.3887 7.50726L80.6163 8.6453C81.2992 12.7422 83.12 16.384 85.3961 18.4324L85.8513 18.8877L86.0789 17.9772V17.7496C86.7617 13.4251 82.8924 9.55574 81.2992 8.19009L80.844 7.73487L80.3887 7.50726ZM87.9 15.7014L88.3552 14.7909V15.2462L88.5828 15.7014C88.8104 16.3842 89.2656 17.7498 89.4932 19.7983C89.9484 22.7572 89.9484 26.6266 87.4448 29.5855L87.2171 30.0407L86.9895 30.2683L86.5343 28.4474C86.3067 25.2609 86.7619 18.6603 87.9 15.7014ZM91.3142 26.1714L90.6313 27.0818C88.3553 30.0407 85.1688 37.7794 85.1688 40.5107V41.4211L85.8516 40.9659C91.5418 37.3242 91.7694 30.2684 91.5418 27.3095V26.8542L91.3142 26.1714ZM89.4931 39.1451L90.4036 38.6899L90.176 39.1451V39.6003C89.4931 43.6973 85.6238 50.2979 79.706 52.1188L78.7956 52.3464L79.0232 51.4359C80.1612 48.477 85.8514 41.4212 89.4931 39.1451ZM78.3405 13.6534L78.5681 14.7915C79.4785 17.7504 82.2098 22.7577 84.7135 24.8062L85.3963 25.2614V24.351C85.6239 20.254 83.5755 17.0675 79.2509 14.3362L78.7957 14.1086L78.3405 13.6534ZM80.8439 23.4395V22.5291L81.0715 22.9843L81.2991 23.2119C82.4372 24.35 86.0788 28.2193 85.8512 32.9991C85.8512 33.5394 85.7087 34.0797 85.5365 34.7327L85.5365 34.7328C85.491 34.9051 85.4435 35.0851 85.396 35.2751L85.1684 35.958L84.7132 35.2751C83.12 32.9991 80.6163 26.3984 80.8439 23.4395ZM80.6165 30.7232L80.3889 31.6336C80.1613 32.3164 79.9337 33.4545 79.9337 34.8201C79.9337 38.6895 80.3889 43.4692 81.2993 45.0625L81.5269 45.7453L81.9821 45.0625C83.1202 43.4692 83.803 41.6484 83.803 39.5999C83.803 37.0962 82.8926 34.1373 81.0717 31.406L80.8441 30.9508L80.6165 30.7232ZM78.1127 40.2838L78.5679 39.601L78.7955 40.0562L79.0231 40.5114C79.4783 42.3323 79.7059 44.1532 79.7059 45.7464C79.4783 49.3881 77.885 52.347 74.6985 54.3955L74.2433 54.6231L74.0157 53.9403V53.2575C74.0157 50.2986 76.2918 42.5599 78.1127 40.2838ZM85.1685 51.4357L84.2581 51.6633C81.0716 52.1185 71.9673 57.3535 70.6016 59.402L70.1464 59.8572H70.8292C78.3403 61.2229 82.4372 55.9879 84.7133 52.1185L84.9409 51.6633L85.1685 51.4357ZM73.5605 48.7048L72.8777 49.16C70.374 50.7532 63.5458 56.671 62.863 58.7195L62.6353 59.1747H63.0906C70.6016 59.8575 72.4225 53.9397 73.3329 49.3876V48.9324L73.5605 48.7048ZM90.1881 110.253V92.979H86.7332V90.3878H90.1881V86.0692C90.2961 81.7506 93.643 80.563 96.4501 80.563C97.3138 80.563 98.2855 80.7789 99.1492 80.9949V84.1259C98.8253 84.1259 98.5014 84.0989 98.1775 84.0719C97.8536 84.0449 97.5297 84.0179 97.2058 84.0179C95.0465 84.0179 93.8589 84.5577 93.9669 86.717V90.3878H98.6094V92.979H93.9669V110.253H90.1881ZM42.2518 81.5346H46.7863V85.6372H42.2518V81.5346ZM42.6836 90.3877H46.4624V110.469H42.6836V90.3877ZM14.0729 90.3876H17.8517V110.469H14.1809V107.554H14.0729C12.5614 110.037 9.97027 111.117 7.16318 111.117C2.95256 111.117 0.577332 107.878 0.577332 103.883V90.3876H4.3561V102.264C4.3561 105.719 5.11185 108.31 8.78265 108.31C10.2942 108.31 12.4535 107.554 13.2092 105.395C13.965 103.559 13.965 101.184 13.965 100.644V90.3876H14.0729ZM31.5632 89.7399C29.5119 89.7399 26.8128 90.8195 25.4092 93.3027V90.3876H21.6304V110.469H25.4092V99.5647C25.4092 95.7573 26.39 94.7942 26.9493 94.2448C26.9657 94.2287 26.9818 94.2129 26.9974 94.1975C27.008 94.187 27.0185 94.1766 27.0287 94.1664C28.6482 92.5469 30.6995 92.6549 30.6995 92.6549C33.9384 92.6549 35.342 94.3823 35.342 97.7293V110.361H39.1207V96.5416C39.1207 90.0638 32.9667 89.7399 31.5632 89.7399ZM62.3332 96.7576C62.1173 94.2744 60.9297 92.5469 58.2306 92.5469C54.6677 92.5469 53.2642 95.6779 53.2642 100.32C53.2642 104.963 54.6677 108.094 58.2306 108.094C60.7138 108.094 62.2253 106.474 62.4412 103.559H66.2199C65.8961 108.094 62.5492 110.793 58.1226 110.793C51.7527 110.793 49.1615 106.258 49.1615 100.428C49.1615 94.5983 52.0766 89.7399 58.4465 89.7399C62.6571 89.7399 65.7881 92.439 66.004 96.7576H62.3332ZM76.8005 108.202C73.0217 108.202 71.5102 104.531 71.8341 101.076H85.8695V99.2407C85.8695 93.7345 83.0625 89.9558 77.1244 89.8478C70.7545 89.8478 67.8394 94.7062 67.8394 100.536C67.8394 106.366 70.4306 110.901 76.8005 110.901C81.5509 110.901 85.0058 108.634 85.6536 104.099H81.6589C81.2271 107.014 79.7155 108.202 76.8005 108.202ZM76.9085 92.5469C80.5793 92.5469 82.0908 95.1381 81.9828 98.485H71.9421C71.9421 95.246 73.7775 92.5469 76.9085 92.5469Z" fill="white"/>
</svg>
