<svg width="18" height="15" viewBox="0 0 18 15" fill="none" xmlns="http://www.w3.org/2000/svg">
<path d="M10.534 14.571C10.6828 14.5686 10.8295 14.5361 10.9654 14.4756C11.1013 14.4152 11.2236 14.3279 11.325 14.219L17.091 8.47102C17.313 8.24939 17.4393 7.94966 17.443 7.63602C17.4409 7.32205 17.3143 7.02173 17.091 6.80102L11.342 1.05302C11.2383 0.94194 11.1134 0.852831 10.9746 0.790988C10.8358 0.729145 10.6859 0.69583 10.534 0.693021C10.3897 0.68618 10.2456 0.708953 10.1105 0.759936C9.97531 0.810919 9.85204 0.889032 9.74824 0.989464C9.64443 1.0899 9.56229 1.21052 9.50688 1.3439C9.45146 1.47728 9.42394 1.6206 9.42601 1.76502C9.42688 1.91585 9.45763 2.065 9.51651 2.20386C9.57538 2.34273 9.66121 2.46854 9.76901 2.57402L11.769 4.57402L13.988 6.61702L12.01 6.51202H1.71801C1.56597 6.50122 1.41335 6.5226 1.27013 6.57477C1.12691 6.62694 0.996308 6.70873 0.88684 6.81481C0.777373 6.92088 0.691506 7.04884 0.634845 7.19034C0.578184 7.33185 0.552003 7.48371 0.558011 7.63602C0.551859 7.78841 0.577933 7.94039 0.634529 8.08201C0.691126 8.22364 0.776971 8.35172 0.886454 8.4579C0.995938 8.56408 1.1266 8.64597 1.26989 8.6982C1.41318 8.75043 1.56588 8.77184 1.71801 8.76102H12.01L13.988 8.64702L11.764 10.693L9.76401 12.693C9.65621 12.7985 9.57038 12.9243 9.51151 13.0632C9.45263 13.202 9.42188 13.3512 9.42101 13.502C9.41857 13.6468 9.44604 13.7906 9.50169 13.9243C9.55734 14.058 9.63998 14.1789 9.74444 14.2792C9.8489 14.3795 9.97294 14.4572 10.1088 14.5074C10.2447 14.5576 10.3894 14.5793 10.534 14.571Z" fill="white"/>
</svg>
