<svg
  width="18"
  height="15"
  viewBox="0 0 18 15"
  fill="none"
  xmlns="http://www.w3.org/2000/svg"
>
<path
    d="M7.46599 14.5711C7.31725 14.5686 7.17053 14.5362 7.03461 14.4757C6.8987 14.4152 6.77639 14.3279 6.67499 14.2191L0.908987 8.47108C0.687035 8.24945 0.560684 7.94972 0.556988 7.63608C0.559065 7.32211 0.685665 7.02179 0.908987 6.80108L6.65799 1.05308C6.76168 0.942001 6.88664 0.852892 7.02544 0.791049C7.16424 0.729206 7.31406 0.695891 7.46599 0.693082C7.61026 0.686241 7.75441 0.709014 7.88955 0.759997C8.02469 0.81098 8.14796 0.889093 8.25176 0.989525C8.35557 1.08996 8.43771 1.21058 8.49312 1.34396C8.54854 1.47734 8.57606 1.62066 8.57399 1.76508C8.57312 1.91591 8.54237 2.06506 8.48349 2.20392C8.42462 2.34279 8.33879 2.4686 8.23099 2.57408L6.23099 4.57408L4.01199 6.61708L5.98999 6.51208H16.282C16.434 6.50128 16.5866 6.52266 16.7299 6.57483C16.8731 6.627 17.0037 6.7088 17.1132 6.81487C17.2226 6.92094 17.3085 7.0489 17.3652 7.19041C17.4218 7.33191 17.448 7.48377 17.442 7.63608C17.4481 7.78847 17.4221 7.94045 17.3655 8.08207C17.3089 8.2237 17.223 8.35178 17.1135 8.45796C17.0041 8.56415 16.8734 8.64603 16.7301 8.69826C16.5868 8.75049 16.4341 8.7719 16.282 8.76108H5.98999L4.01199 8.64708L6.23599 10.6931L8.23599 12.6931C8.34379 12.7986 8.42962 12.9244 8.48849 13.0632C8.54737 13.2021 8.57812 13.3513 8.57899 13.5021C8.58143 13.6469 8.55396 13.7907 8.49831 13.9244C8.44266 14.0581 8.36002 14.1789 8.25556 14.2792C8.1511 14.3796 8.02706 14.4573 7.8912 14.5075C7.75535 14.5577 7.61059 14.5794 7.46599 14.5711Z"
    fill="#ffffff"
  />
</svg>
