<svg width="18" height="15" viewBox="0 0 18 15" fill="none" xmlns="http://www.w3.org/2000/svg">
<path d="M10.534 14.5711C10.6828 14.5686 10.8295 14.5362 10.9654 14.4757C11.1013 14.4152 11.2236 14.3279 11.325 14.2191L17.091 8.47108C17.313 8.24945 17.4393 7.94972 17.443 7.63608C17.4409 7.32211 17.3143 7.02179 17.091 6.80108L11.342 1.05308C11.2383 0.942001 11.1134 0.852892 10.9746 0.791049C10.8358 0.729206 10.6859 0.695891 10.534 0.693082C10.3897 0.686241 10.2456 0.709014 10.1105 0.759997C9.97531 0.81098 9.85204 0.889093 9.74824 0.989525C9.64443 1.08996 9.56229 1.21058 9.50688 1.34396C9.45146 1.47734 9.42394 1.62066 9.42601 1.76508C9.42688 1.91591 9.45763 2.06506 9.51651 2.20392C9.57538 2.34279 9.66121 2.4686 9.76901 2.57408L11.769 4.57408L13.988 6.61708L12.01 6.51208H1.71801C1.56597 6.50128 1.41335 6.52266 1.27013 6.57483C1.12691 6.627 0.996308 6.7088 0.88684 6.81487C0.777373 6.92094 0.691506 7.0489 0.634845 7.19041C0.578184 7.33191 0.552003 7.48377 0.558011 7.63608C0.551859 7.78847 0.577933 7.94045 0.634529 8.08207C0.691126 8.2237 0.776971 8.35178 0.886454 8.45796C0.995938 8.56415 1.1266 8.64603 1.26989 8.69826C1.41318 8.75049 1.56588 8.7719 1.71801 8.76108H12.01L13.988 8.64708L11.764 10.6931L9.76401 12.6931C9.65621 12.7986 9.57038 12.9244 9.51151 13.0632C9.45263 13.2021 9.42188 13.3513 9.42101 13.5021C9.41857 13.6469 9.44604 13.7907 9.50169 13.9244C9.55734 14.0581 9.63998 14.1789 9.74444 14.2792C9.8489 14.3796 9.97294 14.4573 10.1088 14.5075C10.2447 14.5577 10.3894 14.5794 10.534 14.5711Z" fill="#9C42F5"/>
</svg>
