<svg width="23" height="17" viewBox="0 0 23 17" fill="none" xmlns="http://www.w3.org/2000/svg">
<path fill-rule="evenodd" clip-rule="evenodd" d="M1.57768 15.3641V1.57768H6.58464V4.35542C6.58464 4.79108 6.93781 5.14426 7.37348 5.14426C7.80914 5.14426 8.16232 4.79108 8.16232 4.35542V1.57768H20.8513V4.55823C20.2838 4.73232 19.6262 5.02947 19.047 5.48748C18.2413 6.12446 17.559 7.1021 17.559 8.47091C17.559 9.83972 18.2413 10.8174 19.047 11.4543C19.6262 11.9123 20.2838 12.2095 20.8513 12.3836V15.3641H8.16232V13.1352C8.16232 12.6995 7.80914 12.3463 7.37348 12.3463C6.93781 12.3463 6.58464 12.6995 6.58464 13.1352V15.3641H1.57768ZM7.3579 16.9418H0.880746C0.39433 16.9418 0 16.5475 0 16.0611V0.880746C0 0.394309 0.394339 0 0.880747 0H21.5483C22.0347 0 22.429 0.394323 22.429 0.880746V5.10074C22.429 5.52801 22.1242 5.88915 21.7105 5.96726C21.2448 6.05518 20.5674 6.2966 20.0255 6.72506C19.5028 7.13832 19.1367 7.6944 19.1367 8.47091C19.1367 9.24741 19.5028 9.8035 20.0255 10.2168C20.5674 10.6452 21.2448 10.8866 21.7105 10.9746C22.1242 11.0527 22.429 11.4138 22.429 11.8411V16.0611C22.429 16.5475 22.0347 16.9418 21.5483 16.9418H7.38905C7.38387 16.9419 7.37868 16.942 7.37348 16.942C7.36828 16.942 7.36308 16.9419 7.3579 16.9418ZM7.37348 6.58454C7.80914 6.58454 8.16232 6.93771 8.16232 7.37338V9.84261C8.16232 10.2783 7.80914 10.6315 7.37348 10.6315C6.93781 10.6315 6.58464 10.2783 6.58464 9.84261V7.37338C6.58464 6.93771 6.93781 6.58454 7.37348 6.58454Z" fill="white"/>
</svg>
