<svg width="11" height="12" viewBox="0 0 11 12" fill="none" xmlns="http://www.w3.org/2000/svg">
<path d="M10.9467 5.86484C10.9021 5.78166 10.7908 5.74008 10.7017 5.71928C10.1894 5.71928 5.77958 5.55293 5.77958 0.770321C5.77958 0.624764 5.64595 0.5 5.49005 0.5C5.33414 0.5 5.20051 0.624764 5.20051 0.770321C5.20051 5.55293 0.790655 5.71928 0.300672 5.71928C0.233856 5.71928 0.16704 5.74008 0.122496 5.78166C0.0779519 5.80246 0.05568 5.84405 0.033408 5.86484C-0.011136 5.94801 -0.011136 6.05198 0.033408 6.13516C0.077952 6.21834 0.189312 6.28072 0.300672 6.28072C0.300672 6.28072 0.300672 6.28072 0.322944 6.28072C0.8352 6.28072 5.22278 6.44707 5.22278 11.2297C5.22278 11.3752 5.35641 11.5 5.51232 11.5C5.66822 11.5 5.80185 11.3752 5.80185 11.2297C5.80185 6.46786 10.1894 6.28072 10.7017 6.28072C10.8131 6.28072 10.9021 6.21834 10.969 6.13516C11.0135 6.05198 11.0135 5.94801 10.9467 5.86484Z" fill="white"/>
</svg>
