<svg width="32" height="36" viewBox="0 0 32 36" fill="none" xmlns="http://www.w3.org/2000/svg">
<path d="M2.07834 27.7459L14.609 34.8082C15.4766 35.2723 16.2636 35.2925 17.1312 34.8082L29.6618 27.7459C31.0541 26.9589 31.7402 26.1518 31.7402 24.0937V11.3007C31.7402 9.84793 31.1752 8.91973 29.9847 8.23366L18.4832 1.71616C16.7478 0.727425 15.0125 0.727425 13.257 1.71616L1.75551 8.23366C0.564984 8.91973 0 9.84793 0 11.3007V24.0937C0 26.1518 0.686065 26.9589 2.07834 27.7459ZM15.8802 16.9506L3.28903 9.90847L14.2458 3.69359C15.3555 3.06806 16.3846 3.04789 17.5146 3.69359L28.4511 9.90847L15.8802 16.9506ZM3.36974 25.9299C2.42138 25.3851 2.13888 24.9008 2.13888 24.0129V11.7649L14.7704 18.9079V32.3465L3.36974 25.9299ZM28.3704 25.9299L16.9698 32.3465V18.9079L29.6013 11.7649V24.0129C29.6013 24.9008 29.3188 25.3851 28.3704 25.9299Z" fill="white"/>
</svg>
