<svg width="23" height="20" viewBox="0 0 23 20" fill="none" xmlns="http://www.w3.org/2000/svg">
<path fill-rule="evenodd" clip-rule="evenodd" d="M8.8456 14.7451L20.4002 18.7184C20.8793 19.1504 21.272 19.3624 21.7747 19.3624C22.4895 19.3624 23 18.8362 23 18.1293V2.03541C23 1.3285 22.4895 0.755127 21.759 0.755127C21.2642 0.755127 20.9186 0.982905 20.4002 1.44633L8.11135 5.67204C8.0328 5.73488 7.9464 5.76629 7.84429 5.76629H3.03513C1.59776 5.76629 0.882996 6.50462 0.882996 8.01269V12.152C0.882996 13.6391 1.57798 14.37 2.97547 14.3901V17.0291C2.97547 18.7728 3.84732 19.6683 5.61458 19.6683H6.2065C7.97376 19.6683 8.8456 18.7728 8.8456 17.0291L8.8456 14.7451ZM4.66419 14.3905H7.14904V16.9348C7.14904 17.6497 6.85057 17.9796 6.11224 17.9796H5.70883C4.97051 17.9796 4.66419 17.6497 4.66419 16.9348V14.3905ZM2.60314 12.207C2.60314 12.5997 2.78378 12.7804 3.17651 12.7804H8.24486C8.54334 12.7804 8.74755 12.8353 8.99104 13.0553L20.9421 17.0061C21.005 17.0689 21.0678 17.1003 21.1306 17.1003C21.217 17.1003 21.2799 17.0375 21.2799 16.9354V3.18217C21.2799 3.08791 21.217 3.02507 21.1228 3.02507C21.0521 3.02507 20.9893 3.06436 20.9343 3.11934L8.99104 7.10156C8.74755 7.3372 8.54334 7.38432 8.24486 7.38432H3.17651C2.78378 7.38432 2.60314 7.56498 2.60314 7.95771V12.207Z" fill="white"/>
</svg>
