<svg width="15" height="13" viewBox="0 0 15 13" fill="none" xmlns="http://www.w3.org/2000/svg">
<path d="M2.48593 13H12.5141C14.1557 13 15 12.2161 15 10.6924V2.30758C15 0.783875 14.1557 0 12.5141 0H2.48593C0.853662 0 0 0.783875 0 2.30758V10.6924C0 12.2161 0.853662 13 2.48593 13ZM2.45779 11.5027C1.90431 11.5027 1.59475 11.2297 1.59475 10.6836V4.22764C1.59475 3.67276 1.90431 3.40852 2.45779 3.40852H12.5422C13.0957 3.40852 13.4053 3.67276 13.4053 4.22764V10.6836C13.4053 11.2297 13.0957 11.5027 12.5422 11.5027H2.45779ZM6.09756 5.8042H6.52908C6.8105 5.8042 6.90431 5.71612 6.90431 5.4607V5.05555C6.90431 4.79133 6.8105 4.71205 6.52908 4.71205H6.09756C5.82552 4.71205 5.72233 4.79133 5.72233 5.05555V5.4607C5.72233 5.71612 5.82552 5.8042 6.09756 5.8042ZM8.47091 5.8042H8.90244C9.18387 5.8042 9.27767 5.71612 9.27767 5.4607V5.05555C9.27767 4.79133 9.18387 4.71205 8.90244 4.71205H8.47091C8.19887 4.71205 8.09569 4.79133 8.09569 5.05555V5.4607C8.09569 5.71612 8.19887 5.8042 8.47091 5.8042ZM10.8537 5.8042H11.2852C11.5572 5.8042 11.6604 5.71612 11.6604 5.4607V5.05555C11.6604 4.79133 11.5572 4.71205 11.2852 4.71205H10.8537C10.5722 4.71205 10.469 4.79133 10.469 5.05555V5.4607C10.469 5.71612 10.5722 5.8042 10.8537 5.8042ZM3.72421 7.99729H4.15573C4.42777 7.99729 4.53096 7.91801 4.53096 7.65379V7.24864C4.53096 6.99322 4.42777 6.90514 4.15573 6.90514H3.72421C3.44277 6.90514 3.34898 6.99322 3.34898 7.24864V7.65379C3.34898 7.91801 3.44277 7.99729 3.72421 7.99729ZM6.09756 7.99729H6.52908C6.8105 7.99729 6.90431 7.91801 6.90431 7.65379V7.24864C6.90431 6.99322 6.8105 6.90514 6.52908 6.90514H6.09756C5.82552 6.90514 5.72233 6.99322 5.72233 7.24864V7.65379C5.72233 7.91801 5.82552 7.99729 6.09756 7.99729ZM8.47091 7.99729H8.90244C9.18387 7.99729 9.27767 7.91801 9.27767 7.65379V7.24864C9.27767 6.99322 9.18387 6.90514 8.90244 6.90514H8.47091C8.19887 6.90514 8.09569 6.99322 8.09569 7.24864V7.65379C8.09569 7.91801 8.19887 7.99729 8.47091 7.99729ZM10.8537 7.99729H11.2852C11.5572 7.99729 11.6604 7.91801 11.6604 7.65379V7.24864C11.6604 6.99322 11.5572 6.90514 11.2852 6.90514H10.8537C10.5722 6.90514 10.469 6.99322 10.469 7.24864V7.65379C10.469 7.91801 10.5722 7.99729 10.8537 7.99729ZM3.72421 10.1992H4.15573C4.42777 10.1992 4.53096 10.1111 4.53096 9.84688V9.44173C4.53096 9.18631 4.42777 9.09823 4.15573 9.09823H3.72421C3.44277 9.09823 3.34898 9.18631 3.34898 9.44173V9.84688C3.34898 10.1111 3.44277 10.1992 3.72421 10.1992ZM6.09756 10.1992H6.52908C6.8105 10.1992 6.90431 10.1111 6.90431 9.84688V9.44173C6.90431 9.18631 6.8105 9.09823 6.52908 9.09823H6.09756C5.82552 9.09823 5.72233 9.18631 5.72233 9.44173V9.84688C5.72233 10.1111 5.82552 10.1992 6.09756 10.1992ZM8.47091 10.1992H8.90244C9.18387 10.1992 9.27767 10.1111 9.27767 9.84688V9.44173C9.27767 9.18631 9.18387 9.09823 8.90244 9.09823H8.47091C8.19887 9.09823 8.09569 9.18631 8.09569 9.44173V9.84688C8.09569 10.1111 8.19887 10.1992 8.47091 10.1992Z" fill="white"/>
</svg>
