<svg width="24" height="18" viewBox="0 0 24 18" fill="none" xmlns="http://www.w3.org/2000/svg">
<path d="M3.42617 18H20.5738C22.8299 18 24 16.8549 24 14.6801V3.31992C24 1.13684 22.8299 0 20.5738 0H3.42617C1.17012 0 0 1.12861 0 3.31992V14.6801C0 16.8632 1.17012 18 3.42617 18ZM1.85197 3.4682C1.85197 2.3643 2.44125 1.80412 3.53561 1.80412H20.4645C21.542 1.80412 22.1565 2.3643 22.1565 3.4682V4.31671H1.85197V3.4682ZM3.53561 16.1959C2.44125 16.1959 1.85197 15.6357 1.85197 14.5236V6.77164H22.1565V14.5236C22.1565 15.6357 21.542 16.1959 20.4645 16.1959H3.53561ZM4.85726 13.1066H7.51739C8.15716 13.1066 8.58648 12.6865 8.58648 12.0934V10.1245C8.58648 9.52312 8.15716 9.10297 7.51739 9.10297H4.85726C4.21747 9.10297 3.78815 9.52312 3.78815 10.1245V12.0934C3.78815 12.6865 4.21747 13.1066 4.85726 13.1066Z" fill="white"/>
</svg>
