<svg width="20" height="18" viewBox="0 0 20 18" fill="none" xmlns="http://www.w3.org/2000/svg">
<path d="M19.1266 0.137873C18.2241 -0.357246 17.2175 0.597626 16.6274 1.16348C15.2737 2.50737 14.1282 4.06346 12.8438 5.47808C11.4206 7.03417 10.1016 8.59025 8.64371 10.111C7.81064 10.9598 6.90814 11.8793 6.35275 12.9403C5.10313 11.7024 4.02708 10.3585 2.63861 9.26226C1.63198 8.48421 -0.0341777 7.91836 0.000533834 9.79274C0.069957 12.233 2.18736 14.8501 3.74938 16.5122C4.4089 17.2195 5.27669 17.9622 6.28333 17.9976C7.49823 18.0683 8.74785 16.5829 9.47679 15.7695C10.7612 14.3549 11.8025 12.7634 12.9827 11.3135C14.51 9.40372 16.072 7.52928 17.5646 5.58418C18.5018 4.38175 21.4523 1.41098 19.1266 0.137873Z" fill="#9C42F5"/>
</svg>
