<svg width="30" height="30" viewBox="0 0 30 30" fill="none" xmlns="http://www.w3.org/2000/svg">
<g clip-path="url(#clip0)">
<path d="M6.16792 23.5233C6.76306 24.1184 7.71482 24.1405 8.2992 23.5561L15.0064 16.8489L21.6743 23.5169C22.2559 24.0985 23.2478 24.1075 23.8322 23.5231C24.4166 22.9388 24.4076 21.9469 23.826 21.3653L17.158 14.6973L23.8784 7.97687C24.4628 7.39249 24.4407 6.44073 23.8456 5.84559C23.2505 5.25049 22.2852 5.21489 21.7008 5.79926L14.9804 12.5197L8.32589 5.86522C7.73079 5.27011 6.73891 5.26109 6.15453 5.84547C5.57013 6.42987 5.57917 7.42173 6.17428 8.01683L12.8288 14.6713L6.1216 21.3785C5.53721 21.9628 5.57282 22.9282 6.16792 23.5233Z" fill="white"/>
</g>
<defs>
<clipPath id="clip0">
<rect width="30" height="30" fill="white"/>
</clipPath>
</defs>
</svg>
