<svg width="16" height="30" viewBox="0 0 16 30" fill="none" xmlns="http://www.w3.org/2000/svg">
<path d="M4.94836 2.81949C4.94836 4.37095 6.19298 5.60913 7.76745 5.60913C9.34195 5.60913 10.5715 4.37095 10.5715 2.81949C10.5566 1.23818 9.34195 0 7.76745 0C6.19298 0 4.94836 1.23818 4.94836 2.81949ZM0 28.2397C0 29.3138 0.749753 30 1.90436 30H14.0954C15.25 30 15.9998 29.3138 15.9998 28.2397C16.0148 27.1805 15.265 26.4794 14.0954 26.4794H10.3916V12.0388C10.3916 10.905 9.65685 10.189 8.5472 10.189H2.51917C1.36454 10.189 0.614783 10.8752 0.614783 11.9493C0.62977 13.0085 1.37952 13.7096 2.51917 13.7096H6.55284V26.4794H1.90436C0.749753 26.4794 0 27.1805 0 28.2397Z" fill="white"/>
</svg>
