<svg width="23" height="19" viewBox="0 0 23 19" fill="none" xmlns="http://www.w3.org/2000/svg">
<path d="M11.5 1.92227C10.7173 0.973509 8.66154 0 6.21876 0C3.12228 0 0.559082 1.53451 0 2.90404V17.845C0 18.67 0.559082 19 1.18697 19C1.66865 19 1.95249 18.8597 2.23635 18.637C2.81262 18.1255 4.13724 17.3665 6.21876 17.3665C8.31748 17.3665 9.77111 18.109 10.2872 18.5875C10.5624 18.802 10.9065 19 11.5 19C12.0935 19 12.4289 18.7855 12.7128 18.5875C13.2547 18.1337 14.6825 17.3665 16.7726 17.3665C18.8628 17.3665 20.196 18.1337 20.7637 18.637C21.0475 18.8597 21.3313 19 21.8131 19C22.4409 19 23 18.67 23 17.845V2.90404C22.4323 1.53451 19.8776 0 16.7726 0C14.3384 0 12.2741 0.973509 11.5 1.92227ZM1.90949 3.48153C2.14173 2.84629 3.79319 1.69952 6.21876 1.69952C8.65293 1.69952 10.3388 2.85453 10.5452 3.48153V16.8302C9.53027 16.0547 7.93903 15.6504 6.21876 15.6504C4.50709 15.6504 2.92444 16.0547 1.90949 16.8632V3.48153ZM21.0905 3.48153V16.8632C20.0755 16.0547 18.4929 15.6504 16.7726 15.6504C15.0609 15.6504 13.4697 16.0547 12.4547 16.8302V3.48153C12.6612 2.85453 14.347 1.69952 16.7726 1.69952C19.2068 1.69952 20.8583 2.84629 21.0905 3.48153Z" fill="white"/>
</svg>
