<svg width="26" height="17" viewBox="0 0 26 17" fill="none" xmlns="http://www.w3.org/2000/svg">
<path d="M0 13.3959C0 15.6032 1.38194 17 3.40278 17C4.52083 17 5.54861 16.4934 6.33332 15.5453L7.95138 13.5551C8.1875 13.2656 8.4236 13.1354 8.70833 13.1354H17.2916C17.5763 13.1354 17.8194 13.2656 18.0555 13.5551L19.6735 15.5453C20.4513 16.4934 21.4862 17 22.5972 17C24.618 17 26 15.6032 26 13.3959C26 12.4478 25.7916 11.3623 25.4445 10.1247C24.8888 8.20689 23.9305 5.60153 23.0069 3.57514C22.25 1.9106 21.8403 1.12899 19.9305 0.680282C18.1944 0.267767 15.8333 0 13 0C10.1667 0 7.80554 0.267767 6.06944 0.680282C4.15971 1.12899 3.75694 1.9106 2.99305 3.57514C2.06944 5.60153 1.11111 8.20689 0.562503 10.1247C0.208327 11.3623 0 12.4478 0 13.3959ZM1.44444 13.4031C1.44444 12.8242 1.56249 12.1294 1.86806 11.0366C2.45138 8.95232 3.47916 6.19498 4.39583 4.11069C4.83333 3.1192 5.09027 2.51852 6.22916 2.2435C7.88887 1.83099 10.2083 1.57045 13 1.57045C15.7916 1.57045 18.1181 1.83099 19.7708 2.2435C20.9097 2.51852 21.1666 3.1192 21.611 4.11069C22.5348 6.19498 23.5278 8.95955 24.1319 11.0366C24.4444 12.1294 24.5556 12.8242 24.5556 13.4031C24.5556 14.6769 23.7152 15.473 22.5695 15.473C21.8958 15.473 21.2361 15.1039 20.7014 14.4598L18.9375 12.3248C18.5139 11.811 18.1528 11.5649 17.4166 11.5649H8.58333C7.84722 11.5649 7.49304 11.811 7.06249 12.3248L5.29861 14.4598C4.77082 15.1039 4.10416 15.473 3.43055 15.473C2.29167 15.473 1.44444 14.6769 1.44444 13.4031ZM5.7361 6.65815C5.7361 7.1141 6.00693 7.39633 6.45138 7.39633H8.11109V9.11153C8.11109 9.56747 8.37499 9.85696 8.80555 9.85696C9.22916 9.85696 9.49304 9.56747 9.49304 9.11153V7.39633H11.0764C11.5555 7.39633 11.8403 7.1141 11.8403 6.65815C11.8403 6.21669 11.5555 5.93444 11.0764 5.93444H9.49304V4.22647C9.49304 3.77055 9.22916 3.48105 8.80555 3.48105C8.37499 3.48105 8.11109 3.77055 8.11109 4.22647V5.93444H6.45138C6.00693 5.93444 5.7361 6.21669 5.7361 6.65815ZM18.5764 6.52789C19.2986 6.52789 19.8542 5.94891 19.8542 5.19625C19.8542 4.4436 19.2986 3.85739 18.5764 3.85739C17.8611 3.85739 17.2986 4.4436 17.2986 5.19625C17.2986 5.94891 17.8611 6.52789 18.5764 6.52789ZM15.8749 9.33589C16.5973 9.33589 17.1598 8.75691 17.1598 8.01149C17.1598 7.2516 16.5973 6.67262 15.8749 6.67262C15.1597 6.67262 14.5972 7.2516 14.5972 8.01149C14.5972 8.75691 15.1597 9.33589 15.8749 9.33589Z" fill="white"/>
</svg>
