<svg width="40" height="26" viewBox="0 0 40 26" fill="none" xmlns="http://www.w3.org/2000/svg">
<path fill-rule="evenodd" clip-rule="evenodd" d="M39.0999 3.05492L38.1112 4.06406L36.2253 2.16812L37.2244 1.17936C37.7033 0.710463 38.4068 0.63911 38.8347 1.07742L39.1303 1.38323C39.6197 1.8725 39.5994 2.54526 39.0999 3.05492ZM26.0422 16.1329L23.3613 17.3255C23.0964 17.4478 22.7804 17.1318 22.9129 16.8566L24.1565 14.2472L35.2977 3.11609L37.1835 4.99164L26.0422 16.1329ZM30.7516 26H3.92282C1.55796 26 0.222656 24.7055 0.222656 22.3406V11.1994C0.222656 8.83451 1.55796 7.53998 3.92282 7.53998H27.4795L25.3796 9.6398H4.20821C3.10734 9.6398 2.48556 10.2514 2.48556 11.3625V22.1877C2.48556 23.2886 3.10734 23.9002 4.20821 23.9002H30.4662C31.5772 23.9002 32.1887 23.2886 32.1887 22.1877V13.3298L34.4516 11.0668V22.3406C34.4516 24.7055 33.1267 26 30.7516 26ZM7.88926 18.1368C7.91265 18.3697 7.78166 18.5296 7.53841 18.5296C7.29047 18.5296 7.15012 18.3652 7.17352 18.1368L7.24369 17.2553L6.45309 17.7942C6.38292 17.8445 6.30339 17.8764 6.21451 17.8764C6.02739 17.8764 5.85898 17.7257 5.85898 17.511C5.85898 17.3649 5.94319 17.2553 6.09288 17.1868L6.963 16.7711L6.09288 16.3555C5.93851 16.287 5.85898 16.1774 5.85898 16.0312C5.85898 15.8211 6.02739 15.6749 6.21451 15.6749C6.30339 15.6749 6.3876 15.7023 6.45309 15.7526L7.24836 16.2915L7.17352 15.378C7.15012 15.1314 7.31385 14.9807 7.53841 14.9807C7.75827 14.9807 7.91265 15.1268 7.88926 15.3735L7.81441 16.2915L8.60968 15.7526C8.67517 15.7023 8.7547 15.6749 8.84826 15.6749C9.03539 15.6749 9.19912 15.8211 9.19912 16.0312C9.19912 16.1774 9.11959 16.287 8.96521 16.3555L8.09509 16.7711L8.96521 17.1913C9.11959 17.2598 9.19912 17.3695 9.19912 17.5156C9.19912 17.7257 9.0307 17.8764 8.84826 17.8764C8.7547 17.8764 8.67517 17.849 8.60968 17.7942L7.82377 17.2553L7.88926 18.1368ZM12.7574 18.5296C13.0006 18.5296 13.1316 18.3697 13.1082 18.1368L13.0427 17.2553L13.8286 17.7942C13.8941 17.849 13.9737 17.8764 14.0672 17.8764C14.2497 17.8764 14.4181 17.7257 14.4181 17.5156C14.4181 17.3695 14.3385 17.2598 14.1842 17.1913L13.314 16.7711L14.1842 16.3555C14.3385 16.287 14.4181 16.1774 14.4181 16.0312C14.4181 15.8211 14.2543 15.6749 14.0672 15.6749C13.9737 15.6749 13.8941 15.7023 13.8286 15.7526L13.0334 16.2915L13.1082 15.3735C13.1316 15.1268 12.9772 14.9807 12.7574 14.9807C12.5328 14.9807 12.3691 15.1314 12.3925 15.378L12.4673 16.2915L11.672 15.7526C11.6066 15.7023 11.5223 15.6749 11.4335 15.6749C11.2463 15.6749 11.0779 15.8211 11.0779 16.0312C11.0779 16.1774 11.1575 16.287 11.3118 16.3555L12.182 16.7711L11.3118 17.1868C11.1621 17.2553 11.0779 17.3649 11.0779 17.511C11.0779 17.7257 11.2463 17.8764 11.4335 17.8764C11.5223 17.8764 11.6019 17.8445 11.672 17.7942L12.4626 17.2553L12.3925 18.1368C12.3691 18.3652 12.5094 18.5296 12.7574 18.5296ZM18.5359 18.1368C18.5592 18.3697 18.4283 18.5296 18.185 18.5296C17.9371 18.5296 17.7967 18.3652 17.8201 18.1368L17.8903 17.2553L17.0997 17.7942C17.0295 17.8445 16.95 17.8764 16.8611 17.8764C16.674 17.8764 16.5056 17.7257 16.5056 17.511C16.5056 17.3649 16.5898 17.2553 16.7395 17.1868L17.6096 16.7711L16.7395 16.3555C16.5851 16.287 16.5056 16.1774 16.5056 16.0312C16.5056 15.8211 16.674 15.6749 16.8611 15.6749C16.95 15.6749 17.0342 15.7023 17.0997 15.7526L17.895 16.2915L17.8201 15.378C17.7967 15.1314 17.9605 14.9807 18.185 14.9807C18.4049 14.9807 18.5592 15.1268 18.5359 15.3735L18.461 16.2915L19.2563 15.7526C19.3218 15.7023 19.4013 15.6749 19.4949 15.6749C19.682 15.6749 19.8457 15.8211 19.8457 16.0312C19.8457 16.1774 19.7662 16.287 19.6118 16.3555L18.7417 16.7711L19.6118 17.1913C19.7662 17.2598 19.8457 17.3695 19.8457 17.5156C19.8457 17.7257 19.6773 17.8764 19.4949 17.8764C19.4013 17.8764 19.3218 17.849 19.2563 17.7942L18.4704 17.2553L18.5359 18.1368Z" fill="white"/>
</svg>
