<svg width="26" height="26" viewBox="0 0 26 26" fill="none" xmlns="http://www.w3.org/2000/svg">
<path fill-rule="evenodd" clip-rule="evenodd" d="M15.3807 1.82393C16.5557 0.648908 18.118 0.00146484 19.7794 0.00146484C23.2101 0.00146484 26.0005 2.79189 26.0005 6.22255C26.0005 7.88395 25.3531 9.4462 24.1781 10.6212L18.7464 16.0529C17.5713 17.2279 16.0091 17.8754 14.3478 17.8754C12.6872 17.8754 11.125 17.2287 9.95072 16.0553L12.2468 13.756C13.3703 14.8778 15.3252 14.877 16.4487 13.7552L21.8803 8.32348C22.4412 7.76176 22.7507 7.01598 22.7507 6.22255C22.7507 4.58415 21.4178 3.25124 19.7794 3.25124C18.986 3.25124 18.2402 3.56066 17.6785 4.12162L14.6609 7.13918C13.7209 6.76329 12.6984 6.56057 11.6549 6.56057C11.3039 6.56057 10.9603 6.60884 10.6169 6.65708C10.59 6.66086 10.5632 6.66463 10.5363 6.66838L15.3807 1.82393ZM8.32398 21.8794L11.313 18.8904C12.2616 19.2881 13.2879 19.5 14.3475 19.4999C14.655 19.4999 14.9545 19.4585 15.254 19.4171C15.3033 19.4103 15.3525 19.4035 15.4018 19.3969L10.6217 24.1771C9.4466 25.3521 7.8844 25.9995 6.22301 25.9995C2.79237 25.9995 0.00195312 23.2091 0.00195312 19.7784C0.00195312 18.117 0.649343 16.5548 1.82441 15.3798L7.25612 9.94814C9.6062 7.59811 13.7025 7.59886 16.0518 9.94577L13.7557 12.2451C12.6322 11.1232 10.6773 11.124 9.55381 12.2459L4.12215 17.6776C3.56119 18.2393 3.25176 18.9851 3.25176 19.7785C3.25176 21.4169 4.58467 22.7498 6.22306 22.7498C7.01644 22.7498 7.76227 22.4404 8.32398 21.8794Z" fill="white"/>
</svg>
