<svg width="18" height="19" viewBox="0 0 18 19" fill="none" xmlns="http://www.w3.org/2000/svg">
<g filter="url(#filter0_b)">
<path d="M4.19011 6.1123H0.576578C0.416203 6.1123 0.286255 6.24953 0.286255 6.41876V18.6724C0.286255 18.8417 0.416203 18.9789 0.576578 18.9789H4.19011C4.35048 18.9789 4.48043 18.8417 4.48043 18.6724V6.41876C4.48043 6.24953 4.35048 6.1123 4.19011 6.1123Z" fill="white"/>
<path d="M2.38448 0.0209961C1.06966 0.0209961 0 1.14886 0 2.53519C0 3.92213 1.06966 5.05042 2.38448 5.05042C3.69825 5.05042 4.76704 3.92206 4.76704 2.53519C4.7671 1.14886 3.69825 0.0209961 2.38448 0.0209961Z" fill="white"/>
<path d="M13.381 5.80811C11.9297 5.80811 10.8568 6.46667 10.2061 7.21496V6.41911C10.2061 6.24989 10.0762 6.11266 9.9158 6.11266H6.45521C6.29483 6.11266 6.16489 6.24989 6.16489 6.41911V18.6728C6.16489 18.842 6.29483 18.9792 6.45521 18.9792H10.0608C10.2212 18.9792 10.3512 18.842 10.3512 18.6728V12.61C10.3512 10.5671 10.8769 9.77114 12.2261 9.77114C13.6954 9.77114 13.8122 11.0471 13.8122 12.7152V18.6728C13.8122 18.8421 13.9422 18.9793 14.1025 18.9793H17.7095C17.8699 18.9793 17.9998 18.8421 17.9998 18.6728V11.9515C17.9998 8.91363 17.4511 5.80811 13.381 5.80811Z" fill="white"/>
</g>
<defs>
<filter id="filter0_b" x="-20" y="-20" width="58" height="59" filterUnits="userSpaceOnUse" color-interpolation-filters="sRGB">
<feFlood flood-opacity="0" result="BackgroundImageFix"/>
<feGaussianBlur in="BackgroundImage" stdDeviation="10"/>
<feComposite in2="SourceAlpha" operator="in" result="effect1_backgroundBlur"/>
<feBlend mode="normal" in="SourceGraphic" in2="effect1_backgroundBlur" result="shape"/>
</filter>
</defs>
</svg>
