<svg width="28" height="19" viewBox="0 0 28 19" fill="none" xmlns="http://www.w3.org/2000/svg">
<path d="M14.008 10.6823C14.5369 10.6823 15.0017 10.4737 15.5627 9.97292L26.5255 0.556362C26.0286 0.18083 25.1471 0 23.913 0H3.63823C2.59646 0 1.85919 0.1669 1.44249 0.514659L12.4373 9.97292C12.9983 10.4737 13.4791 10.6823 14.008 10.6823ZM0.288486 17.1362L9.13567 9.4861L0.272468 1.87775C0.0961685 2.19767 0 2.7262 0 3.49123V15.5088C0 16.2738 0.0961683 16.8163 0.288486 17.1362ZM27.7115 17.1362C27.9038 16.8163 28 16.2738 28 15.5088V3.49123C28 2.74013 27.9038 2.21157 27.7115 1.89165L18.8643 9.4861L27.7115 17.1362ZM4.08701 19H24.3618C25.3875 19 26.1087 18.8331 26.5415 18.4993L17.486 10.6545L16.6846 11.3499C15.787 12.101 14.9536 12.4488 14.008 12.4488C13.0464 12.4488 12.229 12.101 11.3154 11.3499L10.53 10.6545L1.50659 18.4715C2.00342 18.8192 2.86893 19 4.08701 19Z" fill="white"/>
</svg>
