<svg width="24" height="24" viewBox="0 0 24 24" fill="none" xmlns="http://www.w3.org/2000/svg">
<path d="M12.328 20.0541C13.853 20.0748 15.3506 19.6477 16.6352 18.8256C17.9198 18.0035 18.935 16.8225 19.555 15.4291C19.6313 15.2483 19.6736 15.0551 19.68 14.8591C19.6842 14.7908 19.6745 14.7225 19.6512 14.6582C19.628 14.5939 19.5918 14.5351 19.545 14.4853C19.4981 14.4355 19.4416 14.3959 19.3788 14.3689C19.316 14.3418 19.2484 14.3279 19.18 14.3281C18.9981 14.334 18.8196 14.3794 18.657 14.4611C17.8775 14.7286 17.0592 14.8657 16.235 14.8671C12.188 14.8671 9.61801 12.3671 9.61801 8.35106C9.61498 7.4285 9.78176 6.51326 10.11 5.65106C10.1947 5.49062 10.2425 5.31332 10.25 5.13206C10.2515 5.06161 10.2384 4.99162 10.2116 4.92644C10.1849 4.86126 10.1449 4.8023 10.0944 4.75323C10.0438 4.70416 9.98365 4.66603 9.9177 4.64123C9.85174 4.61643 9.78138 4.60548 9.71101 4.60906C9.52573 4.61502 9.34309 4.65467 9.17201 4.72606C7.71951 5.35519 6.48463 6.39842 5.62168 7.72539C4.75873 9.05237 4.30598 10.6042 4.32001 12.1871C4.29868 13.238 4.49231 14.2823 4.88903 15.2557C5.28575 16.2291 5.87719 17.1113 6.62706 17.8479C7.37693 18.5846 8.26941 19.1603 9.24974 19.5396C10.2301 19.919 11.2776 20.0941 12.328 20.0541Z" fill="#9C42F5"/>
</svg>
