<svg width="35" height="35" viewBox="0 0 35 35" fill="none" xmlns="http://www.w3.org/2000/svg">
<path d="M17.5068 35C27.1016 35 35 27.0849 35 17.5C35 7.91505 27.088 0 17.4932 0C7.91199 0 0 7.91505 0 17.5C0 27.0849 7.92555 35 17.5068 35ZM12.309 8.62101C13.3676 5.85143 14.8876 3.86928 16.5297 3.29906V9.05545C15.0097 9.01472 13.5983 8.86538 12.309 8.62101ZM18.4568 3.29906C20.1125 3.86928 21.6189 5.85143 22.691 8.62101C21.4017 8.86538 19.9767 9.01472 18.4568 9.05545V3.29906ZM22.1753 3.86927C24.1431 4.53452 25.9209 5.62062 27.4001 7.019C26.586 7.46701 25.663 7.84715 24.6181 8.15943C23.9667 6.43521 23.1252 4.98254 22.1753 3.86927ZM7.59983 7.019C9.0791 5.62062 10.8569 4.53452 12.8247 3.86927C11.8748 4.98254 11.0334 6.43521 10.3819 8.15943C9.33694 7.84715 8.41411 7.46701 7.59983 7.019ZM26.1924 16.5225C26.111 14.1195 25.7717 11.9065 25.2152 9.93794C26.5451 9.5442 27.7258 9.02831 28.7031 8.43093C30.508 10.6711 31.6614 13.4678 31.8651 16.5225H26.1924ZM3.1485 16.5225C3.3385 13.4678 4.49205 10.6711 6.297 8.44453C7.27415 9.02832 8.45482 9.5442 9.78481 9.93794C9.22838 11.9065 8.87554 14.1195 8.80769 16.5225H3.1485ZM18.4568 16.5225V10.9833C20.1667 10.929 21.7953 10.7389 23.2881 10.4267C23.8038 12.2731 24.1431 14.3503 24.2245 16.5225H18.4568ZM10.7755 16.5225C10.8569 14.3503 11.1962 12.2731 11.7119 10.4267C13.2047 10.7389 14.8333 10.929 16.5297 10.9833V16.5225H10.7755ZM3.13494 18.4503H8.80769C8.87554 20.8669 9.22838 23.1206 9.78481 25.1164C8.46839 25.5101 7.30127 26.0124 6.32416 26.5962C4.50561 24.3425 3.3385 21.5322 3.13494 18.4503ZM10.7755 18.4503H16.5297V24.071C14.8333 24.1253 13.2047 24.3153 11.7119 24.6276C11.1826 22.7541 10.8434 20.6497 10.7755 18.4503ZM18.4568 24.071V18.4503H24.2245C24.1431 20.6497 23.8174 22.7541 23.2881 24.6276C21.7953 24.3153 20.1667 24.1253 18.4568 24.071ZM25.2152 25.1164C25.7717 23.1206 26.1244 20.8669 26.1924 18.4503H31.8651C31.675 21.5322 30.508 24.3561 28.6894 26.6098C27.7122 26.0124 26.5315 25.5101 25.2152 25.1164ZM18.4568 25.9988C19.9767 26.0396 21.4017 26.1889 22.691 26.4333C21.6189 29.2029 20.1125 31.185 18.4568 31.7552V25.9988ZM12.309 26.4333C13.5983 26.1889 15.0097 26.0396 16.5297 25.9988V31.7552C14.8876 31.185 13.3676 29.2029 12.309 26.4333ZM7.64055 28.0081C8.44126 27.5737 9.3641 27.1936 10.3819 26.8949C11.0198 28.5783 11.834 30.0039 12.7569 31.1036C10.8298 30.4383 9.09266 29.3794 7.64055 28.0081ZM24.6181 26.8949C25.6494 27.1936 26.5588 27.5737 27.3731 28.0217C25.9073 29.3794 24.1702 30.4519 22.2296 31.1171C23.166 30.0174 23.9802 28.5783 24.6181 26.8949Z" fill="white"/>
</svg>
