<svg width="34" height="33" viewBox="0 0 34 33" fill="none" xmlns="http://www.w3.org/2000/svg">
<path fill-rule="evenodd" clip-rule="evenodd" d="M11.6493 30.9408C10.7375 31.7446 10.1736 32.1285 9.4058 32.1285C8.32606 32.1285 7.67822 31.3727 7.67822 30.161V26.2259H6.89838C2.59138 26.2259 0 23.6465 0 19.2435V6.98236C0 2.57939 2.5314 0 6.98236 0H27.0176C31.4567 0 34 2.59138 34 6.98236V19.2435C34 23.6345 31.4567 26.2259 27.0176 26.2259H17.012L11.6493 30.9408ZM10.0536 24.7023V29.1652L15.0445 24.3303C15.6443 23.7305 16.0643 23.5865 16.9041 23.5865H26.9456C29.8611 23.5865 31.3607 22.0389 31.3607 19.1715V7.06634C31.3607 4.19901 29.8611 2.63936 26.9456 2.63936H7.05435C4.11503 2.63936 2.63937 4.19901 2.63937 7.06634V19.1715C2.63937 22.0389 4.11503 23.5865 7.05435 23.5865H8.93791C9.71772 23.5865 10.0536 23.8984 10.0536 24.7023ZM17.5359 20.0646C17.5359 20.405 17.2819 20.6391 16.9539 20.6391C16.6259 20.6391 16.372 20.4157 16.372 20.0646V19.0859C14.4358 18.9157 12.9757 17.8732 12.5948 16.3839C12.5912 16.3659 12.5876 16.3482 12.5841 16.3308C12.5563 16.1931 12.5313 16.0693 12.5313 15.9371C12.5313 15.4477 12.8593 15.1073 13.3566 15.1073C13.7692 15.1073 14.0549 15.3413 14.203 15.7775C14.404 16.703 15.1658 17.3732 16.372 17.5221V13.618L16.1604 13.5648C13.9067 13.0435 12.7429 12.0116 12.7429 10.2883C12.7429 8.41601 14.2665 7.11819 16.372 6.91605V5.97992C16.372 5.62885 16.6154 5.40548 16.9539 5.40548C17.2819 5.40548 17.5359 5.63951 17.5359 5.97992V6.91605C19.3557 7.0969 20.7312 8.11815 21.0909 9.54364C21.1226 9.68194 21.1544 9.83088 21.1544 9.97979C21.1544 10.4479 20.8158 10.7777 20.3291 10.7777C19.8953 10.7777 19.6414 10.533 19.4721 10.1287C19.2287 9.23514 18.5198 8.65004 17.5359 8.50111V12.1819L17.8533 12.2457C20.2021 12.7031 21.3766 13.7776 21.3766 15.6073C21.3766 17.6285 19.7472 18.9051 17.5359 19.0965V20.0646ZM16.2874 11.8627L16.372 11.8946V8.50111C15.2399 8.6607 14.4887 9.33088 14.4887 10.1926C14.4887 11.0117 15.06 11.5223 16.2874 11.8627ZM17.8004 13.969L17.5359 13.9052V17.5221C18.9007 17.3838 19.6308 16.6817 19.6308 15.7243C19.6308 14.852 19.1229 14.3201 17.8004 13.969Z" fill="white"/>
</svg>
