<svg width="30" height="29" viewBox="0 0 30 29" fill="none" xmlns="http://www.w3.org/2000/svg">
<path d="M4.30592 0C1.21293 0 0 1.41268 0 4.37926V11.7857C0 14.7522 1.21293 16.1649 4.30592 16.1649H25.6941C28.7871 16.1649 30 14.7522 30 11.7857V4.37926C30 1.41268 28.7871 0 25.6941 0H4.30592ZM3.65902 21.2101C3.65902 20.302 2.93127 19.5553 1.98114 19.5553C1.07142 19.5553 0.323462 20.302 0.323462 21.2101C0.323462 22.1385 1.07142 22.865 1.98114 22.865C2.93127 22.865 3.65902 22.1385 3.65902 21.2101ZM29.5148 21.2101C29.5148 20.6047 29.0094 20.1405 28.3221 20.1405H6.89352C6.20621 20.1405 5.70083 20.6047 5.70083 21.2101C5.70083 21.8358 6.20621 22.2999 6.89352 22.2999H28.3221C29.0094 22.2999 29.5148 21.8358 29.5148 21.2101ZM3.65902 27.3452C3.65902 26.437 2.93127 25.6701 1.98114 25.6701C1.07142 25.6701 0.323462 26.437 0.323462 27.3452C0.323462 28.2533 1.07142 29 1.98114 29C2.93127 29 3.65902 28.2533 3.65902 27.3452ZM29.5148 27.3452C29.5148 26.7196 29.0094 26.2554 28.3221 26.2554H6.89352C6.20621 26.2554 5.70083 26.7196 5.70083 27.3452C5.70083 27.9506 6.20621 28.4148 6.89352 28.4148H28.3221C29.0094 28.4148 29.5148 27.9506 29.5148 27.3452Z" fill="white"/>
</svg>
