<svg width="31" height="37" viewBox="0 0 31 37" fill="none" xmlns="http://www.w3.org/2000/svg">
<path d="M15.5 37C15.8463 37 16.337 36.8577 16.7844 36.6159C27.392 30.7978 31 28.3083 31 21.8074V7.9235C31 5.78971 30.1916 5.03577 28.3443 4.26761C26.0209 3.34294 19.6131 1.08114 17.3184 0.31295C16.7411 0.12804 16.0917 0 15.5 0C14.9082 0 14.2588 0.156474 13.6815 0.31295C11.4013 1.01 4.97904 3.35719 2.66992 4.26761C0.80817 5.02155 0 5.78971 0 7.9235V21.8074C0 28.3083 3.63687 30.7551 14.2155 36.6159C14.6629 36.8577 15.1536 37 15.5 37ZM15.5 33.6286C15.2257 33.6286 14.9227 33.5148 14.4464 33.2161C5.88826 28.0238 3.05956 26.6155 3.05956 21.2099V8.42139C3.05956 7.63898 3.21831 7.32603 3.82446 7.08419C6.42223 6.05998 12.1084 4.13957 14.5041 3.21493C14.9227 3.05845 15.2402 2.98731 15.5 2.98731C15.7597 2.98731 16.0772 3.07267 16.4958 3.21493C18.8915 4.13957 24.5345 6.15956 27.1754 7.08419C27.7816 7.31181 27.9403 7.63898 27.9403 8.42139V21.2099C27.9403 26.6298 25.0251 28.095 16.5535 33.2161C16.0772 33.5148 15.7742 33.6286 15.5 33.6286ZM8.8901 24.496C8.8901 25.9185 9.52509 26.5729 10.8673 26.5729H20.1326C21.4748 26.5729 22.1098 25.9185 22.1098 24.496V17.3264C22.1098 16.0604 21.6191 15.4202 20.58 15.2922V13.0731C20.58 9.74434 18.5307 7.51097 15.5 7.51097C12.4692 7.51097 10.4343 9.74434 10.4343 13.0731V15.3064C9.3808 15.4344 8.8901 16.0746 8.8901 17.3264V24.496ZM12.4115 15.2637V12.9166C12.4115 10.8112 13.6382 9.41714 15.5 9.41714C17.3617 9.41714 18.5884 10.8112 18.5884 12.9166V15.2495L12.4115 15.2637Z" fill="white"/>
</svg>
