<svg width="33" height="33" viewBox="0 0 33 33" fill="none" xmlns="http://www.w3.org/2000/svg">
<path d="M29.0715 15.7143H27.7143C27.162 15.7143 26.7143 15.2665 26.7143 14.7143V9.42857C26.7143 7.69217 25.3079 6.28569 23.5714 6.28569H18.2857C17.7335 6.28569 17.2857 5.83797 17.2857 5.28569V3.92855C17.2857 1.75998 15.5257 0 13.3571 0C11.1885 0 9.42857 1.75998 9.42857 3.92855V5.28569C9.42857 5.83797 8.98086 6.28569 8.42857 6.28569H3.14288C1.40648 6.28569 0.0157634 7.69209 0.0157634 9.42857L0.00920333 14.3987C0.0084737 14.9515 0.456402 15.4 1.0092 15.4H2.35714C4.6986 15.4 6.6 17.3014 6.6 19.6429C6.6 21.9843 4.6986 23.8857 2.35714 23.8857H1.00656C0.454793 23.8857 0.00729181 24.3327 0.00656353 24.8844L0 29.8571C0 31.5936 1.4064 33 3.14288 33H8.11434C8.66662 33 9.11434 32.5523 9.11434 32V30.6429C9.11434 28.3014 11.0157 26.4 13.3572 26.4C15.6986 26.4 17.6 28.3014 17.6 30.6429V32C17.6 32.5523 18.0478 33 18.6 33H23.5714C25.3078 33 26.7143 31.5936 26.7143 29.8571V24.5714C26.7143 24.0191 27.162 23.5714 27.7143 23.5714H29.0715C31.24 23.5714 33 21.8115 33 19.6429C33 17.4743 31.24 15.7143 29.0715 15.7143Z" fill="white"/>
</svg>
