<svg width="37" height="37" viewBox="0 0 37 37" fill="none" xmlns="http://www.w3.org/2000/svg">
<path fill-rule="evenodd" clip-rule="evenodd" d="M37 18.4885C37 28.5919 28.5919 36.9771 18.4885 36.9771C8.40806 36.9771 0 28.5919 0 18.4885C0 8.38514 8.38512 0 18.4656 0C28.569 0 37 8.38514 37 18.4885ZM19.546 21.509C19.4045 22.2628 18.8857 22.7035 18.0367 22.7035C17.0462 22.7035 16.4212 22.0773 16.4212 21.1379V20.8712C16.4212 19.4796 17.3528 18.5286 18.6262 17.7285C20.0058 16.8935 20.6308 16.36 20.6308 15.2235C20.6308 14.1103 19.6285 13.3912 18.3432 13.3912C17.2938 13.3912 16.5156 13.7971 16.0675 14.9568C15.7963 15.5946 15.2067 15.9657 14.4874 15.9657C13.5206 15.9657 12.9428 15.3627 12.9428 14.4813C12.9428 14.0407 13.0489 13.5884 13.2847 13.1477C14.1101 11.5821 16.0675 10.6312 18.5083 10.6312C21.8217 10.6312 24.2036 12.3243 24.2036 15.1772C24.2036 16.9283 23.2839 18.1227 21.6213 19.1317C20.1002 20.0594 19.6993 20.4653 19.5696 21.3699C19.5696 21.4046 19.5578 21.4742 19.546 21.509ZM20.0648 26.1014C20.0648 27.1567 19.1687 27.9916 18.0721 27.9916C16.9754 27.9916 16.0793 27.1567 16.0793 26.1014C16.0793 25.0576 16.9754 24.2343 18.0721 24.2343C19.1687 24.2343 20.0648 25.0576 20.0648 26.1014Z" fill="white"/>
</svg>
