<svg width="33" height="33" viewBox="0 0 33 33" fill="none" xmlns="http://www.w3.org/2000/svg">
<path fill-rule="evenodd" clip-rule="evenodd" d="M14.2877 0.0640984C8.84919 0.884455 4.07693 4.28453 1.69853 9.03353C0.687964 11.0516 0.192838 12.9019 0.0560718 15.1715C-0.123288 18.151 0.404727 20.6291 1.80564 23.3828C2.35324 24.4591 2.46647 24.8349 2.33581 25.1406C1.58009 26.907 0 31.341 0 31.6947C0 32.271 0.75464 33 1.35131 33C1.60921 33 3.33523 32.4463 5.18688 31.7696C7.03852 31.0928 8.67109 30.5395 8.81469 30.5396C8.95828 30.54 9.64193 30.7659 10.3339 31.0415C14.015 32.5082 17.6504 32.6481 21.4721 31.47C26.6134 29.8852 30.6062 25.9806 32.2204 20.9592C33.7935 16.0668 32.9612 10.8646 29.9471 6.74859C29.0354 5.5039 27.0772 3.61904 25.8363 2.792C24.559 1.94071 22.1337 0.851761 20.6429 0.460127C19.3414 0.118239 15.5112 -0.120293 14.2877 0.0640984ZM24.1809 11.1413C25.1238 12.1365 25.0246 12.2867 20.5002 16.724C16.6292 20.5203 16.339 20.7658 15.7233 20.7658C15.1216 20.7658 14.8775 20.5781 12.7459 18.4763C10.6947 16.4538 10.4237 16.1177 10.4237 15.596C10.4237 14.7883 11.0195 14.1917 11.8261 14.1917C12.3629 14.1917 12.6582 14.3939 14.008 15.6859C14.8666 16.5076 15.642 17.18 15.7312 17.18C15.8201 17.18 17.3968 15.7166 19.2346 13.9281C22.1903 11.0518 22.6435 10.6762 23.1583 10.6762C23.5565 10.6762 23.8791 10.8228 24.1809 11.1413Z" fill="white"/>
</svg>
