<svg width="33" height="32" viewBox="0 0 33 32" fill="none" xmlns="http://www.w3.org/2000/svg">
<path fill-rule="evenodd" clip-rule="evenodd" d="M25.9606 6.64177C25.9606 10.4065 23.1736 13.4409 19.7234 13.4409C16.262 13.4409 13.4862 10.4178 13.475 6.66423C13.4637 2.98935 16.2845 0 19.7234 0C23.1736 0 25.9606 2.95564 25.9606 6.64177ZM15.7788 6.653C15.7788 9.23776 17.5656 11.2382 19.7234 11.2382C21.881 11.2382 23.6567 9.2153 23.6567 6.64177C23.6567 4.13565 21.881 2.20268 19.7234 2.20268C17.5656 2.20268 15.7675 4.15812 15.7788 6.653ZM12.8681 16.891C14.7449 15.8795 17.0599 15.2502 19.7121 15.2502C27.4439 15.2502 32.355 20.5658 32.355 24.4879C32.355 26.095 31.2312 26.848 28.8824 26.848H16.262C16.498 26.1063 16.5992 25.432 16.6104 24.6453H29.2983C29.7814 24.6453 29.9614 24.5104 29.9614 24.162C29.9614 21.7234 26.2526 17.4416 19.7121 17.4416C17.678 17.4416 15.9136 17.8912 14.4864 18.5767C14.0256 17.9361 13.4862 17.3742 12.8681 16.891ZM14.7332 24.251C14.7332 28.308 11.3955 31.6233 7.36099 31.6233C3.3265 31.6233 0 28.308 0 24.251C0 20.2165 3.3265 16.8788 7.36099 16.8788C11.3955 16.8788 14.7332 20.2165 14.7332 24.251ZM5.77641 28.2181C5.96746 28.4316 6.25965 28.5215 6.5069 28.5215C6.82155 28.5215 7.11376 28.3867 7.25984 28.1844L11.7102 22.0371C11.845 21.8686 11.9012 21.6663 11.9012 21.5089C11.9012 20.992 11.4854 20.5986 10.9909 20.5986C10.665 20.5986 10.3953 20.7672 10.2267 21.0032L6.46193 26.2177L4.43908 24.015C4.27051 23.8352 4.04574 23.7116 3.7423 23.7116C3.24783 23.7116 2.83203 24.0825 2.83203 24.6219C2.83203 24.8354 2.91069 25.0939 3.05677 25.24L5.77641 28.2181Z" fill="white"/>
</svg>
