<svg width="40" height="42" viewBox="0 0 40 42" fill="none" xmlns="http://www.w3.org/2000/svg">
<path fill-rule="evenodd" clip-rule="evenodd" d="M4.04778 15.2604L8.67485 13.0475C9.28816 12.7543 9.54739 12.0192 9.25452 11.4059C8.96132 10.7923 8.22688 10.5327 7.61389 10.8259L5.74159 11.7212C10.0652 2.98039 20.8866 -0.0919403 29.124 4.75431C29.7098 5.0991 30.4638 4.90331 30.8082 4.31724C31.1527 3.73116 30.9569 2.97654 30.3715 2.63175C20.7735 -3.01494 8.18779 0.724847 3.36685 10.9807L2.40715 8.97187C2.11427 8.35824 1.37952 8.09869 0.766527 8.39189C0.153536 8.68508 -0.106016 9.42016 0.186861 10.0335L2.40683 14.6804C2.70003 15.294 3.43479 15.5533 4.04778 15.2604ZM25.6356 35.5068L21.4065 32.604C20.8464 32.2195 20.0802 32.3621 19.6957 32.9225C19.3112 33.4833 19.4541 34.2498 20.0142 34.6343L21.751 35.8266C12.4366 36.4435 3.89795 28.9382 4.00306 19.0301C4.01011 18.3501 3.46505 17.7932 2.78573 17.7858C2.12211 17.774 1.54949 18.3133 1.54212 19.0038C1.42003 30.5254 11.4416 39.1732 22.2573 38.2578L21.0127 40.0724C20.6282 40.6331 20.7708 41.3996 21.3312 41.7841C21.8916 42.1687 22.6578 42.0261 23.042 41.4653L25.9541 37.2186C26.3383 36.6581 26.196 35.8917 25.6356 35.5068ZM38.8211 5.9469C39.4985 5.99945 40.0048 6.59194 39.9522 7.26965C39.8994 7.94769 39.3066 8.45366 38.6298 8.40143L36.4044 8.22807C42.8185 17.4576 39.9138 30.2134 30.1633 35.7861C29.5731 36.1232 28.8216 35.9181 28.4845 35.3275C28.1474 34.7373 28.3525 33.9852 28.9424 33.6481C37.275 28.8855 39.9401 17.9965 34.5821 9.92574L34.4219 11.9858C34.3716 12.6308 33.8326 13.1211 33.1965 13.1214C32.4755 13.1214 31.9129 12.5078 31.9683 11.7945L32.3666 6.67877C32.4191 6.00073 33.0123 5.49605 33.6887 5.547L38.8211 5.9469Z" fill="white"/>
</svg>
