<svg width="32" height="40" viewBox="0 0 32 40" fill="none" xmlns="http://www.w3.org/2000/svg">
<path d="M14.9592 8.49301C15.1594 8.49301 15.2795 8.37108 15.3195 8.18147C15.8133 5.26916 15.8133 5.18788 18.8291 4.61899C19.0293 4.57835 19.1494 4.45642 19.1494 4.25324C19.1494 4.05007 19.0159 3.92814 18.8158 3.8875C15.8133 3.29151 15.9067 3.21023 15.3195 0.325128C15.2795 0.135377 15.1594 0 14.9592 0C14.7724 0 14.6523 0.135377 14.6122 0.325128C14.0251 3.19663 14.1318 3.26432 11.1026 3.8875C10.9025 3.92814 10.7824 4.05007 10.7824 4.25324C10.7824 4.45642 10.9025 4.57835 11.116 4.61899C14.1318 5.21498 14.1052 5.25562 14.6122 8.18147C14.6523 8.37108 14.7724 8.49301 14.9592 8.49301ZM6.56551 20.6163C6.87242 20.6163 7.11262 20.3996 7.15266 20.088C7.77985 15.4419 7.8866 15.4554 12.6239 14.5479C12.9175 14.4801 13.1443 14.277 13.1443 13.9519C13.1443 13.6403 12.9175 13.41 12.6239 13.3694C7.8866 12.6515 7.76651 12.5702 7.15266 7.84281C7.11262 7.51773 6.88576 7.30099 6.56551 7.30099C6.25858 7.30099 6.03171 7.51773 5.9917 7.85637C5.40453 12.5025 5.2444 12.4618 0.520436 13.3694C0.213526 13.4236 0 13.6403 0 13.9519C0 14.2905 0.213526 14.4801 0.573811 14.5479C5.25774 15.3335 5.40453 15.4148 5.9917 20.0609C6.03171 20.3996 6.25858 20.6163 6.56551 20.6163ZM18.4288 40C18.8825 40 19.2295 39.6614 19.2962 39.2008C20.4838 29.4751 21.7516 28.1341 31.1727 27.1182C31.6666 27.064 32 26.6983 32 26.2377C32 25.7772 31.6666 25.4114 31.1727 25.3572C21.7916 24.3142 20.5239 23.0139 19.2962 13.2746C19.2161 12.8141 18.8825 12.4754 18.4288 12.4754C17.9751 12.4754 17.6281 12.8141 17.5614 13.2746C16.3604 23.0003 15.106 24.3413 5.68476 25.3572C5.19103 25.4114 4.85742 25.7772 4.85742 26.2377C4.85742 26.6983 5.19103 27.064 5.68476 27.1182C15.0393 28.3644 16.2536 29.4616 17.5614 39.2008C17.6281 39.6614 17.9751 40 18.4288 40Z" fill="white"/>
</svg>
