<svg width="26" height="23" viewBox="0 0 26 23" fill="none" xmlns="http://www.w3.org/2000/svg">
<path fill-rule="evenodd" clip-rule="evenodd" d="M3.01581 6.18057L12.8615 2.42428L22.587 6.16207L20.5267 6.93648L20.5239 6.93753L12.8578 9.78935L5.11093 6.99825L3.01581 6.18057ZM13.2418 0.682211C12.9985 0.588673 12.7291 0.588342 12.4855 0.681282L0.680568 5.18503C-0.223156 5.52982 -0.228025 6.80658 0.67304 7.15825L4.49169 8.6486L4.69442 8.72164V15.6585C4.69442 15.9475 4.81407 16.2511 5.07073 16.4644C5.572 16.881 8.2706 18.9298 12.8627 18.9298C17.4634 18.9298 20.0292 16.8736 20.5124 16.4461C20.7545 16.232 20.8638 15.9384 20.8638 15.662V8.69162L21.1427 8.5879L22.4235 8.10646V16.4746C22.0021 16.7184 21.7185 17.174 21.7185 17.6959C21.7185 18.2245 22.0094 18.6852 22.4398 18.9266L21.0135 21.4751C21.0135 21.4751 21.5004 22.4549 23.1285 22.4549C24.7567 22.4549 25.2436 21.4751 25.2436 21.4751L23.8173 18.9266C24.2477 18.6852 24.5386 18.2246 24.5386 17.6959C24.5386 17.174 24.255 16.7183 23.8335 16.4745V7.57645L24.9434 7.1593C25.8537 6.81713 25.8584 5.53114 24.9507 5.18226L13.2418 0.682211ZM6.45697 15.3076V9.35666L12.5033 11.5351C12.7385 11.6198 12.9961 11.6185 13.2304 11.5313L19.1013 9.3473V15.323C18.3933 15.8581 16.3094 17.1673 12.8627 17.1673C9.40483 17.1673 7.21277 15.8499 6.45697 15.3076Z" fill="white"/>
</svg>
