<svg width="22" height="19" viewBox="0 0 22 19" fill="none" xmlns="http://www.w3.org/2000/svg">
<path d="M3.04131 19H18.9586C20.976 19 22 18.004 22 16.027V6.44401C22 4.46704 20.976 3.47102 18.9586 3.47102H16.7884V2.73153C16.7884 0.867762 15.8257 0 14.0068 0H7.99303C6.24311 0 5.21151 0.867762 5.21151 2.73153V3.47102H3.04131C1.03159 3.47102 0 4.46704 0 6.44401V16.027C0 18.004 1.03159 19 3.04131 19ZM6.80095 2.61835C6.80095 1.81851 7.19066 1.43369 8.00067 1.43369H13.9993C14.8092 1.43369 15.199 1.81851 15.199 2.61835V3.47102H6.80095V2.61835ZM1.68112 6.49683C1.68112 5.53853 2.16254 5.07069 3.10246 5.07069H18.8974C19.8373 5.07069 20.3187 5.53853 20.3187 6.49683V9.03971H1.68112V6.49683ZM3.10246 17.4003C2.16254 17.4003 1.68112 16.9325 1.68112 15.9742V10.496H6.99199V11.077C6.99199 11.975 7.5269 12.4956 8.43624 12.4956H13.5636C14.4731 12.4956 15.008 11.975 15.008 11.077V10.496H20.3187V15.9742C20.3187 16.9325 19.8373 17.4003 18.8974 17.4003H3.10246Z" fill="white"/>
</svg>
