<svg width="23" height="18" viewBox="0 0 23 18" fill="none" xmlns="http://www.w3.org/2000/svg">
<path d="M7.23331 17.9999C15.913 17.9999 20.6595 11.0754 20.6595 5.07094C20.6595 4.87427 20.6553 4.67842 20.6461 4.48365C21.5674 3.84218 22.3682 3.04169 23 2.13055C22.1545 2.4926 21.2445 2.73599 20.2901 2.84611C21.2643 2.28334 22.0123 1.39346 22.3651 0.332654C21.4534 0.85317 20.4436 1.23133 19.3687 1.43558C18.5076 0.552346 17.2815 0 15.9241 0C13.3183 0 11.205 2.03493 11.205 4.54338C11.205 4.90014 11.2465 5.24688 11.3273 5.57953C7.40547 5.3895 3.92764 3.58144 1.60051 0.831905C1.19542 1.50331 0.961656 2.28347 0.961656 3.11592C0.961656 4.69223 1.79475 6.0842 3.06149 6.89823C2.28733 6.87534 1.56014 6.67068 0.924383 6.33004C0.92368 6.34913 0.92368 6.36769 0.92368 6.38801C0.92368 8.58872 2.55021 10.4262 4.70968 10.8425C4.31304 10.9464 3.89571 11.0024 3.46531 11.0024C3.16178 11.0024 2.86584 10.9736 2.57834 10.9204C3.17908 12.7259 4.92123 14.0397 6.9866 14.0766C5.37146 15.2956 3.33689 16.0217 1.12566 16.0217C0.745329 16.0217 0.369359 16.0007 0 15.9587C2.08844 17.2477 4.56832 18 7.23345 18" fill="white"/>
</svg>
