<svg width="34" height="23" viewBox="0 0 34 23" fill="none" xmlns="http://www.w3.org/2000/svg">
<path d="M23.5226 11.1555C26.2177 11.1555 28.4982 8.69472 28.4982 5.49572C28.4982 2.37872 26.2017 0 23.5226 0C20.8434 0 18.5469 2.41154 18.5629 5.52851C18.5629 8.69472 20.8274 11.1555 23.5226 11.1555ZM9.1379 11.4508C11.4822 11.4508 13.4597 9.3017 13.4597 6.52925C13.4597 3.78959 11.4662 1.73895 9.1379 1.73895C6.80957 1.73895 4.8002 3.83881 4.81614 6.54564C4.81614 9.3017 6.79363 11.4508 9.1379 11.4508ZM2.10506 23H11.865C10.5413 21.2611 12.0085 17.3566 14.7355 15.1748C13.3321 14.1576 11.5141 13.4194 9.12196 13.4194C3.50845 13.4194 0 17.6683 0 21.2446C0 22.393 0.606008 23 2.10506 23ZM15.5488 23H31.4646C33.2985 23 34 22.4586 34 21.3431C34 18.0292 29.9811 13.4686 23.5066 13.4686C17.0479 13.4686 13.0291 18.0292 13.0291 21.3431C13.0291 22.4586 13.7308 23 15.5488 23Z" fill="white"/>
</svg>
