<svg width="24" height="15" viewBox="0 0 24 15" fill="none" xmlns="http://www.w3.org/2000/svg">
<path d="M23.5055 2.34714C23.229 1.42934 22.4183 0.705842 21.3903 0.458706C19.5122 0 11.9997 0 11.9997 0C11.9997 0 4.48756 0 2.60948 0.441315C1.60122 0.68819 0.770802 1.42947 0.494239 2.34714C0 4.02348 0 7.5 0 7.5C0 7.5 0 10.994 0.494239 12.6529C0.771095 13.5705 1.58145 14.294 2.60962 14.5412C4.50733 15 12 15 12 15C12 15 19.5122 15 21.3903 14.5587C22.4185 14.3117 23.229 13.5882 23.5058 12.6705C23.9999 10.994 23.9999 7.51765 23.9999 7.51765C23.9999 7.51765 24.0197 4.02348 23.5055 2.34714ZM9.60793 10.7117V4.28827L15.8549 7.5L9.60793 10.7117Z" fill="white"/>
</svg>
