<svg width="820" height="985" viewBox="0 0 820 985" fill="none" xmlns="http://www.w3.org/2000/svg">
<path d="M820 -142C820 -302.163 690.163 -432 530 -432C369.837 -432 240 -302.163 240 -142C240 18.1626 369.837 148 530 148C690.163 148 820 18.1626 820 -142Z" fill="url(#paint0_linear)"/>
<path d="M148 689C148 648.131 114.869 615 74 615C33.1309 615 0 648.131 0 689C0 729.869 33.1309 763 74 763C114.869 763 148 729.869 148 689Z" fill="url(#paint1_radial)"/>
<path d="M520 850C520 775.442 459.558 715 385 715C310.442 715 250 775.442 250 850C250 924.558 310.442 985 385 985C459.558 985 520 924.558 520 850Z" fill="url(#paint2_radial)"/>
<defs>
<linearGradient id="paint0_linear" x1="240" y1="-432" x2="820" y2="148" gradientUnits="userSpaceOnUse">
<stop stop-color="#FF00AA"/>
<stop offset="0.502" stop-color="#9C42F5"/>
<stop offset="1" stop-color="#5D2DE1"/>
</linearGradient>
<radialGradient id="paint1_radial" cx="0" cy="0" r="1" gradientUnits="userSpaceOnUse" gradientTransform="translate(39.22 649.04) scale(112.332)">
<stop stop-color="#FF5E00"/>
<stop offset="0.541" stop-color="#F54562"/>
<stop offset="1" stop-color="#C32DE1"/>
</radialGradient>
<radialGradient id="paint2_radial" cx="0" cy="0" r="1" gradientUnits="userSpaceOnUse" gradientTransform="translate(329.65 788.98) scale(198.18)">
<stop stop-color="#00BBFF"/>
<stop offset="0.53" stop-color="#9C42F5"/>
<stop offset="1" stop-color="#5D2DE1"/>
</radialGradient>
</defs>
</svg>
