<svg width="240" height="240" viewBox="0 0 240 240" fill="none" xmlns="http://www.w3.org/2000/svg">
<mask id="path-1-inside-1" fill="white">
<path d="M223.547 59.3532C236.897 82.1474 242.353 108.71 239.069 134.921C235.784 161.132 223.942 185.527 205.38 204.322C186.818 223.117 162.573 235.262 136.405 238.873C110.237 242.485 83.6081 237.36 60.6492 224.295C37.6902 211.23 19.6839 190.954 9.42295 166.612C-0.838035 142.271 -2.78026 115.223 3.89749 89.6651C10.5753 64.1069 25.4998 41.4664 46.3564 25.255C67.2131 9.04348 92.8362 0.167047 119.252 0.00233281L119.384 21.2548C97.6471 21.3904 76.562 28.6947 59.3993 42.035C42.2365 55.3753 29.9552 74.006 24.4601 95.0376C18.9651 116.069 20.5633 138.326 29.007 158.357C37.4507 178.388 52.2679 195.072 71.1606 205.824C90.0534 216.575 111.966 220.792 133.499 217.82C155.033 214.848 174.984 204.854 190.259 189.388C205.533 173.922 215.278 153.847 217.981 132.278C220.684 110.709 216.194 88.8514 205.208 70.0942L223.547 59.3532Z"/>
</mask>
<path d="M223.547 59.3532C236.897 82.1474 242.353 108.71 239.069 134.921C235.784 161.132 223.942 185.527 205.38 204.322C186.818 223.117 162.573 235.262 136.405 238.873C110.237 242.485 83.6081 237.36 60.6492 224.295C37.6902 211.23 19.6839 190.954 9.42295 166.612C-0.838035 142.271 -2.78026 115.223 3.89749 89.6651C10.5753 64.1069 25.4998 41.4664 46.3564 25.255C67.2131 9.04348 92.8362 0.167047 119.252 0.00233281L119.384 21.2548C97.6471 21.3904 76.562 28.6947 59.3993 42.035C42.2365 55.3753 29.9552 74.006 24.4601 95.0376C18.9651 116.069 20.5633 138.326 29.007 158.357C37.4507 178.388 52.2679 195.072 71.1606 205.824C90.0534 216.575 111.966 220.792 133.499 217.82C155.033 214.848 174.984 204.854 190.259 189.388C205.533 173.922 215.278 153.847 217.981 132.278C220.684 110.709 216.194 88.8514 205.208 70.0942L223.547 59.3532Z" fill="#C4C4C4" stroke="#F54282" stroke-width="44" mask="url(#path-1-inside-1)"/>
</svg>
