<svg width="364" height="388" viewBox="0 0 364 388" fill="none" xmlns="http://www.w3.org/2000/svg">
<mask id="path-1-inside-1" fill="white">
<path d="M363.678 288.049C347.169 317.834 323.111 342.748 293.921 360.288C264.732 377.828 231.439 387.375 197.39 387.97C163.341 388.565 129.736 380.187 99.9508 363.678C70.166 347.169 45.2517 323.111 27.7118 293.921C10.172 264.732 0.624729 231.439 0.0296245 197.39C-0.56548 163.341 7.81255 129.736 24.3216 99.9508C40.8307 70.166 64.8891 45.2517 94.0788 27.7118C123.268 10.172 156.561 0.624726 190.61 0.0296243L191.081 26.9858C161.764 27.4982 133.098 35.7187 107.965 50.821C82.8318 65.9233 62.1167 87.3753 47.9019 113.021C33.6871 138.666 26.4734 167.602 26.9858 196.919C27.4982 226.236 35.7187 254.902 50.821 280.035C65.9233 305.168 87.3753 325.883 113.021 340.098C138.666 354.313 167.602 361.527 196.919 361.014C226.236 360.502 254.902 352.281 280.035 337.179C305.168 322.077 325.883 300.625 340.098 274.979L363.678 288.049Z"/>
</mask>
<path d="M363.678 288.049C347.169 317.834 323.111 342.748 293.921 360.288C264.732 377.828 231.439 387.375 197.39 387.97C163.341 388.565 129.736 380.187 99.9508 363.678C70.166 347.169 45.2517 323.111 27.7118 293.921C10.172 264.732 0.624729 231.439 0.0296245 197.39C-0.56548 163.341 7.81255 129.736 24.3216 99.9508C40.8307 70.166 64.8891 45.2517 94.0788 27.7118C123.268 10.172 156.561 0.624726 190.61 0.0296243L191.081 26.9858C161.764 27.4982 133.098 35.7187 107.965 50.821C82.8318 65.9233 62.1167 87.3753 47.9019 113.021C33.6871 138.666 26.4734 167.602 26.9858 196.919C27.4982 226.236 35.7187 254.902 50.821 280.035C65.9233 305.168 87.3753 325.883 113.021 340.098C138.666 354.313 167.602 361.527 196.919 361.014C226.236 360.502 254.902 352.281 280.035 337.179C305.168 322.077 325.883 300.625 340.098 274.979L363.678 288.049Z" stroke="#9C42F5" stroke-width="44" mask="url(#path-1-inside-1)"/>
</svg>
