<svg width="387" height="254" viewBox="0 0 387 254" fill="none" xmlns="http://www.w3.org/2000/svg">
<g filter="url(#filter0_d)">
<path d="M25.0792 31.1428C25.0792 23.3758 31.3757 17.0793 39.1427 17.0793H347.368C355.135 17.0793 361.431 23.3758 361.431 31.1428V206.936C361.431 214.704 355.135 221 347.368 221H39.1427C31.3757 221 25.0792 214.704 25.0792 206.936V31.1428Z" fill="white"/>
</g>
<g filter="url(#filter1_d)">
<path d="M48.5184 175.294C48.5184 172.705 50.6172 170.606 53.2062 170.606H334.476C337.065 170.606 339.164 172.705 339.164 175.294V198.733C339.164 201.322 337.065 203.421 334.476 203.421H53.2062C50.6172 203.421 48.5184 201.322 48.5184 198.733V175.294Z" fill="#9C42F5"/>
</g>
<path d="M160.961 183.966L159.282 188.982L157.623 183.966H156.498L154.801 188.954L153.17 183.966H151.904L154.079 190.529H155.382L157.032 185.672L158.654 190.529H159.948L162.123 183.966H160.961Z" fill="white"/>
<path d="M163.64 184.697C164.081 184.697 164.39 184.379 164.39 183.966C164.39 183.582 164.071 183.291 163.64 183.291C163.209 183.291 162.89 183.6 162.89 183.994C162.89 184.388 163.209 184.697 163.64 184.697ZM163.049 190.529H164.221V185.522H163.049V190.529Z" fill="white"/>
<path d="M168.441 189.423C168.263 189.563 168.029 189.629 167.785 189.629C167.335 189.629 167.091 189.366 167.091 188.879V186.497H168.432V185.56H167.091V184.416H165.919V185.56H165.094V186.497H165.919V188.907C165.919 190.013 166.547 190.595 167.644 190.595C168.066 190.595 168.488 190.482 168.769 190.257L168.441 189.423Z" fill="white"/>
<path d="M172.574 185.466C171.88 185.466 171.29 185.691 170.905 186.104V183.572H169.733V190.529H170.905V187.998C170.905 186.994 171.468 186.488 172.302 186.488C173.052 186.488 173.493 186.919 173.493 187.81V190.529H174.665V187.66C174.665 186.151 173.774 185.466 172.574 185.466Z" fill="white"/>
<path d="M179.929 183.572V186.141C179.535 185.682 178.963 185.466 178.316 185.466C176.863 185.466 175.785 186.469 175.785 188.026C175.785 189.582 176.863 190.595 178.316 190.595C179.001 190.595 179.582 190.36 179.976 189.882V190.529H181.101V183.572H179.929ZM178.457 189.591C177.613 189.591 176.966 188.982 176.966 188.026C176.966 187.069 177.613 186.46 178.457 186.46C179.301 186.46 179.948 187.069 179.948 188.026C179.948 188.982 179.301 189.591 178.457 189.591Z" fill="white"/>
<path d="M183.75 186.254V185.522H182.634V190.529H183.806V188.101C183.806 187.079 184.368 186.554 185.259 186.554C185.344 186.554 185.428 186.563 185.531 186.582V185.466C184.697 185.466 184.087 185.729 183.75 186.254Z" fill="white"/>
<path d="M188.41 185.466C187.604 185.466 186.826 185.672 186.292 186.085L186.751 186.938C187.126 186.629 187.707 186.441 188.27 186.441C189.104 186.441 189.517 186.844 189.517 187.529V187.604H188.223C186.704 187.604 186.142 188.26 186.142 189.095C186.142 189.966 186.863 190.595 188.007 190.595C188.757 190.595 189.301 190.351 189.582 189.92V190.529H190.689V187.594C190.689 186.151 189.854 185.466 188.41 185.466ZM188.251 189.741C187.651 189.741 187.295 189.47 187.295 189.048C187.295 188.682 187.51 188.382 188.307 188.382H189.517V188.963C189.32 189.479 188.823 189.741 188.251 189.741Z" fill="white"/>
<path d="M198.87 185.522L197.511 189.235L196.161 185.522H195.176L193.798 189.216L192.476 185.522H191.37L193.208 190.529H194.333L195.645 187.079L196.939 190.529H198.064L199.911 185.522H198.87Z" fill="white"/>
<path d="M209.627 185.466C208.83 185.466 208.155 185.785 207.752 186.301C207.405 185.738 206.796 185.466 206.065 185.466C205.38 185.466 204.799 185.71 204.424 186.16V185.522H203.308V190.529H204.48V187.988C204.48 186.994 205.005 186.488 205.783 186.488C206.496 186.488 206.908 186.919 206.908 187.81V190.529H208.08V187.988C208.08 186.994 208.615 186.488 209.383 186.488C210.096 186.488 210.509 186.919 210.509 187.81V190.529H211.681V187.66C211.681 186.151 210.837 185.466 209.627 185.466Z" fill="white"/>
<path d="M215.474 190.595C217.03 190.595 218.146 189.526 218.146 188.026C218.146 186.526 217.03 185.466 215.474 185.466C213.936 185.466 212.811 186.526 212.811 188.026C212.811 189.526 213.936 190.595 215.474 190.595ZM215.474 189.591C214.63 189.591 213.993 188.982 213.993 188.026C213.993 187.069 214.63 186.46 215.474 186.46C216.327 186.46 216.965 187.069 216.965 188.026C216.965 188.982 216.327 189.591 215.474 189.591Z" fill="white"/>
<path d="M222.108 185.466C221.376 185.466 220.767 185.71 220.383 186.169V185.522H219.267V190.529H220.439V187.998C220.439 186.994 221.001 186.488 221.836 186.488C222.586 186.488 223.026 186.919 223.026 187.81V190.529H224.198V187.66C224.198 186.151 223.308 185.466 222.108 185.466Z" fill="white"/>
<path d="M230.437 188.054C230.437 186.488 229.369 185.466 227.906 185.466C226.415 185.466 225.318 186.535 225.318 188.026C225.318 189.516 226.406 190.595 228.084 190.595C228.947 190.595 229.65 190.313 230.1 189.779L229.472 189.057C229.116 189.423 228.675 189.601 228.112 189.601C227.24 189.601 226.631 189.132 226.49 188.401H230.419C230.428 188.288 230.437 188.148 230.437 188.054ZM227.906 186.404C228.675 186.404 229.228 186.901 229.322 187.623H226.481C226.593 186.891 227.147 186.404 227.906 186.404Z" fill="white"/>
<path d="M235.034 185.522L233.45 189.226L231.875 185.522H230.656L232.841 190.548L232.756 190.745C232.531 191.242 232.287 191.438 231.875 191.438C231.556 191.438 231.237 191.307 231.012 191.092L230.543 191.954C230.862 192.245 231.387 192.414 231.884 192.414C232.719 192.414 233.356 192.067 233.816 190.932L236.159 185.522H235.034Z" fill="white"/>
<path d="M61.3865 69.009C61.3865 66.0345 58.8128 65.254 56.4713 64.7055V61.1194C57.526 61.2459 58.623 61.6045 59.6988 62.2163L60.7536 59.6216C59.5934 58.8833 58.0534 58.4614 56.4713 58.3348V56.0354H54.3618V58.377C51.0287 58.7567 49.4044 60.6764 49.4044 62.9124C49.4044 65.9291 52.0202 66.7096 54.3618 67.2792V70.8021C52.8429 70.6544 51.324 70.0848 50.2693 69.3043L49.109 71.8779C50.2693 72.785 52.2733 73.439 54.3618 73.5655V75.8649H56.4713V73.5023C59.7832 73.1014 61.3865 71.2029 61.3865 69.009ZM52.8007 62.7437C52.8007 62.0475 53.2437 61.4358 54.3618 61.1826V64.1782C53.4336 63.8828 52.8007 63.482 52.8007 62.7437ZM56.4713 70.7177V67.8065C57.3784 68.123 57.9901 68.5238 57.9901 69.2621C57.9901 69.9372 57.526 70.4856 56.4713 70.7177Z" fill="#212429"/>
<path d="M73.4508 70.5489L76.8471 67.3424C78.9145 65.4228 79.3153 64.1149 79.3153 62.6804C79.3153 60.0013 77.1214 58.3137 73.8305 58.3137C71.1725 58.3137 69.1052 59.3895 67.966 61.0561L70.4553 62.6593C71.1725 61.6678 72.2484 61.1826 73.5141 61.1826C75.0751 61.1826 75.8767 61.8577 75.8767 63.0179C75.8767 63.7352 75.6447 64.4946 74.3368 65.7392L68.6411 71.1185V73.3335H79.8005V70.5489H73.4508Z" fill="#212429"/>
<path d="M94.2939 64.0727C92.7539 64.0727 91.5093 64.5157 90.6444 65.3806C90.7499 62.5538 92.332 61.0983 94.8002 61.0983C95.7916 61.0983 96.7409 61.2881 97.5636 61.8366L98.8294 59.3263C97.7957 58.6723 96.2768 58.3137 94.7158 58.3137C90.2647 58.3137 87.1848 61.1615 87.1848 66.2666C87.1848 71.0341 89.7162 73.5866 93.7876 73.5866C96.9097 73.5866 99.3778 71.6881 99.3778 68.6714C99.3778 65.8869 97.1417 64.0727 94.2939 64.0727ZM93.5977 71.0341C91.9523 71.0341 91.003 70.1059 91.003 68.8402C91.003 67.5534 92.0578 66.6252 93.5555 66.6252C95.0744 66.6252 96.0659 67.4901 96.0659 68.8402C96.0659 70.1903 95.0533 71.0341 93.5977 71.0341Z" fill="#212429"/>
<path d="M100.26 58.5668V63.7563H103.298V61.3514H108.192L102.897 73.3335H106.61L112.094 60.7818V58.5668H100.26Z" fill="#212429"/>
<path d="M123.37 65.5704C124.467 64.8954 125.1 63.8617 125.1 62.5327C125.1 59.938 122.779 58.3137 119.383 58.3137C116.029 58.3137 113.708 59.938 113.708 62.5327C113.708 63.8617 114.32 64.8954 115.417 65.5704C114.004 66.2877 113.181 67.469 113.181 69.0512C113.181 71.8357 115.649 73.5866 119.383 73.5866C123.138 73.5866 125.627 71.8357 125.627 69.0512C125.627 67.469 124.805 66.2877 123.37 65.5704ZM119.383 60.824C120.775 60.824 121.704 61.5202 121.704 62.6804C121.704 63.7984 120.796 64.4946 119.383 64.4946C117.991 64.4946 117.105 63.7984 117.105 62.6804C117.105 61.5202 118.012 60.824 119.383 60.824ZM119.383 71.0763C117.695 71.0763 116.641 70.2536 116.641 68.9457C116.641 67.6378 117.695 66.8362 119.383 66.8362C121.092 66.8362 122.168 67.6378 122.168 68.9457C122.168 70.2536 121.092 71.0763 119.383 71.0763Z" fill="#212429"/>
<path d="M129.359 69.4098C128.199 69.4098 127.313 70.2114 127.313 71.4349C127.313 72.2998 127.756 72.9538 128.452 73.228L127.524 76.5822H129.613L130.815 73.5444C131.3 72.3842 131.385 71.9834 131.385 71.4349C131.385 70.2325 130.541 69.4098 129.359 69.4098Z" fill="#212429"/>
<path d="M137.808 70.5489L141.204 67.3424C143.271 65.4228 143.672 64.1149 143.672 62.6804C143.672 60.0013 141.478 58.3137 138.187 58.3137C135.529 58.3137 133.462 59.3895 132.323 61.0561L134.812 62.6593C135.529 61.6678 136.605 61.1826 137.871 61.1826C139.432 61.1826 140.234 61.8577 140.234 63.0179C140.234 63.7352 140.002 64.4946 138.694 65.7392L132.998 71.1185V73.3335H144.157V70.5489H137.808Z" fill="#212429"/>
<path d="M150.63 64.1149H149.428L149.66 61.3092H155.82V58.5668H146.812L146.053 66.8784H149.829C152.508 66.8784 153.267 67.6378 153.267 68.798C153.267 70.0004 152.213 70.7177 150.504 70.7177C148.964 70.7177 147.424 70.2325 146.306 69.3887L144.956 72.0045C146.39 73.0171 148.542 73.5866 150.588 73.5866C154.807 73.5866 156.727 71.3084 156.727 68.6925C156.727 66.0767 154.997 64.1149 150.63 64.1149Z" fill="#212429"/>
<path d="M56.81 34.6588H55.3099L52.8839 38.6551L50.4814 34.6588H48.8524L52.0753 39.9912V42.8625H53.5988V39.9677L56.81 34.6588Z" fill="#B8B8CA"/>
<path d="M59.7816 42.9445C61.7271 42.9445 63.1217 41.6085 63.1217 39.7333C63.1217 37.8582 61.7271 36.5339 59.7816 36.5339C57.8596 36.5339 56.4533 37.8582 56.4533 39.7333C56.4533 41.6085 57.8596 42.9445 59.7816 42.9445ZM59.7816 41.6905C58.7269 41.6905 57.9299 40.9287 57.9299 39.7333C57.9299 38.5379 58.7269 37.7762 59.7816 37.7762C60.8481 37.7762 61.645 38.5379 61.645 39.7333C61.645 40.9287 60.8481 41.6905 59.7816 41.6905Z" fill="#B8B8CA"/>
<path d="M69.1166 36.6042V39.7685C69.1166 41.0225 68.4252 41.6553 67.4056 41.6553C66.4797 41.6553 65.9406 41.1162 65.9406 39.9794V36.6042H64.4757V40.1787C64.4757 42.0655 65.5656 42.9445 67.1712 42.9445C67.9798 42.9445 68.7182 42.6398 69.1869 42.0655V42.8625H70.5816V36.6042H69.1166Z" fill="#B8B8CA"/>
<path d="M73.8943 37.5183V36.6042H72.4997V42.8625H73.9646V39.8271C73.9646 38.5496 74.6678 37.8934 75.7811 37.8934C75.8866 37.8934 75.9921 37.9051 76.121 37.9285V36.5339C75.078 36.5339 74.3162 36.862 73.8943 37.5183Z" fill="#B8B8CA"/>
<path d="M86.5431 39.7685C86.5431 37.8113 85.2071 36.5339 83.3788 36.5339C81.5154 36.5339 80.1442 37.8699 80.1442 39.7333C80.1442 41.5967 81.5037 42.9445 83.6015 42.9445C84.6797 42.9445 85.5586 42.5929 86.1212 41.9249L85.336 41.0225C84.8906 41.4795 84.3398 41.7022 83.6366 41.7022C82.5467 41.7022 81.7849 41.1162 81.6091 40.2021H86.5196C86.5314 40.0615 86.5431 39.8857 86.5431 39.7685ZM83.3788 37.7058C84.3398 37.7058 85.0313 38.327 85.1485 39.2294H81.5974C81.7381 38.3153 82.4295 37.7058 83.3788 37.7058Z" fill="#B8B8CA"/>
<path d="M90.1694 36.5339C89.1615 36.5339 88.1888 36.7917 87.5208 37.3074L88.095 38.3739C88.5638 37.9871 89.2904 37.7527 89.9936 37.7527C91.0366 37.7527 91.5523 38.2567 91.5523 39.1122V39.2059H89.935C88.0364 39.2059 87.3332 40.0263 87.3332 41.0694C87.3332 42.1593 88.2357 42.9445 89.6654 42.9445C90.603 42.9445 91.2827 42.6398 91.6343 42.1007V42.8625H93.0172V39.1942C93.0172 37.3894 91.9742 36.5339 90.1694 36.5339ZM89.9701 41.878C89.2201 41.878 88.7748 41.5381 88.7748 41.0108C88.7748 40.5537 89.0443 40.1787 90.0405 40.1787H91.5523V40.9053C91.3062 41.5499 90.685 41.878 89.9701 41.878Z" fill="#B8B8CA"/>
<path d="M96.2919 37.5183V36.6042H94.8973V42.8625H96.3623V39.8271C96.3623 38.5496 97.0654 37.8934 98.1788 37.8934C98.2843 37.8934 98.3897 37.9051 98.5187 37.9285V36.5339C97.4756 36.5339 96.7138 36.862 96.2919 37.5183Z" fill="#B8B8CA"/>
<path d="M103.312 36.5339C102.398 36.5339 101.637 36.8386 101.156 37.4129V36.6042H99.7614V42.8625H101.226V39.6982C101.226 38.4442 101.93 37.8113 102.973 37.8113C103.91 37.8113 104.461 38.3504 104.461 39.4638V42.8625H105.926V39.2763C105.926 37.3894 104.813 36.5339 103.312 36.5339Z" fill="#B8B8CA"/>
<path d="M108.523 35.5729C109.073 35.5729 109.46 35.1744 109.46 34.6588C109.46 34.1782 109.062 33.8149 108.523 33.8149C107.984 33.8149 107.585 34.2017 107.585 34.6939C107.585 35.1861 107.984 35.5729 108.523 35.5729ZM107.784 42.8625H109.249V36.6042H107.784V42.8625Z" fill="#B8B8CA"/>
<path d="M114.723 36.5339C113.809 36.5339 113.047 36.8386 112.567 37.4129V36.6042H111.172V42.8625H112.637V39.6982C112.637 38.4442 113.34 37.8113 114.383 37.8113C115.321 37.8113 115.872 38.3504 115.872 39.4638V42.8625H117.336V39.2763C117.336 37.3894 116.223 36.5339 114.723 36.5339Z" fill="#B8B8CA"/>
<path d="M124.069 36.6042V37.4363C123.553 36.8152 122.78 36.5339 121.901 36.5339C120.108 36.5339 118.736 37.7293 118.736 39.5458C118.736 41.3623 120.108 42.5812 121.901 42.5812C122.744 42.5812 123.483 42.3116 123.998 41.7491V42.0772C123.998 43.343 123.389 43.9758 122.006 43.9758C121.139 43.9758 120.248 43.6828 119.697 43.2258L119.041 44.3274C119.756 44.9134 120.916 45.2181 122.088 45.2181C124.28 45.2181 125.463 44.1868 125.463 41.9132V36.6042H124.069ZM122.123 41.3389C121.01 41.3389 120.213 40.6123 120.213 39.5458C120.213 38.4911 121.01 37.7762 122.123 37.7762C123.225 37.7762 124.022 38.4911 124.022 39.5458C124.022 40.6123 123.225 41.3389 122.123 41.3389Z" fill="#B8B8CA"/>
<path d="M129.323 42.9445C131.081 42.9445 132.159 42.1827 132.159 41.0108C132.159 38.5614 128.292 39.6864 128.292 38.4207C128.292 38.0105 128.714 37.7176 129.604 37.7176C130.202 37.7176 130.8 37.8348 131.397 38.1863L131.96 37.073C131.397 36.7331 130.448 36.5339 129.616 36.5339C127.928 36.5339 126.862 37.3074 126.862 38.4911C126.862 40.9873 130.729 39.8622 130.729 41.0576C130.729 41.4913 130.343 41.7491 129.417 41.7491C128.632 41.7491 127.788 41.4913 127.237 41.128L126.674 42.2413C127.237 42.6398 128.28 42.9445 129.323 42.9445Z" fill="#B8B8CA"/>
<path opacity="0.5" d="M340.336 63.9578C340.336 63.9578 323.035 102.698 298.577 105.562C281.157 107.603 274.319 86.8192 256.818 87.9829C237.652 89.2572 234.254 119.491 215.059 120.212C196.976 120.891 191.387 99.7273 173.3 100.288C154.34 100.877 150.446 129.801 131.541 131.345C114.377 132.748 106.917 114.985 89.7817 116.696C69.6924 118.702 47.3464 140.135 47.3464 140.135V156.542H339.154L340.336 63.9578Z" fill="url(#paint0_linear)"/>
<path d="M339.639 62.886C340.23 63.1482 340.498 63.8405 340.235 64.4322L340.234 64.435L340.231 64.4414L340.221 64.4645L340.182 64.552C340.147 64.6283 340.096 64.7402 340.029 64.8855C339.894 65.176 339.695 65.6001 339.433 66.1393C338.91 67.2177 338.137 68.7576 337.134 70.6128C335.129 74.321 332.198 79.3005 328.497 84.376C324.799 89.4472 320.31 94.6452 315.181 98.7663C310.055 102.885 304.232 105.975 297.876 106.726C288.69 107.811 282.309 102.778 276.327 98.0181L276.217 97.9305C270.172 93.1197 264.503 88.6084 256.392 89.152C251.98 89.4477 248.445 91.4152 245.292 94.3171C242.132 97.2246 239.42 101.007 236.623 104.906L236.623 104.907L236.565 104.988C233.781 108.87 230.907 112.867 227.504 115.923C224.071 119.007 220.04 121.189 214.933 121.383C205.483 121.74 199.293 116.326 193.489 111.248L193.406 111.176C187.49 106.001 181.949 101.195 173.501 101.46C164.75 101.733 159.408 108.56 153.667 116.164L153.452 116.449C150.706 120.086 147.868 123.846 144.559 126.798C141.136 129.851 137.148 132.1 132.135 132.513C123.263 133.244 116.876 129.003 110.871 125.016L110.668 124.881C104.533 120.808 98.7631 117.053 90.7316 117.862C81.0793 118.833 70.7619 124.544 62.764 130.128C58.786 132.906 55.4228 135.623 53.0545 137.646C51.8709 138.657 50.9371 139.493 50.3008 140.075C49.9826 140.366 49.7389 140.593 49.5757 140.747C49.494 140.824 49.4325 140.882 49.3918 140.921L49.3465 140.964L49.3357 140.975L49.3334 140.977C48.868 141.427 48.1257 141.415 47.6759 140.949C47.226 140.484 47.2384 139.742 47.7038 139.292L47.7091 139.287L47.7226 139.274L47.7734 139.225C47.8178 139.183 47.8832 139.121 47.9688 139.04C48.1399 138.879 48.3919 138.644 48.7189 138.345C49.3726 137.747 50.3264 136.893 51.5323 135.863C53.9432 133.804 57.3673 131.038 61.4221 128.207C69.49 122.573 80.2205 116.564 90.4968 115.53C99.4601 114.627 105.888 118.894 111.957 122.923L111.964 122.928C118.106 127.005 123.889 130.84 131.943 130.177C136.307 129.818 139.834 127.872 142.998 125.049C146.134 122.252 148.851 118.653 151.647 114.949L151.796 114.752C157.377 107.361 163.37 99.4314 173.427 99.1168C182.845 98.8223 189.024 104.227 194.809 109.289L194.95 109.412C200.864 114.585 206.402 119.36 214.845 119.04C219.259 118.873 222.79 117.007 225.938 114.179C229.117 111.324 231.845 107.547 234.66 103.622L234.794 103.435C237.534 99.6135 240.366 95.6644 243.705 92.5923C247.126 89.4443 251.142 87.1547 256.236 86.8133C265.259 86.2085 271.573 91.2362 277.44 95.9079L277.787 96.184C283.857 101.015 289.508 105.354 297.601 104.398C303.377 103.716 308.797 100.89 313.713 96.9392C318.626 92.9909 322.977 87.9668 326.603 82.995C330.225 78.0275 333.101 73.143 335.072 69.4979C336.057 67.6766 336.814 66.1675 337.325 65.1161C337.58 64.5905 337.773 64.1794 337.902 63.9011C337.966 63.7619 338.014 63.656 338.046 63.5855L338.082 63.5067L338.092 63.4835C338.354 62.8918 339.047 62.6238 339.639 62.886Z" fill="#9C42F5"/>
<defs>
<filter id="filter0_d" x="0.0792236" y="0.0793457" width="386.352" height="253.921" filterUnits="userSpaceOnUse" color-interpolation-filters="sRGB">
<feFlood flood-opacity="0" result="BackgroundImageFix"/>
<feColorMatrix in="SourceAlpha" type="matrix" values="0 0 0 0 0 0 0 0 0 0 0 0 0 0 0 0 0 0 127 0"/>
<feOffset dy="8"/>
<feGaussianBlur stdDeviation="12.5"/>
<feColorMatrix type="matrix" values="0 0 0 0 0.263379 0 0 0 0 0.104156 0 0 0 0 0.420833 0 0 0 0.18 0"/>
<feBlend mode="normal" in2="BackgroundImageFix" result="effect1_dropShadow"/>
<feBlend mode="normal" in="SourceGraphic" in2="effect1_dropShadow" result="shape"/>
</filter>
<filter id="filter1_d" x="40.5184" y="170.606" width="306.645" height="48.8148" filterUnits="userSpaceOnUse" color-interpolation-filters="sRGB">
<feFlood flood-opacity="0" result="BackgroundImageFix"/>
<feColorMatrix in="SourceAlpha" type="matrix" values="0 0 0 0 0 0 0 0 0 0 0 0 0 0 0 0 0 0 127 0"/>
<feOffset dy="8"/>
<feGaussianBlur stdDeviation="4"/>
<feColorMatrix type="matrix" values="0 0 0 0 0.611765 0 0 0 0 0.258824 0 0 0 0 0.960784 0 0 0 0.122 0"/>
<feBlend mode="normal" in2="BackgroundImageFix" result="effect1_dropShadow"/>
<feBlend mode="normal" in="SourceGraphic" in2="effect1_dropShadow" result="shape"/>
</filter>
<linearGradient id="paint0_linear" x1="193.841" y1="63.9578" x2="193.841" y2="160.058" gradientUnits="userSpaceOnUse">
<stop stop-color="#9C42F5"/>
<stop offset="1" stop-color="#9C42F5" stop-opacity="0"/>
</linearGradient>
</defs>
</svg>
