<svg width="121" height="29" viewBox="0 0 121 29" fill="none" xmlns="http://www.w3.org/2000/svg">
<path fill-rule="evenodd" clip-rule="evenodd" d="M104.254 22.5768H100.146V0H104.254V22.5768ZM12.4106 13.302H4.25019V19.0344H13.8273V22.5768H0V1.17588H13.7989V4.7476H4.25019V9.84795H12.4106V13.302ZM22.2159 17.3882L25.0636 6.67313H29.342L24.171 22.5768H20.2608L15.0898 6.67313H19.3683L22.2159 17.3882ZM32.2871 20.7248C33.7038 22.1554 35.5362 22.8708 37.784 22.8708C39.0591 22.8708 40.2208 22.621 41.2691 22.1211C42.3175 21.6117 43.1486 20.906 43.7625 20.0045L41.7508 17.6675C40.863 18.8532 39.6305 19.446 38.0532 19.446C37.0332 19.446 36.1878 19.1324 35.5172 18.5053C34.8562 17.8782 34.4595 17.0453 34.3272 16.0066H44.0884V14.2721C44.0884 11.7539 43.4839 9.80877 42.275 8.43684C41.0755 7.06505 39.4274 6.37909 37.3307 6.37909C35.9329 6.37909 34.6862 6.72207 33.5905 7.40803C32.5043 8.0841 31.6637 9.05421 31.0688 10.3184C30.4738 11.5726 30.1762 12.9984 30.1762 14.5956V15.0072C30.1762 17.3883 30.8799 19.2942 32.2871 20.7248ZM35.3331 10.6711C35.8431 10.1027 36.5043 9.81853 37.3165 9.81853C38.1854 9.81853 38.856 10.0783 39.3282 10.5976C39.8005 11.1071 40.0461 11.8322 40.0649 12.7729V13.111H34.3697C34.5113 12.0528 34.8325 11.2394 35.3331 10.6711ZM55.4664 10.6563C54.9092 10.578 54.418 10.5388 53.993 10.5388C52.444 10.5388 51.4288 11.0827 50.947 12.1703V22.5768H46.8527V6.67313H50.7204L50.8337 8.56915C51.6553 7.10911 52.7934 6.37909 54.248 6.37909C54.7013 6.37909 55.1264 6.4428 55.5231 6.57024L55.4664 10.6563ZM66.8602 6.67313L64.0267 16.5651L61.1791 6.67313H56.7731L62.1425 22.621L61.6608 23.929C61.4435 24.4975 61.1413 24.904 60.7541 25.149C60.3764 25.3939 59.8001 25.5165 59.0257 25.5165L58.4024 25.5017V28.7207C59.0163 28.9069 59.6207 29 60.2158 29C62.322 29 63.8331 27.9613 64.7493 25.884L65.0892 25.0461L71.252 6.67313H66.8602ZM79.049 2.76331V6.67313H81.6699V9.78911H79.049V17.7264C79.049 18.3143 79.1576 18.7356 79.3749 18.9904C79.592 19.2451 80.0077 19.3725 80.6216 19.3725C81.0748 19.3725 81.4764 19.3382 81.8258 19.2696V22.4886C81.023 22.7434 80.1965 22.8708 79.3465 22.8708C76.4753 22.8708 75.0113 21.3667 74.9547 18.3584V9.78911H72.7162V6.67313H74.9547V2.76331H79.049ZM92.8495 21.151C92.9346 21.7194 93.0715 22.1946 93.2604 22.5768H97.3972V22.3269C97.0005 21.5528 96.7974 20.4112 96.788 18.9022V12.0086C96.788 10.2252 96.2308 8.84354 95.1163 7.86367C94.0113 6.87404 92.5142 6.37909 90.6253 6.37909C89.3786 6.37909 88.2546 6.60453 87.2534 7.05529C86.2523 7.49615 85.4778 8.10864 84.9301 8.89262C84.3823 9.67645 84.1083 10.529 84.1083 11.4501H88.2027C88.2027 10.8524 88.3962 10.3819 88.7835 10.0391C89.1803 9.69611 89.7233 9.52462 90.4128 9.52462C91.1967 9.52462 91.7681 9.74505 92.1271 10.186C92.4954 10.627 92.6795 11.2149 92.6795 11.9499V12.8612H90.7953C88.5191 12.8709 86.7765 13.3266 85.5676 14.2281C84.3681 15.1296 83.7683 16.423 83.7683 18.1085C83.7683 19.4803 84.2595 20.617 85.2417 21.5185C86.2335 22.42 87.4802 22.8708 88.9819 22.8708C90.5686 22.8708 91.8579 22.2975 92.8495 21.151ZM91.5461 19.2108C91.0361 19.4852 90.479 19.6224 89.8744 19.6224C89.2511 19.6224 88.7599 19.4509 88.4011 19.108C88.0421 18.7651 87.8626 18.3289 87.8626 17.7998L87.8769 17.55C88.0091 16.08 89.0999 15.3451 91.1495 15.3451H92.6795V18.0791C92.434 18.5494 92.0562 18.9266 91.5461 19.2108ZM109.198 20.7248C110.615 22.1554 112.448 22.8708 114.696 22.8708C115.97 22.8708 117.132 22.621 118.181 22.1211C119.229 21.6117 120.061 20.906 120.673 20.0045L118.662 17.6675C117.775 18.8532 116.542 19.446 114.965 19.446C113.945 19.446 113.1 19.1324 112.429 18.5053C111.768 17.8782 111.371 17.0453 111.238 16.0066H121V14.2721C121 11.7539 120.395 9.80877 119.186 8.43684C117.987 7.06505 116.338 6.37909 114.242 6.37909C112.844 6.37909 111.597 6.72207 110.502 7.40803C109.416 8.0841 108.575 9.05421 107.981 10.3184C107.385 11.5726 107.087 12.9984 107.087 14.5956V15.0072C107.087 17.3883 107.791 19.2942 109.198 20.7248ZM112.245 10.6711C112.754 10.1027 113.415 9.81853 114.228 9.81853C115.096 9.81853 115.767 10.0783 116.24 10.5976C116.712 11.1071 116.958 11.8322 116.977 12.7729V13.111H111.281C111.422 12.0528 111.744 11.2394 112.245 10.6711Z" fill="white"/>
</svg>
