<svg width="469" height="451" viewBox="0 0 469 451" fill="none" xmlns="http://www.w3.org/2000/svg">
<rect width="469" height="451" rx="12" fill="white"/>
<rect opacity="0.45" x="30" y="96" width="357" height="52" rx="8" fill="#E0E0FF"/>
<path d="M48.888 128.096C51.144 128.096 52.552 127.12 52.552 125.584C52.552 122.288 47.176 123.92 47.176 121.92C47.176 121.248 47.832 120.752 49.176 120.752C50.008 120.752 50.856 120.928 51.624 121.424L52.28 120.208C51.544 119.728 50.296 119.44 49.192 119.44C47.016 119.44 45.656 120.464 45.656 121.984C45.656 125.36 51.016 123.712 51.016 125.616C51.016 126.336 50.424 126.768 49 126.768C47.896 126.768 46.744 126.4 46.024 125.888L45.384 127.104C46.088 127.664 47.48 128.096 48.888 128.096ZM57.5596 119.44C56.1996 119.44 54.9356 119.824 54.0556 120.528L54.6956 121.68C55.3516 121.12 56.3756 120.768 57.3836 120.768C58.9036 120.768 59.6556 121.52 59.6556 122.816V123.12H57.2236C54.6956 123.12 53.8156 124.24 53.8156 125.6C53.8156 127.072 55.0316 128.096 56.9516 128.096C58.2796 128.096 59.2236 127.648 59.7356 126.88V128H61.1916V122.88C61.1916 120.56 59.8796 119.44 57.5596 119.44ZM57.2076 126.912C56.0396 126.912 55.3356 126.384 55.3356 125.536C55.3356 124.816 55.7676 124.224 57.2876 124.224H59.6556V125.408C59.2716 126.384 58.3596 126.912 57.2076 126.912ZM64.0341 128H65.5701V116.128H64.0341V128ZM76.1669 123.808C76.1669 121.2 74.4229 119.44 71.9749 119.44C69.5269 119.44 67.7189 121.248 67.7189 123.76C67.7189 126.288 69.5429 128.096 72.2789 128.096C73.6869 128.096 74.8549 127.616 75.6229 126.72L74.7749 125.728C74.1509 126.416 73.3189 126.752 72.3269 126.752C70.6469 126.752 69.4469 125.76 69.2549 124.272H76.1349C76.1509 124.128 76.1669 123.936 76.1669 123.808ZM71.9749 120.736C73.4629 120.736 74.5349 121.744 74.6949 123.168H69.2549C69.4149 121.728 70.5029 120.736 71.9749 120.736ZM80.7318 128.096C82.9878 128.096 84.3958 127.12 84.3958 125.584C84.3958 122.288 79.0198 123.92 79.0198 121.92C79.0198 121.248 79.6758 120.752 81.0198 120.752C81.8518 120.752 82.6998 120.928 83.4678 121.424L84.1238 120.208C83.3878 119.728 82.1398 119.44 81.0358 119.44C78.8598 119.44 77.4998 120.464 77.4998 121.984C77.4998 125.36 82.8598 123.712 82.8598 125.616C82.8598 126.336 82.2678 126.768 80.8438 126.768C79.7398 126.768 78.5878 126.4 77.8678 125.888L77.2278 127.104C77.9318 127.664 79.3238 128.096 80.7318 128.096ZM93.1794 116.688C88.6994 116.688 85.6274 119.712 85.6274 123.936C85.6274 128.176 88.6674 131.232 93.1154 131.232C94.2514 131.232 95.5794 130.976 96.5554 130.48L96.2034 129.456C95.2594 129.952 94.0914 130.16 93.1154 130.16C89.3234 130.16 86.7954 127.6 86.7954 123.936C86.7954 120.304 89.3554 117.744 93.1794 117.744C96.9554 117.744 99.5474 120.144 99.5474 123.728C99.5474 125.728 99.0034 126.88 98.0594 126.88C97.5634 126.88 97.1474 126.576 97.1474 125.728V119.968H95.7554V121.264C95.0994 120.368 94.0594 119.904 92.8274 119.904C90.5554 119.904 88.9074 121.6 88.9074 123.984C88.9074 126.368 90.5554 128.096 92.8274 128.096C94.1714 128.096 95.2274 127.568 95.8674 126.576C96.0594 127.552 96.7634 128.096 97.7874 128.096C99.5954 128.096 100.635 126.432 100.635 123.712C100.635 119.568 97.5634 116.688 93.1794 116.688ZM93.0514 126.848C91.4514 126.848 90.3314 125.712 90.3314 123.984C90.3314 122.24 91.4514 121.136 93.0514 121.136C94.6034 121.136 95.7874 122.208 95.7874 123.984C95.7874 125.76 94.6034 126.848 93.0514 126.848ZM110.526 123.808C110.526 121.2 108.782 119.44 106.334 119.44C103.886 119.44 102.078 121.248 102.078 123.76C102.078 126.288 103.902 128.096 106.638 128.096C108.046 128.096 109.214 127.616 109.982 126.72L109.134 125.728C108.51 126.416 107.678 126.752 106.686 126.752C105.006 126.752 103.806 125.76 103.614 124.272H110.494C110.51 124.128 110.526 123.936 110.526 123.808ZM106.334 120.736C107.822 120.736 108.894 121.744 109.054 123.168H103.614C103.774 121.728 104.862 120.736 106.334 120.736ZM118.503 119.52L115.527 126.32L112.615 119.52H111.015L114.727 128H116.295L120.007 119.52H118.503ZM128.87 123.808C128.87 121.2 127.126 119.44 124.678 119.44C122.23 119.44 120.422 121.248 120.422 123.76C120.422 126.288 122.246 128.096 124.982 128.096C126.39 128.096 127.558 127.616 128.326 126.72L127.478 125.728C126.854 126.416 126.022 126.752 125.03 126.752C123.35 126.752 122.15 125.76 121.958 124.272H128.838C128.854 124.128 128.87 123.936 128.87 123.808ZM124.678 120.736C126.166 120.736 127.238 121.744 127.398 123.168H121.958C122.118 121.728 123.206 120.736 124.678 120.736ZM132.475 120.944V119.52H131.003V128H132.539V123.776C132.539 121.92 133.563 120.912 135.211 120.912C135.323 120.912 135.435 120.912 135.563 120.928V119.44C134.075 119.44 133.019 119.952 132.475 120.944ZM143.8 119.52L140.872 126.304L137.912 119.52H136.312L140.056 127.984L139.784 128.576C139.368 129.552 138.904 129.888 138.168 129.888C137.592 129.888 137.064 129.664 136.648 129.264L135.992 130.416C136.52 130.928 137.352 131.2 138.168 131.2C139.464 131.2 140.44 130.64 141.192 128.848L145.304 119.52H143.8ZM151.26 126.4C150.94 126.656 150.508 126.8 150.06 126.8C149.212 126.8 148.732 126.288 148.732 125.376V120.784H151.164V119.52H148.732V117.664H147.196V119.52H145.756V120.784H147.196V125.44C147.196 127.152 148.172 128.096 149.884 128.096C150.572 128.096 151.276 127.904 151.74 127.504L151.26 126.4ZM156.685 119.44C155.325 119.44 154.061 119.824 153.181 120.528L153.821 121.68C154.477 121.12 155.501 120.768 156.509 120.768C158.029 120.768 158.781 121.52 158.781 122.816V123.12H156.349C153.821 123.12 152.941 124.24 152.941 125.6C152.941 127.072 154.157 128.096 156.077 128.096C157.405 128.096 158.349 127.648 158.861 126.88V128H160.317V122.88C160.317 120.56 159.005 119.44 156.685 119.44ZM156.333 126.912C155.165 126.912 154.461 126.384 154.461 125.536C154.461 124.816 154.893 124.224 156.413 124.224H158.781V125.408C158.397 126.384 157.485 126.912 156.333 126.912ZM163.159 128H164.695V116.128H163.159V128ZM175.292 123.808C175.292 121.2 173.548 119.44 171.1 119.44C168.652 119.44 166.844 121.248 166.844 123.76C166.844 126.288 168.668 128.096 171.404 128.096C172.812 128.096 173.98 127.616 174.748 126.72L173.9 125.728C173.276 126.416 172.444 126.752 171.452 126.752C169.772 126.752 168.572 125.76 168.38 124.272H175.26C175.276 124.128 175.292 123.936 175.292 123.808ZM171.1 120.736C172.588 120.736 173.66 121.744 173.82 123.168H168.38C168.54 121.728 169.628 120.736 171.1 120.736ZM177.793 128.096C178.369 128.096 178.849 127.632 178.849 126.992C178.849 126.352 178.369 125.904 177.793 125.904C177.201 125.904 176.705 126.352 176.705 126.992C176.705 127.632 177.201 128.096 177.793 128.096ZM185.578 119.44C184.234 119.44 183.146 119.936 182.522 120.8V119.52H181.05V128H182.586V123.632C182.586 121.792 183.642 120.816 185.274 120.816C186.73 120.816 187.562 121.632 187.562 123.296V128H189.098V123.12C189.098 120.624 187.642 119.44 185.578 119.44ZM199.651 123.808C199.651 121.2 197.907 119.44 195.459 119.44C193.011 119.44 191.203 121.248 191.203 123.76C191.203 126.288 193.027 128.096 195.763 128.096C197.171 128.096 198.339 127.616 199.107 126.72L198.259 125.728C197.635 126.416 196.803 126.752 195.811 126.752C194.131 126.752 192.931 125.76 192.739 124.272H199.619C199.635 124.128 199.651 123.936 199.651 123.808ZM195.459 120.736C196.947 120.736 198.019 121.744 198.179 123.168H192.739C192.899 121.728 193.987 120.736 195.459 120.736ZM206.072 126.4C205.752 126.656 205.32 126.8 204.872 126.8C204.024 126.8 203.544 126.288 203.544 125.376V120.784H205.976V119.52H203.544V117.664H202.008V119.52H200.568V120.784H202.008V125.44C202.008 127.152 202.984 128.096 204.696 128.096C205.384 128.096 206.088 127.904 206.552 127.504L206.072 126.4Z" fill="#212429"/>
<path opacity="0.3" d="M35.84 83.36C35.84 81.69 34.7 80.6 33.14 80.6C31.55 80.6 30.38 81.74 30.38 83.33C30.38 84.92 31.54 86.07 33.33 86.07C34.25 86.07 35 85.77 35.48 85.2L34.81 84.43C34.43 84.82 33.96 85.01 33.36 85.01C32.43 85.01 31.78 84.51 31.63 83.73H35.82C35.83 83.61 35.84 83.46 35.84 83.36ZM33.14 81.6C33.96 81.6 34.55 82.13 34.65 82.9H31.62C31.74 82.12 32.33 81.6 33.14 81.6ZM43.7807 80.6C42.9307 80.6 42.2107 80.94 41.7807 81.49C41.4107 80.89 40.7607 80.6 39.9807 80.6C39.2507 80.6 38.6307 80.86 38.2307 81.34V80.66H37.0407V86H38.2907V83.29C38.2907 82.23 38.8507 81.69 39.6807 81.69C40.4407 81.69 40.8807 82.15 40.8807 83.1V86H42.1307V83.29C42.1307 82.23 42.7007 81.69 43.5207 81.69C44.2807 81.69 44.7207 82.15 44.7207 83.1V86H45.9707V82.94C45.9707 81.33 45.0707 80.6 43.7807 80.6ZM49.608 80.6C48.748 80.6 47.918 80.82 47.348 81.26L47.838 82.17C48.238 81.84 48.858 81.64 49.458 81.64C50.348 81.64 50.788 82.07 50.788 82.8V82.88H49.408C47.788 82.88 47.188 83.58 47.188 84.47C47.188 85.4 47.958 86.07 49.178 86.07C49.978 86.07 50.558 85.81 50.858 85.35V86H52.038V82.87C52.038 81.33 51.148 80.6 49.608 80.6ZM49.438 85.16C48.798 85.16 48.418 84.87 48.418 84.42C48.418 84.03 48.648 83.71 49.498 83.71H50.788V84.33C50.578 84.88 50.048 85.16 49.438 85.16ZM54.2723 79.78C54.7423 79.78 55.0723 79.44 55.0723 79C55.0723 78.59 54.7323 78.28 54.2723 78.28C53.8123 78.28 53.4723 78.61 53.4723 79.03C53.4723 79.45 53.8123 79.78 54.2723 79.78ZM53.6423 86H54.8923V80.66H53.6423V86ZM56.5329 86H57.7829V78.58H56.5329V86ZM65.0472 84.82C64.8572 84.97 64.6072 85.04 64.3472 85.04C63.8672 85.04 63.6072 84.76 63.6072 84.24V81.7H65.0372V80.7H63.6072V79.48H62.3572V80.7H61.4772V81.7H62.3572V84.27C62.3572 85.45 63.0272 86.07 64.1972 86.07C64.6472 86.07 65.0972 85.95 65.3972 85.71L65.0472 84.82ZM68.6497 86.07C70.3097 86.07 71.4997 84.93 71.4997 83.33C71.4997 81.73 70.3097 80.6 68.6497 80.6C67.0097 80.6 65.8097 81.73 65.8097 83.33C65.8097 84.93 67.0097 86.07 68.6497 86.07ZM68.6497 85C67.7497 85 67.0697 84.35 67.0697 83.33C67.0697 82.31 67.7497 81.66 68.6497 81.66C69.5597 81.66 70.2397 82.31 70.2397 83.33C70.2397 84.35 69.5597 85 68.6497 85ZM73.095 82.26C73.545 82.26 73.915 81.91 73.915 81.43C73.915 80.93 73.545 80.6 73.095 80.6C72.645 80.6 72.275 80.93 72.275 81.43C72.275 81.91 72.645 82.26 73.095 82.26ZM73.095 86.07C73.545 86.07 73.915 85.72 73.915 85.24C73.915 84.74 73.545 84.41 73.095 84.41C72.645 84.41 72.275 84.74 72.275 85.24C72.275 85.72 72.645 86.07 73.095 86.07Z" fill="#212429"/>
<rect opacity="0.45" x="30" y="190" width="357" height="52" rx="8" fill="#E0E0FF"/>
<path d="M50.744 220.4C50.424 220.656 49.992 220.8 49.544 220.8C48.696 220.8 48.216 220.288 48.216 219.376V214.784H50.648V213.52H48.216V211.664H46.68V213.52H45.24V214.784H46.68V219.44C46.68 221.152 47.656 222.096 49.368 222.096C50.056 222.096 50.76 221.904 51.224 221.504L50.744 220.4ZM56.169 213.44C54.809 213.44 53.545 213.824 52.665 214.528L53.305 215.68C53.961 215.12 54.985 214.768 55.993 214.768C57.513 214.768 58.265 215.52 58.265 216.816V217.12H55.833C53.305 217.12 52.425 218.24 52.425 219.6C52.425 221.072 53.641 222.096 55.561 222.096C56.889 222.096 57.833 221.648 58.345 220.88V222H59.801V216.88C59.801 214.56 58.489 213.44 56.169 213.44ZM55.817 220.912C54.649 220.912 53.945 220.384 53.945 219.536C53.945 218.816 54.377 218.224 55.897 218.224H58.265V219.408C57.881 220.384 56.969 220.912 55.817 220.912ZM62.6435 222H64.1795V210.128H62.6435V222ZM74.7763 217.808C74.7763 215.2 73.0323 213.44 70.5843 213.44C68.1363 213.44 66.3283 215.248 66.3283 217.76C66.3283 220.288 68.1523 222.096 70.8883 222.096C72.2963 222.096 73.4643 221.616 74.2323 220.72L73.3843 219.728C72.7603 220.416 71.9283 220.752 70.9363 220.752C69.2563 220.752 68.0563 219.76 67.8643 218.272H74.7443C74.7603 218.128 74.7763 217.936 74.7763 217.808ZM70.5843 214.736C72.0723 214.736 73.1443 215.744 73.3043 217.168H67.8643C68.0243 215.728 69.1123 214.736 70.5843 214.736ZM81.4371 213.44C80.0931 213.44 79.0051 213.936 78.3811 214.8V213.52H76.9091V222H78.4451V217.632C78.4451 215.792 79.5011 214.816 81.1331 214.816C82.5891 214.816 83.4211 215.632 83.4211 217.296V222H84.9571V217.12C84.9571 214.624 83.5011 213.44 81.4371 213.44ZM92.0878 220.4C91.7678 220.656 91.3358 220.8 90.8878 220.8C90.0398 220.8 89.5598 220.288 89.5598 219.376V214.784H91.9918V213.52H89.5598V211.664H88.0238V213.52H86.5838V214.784H88.0238V219.44C88.0238 221.152 88.9998 222.096 90.7118 222.096C91.3998 222.096 92.1038 221.904 92.5678 221.504L92.0878 220.4ZM101.808 217.808C101.808 215.2 100.064 213.44 97.6155 213.44C95.1675 213.44 93.3595 215.248 93.3595 217.76C93.3595 220.288 95.1835 222.096 97.9195 222.096C99.3275 222.096 100.496 221.616 101.264 220.72L100.416 219.728C99.7915 220.416 98.9595 220.752 97.9675 220.752C96.2875 220.752 95.0875 219.76 94.8955 218.272H101.776C101.792 218.128 101.808 217.936 101.808 217.808ZM97.6155 214.736C99.1035 214.736 100.176 215.744 100.336 217.168H94.8955C95.0555 215.728 96.1435 214.736 97.6155 214.736ZM110.404 210.128V214.8C109.7 213.888 108.644 213.44 107.444 213.44C104.964 213.44 103.156 215.168 103.156 217.76C103.156 220.352 104.964 222.096 107.444 222.096C108.692 222.096 109.78 221.616 110.468 220.656V222H111.94V210.128H110.404ZM107.572 220.752C105.94 220.752 104.708 219.568 104.708 217.76C104.708 215.952 105.94 214.784 107.572 214.784C109.188 214.784 110.42 215.952 110.42 217.76C110.42 219.568 109.188 220.752 107.572 220.752ZM121.711 210.688C117.231 210.688 114.159 213.712 114.159 217.936C114.159 222.176 117.199 225.232 121.647 225.232C122.783 225.232 124.111 224.976 125.087 224.48L124.735 223.456C123.791 223.952 122.623 224.16 121.647 224.16C117.855 224.16 115.327 221.6 115.327 217.936C115.327 214.304 117.887 211.744 121.711 211.744C125.487 211.744 128.079 214.144 128.079 217.728C128.079 219.728 127.535 220.88 126.591 220.88C126.095 220.88 125.679 220.576 125.679 219.728V213.968H124.287V215.264C123.631 214.368 122.591 213.904 121.359 213.904C119.087 213.904 117.439 215.6 117.439 217.984C117.439 220.368 119.087 222.096 121.359 222.096C122.703 222.096 123.759 221.568 124.399 220.576C124.591 221.552 125.295 222.096 126.319 222.096C128.127 222.096 129.167 220.432 129.167 217.712C129.167 213.568 126.095 210.688 121.711 210.688ZM121.583 220.848C119.983 220.848 118.863 219.712 118.863 217.984C118.863 216.24 119.983 215.136 121.583 215.136C123.135 215.136 124.319 216.208 124.319 217.984C124.319 219.76 123.135 220.848 121.583 220.848ZM134.482 213.44C133.122 213.44 131.858 213.824 130.978 214.528L131.618 215.68C132.274 215.12 133.298 214.768 134.306 214.768C135.826 214.768 136.578 215.52 136.578 216.816V217.12H134.146C131.618 217.12 130.738 218.24 130.738 219.6C130.738 221.072 131.954 222.096 133.874 222.096C135.202 222.096 136.146 221.648 136.658 220.88V222H138.114V216.88C138.114 214.56 136.802 213.44 134.482 213.44ZM134.13 220.912C132.962 220.912 132.258 220.384 132.258 219.536C132.258 218.816 132.69 218.224 134.21 218.224H136.578V219.408C136.194 220.384 135.282 220.912 134.13 220.912ZM151.564 213.44C150.124 213.44 148.94 214.048 148.3 215.008C147.74 213.952 146.652 213.44 145.356 213.44C144.076 213.44 143.036 213.92 142.428 214.784V213.52H140.956V222H142.492V217.632C142.492 215.792 143.5 214.816 145.036 214.816C146.428 214.816 147.228 215.632 147.228 217.296V222H148.764V217.632C148.764 215.792 149.772 214.816 151.308 214.816C152.7 214.816 153.5 215.632 153.5 217.296V222H155.036V217.12C155.036 214.624 153.628 213.44 151.564 213.44ZM162.358 213.44C161.158 213.44 160.102 213.888 159.398 214.8V210.128H157.862V222H159.334V220.656C160.022 221.616 161.11 222.096 162.358 222.096C164.838 222.096 166.646 220.352 166.646 217.76C166.646 215.168 164.838 213.44 162.358 213.44ZM162.23 220.752C160.614 220.752 159.382 219.568 159.382 217.76C159.382 215.952 160.614 214.784 162.23 214.784C163.862 214.784 165.094 215.952 165.094 217.76C165.094 219.568 163.862 220.752 162.23 220.752ZM171.778 213.44C170.418 213.44 169.154 213.824 168.274 214.528L168.914 215.68C169.57 215.12 170.594 214.768 171.602 214.768C173.122 214.768 173.874 215.52 173.874 216.816V217.12H171.442C168.914 217.12 168.034 218.24 168.034 219.6C168.034 221.072 169.25 222.096 171.17 222.096C172.498 222.096 173.442 221.648 173.954 220.88V222H175.41V216.88C175.41 214.56 174.098 213.44 171.778 213.44ZM171.426 220.912C170.258 220.912 169.554 220.384 169.554 219.536C169.554 218.816 169.986 218.224 171.506 218.224H173.874V219.408C173.49 220.384 172.578 220.912 171.426 220.912ZM180.685 222.096C182.941 222.096 184.349 221.12 184.349 219.584C184.349 216.288 178.973 217.92 178.973 215.92C178.973 215.248 179.629 214.752 180.973 214.752C181.805 214.752 182.653 214.928 183.421 215.424L184.077 214.208C183.341 213.728 182.093 213.44 180.989 213.44C178.813 213.44 177.453 214.464 177.453 215.984C177.453 219.36 182.813 217.712 182.813 219.616C182.813 220.336 182.221 220.768 180.797 220.768C179.693 220.768 178.541 220.4 177.821 219.888L177.181 221.104C177.885 221.664 179.277 222.096 180.685 222.096ZM188.701 222.096C190.957 222.096 192.365 221.12 192.365 219.584C192.365 216.288 186.989 217.92 186.989 215.92C186.989 215.248 187.645 214.752 188.989 214.752C189.821 214.752 190.669 214.928 191.437 215.424L192.093 214.208C191.357 213.728 190.109 213.44 189.005 213.44C186.829 213.44 185.469 214.464 185.469 215.984C185.469 219.36 190.829 217.712 190.829 219.616C190.829 220.336 190.237 220.768 188.812 220.768C187.709 220.768 186.557 220.4 185.837 219.888L185.197 221.104C185.901 221.664 187.293 222.096 188.701 222.096ZM197.372 213.44C196.012 213.44 194.748 213.824 193.868 214.528L194.508 215.68C195.164 215.12 196.188 214.768 197.196 214.768C198.716 214.768 199.468 215.52 199.468 216.816V217.12H197.036C194.508 217.12 193.628 218.24 193.628 219.6C193.628 221.072 194.844 222.096 196.764 222.096C198.092 222.096 199.036 221.648 199.548 220.88V222H201.004V216.88C201.004 214.56 199.692 213.44 197.372 213.44ZM197.02 220.912C195.852 220.912 195.148 220.384 195.148 219.536C195.148 218.816 195.58 218.224 197.1 218.224H199.468V219.408C199.084 220.384 198.172 220.912 197.02 220.912ZM210.358 210.128V214.8C209.654 213.888 208.598 213.44 207.398 213.44C204.918 213.44 203.11 215.168 203.11 217.76C203.11 220.352 204.918 222.096 207.398 222.096C208.646 222.096 209.734 221.616 210.422 220.656V222H211.894V210.128H210.358ZM207.526 220.752C205.894 220.752 204.662 219.568 204.662 217.76C204.662 215.952 205.894 214.784 207.526 214.784C209.142 214.784 210.374 215.952 210.374 217.76C210.374 219.568 209.142 220.752 207.526 220.752ZM218.432 222.096C220.976 222.096 222.832 220.288 222.832 217.76C222.832 215.232 220.976 213.44 218.432 213.44C215.888 213.44 214.016 215.232 214.016 217.76C214.016 220.288 215.888 222.096 218.432 222.096ZM218.432 220.752C216.8 220.752 215.568 219.568 215.568 217.76C215.568 215.952 216.8 214.784 218.432 214.784C220.064 214.784 221.28 215.952 221.28 217.76C221.28 219.568 220.064 220.752 218.432 220.752ZM226.428 214.944V213.52H224.956V222H226.492V217.776C226.492 215.92 227.516 214.912 229.164 214.912C229.276 214.912 229.388 214.912 229.516 214.928V213.44C228.028 213.44 226.972 213.952 226.428 214.944ZM231.73 222.096C232.306 222.096 232.786 221.632 232.786 220.992C232.786 220.352 232.306 219.904 231.73 219.904C231.138 219.904 230.642 220.352 230.642 220.992C230.642 221.632 231.138 222.096 231.73 222.096ZM240.456 213.52L237.528 220.304L234.568 213.52H232.968L236.712 221.984L236.44 222.576C236.024 223.552 235.56 223.888 234.824 223.888C234.248 223.888 233.72 223.664 233.304 223.264L232.648 224.416C233.176 224.928 234.008 225.2 234.824 225.2C236.12 225.2 237.096 224.64 237.848 222.848L241.96 213.52H240.456ZM246.791 222.096C249.335 222.096 251.191 220.288 251.191 217.76C251.191 215.232 249.335 213.44 246.791 213.44C244.247 213.44 242.375 215.232 242.375 217.76C242.375 220.288 244.247 222.096 246.791 222.096ZM246.791 220.752C245.159 220.752 243.927 219.568 243.927 217.76C243.927 215.952 245.159 214.784 246.791 214.784C248.423 214.784 249.639 215.952 249.639 217.76C249.639 219.568 248.423 220.752 246.791 220.752ZM259.683 213.52V217.904C259.683 219.728 258.659 220.72 257.059 220.72C255.603 220.72 254.771 219.888 254.771 218.224V213.52H253.235V218.4C253.235 220.896 254.691 222.096 256.883 222.096C258.083 222.096 259.139 221.6 259.763 220.72V222H261.219V213.52H259.683Z" fill="#212429"/>
<path opacity="0.3" d="M32.99 173.52C33.25 173.52 33.49 173.61 33.68 173.74L34.03 172.8C33.75 172.6 33.33 172.51 32.9 172.51C31.66 172.51 30.99 173.24 30.99 174.36V174.7H30.11V175.7H30.99V180H32.24V175.7H33.67V174.7H32.2V174.38C32.2 173.81 32.47 173.52 32.99 173.52ZM36.5022 175.44V174.66H35.3122V180H36.5622V177.41C36.5622 176.32 37.1622 175.76 38.1122 175.76C38.2022 175.76 38.2922 175.77 38.4022 175.79V174.6C37.5122 174.6 36.8622 174.88 36.5022 175.44ZM41.8138 180.07C43.4738 180.07 44.6638 178.93 44.6638 177.33C44.6638 175.73 43.4738 174.6 41.8138 174.6C40.1738 174.6 38.9738 175.73 38.9738 177.33C38.9738 178.93 40.1738 180.07 41.8138 180.07ZM41.8138 179C40.9138 179 40.2338 178.35 40.2338 177.33C40.2338 176.31 40.9138 175.66 41.8138 175.66C42.7238 175.66 43.4038 176.31 43.4038 177.33C43.4038 178.35 42.7238 179 41.8138 179ZM52.5991 174.6C51.7491 174.6 51.0291 174.94 50.5991 175.49C50.2291 174.89 49.5791 174.6 48.7991 174.6C48.0691 174.6 47.4491 174.86 47.0491 175.34V174.66H45.8591V180H47.1091V177.29C47.1091 176.23 47.6691 175.69 48.4991 175.69C49.2591 175.69 49.6991 176.15 49.6991 177.1V180H50.9491V177.29C50.9491 176.23 51.5191 175.69 52.3391 175.69C53.0991 175.69 53.5391 176.15 53.5391 177.1V180H54.7891V176.94C54.7891 175.33 53.8891 174.6 52.5991 174.6ZM56.7864 176.26C57.2364 176.26 57.6064 175.91 57.6064 175.43C57.6064 174.93 57.2364 174.6 56.7864 174.6C56.3364 174.6 55.9664 174.93 55.9664 175.43C55.9664 175.91 56.3364 176.26 56.7864 176.26ZM56.7864 180.07C57.2364 180.07 57.6064 179.72 57.6064 179.24C57.6064 178.74 57.2364 178.41 56.7864 178.41C56.3364 178.41 55.9664 178.74 55.9664 179.24C55.9664 179.72 56.3364 180.07 56.7864 180.07Z" fill="#212429"/>
<rect opacity="0.45" x="30" y="284" width="357" height="52" rx="8" fill="#E0E0FF"/>
<path d="M55.048 316H56.728L51.64 304.8H50.056L44.984 316H46.632L47.864 313.2H53.816L55.048 316ZM48.424 311.92L50.84 306.432L53.256 311.92H48.424ZM68.7828 307.44C67.3428 307.44 66.1588 308.048 65.5188 309.008C64.9588 307.952 63.8708 307.44 62.5748 307.44C61.2948 307.44 60.2548 307.92 59.6468 308.784V307.52H58.1748V316H59.7108V311.632C59.7108 309.792 60.7188 308.816 62.2548 308.816C63.6468 308.816 64.4468 309.632 64.4468 311.296V316H65.9828V311.632C65.9828 309.792 66.9908 308.816 68.5268 308.816C69.9188 308.816 70.7188 309.632 70.7188 311.296V316H72.2548V311.12C72.2548 308.624 70.8468 307.44 68.7828 307.44ZM79.577 307.44C78.377 307.44 77.321 307.888 76.617 308.8V304.128H75.081V316H76.553V314.656C77.241 315.616 78.329 316.096 79.577 316.096C82.057 316.096 83.865 314.352 83.865 311.76C83.865 309.168 82.057 307.44 79.577 307.44ZM79.449 314.752C77.833 314.752 76.601 313.568 76.601 311.76C76.601 309.952 77.833 308.784 79.449 308.784C81.081 308.784 82.313 309.952 82.313 311.76C82.313 313.568 81.081 314.752 79.449 314.752ZM88.9971 307.44C87.6371 307.44 86.3731 307.824 85.4931 308.528L86.1331 309.68C86.7891 309.12 87.8131 308.768 88.8211 308.768C90.3411 308.768 91.0931 309.52 91.0931 310.816V311.12H88.6611C86.1331 311.12 85.2531 312.24 85.2531 313.6C85.2531 315.072 86.4691 316.096 88.3891 316.096C89.7171 316.096 90.6611 315.648 91.1731 314.88V316H92.6291V310.88C92.6291 308.56 91.3171 307.44 88.9971 307.44ZM88.6451 314.912C87.4771 314.912 86.7731 314.384 86.7731 313.536C86.7731 312.816 87.2051 312.224 88.7251 312.224H91.0931V313.408C90.7091 314.384 89.7971 314.912 88.6451 314.912ZM97.9036 316.096C100.16 316.096 101.568 315.12 101.568 313.584C101.568 310.288 96.1916 311.92 96.1916 309.92C96.1916 309.248 96.8476 308.752 98.1916 308.752C99.0236 308.752 99.8716 308.928 100.64 309.424L101.296 308.208C100.56 307.728 99.3116 307.44 98.2076 307.44C96.0316 307.44 94.6716 308.464 94.6716 309.984C94.6716 313.36 100.032 311.712 100.032 313.616C100.032 314.336 99.4396 314.768 98.0156 314.768C96.9116 314.768 95.7596 314.4 95.0396 313.888L94.3996 315.104C95.1036 315.664 96.4956 316.096 97.9036 316.096ZM105.919 316.096C108.175 316.096 109.583 315.12 109.583 313.584C109.583 310.288 104.207 311.92 104.207 309.92C104.207 309.248 104.863 308.752 106.207 308.752C107.039 308.752 107.887 308.928 108.655 309.424L109.311 308.208C108.575 307.728 107.327 307.44 106.223 307.44C104.047 307.44 102.687 308.464 102.687 309.984C102.687 313.36 108.047 311.712 108.047 313.616C108.047 314.336 107.455 314.768 106.031 314.768C104.927 314.768 103.775 314.4 103.055 313.888L102.415 315.104C103.119 315.664 104.511 316.096 105.919 316.096ZM114.591 307.44C113.231 307.44 111.967 307.824 111.087 308.528L111.727 309.68C112.383 309.12 113.407 308.768 114.415 308.768C115.935 308.768 116.687 309.52 116.687 310.816V311.12H114.255C111.727 311.12 110.847 312.24 110.847 313.6C110.847 315.072 112.063 316.096 113.983 316.096C115.311 316.096 116.255 315.648 116.767 314.88V316H118.223V310.88C118.223 308.56 116.911 307.44 114.591 307.44ZM114.239 314.912C113.071 314.912 112.367 314.384 112.367 313.536C112.367 312.816 112.799 312.224 114.319 312.224H116.687V313.408C116.303 314.384 115.391 314.912 114.239 314.912ZM127.576 304.128V308.8C126.872 307.888 125.816 307.44 124.616 307.44C122.136 307.44 120.328 309.168 120.328 311.76C120.328 314.352 122.136 316.096 124.616 316.096C125.864 316.096 126.952 315.616 127.64 314.656V316H129.112V304.128H127.576ZM124.744 314.752C123.112 314.752 121.88 313.568 121.88 311.76C121.88 309.952 123.112 308.784 124.744 308.784C126.36 308.784 127.592 309.952 127.592 311.76C127.592 313.568 126.36 314.752 124.744 314.752ZM135.651 316.096C138.195 316.096 140.051 314.288 140.051 311.76C140.051 309.232 138.195 307.44 135.651 307.44C133.107 307.44 131.235 309.232 131.235 311.76C131.235 314.288 133.107 316.096 135.651 316.096ZM135.651 314.752C134.019 314.752 132.787 313.568 132.787 311.76C132.787 309.952 134.019 308.784 135.651 308.784C137.283 308.784 138.499 309.952 138.499 311.76C138.499 313.568 137.283 314.752 135.651 314.752ZM143.647 308.944V307.52H142.175V316H143.711V311.776C143.711 309.92 144.735 308.912 146.383 308.912C146.495 308.912 146.607 308.912 146.735 308.928V307.44C145.247 307.44 144.191 307.952 143.647 308.944ZM154.858 314.608V310.992H160.474V309.632H154.858V306.192H161.162V304.8H153.258V316H161.386V314.608H154.858ZM169.612 307.52L166.636 314.32L163.724 307.52H162.124L165.836 316H167.404L171.116 307.52H169.612ZM179.979 311.808C179.979 309.2 178.235 307.44 175.787 307.44C173.339 307.44 171.531 309.248 171.531 311.76C171.531 314.288 173.355 316.096 176.091 316.096C177.499 316.096 178.667 315.616 179.435 314.72L178.587 313.728C177.963 314.416 177.131 314.752 176.139 314.752C174.459 314.752 173.259 313.76 173.067 312.272H179.947C179.963 312.128 179.979 311.936 179.979 311.808ZM175.787 308.736C177.275 308.736 178.347 309.744 178.507 311.168H173.067C173.227 309.728 174.315 308.736 175.787 308.736ZM183.584 308.944V307.52H182.112V316H183.648V311.776C183.648 309.92 184.672 308.912 186.32 308.912C186.432 308.912 186.544 308.912 186.672 308.928V307.44C185.184 307.44 184.128 307.952 183.584 308.944ZM194.909 307.52L191.981 314.304L189.021 307.52H187.421L191.165 315.984L190.893 316.576C190.477 317.552 190.013 317.888 189.277 317.888C188.701 317.888 188.173 317.664 187.757 317.264L187.101 318.416C187.629 318.928 188.461 319.2 189.277 319.2C190.573 319.2 191.549 318.64 192.301 316.848L196.413 307.52H194.909ZM202.369 314.4C202.049 314.656 201.617 314.8 201.169 314.8C200.321 314.8 199.841 314.288 199.841 313.376V308.784H202.273V307.52H199.841V305.664H198.305V307.52H196.865V308.784H198.305V313.44C198.305 315.152 199.281 316.096 200.993 316.096C201.681 316.096 202.385 315.904 202.849 315.504L202.369 314.4ZM207.794 307.44C206.434 307.44 205.17 307.824 204.29 308.528L204.93 309.68C205.586 309.12 206.61 308.768 207.618 308.768C209.138 308.768 209.89 309.52 209.89 310.816V311.12H207.458C204.93 311.12 204.05 312.24 204.05 313.6C204.05 315.072 205.266 316.096 207.186 316.096C208.514 316.096 209.458 315.648 209.97 314.88V316H211.426V310.88C211.426 308.56 210.114 307.44 207.794 307.44ZM207.442 314.912C206.274 314.912 205.57 314.384 205.57 313.536C205.57 312.816 206.002 312.224 207.522 312.224H209.89V313.408C209.506 314.384 208.594 314.912 207.442 314.912ZM214.269 316H215.805V304.128H214.269V316ZM226.401 311.808C226.401 309.2 224.657 307.44 222.209 307.44C219.761 307.44 217.953 309.248 217.953 311.76C217.953 314.288 219.777 316.096 222.513 316.096C223.921 316.096 225.089 315.616 225.857 314.72L225.009 313.728C224.385 314.416 223.553 314.752 222.561 314.752C220.881 314.752 219.681 313.76 219.489 312.272H226.369C226.385 312.128 226.401 311.936 226.401 311.808ZM222.209 308.736C223.697 308.736 224.769 309.744 224.929 311.168H219.489C219.649 309.728 220.737 308.736 222.209 308.736ZM237.423 304.8H233.055V316H234.655V312.608H237.423C240.335 312.608 242.095 311.136 242.095 308.704C242.095 306.272 240.335 304.8 237.423 304.8ZM237.375 311.216H234.655V306.192H237.375C239.423 306.192 240.495 307.104 240.495 308.704C240.495 310.304 239.423 311.216 237.375 311.216ZM245.553 308.944V307.52H244.081V316H245.617V311.776C245.617 309.92 246.641 308.912 248.289 308.912C248.401 308.912 248.513 308.912 248.641 308.928V307.44C247.153 307.44 246.097 307.952 245.553 308.944ZM254.088 316.096C256.632 316.096 258.488 314.288 258.488 311.76C258.488 309.232 256.632 307.44 254.088 307.44C251.544 307.44 249.672 309.232 249.672 311.76C249.672 314.288 251.544 316.096 254.088 316.096ZM254.088 314.752C252.456 314.752 251.224 313.568 251.224 311.76C251.224 309.952 252.456 308.784 254.088 308.784C255.72 308.784 256.936 309.952 256.936 311.76C256.936 313.568 255.72 314.752 254.088 314.752ZM267.268 307.52V308.832C266.548 307.904 265.396 307.44 264.132 307.44C261.684 307.44 259.828 309.088 259.828 311.536C259.828 313.984 261.684 315.648 264.132 315.648C265.348 315.648 266.452 315.216 267.188 314.336V315.008C267.188 316.928 266.276 317.856 264.276 317.856C263.028 317.856 261.796 317.424 261.012 316.752L260.276 317.936C261.204 318.768 262.772 319.2 264.324 319.2C267.204 319.2 268.724 317.84 268.724 314.848V307.52H267.268ZM264.308 314.304C262.596 314.304 261.38 313.168 261.38 311.536C261.38 309.888 262.596 308.784 264.308 308.784C266.004 308.784 267.22 309.888 267.22 311.536C267.22 313.168 266.004 314.304 264.308 314.304ZM273.131 308.944V307.52H271.659V316H273.195V311.776C273.195 309.92 274.219 308.912 275.867 308.912C275.979 308.912 276.091 308.912 276.219 308.928V307.44C274.731 307.44 273.675 307.952 273.131 308.944ZM281.185 307.44C279.825 307.44 278.561 307.824 277.681 308.528L278.321 309.68C278.977 309.12 280.001 308.768 281.009 308.768C282.529 308.768 283.281 309.52 283.281 310.816V311.12H280.849C278.321 311.12 277.441 312.24 277.441 313.6C277.441 315.072 278.657 316.096 280.577 316.096C281.905 316.096 282.849 315.648 283.361 314.88V316H284.817V310.88C284.817 308.56 283.505 307.44 281.185 307.44ZM280.833 314.912C279.665 314.912 278.961 314.384 278.961 313.536C278.961 312.816 279.393 312.224 280.913 312.224H283.281V313.408C282.897 314.384 281.985 314.912 280.833 314.912ZM298.267 307.44C296.827 307.44 295.643 308.048 295.003 309.008C294.443 307.952 293.355 307.44 292.059 307.44C290.779 307.44 289.739 307.92 289.131 308.784V307.52H287.659V316H289.195V311.632C289.195 309.792 290.203 308.816 291.739 308.816C293.131 308.816 293.931 309.632 293.931 311.296V316H295.467V311.632C295.467 309.792 296.475 308.816 298.011 308.816C299.403 308.816 300.203 309.632 300.203 311.296V316H301.739V311.12C301.739 308.624 300.331 307.44 298.267 307.44Z" fill="#212429"/>
<path opacity="0.3" d="M32.47 274.07C33.97 274.07 34.89 273.42 34.89 272.42C34.89 270.33 31.59 271.29 31.59 270.21C31.59 269.86 31.95 269.61 32.71 269.61C33.22 269.61 33.73 269.71 34.24 270.01L34.72 269.06C34.24 268.77 33.43 268.6 32.72 268.6C31.28 268.6 30.37 269.26 30.37 270.27C30.37 272.4 33.67 271.44 33.67 272.46C33.67 272.83 33.34 273.05 32.55 273.05C31.88 273.05 31.16 272.83 30.69 272.52L30.21 273.47C30.69 273.81 31.58 274.07 32.47 274.07ZM39.8865 268.66V271.36C39.8865 272.43 39.2965 272.97 38.4265 272.97C37.6365 272.97 37.1765 272.51 37.1765 271.54V268.66H35.9265V271.71C35.9265 273.32 36.8565 274.07 38.2265 274.07C38.9165 274.07 39.5465 273.81 39.9465 273.32V274H41.1365V268.66H39.8865ZM45.7331 268.6C45.0531 268.6 44.4531 268.83 44.0231 269.31V266.58H42.7731V274H43.9631V273.31C44.3831 273.82 45.0031 274.07 45.7331 274.07C47.2931 274.07 48.4431 272.99 48.4431 271.33C48.4431 269.67 47.2931 268.6 45.7331 268.6ZM45.5931 273C44.6931 273 44.0031 272.35 44.0031 271.33C44.0031 270.31 44.6931 269.66 45.5931 269.66C46.4931 269.66 47.1731 270.31 47.1731 271.33C47.1731 272.35 46.4931 273 45.5931 273ZM50.3086 267.78C50.7786 267.78 51.1086 267.44 51.1086 267C51.1086 266.59 50.7686 266.28 50.3086 266.28C49.8486 266.28 49.5086 266.61 49.5086 267.03C49.5086 267.45 49.8486 267.78 50.3086 267.78ZM49.0786 276.01C50.2686 276.01 50.9386 275.27 50.9386 274.1V268.66H49.6886V274.13C49.6886 274.7 49.4286 274.98 48.9686 274.98C48.6886 274.98 48.4286 274.91 48.2386 274.77L47.8786 275.7C48.1686 275.92 48.6186 276.01 49.0786 276.01ZM57.5978 271.36C57.5978 269.69 56.4578 268.6 54.8978 268.6C53.3078 268.6 52.1378 269.74 52.1378 271.33C52.1378 272.92 53.2978 274.07 55.0878 274.07C56.0078 274.07 56.7578 273.77 57.2378 273.2L56.5678 272.43C56.1878 272.82 55.7178 273.01 55.1178 273.01C54.1878 273.01 53.5378 272.51 53.3878 271.73H57.5778C57.5878 271.61 57.5978 271.46 57.5978 271.36ZM54.8978 269.6C55.7178 269.6 56.3078 270.13 56.4078 270.9H53.3778C53.4978 270.12 54.0878 269.6 54.8978 269.6ZM61.2485 274.07C62.2885 274.07 63.1185 273.62 63.5285 272.82L62.5685 272.26C62.2485 272.77 61.7685 273 61.2385 273C60.3185 273 59.6185 272.37 59.6185 271.33C59.6185 270.3 60.3185 269.66 61.2385 269.66C61.7685 269.66 62.2485 269.89 62.5685 270.4L63.5285 269.84C63.1185 269.03 62.2885 268.6 61.2485 268.6C59.5585 268.6 58.3585 269.73 58.3585 271.33C58.3585 272.93 59.5585 274.07 61.2485 274.07ZM67.5374 272.82C67.3474 272.97 67.0974 273.04 66.8374 273.04C66.3574 273.04 66.0974 272.76 66.0974 272.24V269.7H67.5274V268.7H66.0974V267.48H64.8474V268.7H63.9674V269.7H64.8474V272.27C64.8474 273.45 65.5174 274.07 66.6874 274.07C67.1374 274.07 67.5874 273.95 67.8874 273.71L67.5374 272.82ZM69.3157 270.26C69.7657 270.26 70.1357 269.91 70.1357 269.43C70.1357 268.93 69.7657 268.6 69.3157 268.6C68.8657 268.6 68.4957 268.93 68.4957 269.43C68.4957 269.91 68.8657 270.26 69.3157 270.26ZM69.3157 274.07C69.7657 274.07 70.1357 273.72 70.1357 273.24C70.1357 272.74 69.7657 272.41 69.3157 272.41C68.8657 272.41 68.4957 272.74 68.4957 273.24C68.4957 273.72 68.8657 274.07 69.3157 274.07Z" fill="#212429"/>
<rect x="30" y="366" width="357" height="55" rx="8" fill="url(#paint0_linear)"/>
<path d="M150.453 399.16C153.525 399.16 154.981 397.624 154.981 395.832C154.981 391.72 148.341 393.272 148.341 390.888C148.341 390.04 149.045 389.368 150.773 389.368C151.749 389.368 152.853 389.656 153.861 390.248L154.517 388.632C153.541 387.992 152.133 387.64 150.789 387.64C147.717 387.64 146.277 389.176 146.277 390.984C146.277 395.144 152.933 393.56 152.933 395.976C152.933 396.808 152.197 397.432 150.453 397.432C149.077 397.432 147.653 396.92 146.757 396.2L146.037 397.816C146.965 398.616 148.709 399.16 150.453 399.16ZM164.883 394.776C164.883 392.104 163.059 390.36 160.563 390.36C158.019 390.36 156.147 392.184 156.147 394.728C156.147 397.272 158.003 399.112 160.867 399.112C162.339 399.112 163.539 398.632 164.307 397.72L163.235 396.488C162.627 397.112 161.875 397.416 160.915 397.416C159.427 397.416 158.387 396.616 158.147 395.368H164.851C164.867 395.176 164.883 394.936 164.883 394.776ZM160.563 391.96C161.875 391.96 162.819 392.808 162.979 394.04H158.131C158.323 392.792 159.267 391.96 160.563 391.96ZM171.652 390.36C170.404 390.36 169.364 390.776 168.708 391.56V390.456H166.804V399H168.804V394.68C168.804 392.968 169.764 392.104 171.188 392.104C172.468 392.104 173.22 392.84 173.22 394.36V399H175.22V394.104C175.22 391.528 173.7 390.36 171.652 390.36ZM184.203 387.128V391.512C183.531 390.728 182.555 390.36 181.451 390.36C178.971 390.36 177.131 392.072 177.131 394.728C177.131 397.384 178.971 399.112 181.451 399.112C182.619 399.112 183.611 398.712 184.283 397.896V399H186.203V387.128H184.203ZM181.691 397.4C180.251 397.4 179.147 396.36 179.147 394.728C179.147 393.096 180.251 392.056 181.691 392.056C183.131 392.056 184.235 393.096 184.235 394.728C184.235 396.36 183.131 397.4 181.691 397.4ZM196.506 390.36C195.13 390.36 193.802 390.712 192.89 391.416L193.674 392.872C194.314 392.344 195.306 392.024 196.266 392.024C197.69 392.024 198.394 392.712 198.394 393.88V394.008H196.186C193.594 394.008 192.634 395.128 192.634 396.552C192.634 398.04 193.866 399.112 195.818 399.112C197.098 399.112 198.026 398.696 198.506 397.96V399H200.394V393.992C200.394 391.528 198.97 390.36 196.506 390.36ZM196.234 397.656C195.21 397.656 194.602 397.192 194.602 396.472C194.602 395.848 194.97 395.336 196.33 395.336H198.394V396.328C198.058 397.208 197.21 397.656 196.234 397.656ZM207.696 390.36C206.528 390.36 205.536 390.76 204.864 391.576V390.456H202.96V402.104H204.96V397.96C205.648 398.744 206.608 399.112 207.696 399.112C210.192 399.112 212.032 397.384 212.032 394.728C212.032 392.088 210.192 390.36 207.696 390.36ZM207.472 397.4C206.032 397.4 204.928 396.36 204.928 394.728C204.928 393.096 206.032 392.056 207.472 392.056C208.912 392.056 210 393.096 210 394.728C210 396.36 208.912 397.4 207.472 397.4ZM218.665 390.36C217.497 390.36 216.505 390.76 215.833 391.576V390.456H213.929V402.104H215.929V397.96C216.617 398.744 217.577 399.112 218.665 399.112C221.161 399.112 223.001 397.384 223.001 394.728C223.001 392.088 221.161 390.36 218.665 390.36ZM218.441 397.4C217.001 397.4 215.897 396.36 215.897 394.728C215.897 393.096 217.001 392.056 218.441 392.056C219.881 392.056 220.969 393.096 220.969 394.728C220.969 396.36 219.881 397.4 218.441 397.4ZM224.898 399H226.898V387.128H224.898V399ZM230.531 389.048C231.283 389.048 231.811 388.504 231.811 387.8C231.811 387.144 231.267 386.648 230.531 386.648C229.795 386.648 229.251 387.176 229.251 387.848C229.251 388.52 229.795 389.048 230.531 389.048ZM229.523 399H231.523V390.456H229.523V399ZM238.068 399.112C239.732 399.112 241.06 398.392 241.716 397.112L240.18 396.216C239.668 397.032 238.9 397.4 238.052 397.4C236.58 397.4 235.46 396.392 235.46 394.728C235.46 393.08 236.58 392.056 238.052 392.056C238.9 392.056 239.668 392.424 240.18 393.24L241.716 392.344C241.06 391.048 239.732 390.36 238.068 390.36C235.364 390.36 233.444 392.168 233.444 394.728C233.444 397.288 235.364 399.112 238.068 399.112ZM246.709 390.36C245.333 390.36 244.005 390.712 243.093 391.416L243.877 392.872C244.517 392.344 245.509 392.024 246.469 392.024C247.893 392.024 248.597 392.712 248.597 393.88V394.008H246.389C243.797 394.008 242.837 395.128 242.837 396.552C242.837 398.04 244.069 399.112 246.021 399.112C247.301 399.112 248.229 398.696 248.709 397.96V399H250.597V393.992C250.597 391.528 249.173 390.36 246.709 390.36ZM246.437 397.656C245.413 397.656 244.805 397.192 244.805 396.472C244.805 395.848 245.173 395.336 246.533 395.336H248.597V396.328C248.261 397.208 247.413 397.656 246.437 397.656ZM257.74 397.112C257.436 397.352 257.036 397.464 256.62 397.464C255.852 397.464 255.436 397.016 255.436 396.184V392.12H257.724V390.52H255.436V388.568H253.436V390.52H252.028V392.12H253.436V396.232C253.436 398.12 254.508 399.112 256.38 399.112C257.1 399.112 257.82 398.92 258.3 398.536L257.74 397.112ZM260.953 389.048C261.705 389.048 262.233 388.504 262.233 387.8C262.233 387.144 261.689 386.648 260.953 386.648C260.217 386.648 259.673 387.176 259.673 387.848C259.673 388.52 260.217 389.048 260.953 389.048ZM259.945 399H261.945V390.456H259.945V399ZM268.41 399.112C271.066 399.112 272.97 397.288 272.97 394.728C272.97 392.168 271.066 390.36 268.41 390.36C265.786 390.36 263.866 392.168 263.866 394.728C263.866 397.288 265.786 399.112 268.41 399.112ZM268.41 397.4C266.97 397.4 265.882 396.36 265.882 394.728C265.882 393.096 266.97 392.056 268.41 392.056C269.866 392.056 270.954 393.096 270.954 394.728C270.954 396.36 269.866 397.4 268.41 397.4ZM279.73 390.36C278.482 390.36 277.442 390.776 276.786 391.56V390.456H274.882V399H276.882V394.68C276.882 392.968 277.842 392.104 279.266 392.104C280.546 392.104 281.298 392.84 281.298 394.36V399H283.298V394.104C283.298 391.528 281.778 390.36 279.73 390.36Z" fill="white"/>
<path d="M42.43 34.6V43.95L34.774 34.6H31.826V50H35.346V40.65L43.024 50H45.95V34.6H42.43ZM60.9456 44.126C60.9456 40.32 58.2616 37.988 54.7856 37.988C51.1776 37.988 48.4716 40.54 48.4716 44.082C48.4716 47.602 51.1336 50.176 55.2256 50.176C57.3596 50.176 59.0096 49.516 60.1096 48.262L58.2836 46.282C57.4696 47.052 56.5676 47.426 55.3136 47.426C53.5096 47.426 52.2556 46.524 51.9256 45.05H60.8796C60.9016 44.764 60.9456 44.39 60.9456 44.126ZM54.8076 40.584C56.3476 40.584 57.4696 41.552 57.7116 43.048H51.8816C52.1236 41.53 53.2456 40.584 54.8076 40.584ZM78.9876 38.164L76.1056 46.172L73.2896 38.164H70.3856L67.4816 46.172L64.6876 38.164H61.4536L65.7216 50H69.0216L71.7716 42.652L74.4336 50H77.7336L82.0236 38.164H78.9876ZM105.008 37.988C103.226 37.988 101.686 38.714 100.74 39.924C99.9036 38.626 98.4956 37.988 96.8456 37.988C95.3276 37.988 94.0076 38.516 93.1276 39.528V38.164H89.8496V50H93.2816V44.06C93.2816 41.948 94.3596 40.958 95.8776 40.958C97.3076 40.958 98.1216 41.838 98.1216 43.752V50H101.554V44.06C101.554 41.948 102.632 40.958 104.172 40.958C105.558 40.958 106.416 41.838 106.416 43.752V50H109.848V43.224C109.848 39.616 107.824 37.988 105.008 37.988ZM124.647 44.126C124.647 40.32 121.963 37.988 118.487 37.988C114.879 37.988 112.173 40.54 112.173 44.082C112.173 47.602 114.835 50.176 118.927 50.176C121.061 50.176 122.711 49.516 123.811 48.262L121.985 46.282C121.171 47.052 120.269 47.426 119.015 47.426C117.211 47.426 115.957 46.524 115.627 45.05H124.581C124.603 44.764 124.647 44.39 124.647 44.126ZM118.509 40.584C120.049 40.584 121.171 41.552 121.413 43.048H115.583C115.825 41.53 116.947 40.584 118.509 40.584ZM130.914 50.176C134.456 50.176 136.502 48.614 136.502 46.414C136.502 41.75 129.352 43.708 129.352 41.684C129.352 41.068 130.012 40.584 131.552 40.584C132.63 40.584 133.796 40.804 134.962 41.464L136.106 39.022C134.984 38.362 133.18 37.988 131.552 37.988C128.098 37.988 126.074 39.572 126.074 41.816C126.074 46.546 133.224 44.566 133.224 46.502C133.224 47.162 132.63 47.58 131.046 47.58C129.594 47.58 127.988 47.118 126.932 46.436L125.788 48.9C126.888 49.626 128.912 50.176 130.914 50.176ZM142.601 50.176C146.143 50.176 148.189 48.614 148.189 46.414C148.189 41.75 141.039 43.708 141.039 41.684C141.039 41.068 141.699 40.584 143.239 40.584C144.317 40.584 145.483 40.804 146.649 41.464L147.793 39.022C146.671 38.362 144.867 37.988 143.239 37.988C139.785 37.988 137.761 39.572 137.761 41.816C137.761 46.546 144.911 44.566 144.911 46.502C144.911 47.162 144.317 47.58 142.733 47.58C141.281 47.58 139.675 47.118 138.619 46.436L137.475 48.9C138.575 49.626 140.599 50.176 142.601 50.176ZM155.081 37.988C153.189 37.988 151.275 38.494 149.977 39.418L151.209 41.816C152.067 41.134 153.365 40.716 154.619 40.716C156.467 40.716 157.347 41.574 157.347 43.048H154.619C151.011 43.048 149.537 44.5 149.537 46.59C149.537 48.636 151.187 50.176 153.959 50.176C155.697 50.176 156.929 49.604 157.567 48.526V50H160.779V43.246C160.779 39.66 158.689 37.988 155.081 37.988ZM154.817 47.866C153.607 47.866 152.881 47.294 152.881 46.436C152.881 45.644 153.387 45.05 154.993 45.05H157.347V46.26C156.951 47.338 155.961 47.866 154.817 47.866ZM172.968 38.164V39.682C172.066 38.538 170.702 37.988 169.052 37.988C165.774 37.988 163.134 40.254 163.134 43.708C163.134 47.162 165.774 49.428 169.052 49.428C170.592 49.428 171.89 48.944 172.792 47.954V48.46C172.792 50.594 171.736 51.694 169.316 51.694C167.798 51.694 166.148 51.166 165.136 50.352L163.772 52.816C165.158 53.894 167.336 54.444 169.58 54.444C173.848 54.444 176.224 52.42 176.224 48.02V38.164H172.968ZM169.734 46.612C167.93 46.612 166.61 45.446 166.61 43.708C166.61 41.97 167.93 40.804 169.734 40.804C171.538 40.804 172.836 41.97 172.836 43.708C172.836 45.446 171.538 46.612 169.734 46.612ZM191.012 44.126C191.012 40.32 188.328 37.988 184.852 37.988C181.244 37.988 178.538 40.54 178.538 44.082C178.538 47.602 181.2 50.176 185.292 50.176C187.426 50.176 189.076 49.516 190.176 48.262L188.35 46.282C187.536 47.052 186.634 47.426 185.38 47.426C183.576 47.426 182.322 46.524 181.992 45.05H190.946C190.968 44.764 191.012 44.39 191.012 44.126ZM184.874 40.584C186.414 40.584 187.536 41.552 187.778 43.048H181.948C182.19 41.53 183.312 40.584 184.874 40.584Z" fill="#212429"/>
<defs>
<linearGradient id="paint0_linear" x1="30" y1="366" x2="46.5539" y2="473.45" gradientUnits="userSpaceOnUse">
<stop stop-color="#00BBFF"/>
<stop offset="0.53" stop-color="#9C42F5"/>
<stop offset="1" stop-color="#5D2DE1"/>
</linearGradient>
</defs>
</svg>
