<svg width="124" height="122" viewBox="0 0 124 122" fill="none" xmlns="http://www.w3.org/2000/svg">
<g opacity="0.3">
<path d="M51.7738 107.985L50.6505 107.729L48.6781 116.412L49.8015 116.668L51.7738 107.985Z" fill="white"/>
<path d="M41.9917 104.704C40.2522 103.92 38.426 104.585 37.647 106.313C36.868 108.042 37.5848 109.839 39.3244 110.623C41.0639 111.407 42.8961 110.759 43.6751 109.03C44.4541 107.301 43.7313 105.488 41.9917 104.704ZM41.5776 105.623C42.6935 106.126 43.171 107.315 42.6139 108.552C42.0568 109.788 40.8544 110.207 39.7385 109.704C38.6226 109.201 38.1511 108.028 38.7082 106.792C39.2654 105.555 40.4617 105.12 41.5776 105.623Z" fill="white"/>
<path d="M28.7785 104.319C29.5901 104.937 30.5189 105.282 31.3639 105.261L31.5053 104.283C30.8594 104.319 30.0884 104.064 29.4869 103.606C28.5798 102.916 28.4727 102.125 29.0615 101.352L29.1996 101.17L30.6509 102.275C32.1595 103.424 33.1935 103.155 33.8114 102.344C34.4801 101.465 34.2197 100.302 33.0739 99.4295C32.2814 98.8262 31.5145 98.6647 30.8601 98.8904L31.3689 98.222L30.5 97.5606L28.1739 100.616C27.1199 102 27.3941 103.265 28.7785 104.319ZM32.3832 100.02C33.0802 100.55 33.2605 101.185 32.8752 101.691C32.5481 102.121 32.0214 102.278 31.1143 101.587L29.7012 100.512L30.2391 99.8051C30.9116 99.3972 31.6957 99.4964 32.3832 100.02Z" fill="white"/>
<path d="M16.7311 95.7933L19.4474 93.5798C19.2507 94.4212 19.4906 95.2474 20.0591 95.9451C21.2341 97.387 23.0953 97.6195 24.6024 96.3914C26.1094 95.1634 26.2667 93.286 25.0918 91.8441C24.5005 91.1185 23.706 90.7133 22.8218 90.7681L23.6033 90.1314L22.9059 89.2755L16.0034 94.9002L16.7311 95.7933ZM24.2497 92.4064C25.0229 93.3553 24.9182 94.6325 23.867 95.4891C22.8159 96.3457 21.5531 96.1828 20.7799 95.2339C20.0143 94.2944 20.1096 93.0247 21.1608 92.1681C22.212 91.3115 23.4841 91.4669 24.2497 92.4064Z" fill="white"/>
<path d="M12.6421 86.8575C12.4337 86.4519 11.9868 86.3173 11.6025 86.5147C11.2396 86.7012 11.105 87.1481 11.308 87.5431C11.5109 87.938 11.9633 88.0833 12.3369 87.8913C12.7104 87.6994 12.845 87.2524 12.6421 86.8575ZM19.651 83.9037L19.1245 82.879L13.4676 85.7858L13.9941 86.8104L19.651 83.9037Z" fill="white"/>
<path d="M9.44252 75.3948C9.70708 76.3674 10.2802 77.0572 11.0283 77.3387L10.102 77.5907L10.3917 78.656L16.5288 76.9867L16.2264 75.8751L13.0653 76.7349C11.7336 77.0971 10.8194 76.525 10.4982 75.3439C10.2116 74.2902 10.6384 73.5274 11.8426 73.1999L15.2469 72.2739L14.9446 71.1623L11.4129 72.1229C9.6065 72.6142 9.03624 73.901 9.44252 75.3948Z" fill="white"/>
<path d="M7.66548 60.2345L8.64942 60.2237C7.95942 60.7713 7.62097 61.6391 7.63142 62.587C7.65166 64.4229 8.90293 65.8012 10.7388 65.781C12.5747 65.7608 13.8073 64.3551 13.787 62.5192C13.777 61.6073 13.4439 60.7829 12.7778 60.2382L13.2818 60.2326C14.7217 60.2168 15.4252 60.8931 15.4418 62.393C15.4521 63.3289 15.1383 64.2564 14.6408 64.8499L15.5348 65.3921C16.1511 64.6893 16.4621 63.5098 16.4493 62.3459C16.4255 60.186 15.393 59.0573 13.1491 59.082L7.65345 59.1426L7.66548 60.2345ZM12.7776 62.3983C12.7918 63.6822 11.9499 64.6036 10.726 64.6171C9.49006 64.6307 8.65205 63.7279 8.6379 62.4439C8.62388 61.172 9.44177 60.251 10.6777 60.2373C11.9016 60.2238 12.7636 61.1264 12.7776 62.3983Z" fill="white"/>
<path d="M11.1189 39.5153L10.3577 39.6185L10.6257 41.2806L9.12014 40.6824L8.85924 41.3534L10.3735 41.9293L9.05325 42.9738L9.54479 43.5641L10.8048 42.5089L11.0323 44.1424L11.7823 44.0348L11.5143 42.3728L13.031 42.9753L13.2919 42.3043L11.7665 41.7241L13.0868 40.6795L12.6064 40.0936L11.3396 41.1332L11.1189 39.5153Z" fill="white"/>
<path d="M24.9186 31.2478L25.667 30.372L18.8981 24.5873L18.1496 25.463L24.9186 31.2478Z" fill="white"/>
<path d="M32.3704 24.1117C33.8734 22.9364 34.1347 21.0107 32.9668 19.5171C31.7989 18.0235 29.8745 17.8223 28.3715 18.9976C26.8684 20.1729 26.5903 22.0965 27.7582 23.5901C28.9261 25.0837 30.8673 25.2871 32.3704 24.1117ZM31.7495 23.3177C30.7853 24.0716 29.5104 23.9413 28.6751 22.8731C27.8399 21.8049 28.0281 20.5456 28.9924 19.7916C29.9566 19.0377 31.2146 19.166 32.0499 20.2342C32.8851 21.3024 32.7137 22.5637 31.7495 23.3177Z" fill="white"/>
<path d="M38.8568 12.5934C37.9323 13.0245 37.1949 13.6862 36.8199 14.4436L37.6201 15.0238C37.8885 14.4352 38.4729 13.8714 39.1581 13.5519C40.1913 13.07 40.9408 13.3428 41.3516 14.2237L41.448 14.4304L39.7949 15.2013C38.0766 16.0026 37.8334 17.0428 38.2645 17.9673C38.7311 18.9678 39.8823 19.2784 41.1873 18.6698C42.09 18.2488 42.5896 17.6451 42.6942 16.9608L43.0492 17.722L44.0389 17.2605L42.4159 13.7803C41.6805 12.2034 40.4337 11.858 38.8568 12.5934ZM40.986 17.7838C40.1921 18.1541 39.5462 18.0184 39.2774 17.4419C39.0492 16.9525 39.1552 16.4132 40.1883 15.9314L41.7979 15.1808L42.1732 15.9856C42.2216 16.7707 41.7691 17.4187 40.986 17.7838Z" fill="white"/>
<path d="M53.1371 5.6657L54.9063 14.3922L53.8243 14.6115L53.624 13.6236C53.443 14.0194 53.1787 14.3464 52.8311 14.6046C52.4835 14.8628 52.0784 15.0388 51.6158 15.1325C51.012 15.2549 50.444 15.2313 49.9117 15.0616C49.3794 14.892 48.9275 14.5959 48.5561 14.1732C48.191 13.7411 47.9449 13.2115 47.8177 12.5842C47.6905 11.957 47.7117 11.3772 47.8814 10.8449C48.0588 10.311 48.3597 9.86232 48.7839 9.49881C49.2081 9.1353 49.7221 8.89236 50.3258 8.76999C50.7727 8.67941 51.2018 8.68223 51.6132 8.77844C52.0229 8.86681 52.3866 9.05022 52.7043 9.32867L52.008 5.89454L53.1371 5.6657ZM51.5096 14.1256C51.9016 14.0461 52.2401 13.8837 52.525 13.6382C52.8083 13.3848 53.0067 13.0753 53.1203 12.7094C53.2323 12.3357 53.2445 11.9333 53.1571 11.502C53.0697 11.0708 52.9024 10.7088 52.6553 10.4161C52.4067 10.1155 52.1033 9.90758 51.7453 9.79241C51.3872 9.67723 51.0122 9.65937 50.6202 9.73883C50.2203 9.81987 49.8779 9.98314 49.593 10.2286C49.316 10.4725 49.1175 10.7821 48.9977 11.1574C48.8841 11.5232 48.8711 11.9218 48.9585 12.353C49.0459 12.7842 49.214 13.1501 49.4627 13.4507C49.7176 13.7419 50.0209 13.9498 50.3727 14.0744C50.7307 14.1896 51.1097 14.2066 51.5096 14.1256Z" fill="white"/>
<path d="M61.8208 6.4309C62.2768 6.43504 62.6038 6.102 62.6077 5.67002C62.6114 5.26204 62.2784 4.935 61.8344 4.93096C61.3904 4.92692 61.0514 5.25986 61.0476 5.67984C61.0438 6.09982 61.3768 6.42686 61.8208 6.4309ZM61.1759 14.0093L62.3278 14.0198L62.3856 7.66008L61.2337 7.64961L61.1759 14.0093Z" fill="white"/>
<path d="M73.455 8.93034C72.4709 8.71216 71.5937 8.89871 70.9965 9.43005L71.2043 8.4928L70.1265 8.25384L68.7499 14.4631L69.8745 14.7124L70.5836 11.5141C70.8824 10.1668 71.814 9.62358 73.009 9.88852C74.0751 10.1249 74.5519 10.8575 74.2817 12.0759L73.5181 15.5202L74.6428 15.7696L75.435 12.1964C75.8402 10.3687 74.9663 9.26541 73.455 8.93034Z" fill="white"/>
<path d="M87.702 14.408L87.2539 15.2841C87.0901 14.4186 86.4793 13.7154 85.6352 13.2838C84.0006 12.4478 82.1984 12.9145 81.3624 14.5491C80.5265 16.1837 81.1976 17.9286 82.8322 18.7646C83.6442 19.1798 84.5289 19.2683 85.3209 18.932L85.0914 19.3808C84.4358 20.6628 83.5098 20.9711 82.1743 20.2881C81.341 19.862 80.6658 19.1528 80.3718 18.4364L79.476 18.9756C79.8116 19.8481 80.7111 20.672 81.7474 21.202C83.6705 22.1854 85.15 21.7963 86.1717 19.7984L88.6742 14.9052L87.702 14.408ZM83.4087 17.9272C82.2655 17.3426 81.8415 16.1688 82.3988 15.0791C82.9616 13.9786 84.1506 13.6567 85.2938 14.2413C86.4263 14.8204 86.8613 15.9729 86.2985 17.0733C85.7412 18.1631 84.5412 18.5064 83.4087 17.9272Z" fill="white"/>
<path d="M104.439 27.103L104.701 26.3812L103.105 25.8454L104.335 24.7909L103.863 24.2478L102.648 25.3205L102.338 23.6659L101.587 23.8265L101.935 25.4326L100.383 24.8744L100.129 25.5883L101.725 26.1241L100.486 27.1865L100.959 27.7296L102.182 26.6491L102.493 28.3036L103.235 28.1509L102.904 26.5459L104.439 27.103Z" fill="white"/>
<path d="M105.34 43.1626L105.767 44.2325L114.037 40.9307L113.609 39.8609L105.34 43.1626Z" fill="white"/>
<path d="M108.19 53.0774C108.532 54.9546 110.115 56.0815 111.98 55.7422C113.846 55.4029 114.919 53.7928 114.578 51.9156C114.236 50.0384 112.663 48.8976 110.797 49.2369C108.932 49.5762 107.849 51.2002 108.19 53.0774ZM109.182 52.897C108.963 51.6928 109.671 50.6247 111.006 50.3821C112.34 50.1394 113.367 50.8917 113.586 52.096C113.805 53.3003 113.106 54.3543 111.772 54.597C110.438 54.8396 109.401 54.1013 109.182 52.897Z" fill="white"/>
<path d="M115.371 64.1779C115.419 63.1591 115.176 62.1985 114.68 61.5142L113.794 61.9528C114.191 62.4641 114.418 63.2438 114.382 63.9989C114.328 65.1376 113.738 65.6743 112.767 65.6282L112.539 65.6174L112.626 63.7955C112.716 61.9016 111.908 61.2026 110.889 61.1543C109.786 61.102 108.976 61.9766 108.908 63.4149C108.861 64.4098 109.163 65.1329 109.72 65.5438L108.881 65.504L108.829 66.5948L112.665 66.7767C114.403 66.8591 115.288 65.916 115.371 64.1779ZM109.786 63.6488C109.827 62.7738 110.248 62.2651 110.883 62.2952C111.422 62.3208 111.851 62.6655 111.797 63.8042L111.712 65.5782L110.825 65.5362C110.108 65.2138 109.745 64.5118 109.786 63.6488Z" fill="white"/>
<path d="M115.186 78.936L111.822 77.955C112.626 77.6396 113.17 76.9733 113.422 76.1093C113.943 74.3237 113.079 72.6591 111.212 72.1149C109.346 71.5706 107.711 72.5062 107.19 74.2919C106.928 75.1904 107.045 76.0746 107.592 76.7715L106.624 76.4893L106.315 77.5492L114.863 80.0419L115.186 78.936ZM108.131 74.6662C108.473 73.4912 109.585 72.8527 110.886 73.2323C112.188 73.6119 112.77 74.7442 112.428 75.9193C112.089 77.0828 110.989 77.7246 109.687 77.345C108.385 76.9654 107.791 75.8297 108.131 74.6662Z" fill="white"/>
<path d="M110.146 87.3733C109.93 87.7751 110.073 88.2195 110.454 88.4239C110.813 88.6169 111.257 88.4742 111.468 88.083C111.678 87.6919 111.541 87.2369 111.171 87.0382C110.801 86.8395 110.356 86.9822 110.146 87.3733ZM103.737 83.2777L103.192 84.2926L108.795 87.3017L109.34 86.2868L103.737 83.2777Z" fill="white"/>
<path d="M102.523 96.5092C103.173 95.7395 103.416 94.8762 103.224 94.1005L103.957 94.7203L104.67 93.8773L99.813 89.7707L99.0692 90.6504L101.571 92.7657C102.625 93.6567 102.672 94.7341 101.882 95.6688C101.177 96.5026 100.306 96.5839 99.3534 95.7781L96.6595 93.5001L95.9156 94.3798L98.7104 96.743C100.14 97.9517 101.523 97.6913 102.523 96.5092Z" fill="white"/>
<path d="M91.0468 106.576L90.4796 105.772C91.322 106.03 92.2287 105.816 93.0033 105.27C94.5036 104.211 94.9287 102.399 93.8704 100.899C92.8121 99.3982 90.9553 99.1808 89.455 100.239C88.7097 100.765 88.2199 101.507 88.1492 102.364L87.8587 101.952C87.0287 100.776 87.1865 99.8127 88.4122 98.9481C89.1771 98.4086 90.1189 98.1407 90.8899 98.2137L90.8291 97.1698C89.9007 97.0611 88.753 97.4742 87.8018 98.1451C86.0367 99.3902 85.6931 100.881 86.9865 102.714L90.1544 107.206L91.0468 106.576ZM89.9281 101.139C90.9774 100.399 92.2137 100.569 92.9192 101.569C93.6317 102.58 93.3637 103.782 92.3144 104.522C91.275 105.255 90.0525 105.104 89.3401 104.094C88.6345 103.094 88.8887 101.872 89.9281 101.139Z" fill="white"/>
<path d="M72.0253 115.488L72.5421 116.056L73.7587 114.893L74.1203 116.472L74.8209 116.306L74.436 114.732L76.0452 115.227L76.2524 114.487L74.6686 114.048L75.8846 112.934L75.3706 112.378L74.154 113.541L73.7896 111.951L73.089 112.116L73.4767 113.702L71.8674 113.207L71.6575 113.935L73.2324 114.389L72.0253 115.488Z" fill="white"/>
</g>
</svg>
