<svg width="27" height="27" viewBox="0 0 27 27" fill="none" xmlns="http://www.w3.org/2000/svg">
<path fill-rule="evenodd" clip-rule="evenodd" d="M22.9835 13.0228C22.9835 18.4788 18.5601 22.9018 13.1035 22.9018C7.64692 22.9018 3.2235 18.4788 3.2235 13.0228C3.2235 7.56672 7.64692 3.14368 13.1035 3.14368C18.5601 3.14368 22.9835 7.56672 22.9835 13.0228ZM26.1035 13.0228C26.1035 20.2018 20.2831 26.0215 13.1035 26.0215C5.92381 26.0215 0.103516 20.2018 0.103516 13.0228C0.103516 5.84374 5.92381 0.0239815 13.1035 0.0239815C20.2831 0.0239815 26.1035 5.84374 26.1035 13.0228ZM26.1021 1.56896C26.1021 2.42362 25.4093 3.11644 24.5546 3.11644C23.6998 3.11644 23.007 2.42362 23.007 1.56896C23.007 0.71432 23.6998 0.0214844 24.5546 0.0214844C25.4093 0.0214844 26.1021 0.71432 26.1021 1.56896ZM16.8903 13.1248C16.8903 15.1525 15.2466 16.7961 13.2189 16.7961C11.1911 16.7961 9.54735 15.1525 9.54735 13.1248C9.54735 11.0974 11.1911 9.45373 13.2189 9.45373C15.2466 9.45373 16.8903 11.0974 16.8903 13.1248ZM17.9394 13.1248C17.9394 15.7317 15.826 17.845 13.2189 17.845C10.6118 17.845 8.49835 15.7317 8.49835 13.1248C8.49835 10.5181 10.6118 8.40484 13.2189 8.40484C15.826 8.40484 17.9394 10.5181 17.9394 13.1248Z" fill="white"/>
</svg>
