<svg width="137" height="35" viewBox="0 0 137 35" fill="none" xmlns="http://www.w3.org/2000/svg">
<path fill-rule="evenodd" clip-rule="evenodd" d="M120.886 27.9913H117.211V7.75012H120.886V27.9913ZM38.7531 19.676H31.4556V24.8154H40.02V27.9913H27.6548V8.80436H39.9946V12.0066H31.4556V16.5793H38.7531V19.676ZM47.5217 23.3395L50.0682 13.7329H53.8943L49.27 27.9913H45.7733L41.149 13.7329H44.9752L47.5217 23.3395ZM56.528 26.3309C57.7949 27.6135 59.4335 28.2549 61.4437 28.2549C62.5839 28.2549 63.6228 28.0309 64.5603 27.5828C65.4978 27.126 66.2411 26.4934 66.79 25.6852L64.991 23.5899C64.1971 24.6529 63.0949 25.1844 61.6844 25.1844C60.7723 25.1844 60.0162 24.9033 59.4166 24.341C58.8254 23.7788 58.4707 23.032 58.3524 22.1008H67.0815V20.5458C67.0815 18.288 66.5409 16.5442 65.4598 15.3142C64.3871 14.0843 62.9133 13.4693 61.0383 13.4693C59.7883 13.4693 58.6734 13.7768 57.6936 14.3918C56.7222 14.9979 55.9705 15.8677 55.4385 17.001C54.9064 18.1255 54.6403 19.4038 54.6403 20.8358V21.2048C54.6403 23.3395 55.2695 25.0483 56.528 26.3309ZM59.2519 17.3173C59.708 16.8077 60.2992 16.5529 61.0256 16.5529C61.8026 16.5529 62.4023 16.7858 62.8246 17.2514C63.2469 17.7082 63.4666 18.3583 63.4834 19.2017V19.5048H58.3904C58.517 18.556 58.8043 17.8268 59.2519 17.3173ZM77.2564 17.304C76.7581 17.2338 76.3189 17.1987 75.9388 17.1987C74.5536 17.1987 73.6457 17.6863 73.2149 18.6614V27.9913H69.5535V13.7329H73.0122L73.1136 15.4328C73.8483 14.1238 74.8661 13.4693 76.1668 13.4693C76.5722 13.4693 76.9523 13.5264 77.3071 13.6407L77.2564 17.304ZM87.4454 13.7329L84.9115 22.6015L82.365 13.7329H78.4249L83.2266 28.0309L82.7958 29.2037C82.6015 29.7133 82.3313 30.0778 81.985 30.2974C81.6472 30.517 81.1319 30.6269 80.4393 30.6269L79.882 30.6137V33.4997C80.4309 33.6665 80.9715 33.75 81.5036 33.75C83.3871 33.75 84.7385 32.8188 85.5577 30.9564L85.8618 30.2052L91.3729 13.7329H87.4454ZM98.3455 10.2276V13.7329H100.689V16.5265H98.3455V23.6427C98.3455 24.1698 98.4426 24.5475 98.6369 24.7759C98.8311 25.0043 99.2028 25.1185 99.7518 25.1185C100.157 25.1185 100.516 25.0878 100.829 25.0263V27.9123C100.111 28.1407 99.3716 28.2549 98.6115 28.2549C96.0439 28.2549 94.7347 26.9064 94.6841 24.2093V16.5265H92.6823V13.7329H94.6841V10.2276H98.3455ZM110.687 26.713C110.763 27.2227 110.885 27.6487 111.054 27.9913H114.754V27.7673C114.399 27.0733 114.217 26.0498 114.209 24.6969V18.5164C114.209 16.9175 113.711 15.6788 112.714 14.8003C111.726 13.913 110.387 13.4693 108.698 13.4693C107.583 13.4693 106.578 13.6714 105.682 14.0755C104.787 14.4708 104.095 15.0199 103.605 15.7228C103.115 16.4255 102.87 17.1899 102.87 18.0157H106.531C106.531 17.4798 106.704 17.058 107.051 16.7507C107.405 16.4432 107.891 16.2894 108.508 16.2894C109.209 16.2894 109.72 16.487 110.041 16.8824C110.37 17.2778 110.535 17.8048 110.535 18.4638V19.2808H108.85C106.814 19.2895 105.256 19.698 104.175 20.5063C103.102 21.3145 102.566 22.4742 102.566 23.9853C102.566 25.2152 103.005 26.2343 103.883 27.0425C104.77 27.8508 105.885 28.2549 107.228 28.2549C108.647 28.2549 109.8 27.7409 110.687 26.713ZM109.521 24.9735C109.065 25.2195 108.567 25.3425 108.026 25.3425C107.469 25.3425 107.03 25.1888 106.709 24.8814C106.388 24.5739 106.227 24.1829 106.227 23.7085L106.24 23.4845C106.358 22.1667 107.334 21.5078 109.167 21.5078H110.535V23.9589C110.315 24.3805 109.977 24.7188 109.521 24.9735ZM125.307 26.3309C126.574 27.6135 128.213 28.2549 130.223 28.2549C131.363 28.2549 132.402 28.0309 133.339 27.5828C134.277 27.126 135.021 26.4934 135.569 25.6852L133.77 23.5899C132.977 24.6529 131.875 25.1844 130.464 25.1844C129.552 25.1844 128.796 24.9033 128.196 24.341C127.605 23.7788 127.25 23.032 127.131 22.1008H135.861V20.5458C135.861 18.288 135.32 16.5442 134.238 15.3142C133.166 14.0843 131.692 13.4693 129.817 13.4693C128.567 13.4693 127.452 13.7768 126.473 14.3918C125.502 14.9979 124.749 15.8677 124.218 17.001C123.686 18.1255 123.419 19.4038 123.419 20.8358V21.2048C123.419 23.3395 124.049 25.0483 125.307 26.3309ZM128.031 17.3173C128.487 16.8077 129.078 16.5529 129.805 16.5529C130.581 16.5529 131.181 16.7858 131.604 17.2514C132.026 17.7082 132.246 18.3583 132.263 19.2017V19.5048H127.17C127.296 18.556 127.583 17.8268 128.031 17.3173Z" fill="white"/>
<path fill-rule="evenodd" clip-rule="evenodd" d="M17.6 19.001C17.6 23.1979 14.1974 26.6002 9.99998 26.6002C5.80262 26.6002 2.39999 23.1979 2.39999 19.001C2.39999 14.804 5.80262 11.4017 9.99998 11.4017C14.1974 11.4017 17.6 14.804 17.6 19.001ZM20 19.001C20 24.5233 15.5228 29 9.99998 29C4.47715 29 0 24.5233 0 19.001C0 13.4787 4.47715 9.00192 9.99998 9.00192C15.5228 9.00192 20 13.4787 20 19.001ZM19.9989 10.1904C19.9989 10.8478 19.466 11.3807 18.8085 11.3807C18.151 11.3807 17.618 10.8478 17.618 10.1904C17.618 9.53295 18.151 9 18.8085 9C19.466 9 19.9989 9.53295 19.9989 10.1904ZM12.9129 19.0795C12.9129 20.6392 11.6485 21.9035 10.0887 21.9035C8.52895 21.9035 7.26448 20.6392 7.26448 19.0795C7.26448 17.5199 8.52895 16.2556 10.0887 16.2556C11.6485 16.2556 12.9129 17.5199 12.9129 19.0795ZM13.7199 19.0795C13.7199 21.0848 12.0942 22.7104 10.0887 22.7104C8.08328 22.7104 6.45756 21.0848 6.45756 19.0795C6.45756 17.0743 8.08328 15.4487 10.0887 15.4487C12.0942 15.4487 13.7199 17.0743 13.7199 19.0795Z" fill="#9C42F5"/>
</svg>
