<svg width="40" height="40" viewBox="0 0 40 40" fill="none" xmlns="http://www.w3.org/2000/svg">
<path fill-rule="evenodd" clip-rule="evenodd" d="M35.2 20.0021C35.2 28.3958 28.3948 35.2005 20 35.2005C11.6052 35.2005 4.79998 28.3958 4.79998 20.0021C4.79998 11.608 11.6052 4.80338 20 4.80338C28.3948 4.80338 35.2 11.608 35.2 20.0021ZM40 20.0021C40 31.0466 31.0455 40 20 40C8.95429 40 0 31.0466 0 20.0021C0 8.95732 8.95429 0.00384168 20 0.00384168C31.0455 0.00384168 40 8.95732 40 20.0021ZM39.9979 2.38073C39.9979 3.69559 38.932 4.76146 37.617 4.76146C36.302 4.76146 35.2361 3.69559 35.2361 2.38073C35.2361 1.0659 36.302 0 37.617 0C38.932 0 39.9979 1.0659 39.9979 2.38073ZM25.8258 20.159C25.8258 23.2784 23.297 25.8071 20.1775 25.8071C17.0579 25.8071 14.529 23.2784 14.529 20.159C14.529 17.0398 17.0579 14.5111 20.1775 14.5111C23.297 14.5111 25.8258 17.0398 25.8258 20.159ZM27.4399 20.159C27.4399 24.1696 24.1884 27.4208 20.1775 27.4208C16.1666 27.4208 12.9151 24.1696 12.9151 20.159C12.9151 16.1486 16.1666 12.8975 20.1775 12.8975C24.1884 12.8975 27.4399 16.1486 27.4399 20.159Z" fill="white"/>
</svg>
