<svg width="239" height="55" viewBox="0 0 239 55" fill="none" xmlns="http://www.w3.org/2000/svg">
<path d="M238.396 17.4249C238.623 16.531 237.576 16.9546 238.27 15.7864L237.859 15.2611C237.537 15.273 237.224 15.3658 236.948 15.531C236.803 15.3597 237.068 15.2997 237.011 15.1517C237.369 15.0778 237.384 14.9071 237.39 14.7377C236.644 14.0487 237.663 13.7819 235.995 12.9551C235.688 12.9551 235.346 13.0461 235.104 12.8875C236.365 12.5442 234.447 12.323 234.328 12.4026C234.651 12.3394 234.232 12.1536 233.747 12.2952L232.902 11.8261C233.205 11.8187 233.508 11.8331 233.809 11.8691C233.182 11.5847 233.501 11.4551 232.894 11.1851C232.056 10.4898 230.128 9.62506 228.011 8.90949C227.506 8.73819 227.008 8.57763 226.512 8.42465C226.393 8.38799 226.29 8.35575 226.17 8.32035C225.759 8.19393 225.364 8.07825 224.987 7.96826C224.937 7.95498 224.891 7.94297 224.845 7.92844C224.284 7.76788 223.757 7.61996 223.335 7.50049C223.277 7.47963 223.212 7.4575 223.116 7.42969C223.008 7.39619 222.87 7.36015 222.678 7.31338C222.274 6.97013 220.054 6.55483 218.525 6.2002L218.335 6.28744C217.352 6.10475 217.44 5.95241 216.495 5.77731C215.965 5.8557 215.293 5.85127 214.766 5.93471L214.255 5.8361C214.466 5.64267 215.216 5.74887 215.461 5.57503C213.632 5.28868 210.73 4.57248 209.448 4.64201C209.056 4.55478 208.937 4.46502 209.187 4.36957C207.174 4.05351 205.107 3.76779 203.013 3.50103C199.038 2.84299 200.539 3.23743 196.066 2.70518C195.989 2.51554 192.857 2.04145 192.004 2.21276C191.635 2.18621 191.286 2.16598 191.34 2.25827C190.971 2.23298 190.625 2.21149 190.671 2.30505L189.481 2.21212L189.67 1.91882L188.464 1.82273C187.96 1.54713 184.684 1.49845 183.058 1.336C180.646 1.14004 177.161 1.08315 175.716 0.830298L172.625 0.697551L172.61 0.794899C170.973 0.633075 169.363 0.473147 167.039 0.415623L165.168 0.37011C164.329 0.371327 163.492 0.322567 162.659 0.224089C158.932 0.362525 156.981 -0.0919734 153.903 0.152027L152.654 0.155188C152.023 0.0436063 151.379 0.0166101 150.74 0.0749077C149.479 -0.0831237 146.564 0.0540476 144.432 0.0793326C144.053 0.0926072 143.706 0.110307 143.864 0.184265C140.049 0.330286 135.331 0.0856539 134.581 0.51866C134.439 0.408038 133.675 0.435851 133.705 0.287302L130.623 0.459872C127.45 0.732318 124.956 0.673531 124.057 1.02879C123.426 0.816391 119.534 1.12866 116.011 1.60276C115.624 1.56602 115.234 1.58176 114.851 1.64953L114.824 1.65269L114.797 1.65712C113.917 1.79555 112.757 2.04967 111.961 2.14069C111.28 2.22502 110.607 2.36455 109.948 2.5579C109.385 2.53587 108.823 2.62169 108.292 2.81075C108.338 2.5579 107.189 2.77977 106.213 2.93022C104.491 3.40612 102.743 3.78223 100.977 4.05667C106.434 4.55921 111.891 4.58765 117.345 4.71028L119.358 4.39928C119.355 4.35377 119.247 4.31078 119.274 4.264H119.289C120.311 4.23745 121.103 4.30193 122.29 4.23872C122.363 4.23556 122.424 4.23556 122.501 4.23113C122.993 4.19763 123.547 4.14706 124.227 4.05287C124.661 3.98334 130.539 3.66917 130.831 3.37018C130.501 3.79181 132.864 3.49281 134.389 3.45109C135.685 3.35248 135.731 3.55413 137.233 3.41885C140.756 3.20772 143.667 3.47448 145.632 3.10279C146.542 3.19803 147.364 3.3116 148.098 3.4435C148.824 3.21657 149.224 3.26208 148.448 2.97573L149.024 2.97131C149.347 3.14704 149.409 3.36765 150.903 3.33415C152.21 3.14448 153.533 3.08625 154.852 3.16031C154.295 3.18247 153.74 3.24266 153.192 3.34047C155.785 3.43908 159.582 3.37397 159.431 3.02441C160.252 3.61418 160.296 3.46373 161.168 3.05791L161.214 3.53453C167.027 3.66096 167.638 4.16286 170.885 3.85059C170.155 4.20269 173.921 4.13505 175.853 4.39928C176.602 4.48426 177.357 4.49569 178.108 4.43341C180.352 4.44922 179.311 4.8051 180.713 4.91004C181.297 4.77413 182.718 4.87021 183.598 4.82027C184.39 5.01497 185.696 5.12685 184.755 4.8089C186.206 4.86768 186.676 5.01244 186.169 5.23811C186.752 5.29677 187.341 5.27935 187.92 5.18628C188.147 5.55796 188.877 5.32345 190.491 5.5371L191.017 5.59147C191.063 5.6787 190.86 5.78111 191.359 5.83926C191.938 5.78643 192.521 5.7784 193.102 5.81524C192.894 5.9935 193.286 6.0643 194.031 6.02763C193.901 6.12814 194.008 6.30008 194.439 6.18377C195.144 6.28614 195.855 6.33579 196.567 6.33232L197.57 6.45874C198.523 6.64838 198.174 6.87026 199.423 6.81842C199.369 6.88164 199.346 6.93916 199.776 6.98088C201.697 7.30073 204.244 7.63576 206.288 8.02199C205.842 7.93981 206.011 7.76092 206.622 7.84057C207.026 7.89766 207.419 8.01129 207.791 8.17813L207.964 8.0871L208.401 8.17244C208.155 8.28116 207.598 8.18824 207.441 8.35638C208.966 8.54981 208.493 8.455 208.958 8.78117C209.934 8.58395 211.494 9.31089 211.971 9.57765L213.024 9.15855C214.518 9.55995 212.086 9.34819 212.95 9.68069C213.612 9.63833 213.461 9.84251 214.668 9.98284C214.441 10.0638 214.691 10.1586 214.568 10.2408C216.816 10.6137 216.823 11.1162 218.444 11.1125C217.661 11.2717 218.421 11.5183 218.856 11.7553C219.515 11.783 220.175 11.7436 220.827 11.6377L221.107 11.5701C221.269 11.6441 221.411 11.7174 221.115 11.7515C220.742 11.871 219.979 11.9551 220.266 12.1308C221.027 12.0088 220.661 12.505 221.026 12.6441C221.649 12.5866 221.396 12.3167 221.918 12.4614C221.507 12.6631 221.995 12.9551 221.688 13.1631C222.817 13.2326 223.467 14.048 224.235 14.44C224.819 14.4475 225.741 14.0607 226.079 14.3502C223.745 14.495 224.796 15.172 225.026 15.7952C225.668 15.7276 225.875 15.8287 225.606 16.0266C225.748 16.2036 225.095 16.1979 225.107 16.3483C226.053 16.3117 224.788 16.6107 225.464 16.8806C225.587 17.1004 225.697 17.3281 225.791 17.562C225.379 17.9261 225.637 18.2801 226.409 18.5311C226.083 19.2422 225.437 19.526 225.937 20.1291H225.564C225.157 20.6259 227.036 20.3269 226.456 20.8813C225.383 20.8225 225.157 20.8933 225.583 21.1658C224.092 21.064 225.422 21.5375 225.276 21.7644C223.877 22.0033 224.677 22.3719 224.127 22.9237C223.221 23.1766 223.916 23.5059 222.676 23.7303C223.318 23.755 223.521 23.8997 223.514 24.1033C223.038 24.0868 222.838 24.2784 222.277 24.2006C221.262 24.9661 222.884 25.0704 221.059 25.4377C221.147 25.908 223.038 25.2196 222.194 25.8479C221.525 25.9484 220.777 25.9965 220.404 26.3846C222.117 26.3479 221.867 26.2841 223.313 26.2664C223.633 26.2668 223.947 26.3486 224.227 26.5041C224.066 26.6937 224.462 26.9137 223.682 26.9788C223.739 26.7354 223.559 26.5496 223.132 26.4225C221.929 26.6343 220.714 26.7648 219.494 26.8132C219.847 27.4403 216.016 28.3644 215.482 29.6401C215.167 29.0958 214.264 29.9144 213.565 30.2772C213.261 30.5396 212.397 30.575 212.797 30.7033C211.448 31.6129 210.503 31.4618 210.038 31.9157L209.47 32.1926C205.866 33.4271 206.742 33.6035 201.255 35.2495L199.149 36.0018C198.093 36.5014 196.979 36.8703 195.834 37.1004L195.062 37.3381C192.591 38.1301 191.281 38.1093 190.174 38.9228C189.417 38.7875 191.047 38.5126 190.559 38.3583C189.942 38.5557 189.305 38.683 188.66 38.7376C189.16 38.9513 189.421 39.1769 188.783 39.4525L188.238 39.2996C186.345 38.993 186.747 39.8362 185.249 40.0663C184.461 39.9633 184.338 40.5088 184.292 40.0177C183.531 40.23 183.005 40.4229 183.062 40.5998L181.729 40.9159C181.262 40.8703 180.79 40.8856 180.327 40.9614C179.822 41.1087 179.796 41.299 179.178 41.0841C178.018 41.3217 176.927 41.5575 177.384 41.7522C176.746 41.8584 176.059 41.823 176.696 42.0335C175.025 42.3742 176.886 41.5468 175.513 41.8805C175.844 42.0354 173.319 42.1966 172.216 42.5531C171.034 42.6462 169.879 42.9567 168.81 43.4691C167.259 43.4037 165.708 43.5537 164.199 43.9147C164.476 43.866 164.94 43.8882 164.414 44.0032C163.43 44.1505 163.55 44.2953 162.616 44.4381C162.197 44.25 161.742 44.1567 161.283 44.165L160.274 44.3313C157.94 44.8692 156.017 44.9982 155.359 45.234C154.837 45.3136 154.583 45.2542 154.13 45.3003C154.272 45.4211 154.761 45.5481 154.183 45.6556C151.697 45.7518 149.218 45.984 146.757 46.3509C146.271 46.4045 145.792 46.5077 145.327 46.6588L145.15 46.5646C144.156 46.7018 143.879 46.6411 144.267 46.4464C142.484 46.8402 140.441 46.8193 139.902 47.3459C139.249 47.2415 138.584 47.2441 137.932 47.3535L138.097 47.4477C136.144 47.4385 134.194 47.5865 132.265 47.8902C131.555 47.8054 130.836 47.9224 130.19 48.2277C128.928 48.3207 127.662 48.3399 126.398 48.2852C127.047 48.6468 125.999 48.3693 124.857 48.552C125.166 48.7011 125.502 48.782 125.845 48.789C124.723 48.9009 125.507 49.1253 123.854 49.2075C122.978 49.2239 123.235 48.839 122.167 48.9243C122.279 49.0305 121.545 49.0703 121.464 48.8813L118.621 49.1449C117.753 48.9249 116.849 49.4957 115.639 49.2998C115.77 49.3971 115.324 49.4572 115.32 49.5457C114.575 49.6032 114.36 49.4869 113.468 49.5931C111.323 49.9142 110.125 49.5842 107.693 50.0564C105.311 50.1759 105.883 50.1361 103.617 50.3573C102.999 50.2785 102.373 50.287 101.757 50.3826L101.649 50.284C100.186 50.3706 100.009 50.564 98.9366 50.6804C97.7569 50.3991 95.6897 50.8422 94.6336 50.7436L94.7295 50.8422L94.1491 50.8776C93.1196 50.6399 91.2327 51.0811 90.641 51.1873C89.9752 51.0667 89.2962 51.036 88.6223 51.0963C87.1408 51.0623 85.6595 51.175 84.2001 51.4326L84.1269 51.334C81.9637 51.3605 81.4528 51.5609 81.5758 51.8504C79.0473 51.9023 82.5056 51.5976 80.6768 51.377C79.0821 51.6526 76.7618 51.3371 75.0749 51.645C74.6816 51.5238 74.272 51.4641 73.8605 51.468C73.9602 51.6387 73.53 51.729 72.8461 51.784L72.7307 51.4888C72.1823 51.4762 71.6353 51.5494 71.1094 51.7057C71.2356 51.5862 69.3841 51.3801 69.3841 51.6191C69.9758 51.6222 69.8604 51.7455 68.8422 51.7196C69.0945 51.3302 65.7264 51.6102 64.3121 51.5027C62.6088 51.37 61.7035 51.4086 58.7607 51.2904C57.4715 51.2053 56.1788 51.1882 54.8879 51.2392C53.6469 51.0377 52.3915 50.9381 51.1344 50.9414C50.1509 50.6816 50.055 50.9225 48.9327 50.8946L48.9958 50.7992C46.9904 50.5413 47.0402 50.6342 44.8732 50.3668C44.256 50.5463 43.613 50.6201 42.9712 50.5849C43.0286 50.4003 43.7472 50.4433 43.8437 50.2726C43.3612 50.2305 42.883 50.148 42.4142 50.0261C42.2565 50.1481 42.4413 50.2486 42.6407 50.3491C41.6376 50.1917 41.9335 49.9749 40.704 50.0368L40.3886 50.3055L39.8776 50.248L39.9892 50.1582C37.8494 49.9123 40.1583 50.0267 40.3084 49.8902C36.7391 49.4831 37.6841 49.5242 34.6454 49.0052L34.2227 49.2581C32.4248 48.9249 35.2371 49.0545 33.2657 48.7777C31.8778 48.5065 34.0069 49.2157 32.3554 48.9445C31.0142 48.7783 33.4007 48.6184 32.0747 48.4565C31.2407 48.576 30.5953 48.0349 29.051 47.856C28.754 48.0048 28.4169 48.0529 28.0902 47.9932C28.1786 47.9414 28.2284 47.8914 27.8442 47.8225C27.5635 47.7309 27.5212 47.6487 27.802 47.5779C26.9718 47.3933 26.192 47.1904 25.4047 46.9906C25.0952 47.1252 24.752 47.1616 24.4213 47.0949C24.5941 46.9963 25.059 46.9154 24.6439 46.7827C24.2547 46.8924 23.8396 46.865 23.4681 46.7049C24.0289 46.2953 21.7017 46.2845 21.3894 45.789C21.1048 45.6741 20.8011 45.6144 20.4942 45.6132C20.1681 45.3784 19.8079 45.1953 19.4262 45.0702L19.1916 45.1278C18.9916 45.0184 19.0187 44.9381 19.3455 44.892C18.2964 44.531 16.5445 44.3047 17.0246 43.8686C16.3446 43.727 16.0525 43.5841 15.9717 43.3306L15.7143 43.3774C14.3694 42.9716 15.4683 42.8085 13.8969 42.0632L13.3588 42.1397C13.4219 41.9172 13.724 41.7724 12.9052 41.3287C12.1715 40.6858 11.6435 40.0164 10.6001 40.041C11.9753 39.8818 10.619 39.3697 10.0954 39.0619C10.7181 39.3211 10.5105 37.9114 10.6001 38.0132C10.2775 37.5129 9.80154 37.1311 9.24377 36.9253C10.1351 37.0448 9.62795 36.5302 9.60524 36.235L9.32451 36.247C9.28982 36.0808 9.05956 36.0574 8.9826 35.9259C9.26332 35.9158 9.28982 35.7774 9.50872 35.7363C9.44155 35.3503 9.40296 34.9598 9.39328 34.5681C9.3975 34.1162 9.4361 33.6652 9.50872 33.2191C8.33283 33.1129 9.67779 33.5523 8.90942 33.5668C8.92834 33.35 8.59841 33.3367 8.72017 33.0611C9.04694 33.0314 9.48475 33.0813 9.56171 32.881C8.44007 32.8721 9.53459 32.7703 9.64625 32.5421C9.35416 32.1692 8.9315 32.7621 8.88166 32.3784C9.22736 32.367 9.3119 32.1572 9.73456 32.2033C9.66138 31.6591 9.61912 31.8512 10.2222 31.5232C9.73835 31.4979 10.2607 30.9467 9.95725 30.843C10.426 30.7001 10.5761 30.2956 10.8909 29.994L10.6297 29.9909C11.5363 29.5794 10.7874 29.3834 10.5837 29.1312C10.754 29.116 10.9188 29.0631 11.0663 28.9764C11.2137 28.8898 11.3402 28.7714 11.4366 28.6299C12.1305 28.0989 11.8744 28.061 12.2781 27.4384C13.0579 27.0123 12.5816 26.9251 13.3506 26.4301L12.8509 26.4137C14.0111 25.8207 13.6767 25.1444 14.9024 24.7487C13.8653 24.9554 14.2413 24.6779 14.0344 24.358C14.6223 24.2272 15.1333 23.9926 15.7516 23.9155C16.6978 23.0678 17.7305 21.9142 18.6831 21.6298C18.2144 21.3219 20.105 20.7909 19.6294 20.4711C20.5901 20.4932 20.2747 20.0615 21.3276 19.734L21.1125 19.7132C22.0997 19.2852 22.2997 19.2075 22.2726 18.9255C22.614 18.89 22.9481 18.8031 23.2637 18.6676C23.1678 18.6164 22.8643 18.6189 23.1375 18.4704C23.4944 18.5031 23.8519 18.414 24.1519 18.2175C24.413 18.1 24.6542 17.9421 24.8666 17.7498C25.1092 17.776 25.3546 17.7426 25.5814 17.6524C25.3164 17.4476 27.0531 17.1891 27.0033 16.9015C27.3301 16.7333 27.3187 16.6486 27.2992 16.5639C28.3174 16.1113 26.98 17.0007 28.2139 16.5007C27.5263 16.4817 29.9803 16.0449 29.4321 15.9109C29.2321 15.9893 28.875 16.0468 29.2478 15.8844C29.4355 15.9004 29.6237 15.8615 29.7897 15.7725C30.0162 15.8357 32.3522 14.9766 32.0223 14.9558C31.811 15.0291 31.4419 15.0822 31.8457 14.9261C32.5831 14.8252 33.3009 14.612 33.9741 14.2939L33.8013 14.263C35.2383 13.8692 33.7937 13.9842 34.9273 13.6536C34.6081 13.8616 35.0081 13.9381 36.0029 13.6479C37.1713 13.3091 38.2046 13.0095 36.9404 13.2098C37.5712 12.8217 38.1888 13.0126 39.7066 12.5076C40.5557 12.4323 42.23 11.6226 40.7481 11.8704C41.2028 11.7163 41.6693 11.6 42.1429 11.5227C42.5732 11.5461 42.1429 12.0328 42.869 11.689C42.3505 11.4443 44.2866 11.4993 44.602 11.2079L44.7439 11.2414C46.5191 10.8356 46.0813 10.8356 47.2837 10.7357C47.5026 10.4715 44.6095 10.8862 44.9401 10.6093C46.4882 10.5707 45.747 10.266 46.9342 10.1832C46.1772 10.3982 46.2504 10.522 46.745 10.5979C48.6734 10.1775 46.7948 10.6845 48.1284 10.4904C50.1723 10.0581 53.196 9.62506 54.7296 9.21481C54.7926 9.05109 53.4616 9.33112 53.2155 9.26348C53.6739 9.19675 54.1236 9.08018 54.5567 8.91582C54.7914 8.96133 54.891 9.04856 55.9704 8.83933C58.3281 8.65618 60.6677 8.28629 62.9671 7.73311C62.4713 7.99102 65.4375 7.65978 63.7279 7.72868C66.2677 7.44676 66.8859 7.33044 68.9185 7.13322C69.8711 7.0068 70.5209 7.01691 70.6477 6.94358C72.9414 6.66671 72.6304 6.72803 75.3197 6.48087C75.7424 6.46759 76.3492 6.42461 77.0368 6.36898C76.1764 6.37594 75.3386 6.39111 74.4548 6.39111C76.7176 6.17429 79.1306 5.99919 81.601 5.83484C81.5827 5.81874 81.5612 5.80668 81.5379 5.79944L82.141 5.75835C82.141 5.75835 82.1486 5.75835 82.1486 5.76151L82.136 5.75203C81.9745 5.77542 81.8205 5.79501 81.6597 5.8184C88.2205 5.37907 95.1957 4.99664 100.978 4.05793C100.321 3.99788 99.6678 3.93151 99.0111 3.85881L98.8571 3.88346C98.5039 4.15781 100.87 4.05287 99.6255 4.23619C97.962 4.34492 98.642 3.9353 97.7273 4.03707C96.9589 4.10597 96.1445 4.18625 95.3105 4.27475H95.303C94.0697 4.2836 92.8288 4.31141 91.5917 4.33101L91.6491 4.36198L91.0113 4.37779C89.6361 4.33543 84.5452 4.53392 83.3346 4.64644L80.157 4.81269C76.6028 5.02951 71.2432 5.36264 68.9841 5.68565C68.6113 5.72105 68.2694 5.75898 68.458 5.77731C66.2639 6.02384 63.8471 6.04723 62.3066 6.38921C61.3036 6.52512 58.6837 6.77734 58.8408 6.86394C59.339 6.82187 59.8392 6.80668 60.339 6.81842L60.4425 6.85256C60.0432 7.03082 58.3027 7.20528 59.1593 6.96887C60.5194 6.77923 58.2024 6.96192 58.1449 6.90566C55.1169 7.27861 54.276 7.53209 51.3482 7.96004C49.5383 8.21669 49.9149 8.29191 48.136 8.56183C47.114 8.74641 46.8793 8.74767 47.3253 8.59154C45.4927 8.9746 43.6828 9.10735 43.679 9.34629C40.8548 9.85768 36.9669 10.7901 35.6604 11.2104C36.0389 11.1238 36.6325 11.2484 36.2868 11.3413C35.857 11.3617 35.43 11.422 35.0112 11.5214C34.8346 11.474 35.4068 11.3179 35.015 11.3015C33.5206 11.6289 33.9779 11.6668 32.7863 11.9633C31.0844 12.2934 29.4173 12.7831 27.807 13.426C27.8493 13.4791 28.1451 13.4892 27.7338 13.6233C27.3532 13.7312 26.9859 13.8815 26.6387 14.0714C26.2892 14.0316 26.1624 13.9494 26.3315 13.8148C24.5947 14.3268 24.5563 14.5297 23.2233 14.9943C22.5294 15.2852 21.8155 15.5258 21.0872 15.7143C18.7531 16.7586 15.7736 17.8079 14.8627 18.5545L14.252 18.8844C13.3916 19.1929 11.9968 20.2631 10.6789 21.0798C10.6556 21.3219 9.89101 21.9073 9.25701 22.1285C8.21549 22.9686 7.16703 23.8447 6.24473 24.7265C6.5059 24.8713 5.29846 25.5818 6.26366 25.4547C6.08702 25.6305 6.26744 25.6703 6.17912 25.8157L5.6776 25.8043C4.83984 26.3423 5.23601 26.31 4.54776 27.0426C4.33264 27.2506 3.74848 27.4346 4.09418 27.5762C4.14052 27.5126 4.20338 27.463 4.27591 27.4328C4.34844 27.4026 4.42785 27.3929 4.50549 27.4049L4.21341 27.7601C3.80589 27.7854 3.64565 28.1874 3.41035 28.4706L3.14918 28.4662C2.62684 29.1223 2.31141 29.1533 2.30006 29.7304L1.99284 30.2728C1.7241 30.4523 0.478811 31.8329 1.42508 32.0895L1.36199 32.2735C0.415727 32.0333 0.226473 33.953 1.09325 33.1863C0.584713 33.952 0.21465 34.8015 0 35.6958C0.189253 35.4923 0.929865 35.4803 0.868042 35.7476C0.0227104 35.9101 2.45083 36.1971 1.5134 36.4512C1.01377 36.0485 0.783509 36.2053 0.0876874 36.3393C-0.169697 37.2964 0.729256 37.4139 0.683205 38.3697C0.757394 38.5593 0.844661 38.7435 0.944374 38.9209C0.844701 39.1523 0.82136 39.4475 1.22132 39.8615C1.67868 39.9355 1.76321 40.5569 2.31646 40.5309C2.1127 40.804 2.71579 41.3432 3.20784 41.8142L3.47658 41.78C3.64187 42.1372 2.80789 42.0101 3.80336 42.3445C4.19133 42.672 4.0557 42.7453 3.46901 42.5974C4.02605 43.342 4.77549 42.9096 5.40949 43.3464C5.18302 43.5753 5.5937 43.9786 6.46616 44.4527C6.05485 44.6638 8.06093 45.5235 8.58706 45.6025C9.05398 45.8171 9.5572 45.9413 10.0702 45.9685L9.83171 46.0241C9.71627 46.1019 9.84307 46.2213 10.2853 46.3939C10.1623 46.4363 10.0468 46.4856 10.4083 46.6063C9.84054 46.6354 12.0914 47.54 12.3065 47.3649C14.5145 47.8706 17.4126 49.4452 20.129 49.5293C18.7342 49.454 19.9025 49.7537 20.9207 49.8453C21.455 50.186 22.231 50.1443 23.7595 50.6108C25.9416 50.9945 26.6103 51.2923 28.4088 51.6165C29.8553 51.7753 31.2835 52.0717 32.674 52.5015C32.8739 52.0445 35.2787 52.6279 36.6855 52.5129L36.3859 52.7853C34.2227 52.8896 38.426 53.0211 40.4548 53.3454C41.9531 53.2822 43.2867 53.7373 45.9337 53.8366L46.0453 53.6469C46.6522 53.6969 47.2635 53.7411 47.8748 53.7822C48.2071 54.0277 48.5901 54.1956 48.9957 54.2735C49.4012 54.3513 49.819 54.3373 50.2184 54.2323C51.2555 54.2999 52.297 54.3543 53.3423 54.4061C55.221 54.5016 57.1078 54.573 58.9978 54.6343L59.6287 54.652C59.7246 54.8985 61.7736 54.7405 62.1521 54.7152L62.1672 54.9112C63.3696 54.9554 63.5551 54.8284 64.6906 54.8581L66.5926 54.877C67.1149 55.1084 70.1581 54.9333 71.6911 54.9801L71.6526 54.8802L74.8068 54.8492L77.3302 54.8024L77.3838 54.9023C78.8474 55.092 79.1704 54.731 81.0913 54.7051C82.0136 54.6564 83.4254 54.664 83.5194 54.5211C84.3395 54.4902 84.2184 54.6729 84.918 54.6697C84.8297 54.4801 87.1045 54.7019 88.6526 54.5028C90.8732 54.4737 91.0927 54.1798 92.3563 54.3056C94.9345 54.1962 94.6311 54.0464 96.6675 54.0686C97.1595 54.1406 99.7182 53.9952 102.293 53.8315C102.897 53.7086 103.514 53.6684 104.129 53.712L104.74 53.6722L107.791 53.4642C108.897 53.6305 112.071 53.1987 113.984 53.1147L114.591 53.0673L117.004 52.8776C117.849 52.79 118.698 52.7565 119.548 52.7771L121.354 52.6241L122.552 52.5179C123.156 52.555 123.762 52.5018 124.35 52.3599C127.184 52.2705 130.012 52.0368 132.822 51.6595C132.838 51.5698 132.546 51.4661 133.115 51.4067C133.403 51.5527 133.552 51.7505 134.747 51.5773C135.032 51.2486 132.728 51.1228 133.837 50.9951C134.963 51.0925 136.496 51.5072 137.959 51.0065C138.202 51.2246 140.111 50.8226 141.041 50.7752C139.954 50.4977 140.615 50.4496 138.913 50.3327C139.597 50.2539 140.288 50.2517 140.972 50.3264C141.288 50.528 141.667 50.6063 142.037 50.5463C142.402 50.3529 141.973 50.1291 143.109 49.961C143.74 50.1633 142.415 50.2941 143.361 50.5065C144.475 50.2537 150.49 50.0937 151.215 49.411C151.184 49.7682 152.805 49.411 153.85 49.2947L153.661 49.2005C155.485 49.1954 157.303 49.0191 159.094 48.674L159.651 48.5918C160.224 48.7113 164.177 48.1082 164.073 47.918L166.264 47.5684C166.793 47.758 168.653 47.2264 169.721 47.1171L172.399 46.6525C174.112 46.5924 176.799 45.9375 178.923 45.5646L178.689 45.4792C180.099 45.105 180.326 45.5146 181.736 45.1353C183.096 45.2618 183.219 44.6815 184.771 44.4994C187.206 43.8991 189.671 43.4269 192.155 43.0847C194.05 42.7146 195.9 42.1424 197.673 41.378C198.616 41.2694 199.552 41.1094 200.477 40.8988C202.16 40.7914 208.888 38.5695 205.038 39.2016L205.341 39.2692C202.467 40.0739 205.049 38.8267 206.578 38.8678C207.282 39.2332 208.622 38.4253 209.602 38.1725C210.416 37.9278 209.89 38.3564 210.62 38.1592C210.242 37.9866 212.484 37.5903 212.249 37.3899C213.928 36.8962 213.659 36.6314 214.892 36.1762C215.78 36.2394 216.785 35.4727 217.674 35.1926C219.46 34.6246 221.179 33.8668 222.804 32.9322L223.68 32.4562C223.823 32.4085 223.963 32.3515 224.099 32.2855C224.099 32.2855 224.099 32.2855 224.102 32.2855C226.035 31.513 228.077 30.5958 229.19 29.5914C229.225 29.5686 229.26 29.5439 229.293 29.5174C229.394 29.4457 229.487 29.363 229.57 29.2709L230.027 28.9359C231.1 28.6735 231.722 27.8429 232.463 27.2708L232.842 26.9276C233.191 26.5825 233.583 26.2417 233.898 25.8941L234.39 25.3751C234.811 24.8164 235.339 24.3473 235.943 23.9952L236.316 24.0129C236.675 23.5681 237 23.0962 237.288 22.6013L237.391 22.4243C236.849 22.3801 235.981 22.4522 236.003 22.2132L237.121 22.2379C237.187 22.0794 237.283 21.9355 237.404 21.8146C237.526 21.6936 237.67 21.5979 237.828 21.533C237.556 21.4888 237.095 21.5185 237.156 21.3472C237.821 21.3782 238.093 21.1791 238.086 20.8206C238.924 20.8004 238.447 20.0621 238.67 19.746C238.659 18.9363 238.247 18.8674 238.997 18.2997C239.057 17.8629 238.258 17.9407 238.396 17.4249Z" fill="#9C42F5"/>
</svg>
