<svg width="217" height="159" viewBox="0 0 217 159" fill="none" xmlns="http://www.w3.org/2000/svg">
<g opacity="0.3">
<path d="M19.1818 110.617L19.0371 111.868C18.3915 110.87 17.3345 110.295 16.0292 110.144C13.2398 109.821 10.9782 111.517 10.6372 114.467C10.2942 117.436 12.1094 119.602 14.8988 119.925C16.1147 120.065 17.2351 119.778 18.1053 118.991L17.57 123.622L19.8052 123.88L21.3096 110.863L19.1818 110.617ZM15.3703 118.04C13.761 117.854 12.6794 116.552 12.8902 114.728C13.101 112.904 14.4512 111.882 16.0605 112.068C17.6877 112.256 18.7693 113.559 18.5585 115.383C18.3477 117.207 16.9975 118.228 15.3703 118.04Z" fill="#E0E0FF"/>
<path d="M39.2879 111.624L39.3523 116.483C39.3778 118.409 38.3288 119.395 36.7629 119.416C35.3411 119.435 34.5022 118.618 34.479 116.872L34.4103 111.689L32.1605 111.718L32.2333 117.208C32.2717 120.106 33.9634 121.433 36.4292 121.401C37.6711 121.384 38.7988 120.901 39.507 120.01L39.5233 121.234L41.6651 121.205L41.5377 111.594L39.2879 111.624Z" fill="#E0E0FF"/>
<path d="M62.2507 114.588C61.8439 111.609 59.5453 109.943 56.7631 110.323C53.9275 110.71 52.1185 113.029 52.5058 115.864C52.8931 118.7 55.242 120.468 58.4344 120.032C60.0751 119.808 61.3396 119.091 62.0568 117.957L60.6744 116.747C60.0917 117.535 59.2997 117.988 58.2297 118.135C56.5711 118.361 55.29 117.628 54.8325 116.273L62.3052 115.253C62.2938 115.036 62.2751 114.766 62.2507 114.588ZM57.0067 112.107C58.4691 111.907 59.6505 112.708 60.0164 114.057L54.6125 114.795C54.6365 113.375 55.5621 112.304 57.0067 112.107Z" fill="#E0E0FF"/>
<path d="M76.2336 116.789C78.8519 116.13 80.1723 114.591 79.733 112.845C78.8148 109.197 73.4762 112.323 73.0017 110.437C72.848 109.826 73.3665 109.232 74.6932 108.898C75.5834 108.674 76.5176 108.624 77.5396 108.924L77.9601 107.055C76.9949 106.76 75.5063 106.819 74.2669 107.131C71.7533 107.763 70.4548 109.315 70.8985 111.078C71.8342 114.796 77.1729 111.671 77.621 113.451C77.7835 114.097 77.3041 114.626 75.9251 114.973C74.7556 115.267 73.4021 115.2 72.4455 114.865L72.025 116.734C73.0123 117.117 74.68 117.18 76.2336 116.789Z" fill="#E0E0FF"/>
<path d="M94.4735 108.923C94.2432 109.293 93.8625 109.564 93.4222 109.723C92.6093 110.015 91.9982 109.7 91.681 108.819L90.1318 104.518L92.5535 103.645L91.9435 101.952L89.5218 102.824L88.7777 100.758L86.6608 101.521L87.4049 103.587L85.9146 104.123L86.5246 105.817L88.0149 105.28L89.5825 109.632C90.3022 111.631 91.815 112.272 93.7964 111.558C94.5585 111.284 95.2474 110.806 95.609 110.217L94.4735 108.923Z" fill="#E0E0FF"/>
<path d="M101.399 96.3076C102.169 95.957 102.456 95.1539 102.128 94.4331C101.822 93.7615 101.033 93.5073 100.28 93.8505C99.5264 94.1937 99.2157 94.9879 99.529 95.6759C99.8423 96.3639 100.645 96.6508 101.399 96.3076ZM105.007 106.967L107.055 106.034L103.071 97.2866L101.024 98.2192L105.007 106.967Z" fill="#E0E0FF"/>
<path d="M119.385 99.9336C121.973 98.4396 122.802 95.5915 121.362 93.0973C119.922 90.6032 117.05 89.9127 114.462 91.4067C111.906 92.8827 111.052 95.7242 112.492 98.2183C113.932 100.712 116.829 101.41 119.385 99.9336ZM118.422 98.2656C117.02 99.0756 115.374 98.6743 114.456 97.0843C113.538 95.4943 114.014 93.869 115.416 93.059C116.835 92.24 118.48 92.6413 119.398 94.2313C120.316 95.8213 119.841 97.4466 118.422 98.2656Z" fill="#E0E0FF"/>
<path d="M131.659 80.2677C130.54 81.1163 129.891 82.1963 129.836 83.345L129.086 82.3555L127.379 83.6501L133.189 91.3079L134.981 89.948L132.044 86.0761C130.88 84.5417 131.153 83.1146 132.429 82.1463C133.576 81.276 134.751 81.4244 135.784 82.7867L138.939 86.9454L140.732 85.5856L137.403 81.1974C135.651 78.8886 133.495 78.8752 131.659 80.2677Z" fill="#E0E0FF"/>
<path d="M147.156 67.1295C146.155 68.1142 145.649 69.2684 145.742 70.4147L144.87 69.5294L143.344 71.0317L150.085 77.8832L151.689 76.3051L148.28 72.8409C146.93 71.468 147.018 70.0177 148.16 68.8941C149.186 67.8842 150.37 67.881 151.569 69.0999L155.23 72.8207L156.834 71.2426L152.971 67.3165C150.938 65.2508 148.798 65.5136 147.156 67.1295Z" fill="#E0E0FF"/>
<path d="M159.777 53.4477C158.814 54.6601 158.196 56.0764 158.178 57.3724L160.009 57.7001C159.992 56.7669 160.404 55.669 161.075 54.8231C162.071 53.5684 163.17 53.4294 164.199 54.2464L164.312 54.3359L162.767 56.2814C160.954 58.5652 161.269 60.1945 162.524 61.1906C163.835 62.2314 165.642 61.8958 167.007 60.1759C167.902 59.048 168.185 57.9394 167.872 57.0016L168.789 57.7291L170.109 56.0656L165.697 52.5625C163.526 50.839 161.5 51.2767 159.777 53.4477ZM166.015 58.7909C165.299 59.6931 164.465 59.9042 163.83 59.4006C163.28 58.9641 163.087 58.2817 164.038 57.0834L165.482 55.2649L166.356 55.9588C166.896 56.8704 166.698 57.9309 166.015 58.7909Z" fill="#E0E0FF"/>
<path d="M168.156 39.5553C168.618 38.8465 168.43 38.0147 167.767 37.5822C167.148 37.1792 166.347 37.3872 165.894 38.0808C165.442 38.7745 165.606 39.6115 166.239 40.0244C166.872 40.4372 167.704 40.2489 168.156 39.5553ZM176.916 46.6192L178.145 44.7343L170.093 39.4853L168.864 41.3702L176.916 46.6192Z" fill="#E0E0FF"/>
<path d="M176.927 30.8755L175.692 30.2073L174.673 32.0911L183.127 36.6658L184.197 34.687L180.097 32.4682C178.372 31.5344 177.999 30.1048 178.813 28.6009C178.89 28.4584 178.983 28.3245 179.109 28.1675L177.225 27.1481C176.463 28.557 176.349 29.8259 176.927 30.8755Z" fill="#E0E0FF"/>
<path d="M191.561 20.037C192.604 17.5468 192.165 15.5673 190.505 14.8715C187.036 13.4174 186.333 19.5636 184.54 18.8122C183.959 18.5687 183.795 17.7971 184.323 16.5354C184.678 15.6888 185.199 14.9117 186.052 14.2738L184.809 12.816C183.994 13.4111 183.148 14.6374 182.654 15.8161C181.652 18.2066 182.114 20.1765 183.791 20.8793C187.327 22.3612 188.029 16.215 189.723 16.9247C190.337 17.1821 190.473 17.883 189.923 19.1945C189.457 20.3068 188.591 21.349 187.749 21.9135L188.992 23.3713C189.89 22.811 190.941 21.5145 191.561 20.037Z" fill="#E0E0FF"/>
</g>
</svg>
