<svg width="62" height="97" viewBox="0 0 62 97" fill="none" xmlns="http://www.w3.org/2000/svg">
<g opacity="0.3">
<path d="M36.6925 79.601L37.95 79.6817C36.9854 80.3774 36.4649 81.4623 36.3807 82.7736C36.2008 85.5758 38.0094 87.7481 40.9733 87.9384C43.9551 88.1298 46.0266 86.2065 46.2065 83.4043C46.2849 82.1828 45.9409 81.0785 45.1103 80.2496L49.7627 80.5482L49.9068 78.3028L36.8298 77.4634L36.6925 79.601ZM44.3006 83.0294C44.1968 84.6461 42.9508 85.7926 41.1186 85.675C39.2863 85.5574 38.1971 84.261 38.3009 82.6443C38.4058 81.0097 39.6518 79.8631 41.4841 79.9807C43.3163 80.0984 44.4055 81.3948 44.3006 83.0294Z" fill="#E0E0FF"/>
<path d="M35.6874 63.4523L40.5026 62.7941C42.4109 62.5333 43.5177 63.4538 43.7298 65.0054C43.9224 66.4143 43.2142 67.3468 41.4843 67.5833L36.348 68.2854L36.6527 70.5146L42.0922 69.7711C44.9635 69.3786 46.0743 67.5372 45.7403 65.0939C45.5721 63.8634 44.9549 62.8032 43.9835 62.2093L45.1962 62.0435L44.9061 59.9213L35.3827 61.223L35.6874 63.4523Z" fill="#E0E0FF"/>
<path d="M31.729 53.4155C31.4815 52.6065 30.7225 52.2175 29.9652 52.4493C29.2595 52.6652 28.9049 53.4137 29.1472 54.2054C29.3894 54.9972 30.1365 55.4086 30.8594 55.1874C31.5823 54.9663 31.9713 54.2072 31.729 53.4155ZM42.7669 51.2242L42.1086 49.0726L32.9172 51.8849L33.5755 54.0364L42.7669 51.2242Z" fill="#E0E0FF"/>
<path d="M36.5447 39.52L28.5065 37.4645L27.2207 38.0718L30.6575 45.3469L32.285 44.5781L30.0784 39.907L38.1089 41.9463L39.3947 41.3389L35.8503 33.836L34.2227 34.6048L36.5447 39.52Z" fill="#E0E0FF"/>
<path d="M22.8386 22.4898C20.3905 24.2341 19.9833 27.0438 21.6127 29.3307C23.2734 31.6616 26.1667 32.1861 28.4976 30.5253C30.8284 28.8646 31.3027 25.9629 29.4331 23.3388C28.4721 21.9901 27.249 21.204 25.912 21.0957L25.483 22.8822C26.4517 23.0319 27.2211 23.5224 27.8478 24.402C28.8192 25.7654 28.7651 27.2405 27.7783 28.2751L23.4019 22.1327C23.2156 22.2434 22.9852 22.3854 22.8386 22.4898ZM23.0787 28.2862C22.2222 27.0841 22.3829 25.6656 23.4072 24.7148L26.572 29.1567C25.3032 29.7954 23.9247 29.4737 23.0787 28.2862Z" fill="#E0E0FF"/>
<path d="M19.2363 11.3482C17.3055 9.46092 15.3034 9.14006 14.0452 10.4273C11.4155 13.1176 16.8712 16.0339 15.5124 17.4241C15.072 17.8746 14.294 17.7435 13.3158 16.7872C12.6593 16.1456 12.1286 15.3751 11.8496 14.3473L10.0364 14.9662C10.2894 15.9434 11.1182 17.1814 12.0321 18.0747C13.8857 19.8866 15.8875 20.182 17.1583 18.8819C19.8382 16.1401 14.3825 13.2238 15.6659 11.9108C16.1315 11.4345 16.833 11.5666 17.8499 12.5605C18.7124 13.4035 19.3624 14.5926 19.5773 15.583L21.3905 14.9641C21.2004 13.9225 20.3819 12.468 19.2363 11.3482Z" fill="#E0E0FF"/>
</g>
</svg>
