<svg width="20" height="20" viewBox="0 0 20 20" fill="none" xmlns="http://www.w3.org/2000/svg">
<g clip-path="url(#clip0)">
<path d="M9.94 -0.0200195C4.418 -0.0200195 -0.0599976 4.45798 -0.0599976 9.97998C-0.0599976 15.502 4.418 19.98 9.94 19.98C15.462 19.98 19.94 15.502 19.94 9.97998C19.94 4.45798 15.462 -0.0200195 9.94 -0.0200195ZM4.056 15.864C3.292 15.1 2.692 14.21 2.272 13.218C1.84 12.194 1.62 11.104 1.62 9.97998C1.62 8.85598 1.84 7.76598 2.274 6.74198C2.692 5.75198 3.294 4.86198 4.058 4.09598C4.822 3.33198 5.712 2.73198 6.704 2.31198C7.726 1.87998 8.816 1.65998 9.94 1.65998C11.064 1.65998 12.154 1.87998 13.178 2.31398C14.168 2.73198 15.058 3.33398 15.824 4.09798C16.03 4.30398 16.222 4.51798 16.404 4.74198H10.37C8.522 4.73998 7.02 6.24198 7.02 8.08998V17.774C6.914 17.734 6.808 17.692 6.702 17.648C5.712 17.228 4.822 16.628 4.056 15.864ZM15.824 15.864C15.06 16.628 14.17 17.228 13.178 17.648C12.154 18.08 11.064 18.3 9.94 18.3C9.522 18.3 9.108 18.27 8.7 18.208V8.08998C8.7 7.16998 9.45 6.41998 10.37 6.41998H17.46V6.41598C17.512 6.52398 17.56 6.63198 17.606 6.74198C18.04 7.76598 18.26 8.85598 18.26 9.97998C18.26 11.104 18.04 12.194 17.606 13.218C17.188 14.208 16.588 15.098 15.824 15.864Z" fill="#E0E0FF"/>
</g>
<defs>
<clipPath id="clip0">
<rect width="20" height="20" fill="white"/>
</clipPath>
</defs>
</svg>
