<svg width="1732" height="113" viewBox="0 0 1732 113" fill="none" xmlns="http://www.w3.org/2000/svg">
<g filter="url(#filter0_d)">
<path d="M29.152 61.984V52.768H51.544V42.112H29.152V33.616H54.568V22.6H15.04V73H55.504V61.984H29.152ZM75.6584 33.328C69.5384 33.328 62.9144 34.912 58.4504 37.864L63.0584 47.152C65.7224 45.064 69.8984 43.768 73.6424 43.768C79.0424 43.768 81.7064 46 81.9224 49.96H74.1464C62.0504 49.96 56.7944 54.424 56.7944 61.624C56.7944 68.392 61.9784 73.648 71.3384 73.648C77.0264 73.648 80.9144 71.704 82.8584 67.96V73H95.6024V51.328C95.6024 38.944 88.3304 33.328 75.6584 33.328ZM75.1544 65.008C71.9144 65.008 70.0424 63.352 70.0424 61.048C70.0424 58.672 71.6264 57.088 76.0184 57.088H81.9224V60.472C80.8424 63.568 78.1784 65.008 75.1544 65.008ZM114.821 73.648C127.493 73.648 134.117 68.032 134.117 60.832C134.117 45.352 111.149 51.184 111.149 45.784C111.149 44.344 112.805 43.048 117.413 43.048C120.869 43.048 124.757 43.768 128.645 45.928L132.749 36.64C128.861 34.48 122.813 33.328 117.341 33.328C105.101 33.328 98.3333 38.944 98.3333 46.288C98.3333 61.912 121.373 55.936 121.373 61.192C121.373 62.848 119.861 63.856 115.253 63.856C110.501 63.856 105.245 62.488 101.645 60.256L97.5413 69.616C101.357 71.992 108.197 73.648 114.821 73.648ZM163.789 33.976L154.141 57.808L144.565 33.976H130.525L147.229 73.504C146.077 75.808 144.565 76.816 141.901 76.816C139.741 76.816 137.437 75.952 135.853 74.512L131.101 84.088C133.693 86.248 138.301 87.616 142.405 87.616C150.109 87.616 155.869 84.664 159.973 74.584L176.821 33.976H163.789Z" fill="url(#paint0_linear)"/>
<path d="M339.944 73H354.776L332.456 22.6H318.416L296.168 73H310.712L314.672 63.208H335.984L339.944 73ZM318.848 52.696L325.328 36.568L331.808 52.696H318.848ZM381.226 33.976V52.768C381.226 59.32 377.914 61.984 373.882 61.984C369.778 61.984 367.402 59.608 367.402 53.56V33.976H353.722V55.792C353.722 68.176 360.706 73.648 370.282 73.648C374.746 73.648 378.922 72.064 381.874 68.824V73H394.906V33.976H381.226ZM427.91 19.576V37.36C425.318 34.624 421.646 33.328 417.11 33.328C406.454 33.328 397.886 41.032 397.886 53.416C397.886 65.872 406.454 73.648 417.11 73.648C422.15 73.648 425.966 72.208 428.558 69.112V73H441.59V19.576H427.91ZM419.99 62.776C415.31 62.776 411.782 59.392 411.782 53.416C411.782 47.512 415.31 44.2 419.99 44.2C424.598 44.2 428.126 47.512 428.126 53.416C428.126 59.392 424.598 62.776 419.99 62.776ZM453.631 29.656C458.671 29.656 461.983 26.488 461.983 22.168C461.983 18.064 458.671 15.112 453.631 15.112C448.591 15.112 445.279 18.28 445.279 22.384C445.279 26.488 448.591 29.656 453.631 29.656ZM446.791 73H460.471V33.976H446.791V73ZM505.65 53.56C505.65 40.672 496.29 33.328 484.77 33.328C472.458 33.328 463.314 41.68 463.314 53.416C463.314 65.08 472.314 73.648 486.21 73.648C493.626 73.648 499.098 71.488 502.842 67.312L495.642 59.824C492.978 62.128 490.458 63.208 486.642 63.208C481.602 63.208 478.218 60.904 477.066 56.944H505.434C505.506 55.864 505.65 54.568 505.65 53.56ZM484.842 43.048C489.09 43.048 492.114 45.64 492.834 49.744H476.85C477.642 45.64 480.594 43.048 484.842 43.048ZM533.773 33.328C528.877 33.328 524.485 34.984 521.389 38.224V33.976H508.357V73H522.037V54.136C522.037 47.656 525.421 44.92 529.813 44.92C533.773 44.92 536.221 47.296 536.221 52.912V73H549.901V50.68C549.901 38.584 542.917 33.328 533.773 33.328ZM575.396 73.648C584.252 73.648 591.02 69.688 593.684 62.92L583.1 57.52C581.228 61.192 578.492 62.776 575.324 62.776C570.572 62.776 566.828 59.464 566.828 53.416C566.828 47.512 570.572 44.2 575.324 44.2C578.492 44.2 581.228 45.784 583.1 49.456L593.684 44.056C591.02 37.288 584.252 33.328 575.396 33.328C562.292 33.328 553.004 41.68 553.004 53.416C553.004 65.296 562.292 73.648 575.396 73.648ZM634.701 53.56C634.701 40.672 625.341 33.328 613.821 33.328C601.509 33.328 592.365 41.68 592.365 53.416C592.365 65.08 601.365 73.648 615.261 73.648C622.677 73.648 628.149 71.488 631.893 67.312L624.693 59.824C622.029 62.128 619.509 63.208 615.693 63.208C610.653 63.208 607.269 60.904 606.117 56.944H634.485C634.557 55.864 634.701 54.568 634.701 53.56ZM613.893 43.048C618.141 43.048 621.165 45.64 621.885 49.744H605.901C606.693 45.64 609.645 43.048 613.893 43.048Z" fill="url(#paint1_linear)"/>
<path d="M802.128 46.72C805.008 47.728 807.264 49.312 808.896 51.472C810.528 53.584 811.344 56.152 811.344 59.176C811.344 63.592 809.568 67 806.016 69.4C802.464 71.8 797.328 73 790.608 73H763.392V22.6H789.168C795.6 22.6 800.496 23.8 803.856 26.2C807.216 28.552 808.896 31.744 808.896 35.776C808.896 38.176 808.296 40.336 807.096 42.256C805.944 44.128 804.288 45.616 802.128 46.72ZM777.504 32.896V42.616H787.296C792.096 42.616 794.496 40.984 794.496 37.72C794.496 34.504 792.096 32.896 787.296 32.896H777.504ZM789.456 62.704C794.448 62.704 796.944 61 796.944 57.592C796.944 54.184 794.448 52.48 789.456 52.48H777.504V62.704H789.456ZM854.368 53.56C854.368 53.656 854.296 54.784 854.152 56.944H825.784C826.36 58.96 827.464 60.52 829.096 61.624C830.776 62.68 832.864 63.208 835.36 63.208C837.232 63.208 838.84 62.944 840.184 62.416C841.576 61.888 842.968 61.024 844.36 59.824L851.56 67.312C847.768 71.536 842.224 73.648 834.928 73.648C830.368 73.648 826.36 72.784 822.904 71.056C819.448 69.328 816.76 66.928 814.84 63.856C812.968 60.784 812.032 57.304 812.032 53.416C812.032 49.576 812.944 46.144 814.768 43.12C816.64 40.048 819.208 37.648 822.472 35.92C825.736 34.192 829.408 33.328 833.488 33.328C837.376 33.328 840.904 34.144 844.072 35.776C847.24 37.36 849.736 39.688 851.56 42.76C853.432 45.784 854.368 49.384 854.368 53.56ZM833.56 43.048C831.448 43.048 829.672 43.648 828.232 44.848C826.84 46.048 825.952 47.68 825.568 49.744H841.552C841.168 47.68 840.256 46.048 838.816 44.848C837.424 43.648 835.672 43.048 833.56 43.048ZM882.491 33.328C887.339 33.328 891.227 34.768 894.155 37.648C897.131 40.528 898.619 44.872 898.619 50.68V73H884.939V52.912C884.939 47.584 882.803 44.92 878.531 44.92C876.179 44.92 874.283 45.688 872.843 47.224C871.451 48.76 870.755 51.064 870.755 54.136V73H857.075V33.976H870.107V38.224C871.643 36.64 873.467 35.44 875.579 34.624C877.691 33.76 879.995 33.328 882.491 33.328ZM944.058 53.56C944.058 53.656 943.986 54.784 943.842 56.944H915.474C916.05 58.96 917.154 60.52 918.786 61.624C920.466 62.68 922.554 63.208 925.05 63.208C926.922 63.208 928.53 62.944 929.874 62.416C931.266 61.888 932.658 61.024 934.05 59.824L941.25 67.312C937.458 71.536 931.914 73.648 924.618 73.648C920.058 73.648 916.05 72.784 912.594 71.056C909.138 69.328 906.45 66.928 904.53 63.856C902.658 60.784 901.722 57.304 901.722 53.416C901.722 49.576 902.634 46.144 904.458 43.12C906.33 40.048 908.898 37.648 912.162 35.92C915.426 34.192 919.098 33.328 923.178 33.328C927.066 33.328 930.594 34.144 933.762 35.776C936.93 37.36 939.426 39.688 941.25 42.76C943.122 45.784 944.058 49.384 944.058 53.56ZM923.25 43.048C921.138 43.048 919.362 43.648 917.922 44.848C916.53 46.048 915.642 47.68 915.258 49.744H931.242C930.858 47.68 929.946 46.048 928.506 44.848C927.114 43.648 925.362 43.048 923.25 43.048ZM961.669 35.416H970.957V45.64H962.029V73H948.349V45.64H942.661V35.416H948.349V34.408C948.349 29.656 949.765 25.888 952.597 23.104C955.477 20.32 959.485 18.928 964.621 18.928C966.349 18.928 968.029 19.096 969.661 19.432C971.293 19.768 972.637 20.272 973.693 20.944L970.309 30.592C968.965 29.824 967.597 29.44 966.205 29.44C964.765 29.44 963.637 29.872 962.821 30.736C962.053 31.6 961.669 32.872 961.669 34.552V35.416ZM981.757 33.976H995.437V73H981.757V33.976ZM988.597 29.656C986.101 29.656 984.085 28.96 982.549 27.568C981.013 26.176 980.245 24.448 980.245 22.384C980.245 20.32 981.013 18.592 982.549 17.2C984.085 15.808 986.101 15.112 988.597 15.112C991.093 15.112 993.109 15.784 994.645 17.128C996.181 18.424 996.949 20.104 996.949 22.168C996.949 24.328 996.181 26.128 994.645 27.568C993.109 28.96 991.093 29.656 988.597 29.656ZM1027.61 71.416C1026.46 72.136 1025.04 72.688 1023.36 73.072C1021.73 73.456 1019.98 73.648 1018.11 73.648C1013.02 73.648 1009.11 72.4 1006.37 69.904C1003.63 67.408 1002.27 63.688 1002.27 58.744V45.64H996.577V35.416H1002.27V25.264H1015.95V35.416H1024.87V45.64H1015.95V58.6C1015.95 59.992 1016.31 61.096 1017.03 61.912C1017.79 62.68 1018.8 63.064 1020.05 63.064C1021.63 63.064 1023.03 62.656 1024.23 61.84L1027.61 71.416ZM1043.47 73.648C1040.2 73.648 1036.99 73.288 1033.82 72.568C1030.65 71.8 1028.11 70.816 1026.19 69.616L1030.29 60.256C1032.07 61.36 1034.18 62.248 1036.63 62.92C1039.08 63.544 1041.5 63.856 1043.9 63.856C1046.11 63.856 1047.67 63.64 1048.58 63.208C1049.54 62.728 1050.02 62.056 1050.02 61.192C1050.02 60.328 1049.44 59.728 1048.29 59.392C1047.19 59.008 1045.41 58.648 1042.96 58.312C1039.84 57.928 1037.18 57.424 1034.97 56.8C1032.81 56.176 1030.94 55.024 1029.36 53.344C1027.77 51.664 1026.98 49.312 1026.98 46.288C1026.98 43.792 1027.72 41.584 1029.21 39.664C1030.7 37.696 1032.86 36.16 1035.69 35.056C1038.57 33.904 1042 33.328 1045.99 33.328C1048.82 33.328 1051.63 33.616 1054.41 34.192C1057.2 34.768 1059.52 35.584 1061.4 36.64L1057.29 45.928C1053.84 44.008 1050.09 43.048 1046.06 43.048C1043.9 43.048 1042.32 43.312 1041.31 43.84C1040.3 44.32 1039.8 44.968 1039.8 45.784C1039.8 46.696 1040.35 47.344 1041.45 47.728C1042.56 48.064 1044.38 48.424 1046.92 48.808C1050.14 49.288 1052.8 49.84 1054.92 50.464C1057.03 51.088 1058.85 52.24 1060.39 53.92C1061.97 55.552 1062.76 57.856 1062.76 60.832C1062.76 63.28 1062.02 65.488 1060.53 67.456C1059.04 69.376 1056.84 70.888 1053.91 71.992C1051.03 73.096 1047.55 73.648 1043.47 73.648Z" fill="url(#paint2_linear)"/>
<path d="M1215.7 74.008C1224.98 74.008 1232.47 70.624 1237.37 64.504L1228.3 56.296C1225.13 60.112 1221.24 62.2 1216.42 62.2C1208.14 62.2 1202.38 56.44 1202.38 47.8C1202.38 39.16 1208.14 33.4 1216.42 33.4C1221.24 33.4 1225.13 35.488 1228.3 39.304L1237.37 31.096C1232.47 24.976 1224.98 21.592 1215.7 21.592C1199.71 21.592 1187.98 32.464 1187.98 47.8C1187.98 63.136 1199.71 74.008 1215.7 74.008ZM1255.97 33.328C1249.85 33.328 1243.22 34.912 1238.76 37.864L1243.37 47.152C1246.03 45.064 1250.21 43.768 1253.95 43.768C1259.35 43.768 1262.01 46 1262.23 49.96H1254.45C1242.36 49.96 1237.1 54.424 1237.1 61.624C1237.1 68.392 1242.29 73.648 1251.65 73.648C1257.33 73.648 1261.22 71.704 1263.17 67.96V73H1275.91V51.328C1275.91 38.944 1268.64 33.328 1255.97 33.328ZM1255.46 65.008C1252.22 65.008 1250.35 63.352 1250.35 61.048C1250.35 58.672 1251.93 57.088 1256.33 57.088H1262.23V60.472C1261.15 63.568 1258.49 65.008 1255.46 65.008ZM1295.13 73.648C1307.8 73.648 1314.43 68.032 1314.43 60.832C1314.43 45.352 1291.46 51.184 1291.46 45.784C1291.46 44.344 1293.11 43.048 1297.72 43.048C1301.18 43.048 1305.07 43.768 1308.95 45.928L1313.06 36.64C1309.17 34.48 1303.12 33.328 1297.65 33.328C1285.41 33.328 1278.64 38.944 1278.64 46.288C1278.64 61.912 1301.68 55.936 1301.68 61.192C1301.68 62.848 1300.17 63.856 1295.56 63.856C1290.81 63.856 1285.55 62.488 1281.95 60.256L1277.85 69.616C1281.67 71.992 1288.51 73.648 1295.13 73.648ZM1356.61 53.56C1356.61 40.672 1347.25 33.328 1335.73 33.328C1323.42 33.328 1314.27 41.68 1314.27 53.416C1314.27 65.08 1323.27 73.648 1337.17 73.648C1344.58 73.648 1350.06 71.488 1353.8 67.312L1346.6 59.824C1343.94 62.128 1341.42 63.208 1337.6 63.208C1332.56 63.208 1329.18 60.904 1328.02 56.944H1356.39C1356.46 55.864 1356.61 54.568 1356.61 53.56ZM1335.8 43.048C1340.05 43.048 1343.07 45.64 1343.79 49.744H1327.81C1328.6 45.64 1331.55 43.048 1335.8 43.048ZM1390.85 73.648C1403.53 73.648 1410.15 68.032 1410.15 60.832C1410.15 45.352 1387.18 51.184 1387.18 45.784C1387.18 44.344 1388.84 43.048 1393.45 43.048C1396.9 43.048 1400.79 43.768 1404.68 45.928L1408.78 36.64C1404.89 34.48 1398.85 33.328 1393.37 33.328C1381.13 33.328 1374.37 38.944 1374.37 46.288C1374.37 61.912 1397.41 55.936 1397.41 61.192C1397.41 62.848 1395.89 63.856 1391.29 63.856C1386.53 63.856 1381.28 62.488 1377.68 60.256L1373.57 69.616C1377.39 71.992 1384.23 73.648 1390.85 73.648ZM1435.99 61.84C1434.84 62.632 1433.32 63.064 1431.81 63.064C1429.36 63.064 1427.71 61.48 1427.71 58.6V45.64H1436.64V35.416H1427.71V25.264H1414.03V35.416H1408.34V45.64H1414.03V58.744C1414.03 68.752 1419.86 73.648 1429.87 73.648C1433.47 73.648 1437 72.928 1439.37 71.416L1435.99 61.84ZM1468.41 33.976V52.768C1468.41 59.32 1465.1 61.984 1461.06 61.984C1456.96 61.984 1454.58 59.608 1454.58 53.56V33.976H1440.9V55.792C1440.9 68.176 1447.89 73.648 1457.46 73.648C1461.93 73.648 1466.1 72.064 1469.06 68.824V73H1482.09V33.976H1468.41ZM1515.09 19.576V37.36C1512.5 34.624 1508.83 33.328 1504.29 33.328C1493.64 33.328 1485.07 41.032 1485.07 53.416C1485.07 65.872 1493.64 73.648 1504.29 73.648C1509.33 73.648 1513.15 72.208 1515.74 69.112V73H1528.77V19.576H1515.09ZM1507.17 62.776C1502.49 62.776 1498.96 59.392 1498.96 53.416C1498.96 47.512 1502.49 44.2 1507.17 44.2C1511.78 44.2 1515.31 47.512 1515.31 53.416C1515.31 59.392 1511.78 62.776 1507.17 62.776ZM1540.81 29.656C1545.85 29.656 1549.16 26.488 1549.16 22.168C1549.16 18.064 1545.85 15.112 1540.81 15.112C1535.77 15.112 1532.46 18.28 1532.46 22.384C1532.46 26.488 1535.77 29.656 1540.81 29.656ZM1533.97 73H1547.65V33.976H1533.97V73ZM1592.83 53.56C1592.83 40.672 1583.47 33.328 1571.95 33.328C1559.64 33.328 1550.49 41.68 1550.49 53.416C1550.49 65.08 1559.49 73.648 1573.39 73.648C1580.81 73.648 1586.28 71.488 1590.02 67.312L1582.82 59.824C1580.16 62.128 1577.64 63.208 1573.82 63.208C1568.78 63.208 1565.4 60.904 1564.25 56.944H1592.61C1592.69 55.864 1592.83 54.568 1592.83 53.56ZM1572.02 43.048C1576.27 43.048 1579.29 45.64 1580.01 49.744H1564.03C1564.82 45.64 1567.77 43.048 1572.02 43.048ZM1609.72 73.648C1622.39 73.648 1629.02 68.032 1629.02 60.832C1629.02 45.352 1606.05 51.184 1606.05 45.784C1606.05 44.344 1607.71 43.048 1612.31 43.048C1615.77 43.048 1619.66 43.768 1623.55 45.928L1627.65 36.64C1623.76 34.48 1617.71 33.328 1612.24 33.328C1600 33.328 1593.23 38.944 1593.23 46.288C1593.23 61.912 1616.27 55.936 1616.27 61.192C1616.27 62.848 1614.76 63.856 1610.15 63.856C1605.4 63.856 1600.15 62.488 1596.55 60.256L1592.44 69.616C1596.26 71.992 1603.1 73.648 1609.72 73.648Z" fill="url(#paint3_linear)"/>
<path d="M252.176 46.656L248 39.744L240.44 44.352L240.656 36H232.448L232.664 44.352L225.104 39.744L221 46.656L228.344 50.688L221 54.648L225.104 61.56L232.664 57.024L232.448 65.304H240.656L240.44 57.024L248 61.56L252.176 54.648L244.832 50.688L252.176 46.656Z" fill="url(#paint4_linear)"/>
<path d="M713.352 46.656L709.176 39.744L701.616 44.352L701.832 36H693.624L693.84 44.352L686.28 39.744L682.176 46.656L689.52 50.688L682.176 54.648L686.28 61.56L693.84 57.024L693.624 65.304H701.832L701.616 57.024L709.176 61.56L713.352 54.648L706.008 50.688L713.352 46.656Z" fill="url(#paint5_linear)"/>
<path d="M1140.53 46.656L1136.35 39.744L1128.79 44.352L1129.01 36H1120.8L1121.02 44.352L1113.46 39.744L1109.35 46.656L1116.7 50.688L1109.35 54.648L1113.46 61.56L1121.02 57.024L1120.8 65.304H1129.01L1128.79 57.024L1136.35 61.56L1140.53 54.648L1133.18 50.688L1140.53 46.656Z" fill="url(#paint6_linear)"/>
<path d="M1706.7 46.656L1702.53 39.744L1694.97 44.352L1695.18 36H1686.98L1687.19 44.352L1679.63 39.744L1675.53 46.656L1682.87 50.688L1675.53 54.648L1679.63 61.56L1687.19 57.024L1686.98 65.304H1695.18L1694.97 57.024L1702.53 61.56L1706.7 54.648L1699.36 50.688L1706.7 46.656Z" fill="url(#paint7_linear)"/>
</g>
<defs>
<filter id="filter0_d" x="0.0399933" y="0.112305" width="1731.66" height="112.503" filterUnits="userSpaceOnUse" color-interpolation-filters="sRGB">
<feFlood flood-opacity="0" result="BackgroundImageFix"/>
<feColorMatrix in="SourceAlpha" type="matrix" values="0 0 0 0 0 0 0 0 0 0 0 0 0 0 0 0 0 0 127 0"/>
<feOffset dx="5" dy="5"/>
<feGaussianBlur stdDeviation="10"/>
<feColorMatrix type="matrix" values="0 0 0 0 0.0352941 0 0 0 0 0.0509804 0 0 0 0 0.0784314 0 0 0 0.4 0"/>
<feBlend mode="normal" in2="BackgroundImageFix" result="effect1_dropShadow"/>
<feBlend mode="normal" in="SourceGraphic" in2="effect1_dropShadow" result="shape"/>
</filter>
<linearGradient id="paint0_linear" x1="10" y1="11" x2="62.0952" y2="131.108" gradientUnits="userSpaceOnUse">
<stop stop-color="#2D2F33"/>
<stop offset="0.518" stop-color="#282A2E"/>
<stop offset="1" stop-color="#212429"/>
</linearGradient>
<linearGradient id="paint1_linear" x1="297.176" y1="11" x2="326.098" y2="147.579" gradientUnits="userSpaceOnUse">
<stop stop-color="#2D2F33"/>
<stop offset="0.518" stop-color="#282A2E"/>
<stop offset="1" stop-color="#212429"/>
</linearGradient>
<linearGradient id="paint2_linear" x1="758.352" y1="11" x2="790.168" y2="146.218" gradientUnits="userSpaceOnUse">
<stop stop-color="#2D2F33"/>
<stop offset="0.518" stop-color="#282A2E"/>
<stop offset="1" stop-color="#212429"/>
</linearGradient>
<linearGradient id="paint3_linear" x1="1185.53" y1="11" x2="1208.03" y2="150.064" gradientUnits="userSpaceOnUse">
<stop stop-color="#2D2F33"/>
<stop offset="0.518" stop-color="#282A2E"/>
<stop offset="1" stop-color="#212429"/>
</linearGradient>
<linearGradient id="paint4_linear" x1="221" y1="36" x2="249.985" y2="66.8363" gradientUnits="userSpaceOnUse">
<stop stop-color="#2D2F33"/>
<stop offset="0.518" stop-color="#282A2E"/>
<stop offset="1" stop-color="#212429"/>
</linearGradient>
<linearGradient id="paint5_linear" x1="682.176" y1="36" x2="711.16" y2="66.8363" gradientUnits="userSpaceOnUse">
<stop stop-color="#2D2F33"/>
<stop offset="0.518" stop-color="#282A2E"/>
<stop offset="1" stop-color="#212429"/>
</linearGradient>
<linearGradient id="paint6_linear" x1="1109.35" y1="36" x2="1138.34" y2="66.8363" gradientUnits="userSpaceOnUse">
<stop stop-color="#2D2F33"/>
<stop offset="0.518" stop-color="#282A2E"/>
<stop offset="1" stop-color="#212429"/>
</linearGradient>
<linearGradient id="paint7_linear" x1="1675.53" y1="36" x2="1704.51" y2="66.8363" gradientUnits="userSpaceOnUse">
<stop stop-color="#2D2F33"/>
<stop offset="0.518" stop-color="#282A2E"/>
<stop offset="1" stop-color="#212429"/>
</linearGradient>
</defs>
</svg>
