<svg width="1160" height="527" viewBox="0 0 1160 527" fill="none" xmlns="http://www.w3.org/2000/svg">
<mask id="mask0" mask-type="alpha" maskUnits="userSpaceOnUse" x="0" y="0" width="1160" height="527">
<path d="M1140 0H20C8.95431 0 0 8.95429 0 20V507C0 518.046 8.95428 527 20 527H1140C1151.05 527 1160 518.046 1160 507V20C1160 8.9543 1151.05 0 1140 0Z" fill="#212429"/>
</mask>
<g mask="url(#mask0)">
<path d="M1039.48 621.675C1099.95 681.163 1197.19 680.371 1256.67 619.906C1316.16 559.441 1315.37 462.201 1254.91 402.713C1194.44 343.225 1097.2 344.016 1037.71 404.481C978.224 464.946 979.016 562.187 1039.48 621.675Z" fill="url(#paint0_radial)"/>
<path d="M862 -17C862 -55.6599 830.66 -87 792 -87C753.34 -87 722 -55.6599 722 -17C722 21.6599 753.34 53 792 53C830.66 53 862 21.6599 862 -17Z" fill="url(#paint1_radial)"/>
<path d="M217 62C217 -21.9473 148.947 -90 65 -90C-18.9473 -90 -87 -21.9473 -87 62C-87 145.947 -18.9473 214 65 214C148.947 214 217 145.947 217 62Z" fill="url(#paint2_radial)"/>
<path d="M631 471C631 397.546 571.454 338 498 338C424.546 338 365 397.546 365 471C365 544.454 424.546 604 498 604C571.454 604 631 544.454 631 471Z" fill="url(#paint3_radial)"/>
<path d="M733 526.5C733 472.1 688.9 428 634.5 428C580.1 428 536 472.1 536 526.5C536 580.9 580.1 625 634.5 625C688.9 625 733 580.9 733 526.5Z" fill="url(#paint4_radial)"/>
</g>
<defs>
<radialGradient id="paint0_radial" cx="0" cy="0" r="1" gradientUnits="userSpaceOnUse" gradientTransform="translate(1256.94 518.902) rotate(134.533) scale(233.141)">
<stop stop-color="#FF5E00"/>
<stop offset="0.541" stop-color="#F54562"/>
<stop offset="1" stop-color="#C32DE1"/>
</radialGradient>
<radialGradient id="paint1_radial" cx="0" cy="0" r="1" gradientUnits="userSpaceOnUse" gradientTransform="translate(759.1 -54.8) scale(106.26)">
<stop stop-color="#FF5E00"/>
<stop offset="0.541" stop-color="#F54562"/>
<stop offset="1" stop-color="#C32DE1"/>
</radialGradient>
<radialGradient id="paint2_radial" cx="0" cy="0" r="1" gradientUnits="userSpaceOnUse" gradientTransform="translate(2.68001 -6.704) scale(223.136)">
<stop stop-color="#00BBFF"/>
<stop offset="0.53" stop-color="#9C42F5"/>
<stop offset="1" stop-color="#5D2DE1"/>
</radialGradient>
<radialGradient id="paint3_radial" cx="0" cy="0" r="1" gradientUnits="userSpaceOnUse" gradientTransform="translate(443.47 410.884) scale(195.244)">
<stop stop-color="#00BBFF"/>
<stop offset="0.53" stop-color="#9C42F5"/>
<stop offset="1" stop-color="#5D2DE1"/>
</radialGradient>
<radialGradient id="paint4_radial" cx="0" cy="0" r="1" gradientUnits="userSpaceOnUse" gradientTransform="translate(594.115 481.978) scale(144.598)">
<stop stop-color="#00BBFF"/>
<stop offset="0.53" stop-color="#9C42F5"/>
<stop offset="1" stop-color="#5D2DE1"/>
</radialGradient>
</defs>
</svg>
