<svg width="96" height="103" viewBox="0 0 96 103" fill="none" xmlns="http://www.w3.org/2000/svg">
<g opacity="0.3">
<path d="M78.4658 15.3248C75.9623 16.336 74.865 18.0411 75.5392 19.7101C76.9482 23.1983 81.8086 19.3713 82.5367 21.1738C82.7727 21.758 82.3404 22.4179 81.072 22.9303C80.2208 23.2741 79.3022 23.451 78.2488 23.2941L78.0881 25.2033C79.0847 25.3637 80.5512 25.1013 81.7362 24.6227C84.1395 23.6519 85.2134 21.9369 84.5325 20.2512C83.0965 16.6963 78.236 20.5232 77.5484 18.8209C77.2989 18.2033 77.7014 17.6137 79.0199 17.0811C80.1381 16.6294 81.4881 16.5112 82.4815 16.7117L82.6422 14.8026C81.6118 14.5587 79.9512 14.7248 78.4658 15.3248Z" fill="#E0E0FF"/>
<path d="M66.2814 32.4212L63.7607 28.266C62.7617 26.6194 63.1655 25.2375 64.5044 24.4253C65.7202 23.6877 66.8576 23.9662 67.7632 25.459L70.452 29.8912L72.3756 28.7242L69.5282 24.0303C68.0251 21.5526 65.8936 21.2667 63.7853 22.5457C62.7234 23.1899 61.9966 24.1782 61.8385 25.3057L61.2036 24.2592L59.3722 25.3702L64.3577 33.5882L66.2814 32.4212Z" fill="#E0E0FF"/>
<path d="M55.8041 38.3517L56.7053 39.4284L58.3478 38.0535L52.1784 30.6828L50.453 32.1269L53.4453 35.7019C54.7046 37.2064 54.5234 38.6726 53.2122 39.7701C53.0879 39.8741 52.9522 39.9643 52.7772 40.0638L54.1521 41.7063C55.3805 40.6781 55.9542 39.5406 55.8041 38.3517Z" fill="#E0E0FF"/>
<path d="M43.4802 52.6489L39.0859 43.1583L40.6379 41.4312L50.5425 44.7899L48.9784 46.5304L41.6794 43.9885L44.9239 51.0423L43.4802 52.6489Z" fill="#E0E0FF"/>
<path d="M31.07 62.1989C33.5997 63.8227 36.3592 63.1557 37.8761 60.7926C39.4221 58.3841 38.8329 55.5034 36.4243 53.9574C34.0158 52.4114 31.1459 53.0503 29.4055 55.7618C28.5109 57.1554 28.2361 58.5832 28.6328 59.8645L30.4507 59.5983C30.2294 58.6435 30.3986 57.7468 30.982 56.8379C31.8862 55.4292 33.2756 54.9307 34.603 55.4619L30.529 61.8089C30.701 61.9407 30.9185 62.1017 31.07 62.1989ZM36.3613 59.8203C35.564 61.0624 34.1875 61.4408 32.9239 60.8436L35.87 56.2538C36.9349 57.194 37.1489 58.5933 36.3613 59.8203Z" fill="#E0E0FF"/>
<path d="M29.3285 77.0136L24.0161 71.3935L31.7423 71.4485L32.6735 69.3018L22.1533 69.3102L21.871 69.0112C21.1677 68.2352 21.0071 67.6555 21.3223 66.9289C21.5658 66.3674 22.0405 65.9062 22.5923 65.6746L21.4312 64.19C20.6757 64.5294 19.9773 65.3252 19.5977 66.2005C18.9602 67.6702 19.0842 69.0581 20.7313 70.7339L28.469 78.9952L29.3285 77.0136Z" fill="#E0E0FF"/>
<path d="M16.5025 84.8984C15.8145 87.5093 16.5239 89.4088 18.2645 89.8674C21.9024 90.826 21.7449 84.6417 23.6247 85.1371C24.234 85.2976 24.504 86.0389 24.1554 87.3617C23.9215 88.2494 23.5136 89.0913 22.7575 89.8414L24.1909 91.1126C24.9158 90.4101 25.5832 89.0782 25.9088 87.8424C26.5693 85.3359 25.8378 83.4493 24.0798 82.986C20.3724 82.0091 20.5298 88.1934 18.7544 87.7256C18.1104 87.5559 17.8789 86.8806 18.2412 85.5055C18.5485 84.3393 19.2616 83.187 20.0168 82.5111L18.5833 81.2399C17.7714 81.9194 16.9107 83.3493 16.5025 84.8984Z" fill="#E0E0FF"/>
</g>
</svg>
