<svg width="272" height="285" viewBox="0 0 272 285" fill="none" xmlns="http://www.w3.org/2000/svg">
<g filter="url(#filter0_d)">
<path d="M15 16.1786C15 11.3103 18.9617 7.36377 23.8487 7.36377H248.015C252.902 7.36377 256.864 11.3103 256.864 16.1786V252.711C256.864 257.579 252.902 261.526 248.015 261.526H23.8487C18.9617 261.526 15 257.579 15 252.711V16.1786Z" fill="white"/>
</g>
<path d="M76.1844 45.7109C79.3434 45.7109 81.2167 43.8941 81.2167 40.611V34.3636H78.6767V40.5154C78.6767 42.635 77.7718 43.5116 76.2002 43.5116C74.6445 43.5116 73.7238 42.635 73.7238 40.5154V34.3636H71.1521V40.611C71.1521 43.8941 73.0253 45.7109 76.1844 45.7109Z" fill="url(#paint0_linear)"/>
<path d="M88.6315 36.8179C87.4885 36.8179 86.5678 37.1845 85.9487 37.9335V36.9454H83.5834V48.6115H86.0598V44.6113C86.6948 45.3125 87.5679 45.6472 88.6315 45.6472C91.0286 45.6472 92.886 43.926 92.886 41.2326C92.886 38.5392 91.0286 36.8179 88.6315 36.8179ZM88.2029 43.6072C86.9647 43.6072 86.0281 42.7147 86.0281 41.2326C86.0281 39.7504 86.9647 38.8579 88.2029 38.8579C89.4411 38.8579 90.3778 39.7504 90.3778 41.2326C90.3778 42.7147 89.4411 43.6072 88.2029 43.6072Z" fill="url(#paint1_linear)"/>
<path d="M94.5438 45.5197H97.0202V33.6942H94.5438V45.5197Z" fill="url(#paint2_linear)"/>
<path d="M103.383 45.6472C106.097 45.6472 108.066 43.8144 108.066 41.2326C108.066 38.6507 106.097 36.8179 103.383 36.8179C100.668 36.8179 98.6836 38.6507 98.6836 41.2326C98.6836 43.8144 100.668 45.6472 103.383 45.6472ZM103.383 43.6072C102.144 43.6072 101.192 42.7147 101.192 41.2326C101.192 39.7504 102.144 38.8579 103.383 38.8579C104.621 38.8579 105.557 39.7504 105.557 41.2326C105.557 42.7147 104.621 43.6072 103.383 43.6072Z" fill="url(#paint3_linear)"/>
<path d="M113.026 36.8179C111.661 36.8179 110.28 37.1845 109.343 37.8539L110.232 39.591C110.851 39.097 111.788 38.7942 112.693 38.7942C114.026 38.7942 114.661 39.4157 114.661 40.4835H112.693C110.089 40.4835 109.026 41.5354 109.026 43.0494C109.026 44.5316 110.216 45.6472 112.217 45.6472C113.471 45.6472 114.36 45.2328 114.82 44.4519V45.5197H117.138V40.627C117.138 38.0292 115.63 36.8179 113.026 36.8179ZM112.836 43.9738C111.963 43.9738 111.439 43.5594 111.439 42.9379C111.439 42.3641 111.804 41.9338 112.963 41.9338H114.661V42.8104C114.376 43.5913 113.661 43.9738 112.836 43.9738Z" fill="url(#paint4_linear)"/>
<path d="M125.695 33.6942V37.8539C125.076 37.1526 124.187 36.8179 123.139 36.8179C120.726 36.8179 118.869 38.5392 118.869 41.2326C118.869 43.926 120.726 45.6472 123.139 45.6472C124.282 45.6472 125.187 45.2806 125.806 44.5316V45.5197H128.171V33.6942H125.695ZM123.568 43.6072C122.33 43.6072 121.377 42.7147 121.377 41.2326C121.377 39.7504 122.33 38.8579 123.568 38.8579C124.79 38.8579 125.743 39.7504 125.743 41.2326C125.743 42.7147 124.79 43.6072 123.568 43.6072Z" fill="url(#paint5_linear)"/>
<path d="M141.055 36.9454L138.642 42.7625L136.245 36.9454H133.689L137.388 45.5834L137.356 45.6631C137.023 46.4281 136.642 46.7309 135.959 46.7309C135.467 46.7309 134.943 46.5237 134.562 46.1891L133.658 47.9581C134.213 48.4522 135.166 48.739 136.039 48.739C137.579 48.739 138.753 48.1175 139.579 46.0456L143.436 36.9454H141.055Z" fill="url(#paint6_linear)"/>
<path d="M148.278 45.6472C150.993 45.6472 152.961 43.8144 152.961 41.2326C152.961 38.6507 150.993 36.8179 148.278 36.8179C145.564 36.8179 143.579 38.6507 143.579 41.2326C143.579 43.8144 145.564 45.6472 148.278 45.6472ZM148.278 43.6072C147.04 43.6072 146.088 42.7147 146.088 41.2326C146.088 39.7504 147.04 38.8579 148.278 38.8579C149.517 38.8579 150.453 39.7504 150.453 41.2326C150.453 42.7147 149.517 43.6072 148.278 43.6072Z" fill="url(#paint7_linear)"/>
<path d="M160.744 36.9454V41.1848C160.744 42.7625 159.919 43.4957 158.776 43.4957C157.681 43.4957 157.046 42.8582 157.046 41.4238V36.9454H154.569V41.7904C154.569 44.436 156.077 45.6472 158.22 45.6472C159.268 45.6472 160.22 45.2488 160.871 44.4997V45.5197H163.221V36.9454H160.744Z" fill="url(#paint8_linear)"/>
<path d="M167.88 38.077V36.9454H165.515V45.5197H167.992V41.4716C167.992 39.8301 168.896 39.081 170.262 39.081C170.452 39.081 170.611 39.097 170.817 39.1129V36.8179C169.5 36.8179 168.484 37.2482 167.88 38.077Z" fill="url(#paint9_linear)"/>
<path d="M185.499 35.7501C186.42 35.7501 187.039 35.1445 187.039 34.3158C187.039 33.5508 186.42 32.9771 185.499 32.9771C184.579 32.9771 183.959 33.5827 183.959 34.3636C183.959 35.1445 184.579 35.7501 185.499 35.7501ZM180.689 35.527C181.07 35.527 181.42 35.6386 181.689 35.8298L182.34 34.0289C181.88 33.7102 181.15 33.5667 180.451 33.5667C178.324 33.5667 177.149 34.8258 177.149 36.7542V37.1367H175.832V39.0492H177.149V45.5197H179.626V39.0492H181.753V37.1367H179.562V36.7701C179.562 35.9254 179.959 35.527 180.689 35.527ZM184.261 45.5197H186.738V36.9454H184.261V45.5197Z" fill="url(#paint10_linear)"/>
<path d="M189.033 45.5197H191.509V33.6942H189.033V45.5197Z" fill="url(#paint11_linear)"/>
<path d="M202.174 41.2644C202.174 38.5073 200.237 36.8179 197.729 36.8179C195.125 36.8179 193.173 38.6667 193.173 41.2326C193.173 43.7825 195.093 45.6472 198.046 45.6472C199.586 45.6472 200.777 45.1691 201.57 44.2607L200.253 42.8263C199.665 43.3841 199.014 43.655 198.11 43.655C196.808 43.655 195.903 43.0016 195.665 41.9338H202.126C202.142 41.7266 202.174 41.4557 202.174 41.2644ZM197.744 38.6985C198.856 38.6985 199.665 39.3998 199.84 40.4835H195.633C195.808 39.3838 196.617 38.6985 197.744 38.6985Z" fill="url(#paint12_linear)"/>
<path d="M50.7177 64.924C52.1011 64.924 52.934 64.025 52.934 62.3726V59.1733H52.0069V62.3321C52.0069 63.4985 51.5434 64.0007 50.725 64.0007C49.9065 64.0007 49.4358 63.4985 49.4358 62.3321V59.1733H48.4942V62.3726C48.4942 64.025 49.3271 64.924 50.7177 64.924Z" fill="#B8B8CA"/>
<path d="M56.3095 60.4692C55.7808 60.4692 55.3318 60.6717 55.0276 61.0848V60.5178H54.1657V66.4144H55.071V64.3166C55.3825 64.7134 55.817 64.8997 56.3095 64.8997C57.4394 64.8997 58.2723 64.025 58.2723 62.6804C58.2723 61.344 57.4394 60.4692 56.3095 60.4692ZM56.2081 64.0331C55.5563 64.0331 55.0565 63.5066 55.0565 62.6804C55.0565 61.8543 55.5563 61.3278 56.2081 61.3278C56.86 61.3278 57.3525 61.8543 57.3525 62.6804C57.3525 63.5066 56.86 64.0331 56.2081 64.0331Z" fill="#B8B8CA"/>
<path d="M59.1309 64.843H60.0362V58.8331H59.1309V64.843Z" fill="#B8B8CA"/>
<path d="M62.9628 64.8997C64.165 64.8997 65.0269 63.9764 65.0269 62.6804C65.0269 61.3845 64.165 60.4692 62.9628 60.4692C61.7749 60.4692 60.9058 61.3845 60.9058 62.6804C60.9058 63.9764 61.7749 64.8997 62.9628 64.8997ZM62.9628 64.0331C62.3109 64.0331 61.8184 63.5066 61.8184 62.6804C61.8184 61.8543 62.3109 61.3278 62.9628 61.3278C63.6218 61.3278 64.1143 61.8543 64.1143 62.6804C64.1143 63.5066 63.6218 64.0331 62.9628 64.0331Z" fill="#B8B8CA"/>
<path d="M67.3207 60.4692C66.6978 60.4692 66.0966 60.6474 65.6838 61.0038L66.0387 61.7409C66.3284 61.4736 66.7775 61.3116 67.212 61.3116C67.8566 61.3116 68.1753 61.6599 68.1753 62.2511V62.3159H67.1758C66.0025 62.3159 65.5679 62.8829 65.5679 63.6038C65.5679 64.3571 66.1256 64.8997 67.0092 64.8997C67.5886 64.8997 68.0087 64.6891 68.226 64.3166V64.843H69.0806V62.3078C69.0806 61.0605 68.436 60.4692 67.3207 60.4692ZM67.1975 64.1627C66.734 64.1627 66.4588 63.9278 66.4588 63.5633C66.4588 63.2474 66.6254 62.9882 67.241 62.9882H68.1753V63.4904C68.0232 63.9359 67.6393 64.1627 67.1975 64.1627Z" fill="#B8B8CA"/>
<path d="M73.1605 58.8331V61.0524C72.8563 60.6555 72.4145 60.4692 71.9147 60.4692C70.7921 60.4692 69.9592 61.3359 69.9592 62.6804C69.9592 64.025 70.7921 64.8997 71.9147 64.8997C72.4435 64.8997 72.8925 64.6972 73.1967 64.2842V64.843H74.0658V58.8331H73.1605ZM72.0234 64.0331C71.3715 64.0331 70.8718 63.5066 70.8718 62.6804C70.8718 61.8543 71.3715 61.3278 72.0234 61.3278C72.6752 61.3278 73.175 61.8543 73.175 62.6804C73.175 63.5066 72.6752 64.0331 72.0234 64.0331Z" fill="#B8B8CA"/>
<path d="M80.9601 59.805C81.3005 59.805 81.5395 59.5297 81.5395 59.1733C81.5395 58.8412 81.2932 58.5901 80.9601 58.5901C80.6269 58.5901 80.3807 58.8574 80.3807 59.1976C80.3807 59.5378 80.6269 59.805 80.9601 59.805ZM77.3749 60.2748V60.5502H76.7376V61.3602H77.3749V64.843H78.2803V61.3602H79.316V60.5502H78.2513V60.291C78.2513 59.8293 78.4469 59.5944 78.8235 59.5944C79.0118 59.5944 79.1856 59.6673 79.3232 59.7726L79.5767 59.0113C79.3739 58.8493 79.0697 58.7764 78.7583 58.7764C77.8602 58.7764 77.3749 59.3677 77.3749 60.2748ZM80.5038 64.843H81.4091V60.5178H80.5038V64.843Z" fill="#B8B8CA"/>
<path d="M82.599 64.843H83.5043V58.8331H82.599V64.843Z" fill="#B8B8CA"/>
<path d="M88.3284 62.7047C88.3284 61.3521 87.5027 60.4692 86.3729 60.4692C85.2213 60.4692 84.3739 61.3926 84.3739 62.6804C84.3739 63.9683 85.214 64.8997 86.5105 64.8997C87.1768 64.8997 87.72 64.6567 88.0677 64.1951L87.5824 63.5714C87.3072 63.8873 86.9668 64.0412 86.5322 64.0412C85.8586 64.0412 85.3879 63.6362 85.2792 63.0044H88.3139C88.3212 62.9072 88.3284 62.7857 88.3284 62.7047ZM86.3729 61.2792C86.9668 61.2792 87.3941 61.7085 87.4665 62.3321H85.272C85.3589 61.7004 85.7862 61.2792 86.3729 61.2792Z" fill="#B8B8CA"/>
<path d="M90.3931 64.8997C91.4795 64.8997 92.1458 64.3733 92.1458 63.5633C92.1458 61.8705 89.7557 62.648 89.7557 61.7733C89.7557 61.4898 90.0165 61.2873 90.5669 61.2873C90.9363 61.2873 91.3057 61.3683 91.675 61.6113L92.0227 60.8418C91.675 60.6069 91.0884 60.4692 90.5742 60.4692C89.5312 60.4692 88.8721 61.0038 88.8721 61.8219C88.8721 63.5471 91.2622 62.7695 91.2622 63.5957C91.2622 63.8954 91.0232 64.0736 90.451 64.0736C89.9658 64.0736 89.4443 63.8954 89.1039 63.6443L88.7562 64.4138C89.1039 64.6891 89.7485 64.8997 90.3931 64.8997Z" fill="#B8B8CA"/>
<path d="M96.9985 63.8873C96.8609 64.0088 96.6799 64.0655 96.4916 64.0655C96.1439 64.0655 95.9556 63.8387 95.9556 63.4175V61.3602H96.9913V60.5502H95.9556V59.562H95.0503V60.5502H94.4129V61.3602H95.0503V63.4418C95.0503 64.3976 95.5355 64.8997 96.3829 64.8997C96.7088 64.8997 97.0348 64.8025 97.252 64.6082L96.9985 63.8873Z" fill="#B8B8CA"/>
<path d="M100.191 60.4692C99.6554 60.4692 99.1991 60.6636 98.9021 61.02V58.8331H97.9968V64.843H98.9021V62.6561C98.9021 61.7895 99.3367 61.3521 99.9813 61.3521C100.561 61.3521 100.901 61.7247 100.901 62.4941V64.843H101.806V62.3645C101.806 61.0605 101.118 60.4692 100.191 60.4692Z" fill="#B8B8CA"/>
<path d="M104.432 60.4692C103.81 60.4692 103.208 60.6474 102.796 61.0038L103.15 61.7409C103.44 61.4736 103.889 61.3116 104.324 61.3116C104.968 61.3116 105.287 61.6599 105.287 62.2511V62.3159H104.288C103.114 62.3159 102.68 62.8829 102.68 63.6038C102.68 64.3571 103.237 64.8997 104.121 64.8997C104.7 64.8997 105.121 64.6891 105.338 64.3166V64.843H106.192V62.3078C106.192 61.0605 105.548 60.4692 104.432 60.4692ZM104.309 64.1627C103.846 64.1627 103.571 63.9278 103.571 63.5633C103.571 63.2474 103.737 62.9882 104.353 62.9882H105.287V63.4904C105.135 63.9359 104.751 64.1627 104.309 64.1627Z" fill="#B8B8CA"/>
<path d="M109.426 63.8873C109.288 64.0088 109.107 64.0655 108.919 64.0655C108.571 64.0655 108.383 63.8387 108.383 63.4175V61.3602H109.418V60.5502H108.383V59.562H107.477V60.5502H106.84V61.3602H107.477V63.4418C107.477 64.3976 107.963 64.8997 108.81 64.8997C109.136 64.8997 109.462 64.8025 109.679 64.6082L109.426 63.8873Z" fill="#B8B8CA"/>
<path d="M117.655 60.5178L116.605 63.7253L115.562 60.5178H114.801L113.737 63.7091L112.715 60.5178H111.861L113.28 64.843H114.149L115.163 61.8624L116.163 64.843H117.032L118.459 60.5178H117.655Z" fill="#B8B8CA"/>
<path d="M119.538 59.805C119.878 59.805 120.117 59.5297 120.117 59.1733C120.117 58.8412 119.871 58.5901 119.538 58.5901C119.204 58.5901 118.958 58.8574 118.958 59.1976C118.958 59.5378 119.204 59.805 119.538 59.805ZM119.081 64.843H119.987V60.5178H119.081V64.843Z" fill="#B8B8CA"/>
<path d="M121.175 64.843H122.08V58.8331H121.175V64.843Z" fill="#B8B8CA"/>
<path d="M123.268 64.843H124.174V58.8331H123.268V64.843Z" fill="#B8B8CA"/>
<path d="M129.508 60.4692C129.015 60.4692 128.58 60.6555 128.269 61.0443V58.8331H127.364V64.843H128.226V64.2842C128.53 64.6972 128.979 64.8997 129.508 64.8997C130.637 64.8997 131.47 64.025 131.47 62.6804C131.47 61.3359 130.637 60.4692 129.508 60.4692ZM129.406 64.0331C128.754 64.0331 128.255 63.5066 128.255 62.6804C128.255 61.8543 128.754 61.3278 129.406 61.3278C130.058 61.3278 130.55 61.8543 130.55 62.6804C130.55 63.5066 130.058 64.0331 129.406 64.0331Z" fill="#B8B8CA"/>
<path d="M135.965 62.7047C135.965 61.3521 135.139 60.4692 134.009 60.4692C132.858 60.4692 132.01 61.3926 132.01 62.6804C132.01 63.9683 132.85 64.8997 134.147 64.8997C134.813 64.8997 135.356 64.6567 135.704 64.1951L135.219 63.5714C134.944 63.8873 134.603 64.0412 134.169 64.0412C133.495 64.0412 133.024 63.6362 132.916 63.0044H135.95C135.958 62.9072 135.965 62.7857 135.965 62.7047ZM134.009 61.2792C134.603 61.2792 135.03 61.7085 135.103 62.3321H132.908C132.995 61.7004 133.423 61.2792 134.009 61.2792Z" fill="#B8B8CA"/>
<path d="M141.675 60.5178V62.7047C141.675 63.5714 141.248 64.0088 140.618 64.0088C140.046 64.0088 139.712 63.6362 139.712 62.8505V60.5178H138.807V62.9882C138.807 64.2923 139.481 64.8997 140.473 64.8997C140.973 64.8997 141.429 64.6891 141.719 64.2923V64.843H142.581V60.5178H141.675Z" fill="#B8B8CA"/>
<path d="M144.961 64.8997C146.047 64.8997 146.714 64.3733 146.714 63.5633C146.714 61.8705 144.324 62.648 144.324 61.7733C144.324 61.4898 144.584 61.2873 145.135 61.2873C145.504 61.2873 145.874 61.3683 146.243 61.6113L146.591 60.8418C146.243 60.6069 145.656 60.4692 145.142 60.4692C144.099 60.4692 143.44 61.0038 143.44 61.8219C143.44 63.5471 145.83 62.7695 145.83 63.5957C145.83 63.8954 145.591 64.0736 145.019 64.0736C144.534 64.0736 144.012 63.8954 143.672 63.6443L143.324 64.4138C143.672 64.6891 144.316 64.8997 144.961 64.8997Z" fill="#B8B8CA"/>
<path d="M151.129 62.7047C151.129 61.3521 150.303 60.4692 149.174 60.4692C148.022 60.4692 147.175 61.3926 147.175 62.6804C147.175 63.9683 148.015 64.8997 149.311 64.8997C149.978 64.8997 150.521 64.6567 150.868 64.1951L150.383 63.5714C150.108 63.8873 149.768 64.0412 149.333 64.0412C148.659 64.0412 148.189 63.6362 148.08 63.0044H151.115C151.122 62.9072 151.129 62.7857 151.129 62.7047ZM149.174 61.2792C149.768 61.2792 150.195 61.7085 150.267 62.3321H148.073C148.16 61.7004 148.587 61.2792 149.174 61.2792Z" fill="#B8B8CA"/>
<path d="M153.57 59.5944C153.759 59.5944 153.933 59.6673 154.07 59.7726L154.324 59.0113C154.121 58.8493 153.817 58.7764 153.505 58.7764C152.607 58.7764 152.122 59.3677 152.122 60.2748V60.5502H151.485V61.3602H152.122V64.843H153.027V61.3602H154.063V60.5502H152.998V60.291C152.998 59.8293 153.194 59.5944 153.57 59.5944Z" fill="#B8B8CA"/>
<path d="M157.512 60.5178V62.7047C157.512 63.5714 157.084 64.0088 156.454 64.0088C155.882 64.0088 155.549 63.6362 155.549 62.8505V60.5178H154.643V62.9882C154.643 64.2923 155.317 64.8997 156.309 64.8997C156.809 64.8997 157.265 64.6891 157.555 64.2923V64.843H158.417V60.5178H157.512Z" fill="#B8B8CA"/>
<path d="M159.602 64.843H160.508V58.8331H159.602V64.843Z" fill="#B8B8CA"/>
<path d="M165.769 63.8873C165.631 64.0088 165.45 64.0655 165.262 64.0655C164.914 64.0655 164.726 63.8387 164.726 63.4175V61.3602H165.762V60.5502H164.726V59.562H163.821V60.5502H163.183V61.3602H163.821V63.4418C163.821 64.3976 164.306 64.8997 165.153 64.8997C165.479 64.8997 165.805 64.8025 166.022 64.6082L165.769 63.8873Z" fill="#B8B8CA"/>
<path d="M168.378 64.8997C169.58 64.8997 170.442 63.9764 170.442 62.6804C170.442 61.3845 169.58 60.4692 168.378 60.4692C167.19 60.4692 166.321 61.3845 166.321 62.6804C166.321 63.9764 167.19 64.8997 168.378 64.8997ZM168.378 64.0331C167.726 64.0331 167.234 63.5066 167.234 62.6804C167.234 61.8543 167.726 61.3278 168.378 61.3278C169.037 61.3278 169.53 61.8543 169.53 62.6804C169.53 63.5066 169.037 64.0331 168.378 64.0331Z" fill="#B8B8CA"/>
<path d="M176.062 60.5178L174.838 63.7172L173.621 60.5178H172.679L174.367 64.8592L174.302 65.0293C174.128 65.4586 173.94 65.6287 173.621 65.6287C173.375 65.6287 173.129 65.5153 172.955 65.329L172.593 66.0742C172.839 66.3253 173.244 66.4711 173.628 66.4711C174.273 66.4711 174.765 66.1714 175.12 65.1913L176.931 60.5178H176.062Z" fill="#B8B8CA"/>
<path d="M179.129 64.8997C180.331 64.8997 181.193 63.9764 181.193 62.6804C181.193 61.3845 180.331 60.4692 179.129 60.4692C177.941 60.4692 177.072 61.3845 177.072 62.6804C177.072 63.9764 177.941 64.8997 179.129 64.8997ZM179.129 64.0331C178.477 64.0331 177.985 63.5066 177.985 62.6804C177.985 61.8543 178.477 61.3278 179.129 61.3278C179.788 61.3278 180.281 61.8543 180.281 62.6804C180.281 63.5066 179.788 64.0331 179.129 64.0331Z" fill="#B8B8CA"/>
<path d="M184.898 60.5178V62.7047C184.898 63.5714 184.471 64.0088 183.841 64.0088C183.268 64.0088 182.935 63.6362 182.935 62.8505V60.5178H182.03V62.9882C182.03 64.2923 182.703 64.8997 183.696 64.8997C184.195 64.8997 184.652 64.6891 184.941 64.2923V64.843H185.803V60.5178H184.898Z" fill="#B8B8CA"/>
<path d="M187.851 61.1496V60.5178H186.989V64.843H187.894V62.7452C187.894 61.8624 188.329 61.4088 189.017 61.4088C189.082 61.4088 189.147 61.4169 189.227 61.4331V60.4692C188.582 60.4692 188.111 60.696 187.851 61.1496Z" fill="#B8B8CA"/>
<path d="M192.032 64.843H192.937V58.8331H192.032V64.843Z" fill="#B8B8CA"/>
<path d="M194.582 59.805C194.922 59.805 195.161 59.5297 195.161 59.1733C195.161 58.8412 194.915 58.5901 194.582 58.5901C194.248 58.5901 194.002 58.8574 194.002 59.1976C194.002 59.5378 194.248 59.805 194.582 59.805ZM194.125 64.843H195.031V60.5178H194.125V64.843Z" fill="#B8B8CA"/>
<path d="M197.414 64.8997C198.5 64.8997 199.167 64.3733 199.167 63.5633C199.167 61.8705 196.777 62.648 196.777 61.7733C196.777 61.4898 197.037 61.2873 197.588 61.2873C197.957 61.2873 198.327 61.3683 198.696 61.6113L199.044 60.8418C198.696 60.6069 198.109 60.4692 197.595 60.4692C196.552 60.4692 195.893 61.0038 195.893 61.8219C195.893 63.5471 198.283 62.7695 198.283 63.5957C198.283 63.8954 198.044 64.0736 197.472 64.0736C196.987 64.0736 196.465 63.8954 196.125 63.6443L195.777 64.4138C196.125 64.6891 196.769 64.8997 197.414 64.8997Z" fill="#B8B8CA"/>
<path d="M202.018 63.8873C201.88 64.0088 201.699 64.0655 201.511 64.0655C201.163 64.0655 200.975 63.8387 200.975 63.4175V61.3602H202.011V60.5502H200.975V59.562H200.069V60.5502H199.432V61.3602H200.069V63.4418C200.069 64.3976 200.555 64.8997 201.402 64.8997C201.728 64.8997 202.054 64.8025 202.271 64.6082L202.018 63.8873Z" fill="#B8B8CA"/>
<path d="M206.525 62.7047C206.525 61.3521 205.699 60.4692 204.569 60.4692C203.417 60.4692 202.57 61.3926 202.57 62.6804C202.57 63.9683 203.41 64.8997 204.707 64.8997C205.373 64.8997 205.916 64.6567 206.264 64.1951L205.779 63.5714C205.503 63.8873 205.163 64.0412 204.728 64.0412C204.055 64.0412 203.584 63.6362 203.475 63.0044H206.51C206.517 62.9072 206.525 62.7857 206.525 62.7047ZM204.569 61.2792C205.163 61.2792 205.59 61.7085 205.663 62.3321H203.468C203.555 61.7004 203.982 61.2792 204.569 61.2792Z" fill="#B8B8CA"/>
<path d="M209.589 60.4692C209.024 60.4692 208.553 60.6798 208.256 61.0767V60.5178H207.394V64.843H208.3V62.6561C208.3 61.7895 208.734 61.3521 209.379 61.3521C209.958 61.3521 210.299 61.7247 210.299 62.4941V64.843H211.204V62.3645C211.204 61.0605 210.516 60.4692 209.589 60.4692Z" fill="#B8B8CA"/>
<path d="M216.024 62.7047C216.024 61.3521 215.198 60.4692 214.068 60.4692C212.916 60.4692 212.069 61.3926 212.069 62.6804C212.069 63.9683 212.909 64.8997 214.206 64.8997C214.872 64.8997 215.415 64.6567 215.763 64.1951L215.278 63.5714C215.002 63.8873 214.662 64.0412 214.227 64.0412C213.554 64.0412 213.083 63.6362 212.974 63.0044H216.009C216.016 62.9072 216.024 62.7857 216.024 62.7047ZM214.068 61.2792C214.662 61.2792 215.089 61.7085 215.162 62.3321H212.967C213.054 61.7004 213.481 61.2792 214.068 61.2792Z" fill="#B8B8CA"/>
<path d="M217.755 61.1496V60.5178H216.893V64.843H217.799V62.7452C217.799 61.8624 218.233 61.4088 218.921 61.4088C218.986 61.4088 219.051 61.4169 219.131 61.4331V60.4692C218.487 60.4692 218.016 60.696 217.755 61.1496Z" fill="#B8B8CA"/>
<path d="M221.108 64.8997C222.195 64.8997 222.861 64.3733 222.861 63.5633C222.861 61.8705 220.471 62.648 220.471 61.7733C220.471 61.4898 220.732 61.2873 221.282 61.2873C221.652 61.2873 222.021 61.3683 222.39 61.6113L222.738 60.8418C222.39 60.6069 221.804 60.4692 221.289 60.4692C220.246 60.4692 219.587 61.0038 219.587 61.8219C219.587 63.5471 221.977 62.7695 221.977 63.5957C221.977 63.8954 221.738 64.0736 221.166 64.0736C220.681 64.0736 220.16 63.8954 219.819 63.6443L219.472 64.4138C219.819 64.6891 220.464 64.8997 221.108 64.8997Z" fill="#B8B8CA"/>
<path d="M38.8991 200.917C40.2842 200.917 41.1181 200.012 41.1181 198.347V195.125H40.1899V198.307C40.1899 199.481 39.7258 199.987 38.9063 199.987C38.0868 199.987 37.6155 199.481 37.6155 198.307V195.125H36.6727V198.347C36.6727 200.012 37.5067 200.917 38.8991 200.917Z" fill="#B8B8CA"/>
<path d="M44.498 196.43C43.9686 196.43 43.519 196.634 43.2144 197.05V196.479H42.3514V202.418H43.2579V200.305C43.5697 200.705 44.0048 200.893 44.498 200.893C45.6293 200.893 46.4632 200.012 46.4632 198.657C46.4632 197.311 45.6293 196.43 44.498 196.43ZM44.3964 200.02C43.7438 200.02 43.2434 199.489 43.2434 198.657C43.2434 197.825 43.7438 197.295 44.3964 197.295C45.0491 197.295 45.5422 197.825 45.5422 198.657C45.5422 199.489 45.0491 200.02 44.3964 200.02Z" fill="#B8B8CA"/>
<path d="M47.3229 200.836H48.2294V194.782H47.3229V200.836Z" fill="#B8B8CA"/>
<path d="M51.1596 200.893C52.3634 200.893 53.2264 199.963 53.2264 198.657C53.2264 197.352 52.3634 196.43 51.1596 196.43C49.9703 196.43 49.1001 197.352 49.1001 198.657C49.1001 199.963 49.9703 200.893 51.1596 200.893ZM51.1596 200.02C50.5069 200.02 50.0138 199.489 50.0138 198.657C50.0138 197.825 50.5069 197.295 51.1596 197.295C51.8195 197.295 52.3127 197.825 52.3127 198.657C52.3127 199.489 51.8195 200.02 51.1596 200.02Z" fill="#B8B8CA"/>
<path d="M55.523 196.43C54.8994 196.43 54.2975 196.61 53.8841 196.969L54.2394 197.711C54.5295 197.442 54.9791 197.279 55.4143 197.279C56.0597 197.279 56.3788 197.629 56.3788 198.225V198.29H55.378C54.2032 198.29 53.7681 198.861 53.7681 199.587C53.7681 200.346 54.3265 200.893 55.2112 200.893C55.7913 200.893 56.212 200.681 56.4295 200.305V200.836H57.2852V198.282C57.2852 197.026 56.6398 196.43 55.523 196.43ZM55.3997 200.15C54.9356 200.15 54.6601 199.914 54.6601 199.547C54.6601 199.228 54.8268 198.967 55.4433 198.967H56.3788V199.473C56.2265 199.922 55.8421 200.15 55.3997 200.15Z" fill="#B8B8CA"/>
<path d="M61.3703 194.782V197.017C61.0657 196.618 60.6233 196.43 60.1229 196.43C58.9989 196.43 58.1649 197.303 58.1649 198.657C58.1649 200.012 58.9989 200.893 60.1229 200.893C60.6523 200.893 61.1019 200.689 61.4065 200.273V200.836H62.2767V194.782H61.3703ZM60.2317 200.02C59.579 200.02 59.0787 199.489 59.0787 198.657C59.0787 197.825 59.579 197.295 60.2317 197.295C60.8844 197.295 61.3848 197.825 61.3848 198.657C61.3848 199.489 60.8844 200.02 60.2317 200.02Z" fill="#B8B8CA"/>
<path d="M67.103 198.682C67.103 197.319 66.2763 196.43 65.145 196.43C63.992 196.43 63.1435 197.36 63.1435 198.657C63.1435 199.955 63.9847 200.893 65.2828 200.893C65.95 200.893 66.4939 200.648 66.842 200.183L66.3561 199.555C66.0805 199.873 65.7397 200.028 65.3046 200.028C64.6301 200.028 64.1588 199.62 64.05 198.984H67.0885C67.0958 198.886 67.103 198.763 67.103 198.682ZM65.145 197.246C65.7397 197.246 66.1675 197.678 66.2401 198.307H64.0427C64.1298 197.67 64.5576 197.246 65.145 197.246Z" fill="#B8B8CA"/>
<path d="M70.86 194.782V197.017C70.5554 196.618 70.1131 196.43 69.6127 196.43C68.4887 196.43 67.6547 197.303 67.6547 198.657C67.6547 200.012 68.4887 200.893 69.6127 200.893C70.1421 200.893 70.5917 200.689 70.8963 200.273V200.836H71.7665V194.782H70.86ZM69.7215 200.02C69.0688 200.02 68.5684 199.489 68.5684 198.657C68.5684 197.825 69.0688 197.295 69.7215 197.295C70.3741 197.295 70.8745 197.825 70.8745 198.657C70.8745 199.489 70.3741 200.02 69.7215 200.02Z" fill="#B8B8CA"/>
<path d="M78.6695 195.761C79.0103 195.761 79.2497 195.484 79.2497 195.125C79.2497 194.79 79.0031 194.537 78.6695 194.537C78.3359 194.537 78.0893 194.807 78.0893 195.149C78.0893 195.492 78.3359 195.761 78.6695 195.761ZM75.0798 196.234V196.512H74.4417V197.328H75.0798V200.836H75.9863V197.328H77.0233V196.512H75.9573V196.251C75.9573 195.786 76.1531 195.549 76.5302 195.549C76.7187 195.549 76.8928 195.622 77.0306 195.728L77.2844 194.962C77.0813 194.798 76.7768 194.725 76.4649 194.725C75.5657 194.725 75.0798 195.321 75.0798 196.234ZM78.2126 200.836H79.1191V196.479H78.2126V200.836Z" fill="#B8B8CA"/>
<path d="M80.3105 200.836H81.2169V194.782H80.3105V200.836Z" fill="#B8B8CA"/>
<path d="M86.0472 198.682C86.0472 197.319 85.2204 196.43 84.0891 196.43C82.9361 196.43 82.0876 197.36 82.0876 198.657C82.0876 199.955 82.9289 200.893 84.2269 200.893C84.8941 200.893 85.438 200.648 85.7861 200.183L85.3002 199.555C85.0246 199.873 84.6838 200.028 84.2487 200.028C83.5743 200.028 83.1029 199.62 82.9941 198.984H86.0327C86.0399 198.886 86.0472 198.763 86.0472 198.682ZM84.0891 197.246C84.6838 197.246 85.1117 197.678 85.1842 198.307H82.9869C83.0739 197.67 83.5017 197.246 84.0891 197.246Z" fill="#B8B8CA"/>
<path d="M88.1145 200.893C89.2022 200.893 89.8694 200.362 89.8694 199.547C89.8694 197.841 87.4763 198.625 87.4763 197.744C87.4763 197.458 87.7374 197.254 88.2885 197.254C88.6583 197.254 89.0282 197.336 89.398 197.58L89.7461 196.805C89.398 196.569 88.8106 196.43 88.2957 196.43C87.2515 196.43 86.5916 196.969 86.5916 197.793C86.5916 199.53 88.9847 198.747 88.9847 199.579C88.9847 199.881 88.7454 200.061 88.1725 200.061C87.6866 200.061 87.1645 199.881 86.8236 199.628L86.4755 200.403C86.8236 200.681 87.469 200.893 88.1145 200.893Z" fill="#B8B8CA"/>
<path d="M36.1746 215.119C36.1746 214.638 36.5735 214.248 37.0656 214.248H50.4299L54.8847 218.604V236.026C54.8847 236.507 54.4858 236.897 53.9937 236.897H37.0656C36.5735 236.897 36.1746 236.507 36.1746 236.026L36.1746 215.119Z" fill="#9C42F5"/>
<path d="M43.5777 229.019H44.5489L42.2923 224.096H41.3783L39.1288 229.019H40.0857L40.5785 227.88H43.0778L43.5777 229.019ZM40.8927 227.162L41.8282 225.01L42.7708 227.162H40.8927Z" fill="white"/>
<path d="M48.5616 224.096L46.8834 227.894L45.2195 224.096H44.2127L46.3978 229.019H47.3119L49.4899 224.096H48.5616Z" fill="white"/>
<path d="M50.0174 229.019H50.9457V224.096H50.0174V229.019Z" fill="white"/>
<path d="M49.961 214.249V218.188C49.961 218.731 50.3137 219.172 50.7488 219.172H53.9L49.961 214.249Z" fill="#E0E0FF"/>
<path d="M66.7016 224.642H67.6382V219.682H66.7016V224.642Z" fill="#212429"/>
<path d="M71.0987 220.816C70.5367 220.816 70.0684 221 69.7731 221.347V220.858H68.9157V224.642H69.8163V222.729C69.8163 221.971 70.2486 221.588 70.8897 221.588C71.4661 221.588 71.8047 221.914 71.8047 222.587V224.642H72.7052V222.474C72.7052 221.333 72.0208 220.816 71.0987 220.816Z" fill="#212429"/>
<path d="M75.9081 223.806C75.7712 223.912 75.5911 223.961 75.4038 223.961C75.058 223.961 74.8707 223.763 74.8707 223.395V221.595H75.9009V220.887H74.8707V220.023H73.9701V220.887H73.3361V221.595H73.9701V223.416C73.9701 224.252 74.4528 224.691 75.2957 224.691C75.6199 224.691 75.9441 224.606 76.1603 224.436L75.9081 223.806Z" fill="#212429"/>
<path d="M80.391 222.771C80.391 221.588 79.5697 220.816 78.4458 220.816C77.3003 220.816 76.4574 221.624 76.4574 222.75C76.4574 223.876 77.2931 224.691 78.5827 224.691C79.2455 224.691 79.7859 224.479 80.1317 224.075L79.649 223.529C79.3752 223.806 79.0366 223.94 78.6043 223.94C77.9343 223.94 77.466 223.586 77.358 223.033H80.3766C80.3838 222.948 80.391 222.842 80.391 222.771ZM78.4458 221.524C79.0366 221.524 79.4617 221.9 79.5337 222.445H77.3508C77.4372 221.893 77.8623 221.524 78.4458 221.524Z" fill="#212429"/>
<path d="M81.2561 224.642H82.1566V219.385H81.2561V224.642Z" fill="#212429"/>
<path d="M83.3386 224.642H84.2391V219.385H83.3386V224.642Z" fill="#212429"/>
<path d="M85.875 220.235C86.2136 220.235 86.4513 219.994 86.4513 219.682C86.4513 219.392 86.2064 219.172 85.875 219.172C85.5436 219.172 85.2986 219.406 85.2986 219.704C85.2986 220.001 85.5436 220.235 85.875 220.235ZM85.4211 224.642H86.3216V220.858H85.4211V224.642Z" fill="#212429"/>
<path d="M90.4646 220.858V221.361C90.1476 220.986 89.6721 220.816 89.1318 220.816C88.0295 220.816 87.1866 221.539 87.1866 222.637C87.1866 223.735 88.0295 224.472 89.1318 224.472C89.6505 224.472 90.1044 224.309 90.4214 223.969V224.167C90.4214 224.932 90.0467 225.315 89.1966 225.315C88.6635 225.315 88.116 225.137 87.7774 224.861L87.3739 225.527C87.8134 225.881 88.5266 226.066 89.2471 226.066C90.5943 226.066 91.3219 225.442 91.3219 224.068V220.858H90.4646ZM89.2687 223.721C88.5843 223.721 88.0944 223.281 88.0944 222.637C88.0944 221.999 88.5843 221.567 89.2687 221.567C89.9459 221.567 90.4358 221.999 90.4358 222.637C90.4358 223.281 89.9459 223.721 89.2687 223.721Z" fill="#212429"/>
<path d="M96.1225 222.771C96.1225 221.588 95.3012 220.816 94.1773 220.816C93.0318 220.816 92.1889 221.624 92.1889 222.75C92.1889 223.876 93.0246 224.691 94.3142 224.691C94.977 224.691 95.5173 224.479 95.8631 224.075L95.3804 223.529C95.1066 223.806 94.768 223.94 94.3358 223.94C93.6658 223.94 93.1975 223.586 93.0894 223.033H96.108C96.1153 222.948 96.1225 222.842 96.1225 222.771ZM94.1773 221.524C94.768 221.524 95.1931 221.9 95.2651 222.445H93.0822C93.1687 221.893 93.5937 221.524 94.1773 221.524Z" fill="#212429"/>
<path d="M99.1704 220.816C98.6085 220.816 98.1402 221 97.8448 221.347V220.858H96.9875V224.642H97.888V222.729C97.888 221.971 98.3203 221.588 98.9615 221.588C99.5378 221.588 99.8764 221.914 99.8764 222.587V224.642H100.777V222.474C100.777 221.333 100.093 220.816 99.1704 220.816Z" fill="#212429"/>
<path d="M103.98 223.806C103.843 223.912 103.663 223.961 103.476 223.961C103.13 223.961 102.942 223.763 102.942 223.395V221.595H103.973V220.887H102.942V220.023H102.042V220.887H101.408V221.595H102.042V223.416C102.042 224.252 102.525 224.691 103.367 224.691C103.692 224.691 104.016 224.606 104.232 224.436L103.98 223.806Z" fill="#212429"/>
<path d="M104.6 225.18H108.202V224.642H104.6V225.18Z" fill="#212429"/>
<path d="M110.996 224.712C111.824 224.712 112.53 224.422 112.998 223.884L112.393 223.317C112.026 223.714 111.572 223.905 111.046 223.905C110.001 223.905 109.245 223.182 109.245 222.162C109.245 221.142 110.001 220.419 111.046 220.419C111.572 220.419 112.026 220.611 112.393 221L112.998 220.44C112.53 219.902 111.824 219.612 111.003 219.612C109.454 219.612 108.301 220.681 108.301 222.162C108.301 223.643 109.454 224.712 110.996 224.712Z" fill="#212429"/>
<path d="M115.398 224.691C116.594 224.691 117.451 223.884 117.451 222.75C117.451 221.617 116.594 220.816 115.398 220.816C114.216 220.816 113.352 221.617 113.352 222.75C113.352 223.884 114.216 224.691 115.398 224.691ZM115.398 223.933C114.749 223.933 114.259 223.473 114.259 222.75C114.259 222.027 114.749 221.567 115.398 221.567C116.053 221.567 116.543 222.027 116.543 222.75C116.543 223.473 116.053 223.933 115.398 223.933Z" fill="#212429"/>
<path d="M120.495 220.816C119.933 220.816 119.465 221 119.169 221.347V220.858H118.312V224.642H119.213V222.729C119.213 221.971 119.645 221.588 120.286 221.588C120.863 221.588 121.201 221.914 121.201 222.587V224.642H122.102V222.474C122.102 221.333 121.417 220.816 120.495 220.816Z" fill="#212429"/>
<path d="M124.807 220.051C124.995 220.051 125.168 220.115 125.305 220.207L125.557 219.541C125.355 219.399 125.052 219.335 124.743 219.335C123.849 219.335 123.367 219.852 123.367 220.646V220.887H122.733V221.595H123.367V224.642H124.267V221.595H125.297V220.887H124.238V220.66C124.238 220.256 124.433 220.051 124.807 220.051Z" fill="#212429"/>
<path d="M129.464 222.771C129.464 221.588 128.643 220.816 127.519 220.816C126.373 220.816 125.53 221.624 125.53 222.75C125.53 223.876 126.366 224.691 127.656 224.691C128.318 224.691 128.859 224.479 129.204 224.075L128.722 223.529C128.448 223.806 128.109 223.94 127.677 223.94C127.007 223.94 126.539 223.586 126.431 223.033H129.449C129.457 222.948 129.464 222.842 129.464 222.771ZM127.519 221.524C128.109 221.524 128.534 221.9 128.606 222.445H126.424C126.51 221.893 126.935 221.524 127.519 221.524Z" fill="#212429"/>
<path d="M131.186 221.411V220.858H130.329V224.642H131.229V222.807C131.229 222.034 131.662 221.638 132.346 221.638C132.411 221.638 132.476 221.645 132.555 221.659V220.816C131.914 220.816 131.446 221.014 131.186 221.411Z" fill="#212429"/>
<path d="M136.9 222.771C136.9 221.588 136.079 220.816 134.955 220.816C133.81 220.816 132.967 221.624 132.967 222.75C132.967 223.876 133.802 224.691 135.092 224.691C135.755 224.691 136.295 224.479 136.641 224.075L136.158 223.529C135.885 223.806 135.546 223.94 135.114 223.94C134.444 223.94 133.975 223.586 133.867 223.033H136.886C136.893 222.948 136.9 222.842 136.9 222.771ZM134.955 221.524C135.546 221.524 135.971 221.9 136.043 222.445H133.86C133.947 221.893 134.372 221.524 134.955 221.524Z" fill="#212429"/>
<path d="M139.948 220.816C139.386 220.816 138.918 221 138.623 221.347V220.858H137.765V224.642H138.666V222.729C138.666 221.971 139.098 221.588 139.739 221.588C140.316 221.588 140.654 221.914 140.654 222.587V224.642H141.555V222.474C141.555 221.333 140.87 220.816 139.948 220.816Z" fill="#212429"/>
<path d="M144.498 224.691C145.247 224.691 145.845 224.372 146.14 223.806L145.449 223.409C145.218 223.77 144.872 223.933 144.49 223.933C143.828 223.933 143.323 223.487 143.323 222.75C143.323 222.02 143.828 221.567 144.49 221.567C144.872 221.567 145.218 221.73 145.449 222.091L146.14 221.694C145.845 221.121 145.247 220.816 144.498 220.816C143.28 220.816 142.415 221.617 142.415 222.75C142.415 223.884 143.28 224.691 144.498 224.691Z" fill="#212429"/>
<path d="M150.479 222.771C150.479 221.588 149.658 220.816 148.534 220.816C147.388 220.816 146.545 221.624 146.545 222.75C146.545 223.876 147.381 224.691 148.671 224.691C149.333 224.691 149.874 224.479 150.22 224.075L149.737 223.529C149.463 223.806 149.124 223.94 148.692 223.94C148.022 223.94 147.554 223.586 147.446 223.033H150.465C150.472 222.948 150.479 222.842 150.479 222.771ZM148.534 221.524C149.124 221.524 149.55 221.9 149.622 222.445H147.439C147.525 221.893 147.95 221.524 148.534 221.524Z" fill="#212429"/>
<path d="M154.228 226.016H155.086C154.488 224.982 154.236 223.912 154.236 222.7C154.236 221.489 154.488 220.419 155.086 219.385H154.228C153.666 220.228 153.349 221.397 153.349 222.7C153.349 224.004 153.666 225.159 154.228 226.016Z" fill="#212429"/>
<path d="M157.85 221.581C157.288 221.581 156.805 221.751 156.503 222.098V222.091C156.503 220.965 157.101 220.384 158.052 220.384C158.405 220.384 158.736 220.448 159.01 220.625L159.356 219.93C159.017 219.718 158.534 219.612 158.03 219.612C156.567 219.612 155.559 220.547 155.559 222.247C155.559 223.841 156.366 224.712 157.742 224.712C158.772 224.712 159.586 224.089 159.586 223.104C159.586 222.176 158.844 221.581 157.85 221.581ZM157.691 223.99C157.021 223.99 156.647 223.621 156.647 223.154C156.647 222.665 157.065 222.304 157.67 222.304C158.282 222.304 158.678 222.63 158.678 223.147C158.678 223.664 158.275 223.99 157.691 223.99Z" fill="#212429"/>
<path d="M161.776 219.612C160.746 219.612 159.932 220.235 159.932 221.22C159.932 222.148 160.674 222.743 161.668 222.743C162.23 222.743 162.712 222.573 163.015 222.226V222.233C163.015 223.359 162.417 223.94 161.466 223.94C161.113 223.94 160.782 223.876 160.508 223.699L160.162 224.394C160.501 224.606 160.983 224.712 161.488 224.712C162.95 224.712 163.959 223.777 163.959 222.077C163.959 220.483 163.152 219.612 161.776 219.612ZM161.848 222.02C161.236 222.02 160.839 221.694 160.839 221.177C160.839 220.66 161.243 220.334 161.826 220.334C162.496 220.334 162.871 220.703 162.871 221.17C162.871 221.659 162.453 222.02 161.848 222.02Z" fill="#212429"/>
<path d="M169.088 222.736H168.195V221.737H167.316V222.736H165.666L168.007 219.682H167.006L164.52 222.878V223.515H167.287V224.642H168.195V223.515H169.088V222.736Z" fill="#212429"/>
<path d="M177.352 224.642L177.345 219.682H176.574L174.607 222.97L172.604 219.682H171.833V224.642H172.727V221.397L174.384 224.075H174.802L176.459 221.354L176.466 224.642H177.352Z" fill="#212429"/>
<path d="M180.76 220.816C180.27 220.816 179.838 220.979 179.528 221.319V219.385H178.628V224.642H179.485V224.153C179.788 224.514 180.234 224.691 180.76 224.691C181.884 224.691 182.713 223.926 182.713 222.75C182.713 221.574 181.884 220.816 180.76 220.816ZM180.659 223.933C180.011 223.933 179.514 223.473 179.514 222.75C179.514 222.027 180.011 221.567 180.659 221.567C181.308 221.567 181.798 222.027 181.798 222.75C181.798 223.473 181.308 223.933 180.659 223.933Z" fill="#212429"/>
<path d="M183.992 226.016C184.561 225.159 184.871 224.004 184.871 222.7C184.871 221.397 184.561 220.228 183.992 219.385H183.134C183.732 220.419 183.992 221.489 183.992 222.7C183.992 223.912 183.732 224.982 183.134 226.016H183.992Z" fill="#212429"/>
<path fill-rule="evenodd" clip-rule="evenodd" d="M65.7168 235.913C65.7168 235.369 66.2035 234.928 66.8039 234.928L232.036 234.928C232.636 234.928 233.123 235.369 233.123 235.913C233.123 236.457 232.636 236.898 232.036 236.898L66.8039 236.898C66.2035 236.898 65.7168 236.457 65.7168 235.913Z" fill="#E0E0FF"/>
<path fill-rule="evenodd" clip-rule="evenodd" d="M65.7168 235.913C65.7168 235.369 66.2034 234.928 66.8036 234.928L166.059 234.928C166.659 234.928 167.145 235.369 167.145 235.913C167.145 236.457 166.659 236.898 166.059 236.898L66.8036 236.898C66.2034 236.898 65.7168 236.457 65.7168 235.913Z" fill="#9C42F5"/>
<g opacity="0.5">
<path d="M220.193 222.079H219.7L219.81 220.971H222.027V220.225H219L218.735 222.831H219.98C221.048 222.831 221.364 223.118 221.364 223.576C221.364 224.028 220.959 224.308 220.274 224.308C219.692 224.308 219.133 224.123 218.757 223.836L218.352 224.527C218.823 224.876 219.56 225.081 220.289 225.081C221.674 225.081 222.329 224.383 222.329 223.542C222.329 222.694 221.718 222.079 220.193 222.079Z" fill="#212429"/>
<path d="M225.224 222.058C224.649 222.058 224.156 222.222 223.847 222.557V222.55C223.847 221.463 224.458 220.902 225.43 220.902C225.791 220.902 226.13 220.964 226.41 221.135L226.763 220.465C226.417 220.26 225.924 220.157 225.408 220.157C223.913 220.157 222.882 221.06 222.882 222.701C222.882 224.24 223.707 225.081 225.113 225.081C226.167 225.081 226.999 224.479 226.999 223.528C226.999 222.633 226.24 222.058 225.224 222.058ZM225.062 224.383C224.377 224.383 223.994 224.028 223.994 223.576C223.994 223.104 224.421 222.756 225.04 222.756C225.666 222.756 226.071 223.07 226.071 223.569C226.071 224.069 225.658 224.383 225.062 224.383Z" fill="#212429"/>
<path d="M228.505 222.803C229.241 222.803 229.742 222.284 229.742 221.49C229.742 220.697 229.241 220.177 228.505 220.177C227.768 220.177 227.275 220.704 227.275 221.49C227.275 222.277 227.768 222.803 228.505 222.803ZM228.078 225.012H228.799L232.32 220.225H231.598L228.078 225.012ZM228.505 222.325C228.122 222.325 227.871 222.017 227.871 221.49C227.871 220.964 228.122 220.656 228.505 220.656C228.902 220.656 229.138 220.957 229.138 221.49C229.138 222.024 228.902 222.325 228.505 222.325ZM231.886 225.06C232.622 225.06 233.123 224.534 233.123 223.747C233.123 222.961 232.622 222.434 231.886 222.434C231.149 222.434 230.656 222.961 230.656 223.747C230.656 224.534 231.149 225.06 231.886 225.06ZM231.886 224.581C231.495 224.581 231.252 224.281 231.252 223.747C231.252 223.214 231.495 222.913 231.886 222.913C232.276 222.913 232.519 223.221 232.519 223.747C232.519 224.274 232.276 224.581 231.886 224.581Z" fill="#212429"/>
</g>
<path fill-rule="evenodd" clip-rule="evenodd" d="M47.5319 85.7128C46.6109 85.7128 45.728 85.87 44.9074 86.1583C44.5309 86.2906 44.1189 86.0914 43.9872 85.7134C43.8555 85.3353 44.0539 84.9216 44.4303 84.7893C45.4022 84.4478 46.4463 84.2625 47.5319 84.2625H49.753C50.1518 84.2625 50.4751 84.5871 50.4751 84.9876C50.4751 85.3882 50.1518 85.7128 49.753 85.7128H47.5319ZM54.9536 84.9876C54.9536 84.5871 55.2769 84.2625 55.6758 84.2625H60.1179C60.5167 84.2625 60.84 84.5871 60.84 84.9876C60.84 85.3882 60.5167 85.7128 60.1179 85.7128H55.6758C55.2769 85.7128 54.9536 85.3882 54.9536 84.9876ZM65.3185 84.9876C65.3185 84.5871 65.6418 84.2625 66.0407 84.2625H70.4828C70.8816 84.2625 71.2049 84.5871 71.2049 84.9876C71.2049 85.3882 70.8816 85.7128 70.4828 85.7128H66.0407C65.6418 85.7128 65.3185 85.3882 65.3185 84.9876ZM75.6834 84.9876C75.6834 84.5871 76.0067 84.2625 76.4056 84.2625H80.8477C81.2465 84.2625 81.5698 84.5871 81.5698 84.9876C81.5698 85.3882 81.2465 85.7128 80.8477 85.7128H76.4056C76.0067 85.7128 75.6834 85.3882 75.6834 84.9876ZM86.0483 84.9876C86.0483 84.5871 86.3716 84.2625 86.7705 84.2625H91.2126C91.6114 84.2625 91.9347 84.5871 91.9347 84.9876C91.9347 85.3882 91.6114 85.7128 91.2126 85.7128H86.7705C86.3716 85.7128 86.0483 85.3882 86.0483 84.9876ZM96.4132 84.9876C96.4132 84.5871 96.7365 84.2625 97.1354 84.2625H101.577C101.976 84.2625 102.3 84.5871 102.3 84.9876C102.3 85.3882 101.976 85.7128 101.577 85.7128H97.1354C96.7365 85.7128 96.4132 85.3882 96.4132 84.9876ZM106.778 84.9876C106.778 84.5871 107.101 84.2625 107.5 84.2625H111.942C112.341 84.2625 112.664 84.5871 112.664 84.9876C112.664 85.3882 112.341 85.7128 111.942 85.7128H107.5C107.101 85.7128 106.778 85.3882 106.778 84.9876ZM117.143 84.9876C117.143 84.5871 117.466 84.2625 117.865 84.2625H122.307C122.706 84.2625 123.029 84.5871 123.029 84.9876C123.029 85.3882 122.706 85.7128 122.307 85.7128H117.865C117.466 85.7128 117.143 85.3882 117.143 84.9876ZM127.508 84.9876C127.508 84.5871 127.831 84.2625 128.23 84.2625H132.672C133.071 84.2625 133.394 84.5871 133.394 84.9876C133.394 85.3882 133.071 85.7128 132.672 85.7128H128.23C127.831 85.7128 127.508 85.3882 127.508 84.9876ZM137.873 84.9876C137.873 84.5871 138.196 84.2625 138.595 84.2625H143.037C143.436 84.2625 143.759 84.5871 143.759 84.9876C143.759 85.3882 143.436 85.7128 143.037 85.7128H138.595C138.196 85.7128 137.873 85.3882 137.873 84.9876ZM148.238 84.9876C148.238 84.5871 148.561 84.2625 148.96 84.2625H153.402C153.801 84.2625 154.124 84.5871 154.124 84.9876C154.124 85.3882 153.801 85.7128 153.402 85.7128H148.96C148.561 85.7128 148.238 85.3882 148.238 84.9876ZM158.603 84.9876C158.603 84.5871 158.926 84.2625 159.325 84.2625H163.767C164.166 84.2625 164.489 84.5871 164.489 84.9876C164.489 85.3882 164.166 85.7128 163.767 85.7128H159.325C158.926 85.7128 158.603 85.3882 158.603 84.9876ZM168.967 84.9876C168.967 84.5871 169.291 84.2625 169.69 84.2625H174.132C174.531 84.2625 174.854 84.5871 174.854 84.9876C174.854 85.3882 174.531 85.7128 174.132 85.7128H169.69C169.291 85.7128 168.967 85.3882 168.967 84.9876ZM179.332 84.9876C179.332 84.5871 179.656 84.2625 180.054 84.2625H184.497C184.895 84.2625 185.219 84.5871 185.219 84.9876C185.219 85.3882 184.895 85.7128 184.497 85.7128H180.054C179.656 85.7128 179.332 85.3882 179.332 84.9876ZM189.697 84.9876C189.697 84.5871 190.021 84.2625 190.419 84.2625H194.861C195.26 84.2625 195.584 84.5871 195.584 84.9876C195.584 85.3882 195.26 85.7128 194.861 85.7128H190.419C190.021 85.7128 189.697 85.3882 189.697 84.9876ZM200.062 84.9876C200.062 84.5871 200.385 84.2625 200.784 84.2625H205.226C205.625 84.2625 205.949 84.5871 205.949 84.9876C205.949 85.3882 205.625 85.7128 205.226 85.7128H200.784C200.385 85.7128 200.062 85.3882 200.062 84.9876ZM210.427 84.9876C210.427 84.5871 210.75 84.2625 211.149 84.2625H215.591C215.99 84.2625 216.313 84.5871 216.313 84.9876C216.313 85.3882 215.99 85.7128 215.591 85.7128H211.149C210.75 85.7128 210.427 85.3882 210.427 84.9876ZM220.792 84.9876C220.792 84.5871 221.115 84.2625 221.514 84.2625H223.735C224.821 84.2625 225.865 84.4478 226.837 84.7893C227.213 84.9216 227.412 85.3353 227.28 85.7134C227.148 86.0914 226.736 86.2906 226.36 86.1583C225.539 85.87 224.656 85.7128 223.735 85.7128H221.514C221.115 85.7128 220.792 85.3882 220.792 84.9876ZM231.678 90.1303C232.055 89.998 232.467 90.1973 232.598 90.5753C232.938 91.5513 233.123 92.5998 233.123 93.69V95.9766C233.123 96.3771 232.8 96.7018 232.401 96.7018C232.002 96.7018 231.679 96.3771 231.679 95.9766V93.69C231.679 92.7651 231.522 91.8785 231.235 91.0543C231.103 90.6763 231.302 90.2626 231.678 90.1303ZM39.5888 90.1303C39.9653 90.2626 40.1637 90.6763 40.032 91.0543C39.7448 91.8785 39.5883 92.7651 39.5883 93.69V95.9766C39.5883 96.3771 39.265 96.7018 38.8662 96.7018C38.4674 96.7018 38.1441 96.3771 38.1441 95.9766V93.69C38.1441 92.5998 38.3286 91.5513 38.6687 90.5753C38.8004 90.1973 39.2124 89.998 39.5888 90.1303ZM232.401 101.349C232.8 101.349 233.123 101.674 233.123 102.074V106.647C233.123 107.048 232.8 107.373 232.401 107.373C232.002 107.373 231.679 107.048 231.679 106.647V102.074C231.679 101.674 232.002 101.349 232.401 101.349ZM38.8662 101.349C39.265 101.349 39.5883 101.674 39.5883 102.074V106.647C39.5883 107.048 39.265 107.373 38.8662 107.373C38.4674 107.373 38.1441 107.048 38.1441 106.647V102.074C38.1441 101.674 38.4674 101.349 38.8662 101.349ZM232.401 112.02C232.8 112.02 233.123 112.344 233.123 112.745V117.318C233.123 117.719 232.8 118.043 232.401 118.043C232.002 118.043 231.679 117.719 231.679 117.318V112.745C231.679 112.344 232.002 112.02 232.401 112.02ZM38.8662 112.02C39.265 112.02 39.5883 112.344 39.5883 112.745V117.318C39.5883 117.719 39.265 118.043 38.8662 118.043C38.4674 118.043 38.1441 117.719 38.1441 117.318V112.745C38.1441 112.344 38.4674 112.02 38.8662 112.02ZM232.401 122.691C232.8 122.691 233.123 123.015 233.123 123.416V127.989C233.123 128.389 232.8 128.714 232.401 128.714C232.002 128.714 231.679 128.389 231.679 127.989V123.416C231.679 123.015 232.002 122.691 232.401 122.691ZM38.8662 122.691C39.265 122.691 39.5883 123.015 39.5883 123.416V127.989C39.5883 128.389 39.265 128.714 38.8662 128.714C38.4674 128.714 38.1441 128.389 38.1441 127.989V123.416C38.1441 123.015 38.4674 122.691 38.8662 122.691ZM232.401 133.361C232.8 133.361 233.123 133.686 233.123 134.086V138.66C233.123 139.06 232.8 139.385 232.401 139.385C232.002 139.385 231.679 139.06 231.679 138.66V134.086C231.679 133.686 232.002 133.361 232.401 133.361ZM38.8662 133.361C39.265 133.361 39.5883 133.686 39.5883 134.086V138.66C39.5883 139.06 39.265 139.385 38.8662 139.385C38.4674 139.385 38.1441 139.06 38.1441 138.66V134.086C38.1441 133.686 38.4674 133.361 38.8662 133.361ZM232.401 144.032C232.8 144.032 233.123 144.357 233.123 144.757V149.33C233.123 149.731 232.8 150.056 232.401 150.056C232.002 150.056 231.679 149.731 231.679 149.33V144.757C231.679 144.357 232.002 144.032 232.401 144.032ZM38.8662 144.032C39.265 144.032 39.5883 144.357 39.5883 144.757V149.33C39.5883 149.731 39.265 150.056 38.8662 150.056C38.4674 150.056 38.1441 149.731 38.1441 149.33V144.757C38.1441 144.357 38.4674 144.032 38.8662 144.032ZM232.401 154.703C232.8 154.703 233.123 155.028 233.123 155.428V160.001C233.123 160.402 232.8 160.726 232.401 160.726C232.002 160.726 231.679 160.402 231.679 160.001V155.428C231.679 155.028 232.002 154.703 232.401 154.703ZM38.8662 154.703C39.265 154.703 39.5883 155.028 39.5883 155.428V160.001C39.5883 160.402 39.265 160.726 38.8662 160.726C38.4674 160.726 38.1441 160.402 38.1441 160.001V155.428C38.1441 155.028 38.4674 154.703 38.8662 154.703ZM38.8662 165.374C39.265 165.374 39.5883 165.698 39.5883 166.099V168.385C39.5883 169.31 39.7448 170.197 40.032 171.021C40.1637 171.399 39.9653 171.813 39.5888 171.945C39.2124 172.077 38.8004 171.878 38.6687 171.5C38.3286 170.524 38.1441 169.476 38.1441 168.385V166.099C38.1441 165.698 38.4674 165.374 38.8662 165.374ZM232.401 165.374C232.8 165.374 233.123 165.698 233.123 166.099V168.385C233.123 169.476 232.938 170.524 232.598 171.5C232.467 171.878 232.055 172.077 231.678 171.945C231.302 171.813 231.103 171.399 231.235 171.021C231.522 170.197 231.679 169.31 231.679 168.385V166.099C231.679 165.698 232.002 165.374 232.401 165.374ZM43.9872 176.362C44.119 175.984 44.5309 175.785 44.9074 175.917C45.728 176.205 46.6109 176.363 47.5319 176.363H49.753C50.1518 176.363 50.4752 176.687 50.4752 177.088C50.4752 177.488 50.1518 177.813 49.753 177.813H47.5319C46.4463 177.813 45.4022 177.628 44.4303 177.286C44.0539 177.154 43.8555 176.74 43.9872 176.362ZM227.28 176.362C227.412 176.74 227.213 177.154 226.837 177.286C225.865 177.628 224.821 177.813 223.735 177.813H221.514C221.115 177.813 220.792 177.488 220.792 177.088C220.792 176.687 221.115 176.363 221.514 176.363H223.735C224.656 176.363 225.539 176.205 226.36 175.917C226.736 175.785 227.148 175.984 227.28 176.362ZM54.9537 177.088C54.9537 176.687 55.277 176.363 55.6758 176.363H60.1179C60.5167 176.363 60.84 176.687 60.84 177.088C60.84 177.488 60.5167 177.813 60.1179 177.813H55.6758C55.277 177.813 54.9537 177.488 54.9537 177.088ZM65.3185 177.088C65.3185 176.687 65.6419 176.363 66.0407 176.363H70.4828C70.8816 176.363 71.2049 176.687 71.2049 177.088C71.2049 177.488 70.8816 177.813 70.4828 177.813H66.0407C65.6419 177.813 65.3185 177.488 65.3185 177.088ZM75.6834 177.088C75.6834 176.687 76.0068 176.363 76.4056 176.363H80.8477C81.2465 176.363 81.5698 176.687 81.5698 177.088C81.5698 177.488 81.2465 177.813 80.8477 177.813H76.4056C76.0068 177.813 75.6834 177.488 75.6834 177.088ZM86.0483 177.088C86.0483 176.687 86.3717 176.363 86.7705 176.363H91.2126C91.6114 176.363 91.9347 176.687 91.9347 177.088C91.9347 177.488 91.6114 177.813 91.2126 177.813H86.7705C86.3717 177.813 86.0483 177.488 86.0483 177.088ZM96.4132 177.088C96.4132 176.687 96.7365 176.363 97.1354 176.363H101.577C101.976 176.363 102.3 176.687 102.3 177.088C102.3 177.488 101.976 177.813 101.577 177.813H97.1354C96.7365 177.813 96.4132 177.488 96.4132 177.088ZM106.778 177.088C106.778 176.687 107.101 176.363 107.5 176.363H111.942C112.341 176.363 112.664 176.687 112.664 177.088C112.664 177.488 112.341 177.813 111.942 177.813H107.5C107.101 177.813 106.778 177.488 106.778 177.088ZM117.143 177.088C117.143 176.687 117.466 176.363 117.865 176.363H122.307C122.706 176.363 123.029 176.687 123.029 177.088C123.029 177.488 122.706 177.813 122.307 177.813H117.865C117.466 177.813 117.143 177.488 117.143 177.088ZM127.508 177.088C127.508 176.687 127.831 176.363 128.23 176.363H132.672C133.071 176.363 133.394 176.687 133.394 177.088C133.394 177.488 133.071 177.813 132.672 177.813H128.23C127.831 177.813 127.508 177.488 127.508 177.088ZM137.873 177.088C137.873 176.687 138.196 176.363 138.595 176.363H143.037C143.436 176.363 143.759 176.687 143.759 177.088C143.759 177.488 143.436 177.813 143.037 177.813H138.595C138.196 177.813 137.873 177.488 137.873 177.088ZM148.238 177.088C148.238 176.687 148.561 176.363 148.96 176.363H153.402C153.801 176.363 154.124 176.687 154.124 177.088C154.124 177.488 153.801 177.813 153.402 177.813H148.96C148.561 177.813 148.238 177.488 148.238 177.088ZM158.603 177.088C158.603 176.687 158.926 176.363 159.325 176.363H163.767C164.166 176.363 164.489 176.687 164.489 177.088C164.489 177.488 164.166 177.813 163.767 177.813H159.325C158.926 177.813 158.603 177.488 158.603 177.088ZM168.967 177.088C168.967 176.687 169.291 176.363 169.69 176.363H174.132C174.531 176.363 174.854 176.687 174.854 177.088C174.854 177.488 174.531 177.813 174.132 177.813H169.69C169.291 177.813 168.967 177.488 168.967 177.088ZM179.332 177.088C179.332 176.687 179.656 176.363 180.055 176.363H184.497C184.895 176.363 185.219 176.687 185.219 177.088C185.219 177.488 184.895 177.813 184.497 177.813H180.055C179.656 177.813 179.332 177.488 179.332 177.088ZM189.697 177.088C189.697 176.687 190.021 176.363 190.419 176.363H194.861C195.26 176.363 195.584 176.687 195.584 177.088C195.584 177.488 195.26 177.813 194.861 177.813H190.419C190.021 177.813 189.697 177.488 189.697 177.088ZM200.062 177.088C200.062 176.687 200.385 176.363 200.784 176.363H205.226C205.625 176.363 205.949 176.687 205.949 177.088C205.949 177.488 205.625 177.813 205.226 177.813H200.784C200.385 177.813 200.062 177.488 200.062 177.088ZM210.427 177.088C210.427 176.687 210.75 176.363 211.149 176.363H215.591C215.99 176.363 216.313 176.687 216.313 177.088C216.313 177.488 215.99 177.813 215.591 177.813H211.149C210.75 177.813 210.427 177.488 210.427 177.088Z" fill="#E0E0FF"/>
<path d="M86.3964 153.74H88.6102C90.2525 153.74 91.3739 152.748 91.3739 151.26C91.3739 149.773 90.2525 148.781 88.6102 148.781H86.3964V153.74ZM87.3369 152.961V149.56H88.5668C89.6955 149.56 90.4262 150.233 90.4262 151.26C90.4262 152.288 89.6955 152.961 88.5668 152.961H87.3369Z" fill="#B8B8CA"/>
<path d="M93.1477 150.509V149.957H92.2867V153.74H93.1911V151.905C93.1911 151.133 93.6252 150.736 94.3125 150.736C94.3776 150.736 94.4427 150.743 94.5223 150.757V149.914C93.8784 149.914 93.4081 150.113 93.1477 150.509Z" fill="#B8B8CA"/>
<path d="M96.7441 149.914C96.1219 149.914 95.5214 150.07 95.1091 150.382L95.4636 151.027C95.753 150.793 96.2015 150.651 96.6356 150.651C97.2795 150.651 97.5978 150.956 97.5978 151.473V151.53H96.5994C95.4274 151.53 94.9933 152.026 94.9933 152.656C94.9933 153.315 95.5504 153.79 96.433 153.79C97.0118 153.79 97.4314 153.605 97.6485 153.279V153.74H98.5022V151.523C98.5022 150.432 97.8583 149.914 96.7441 149.914ZM96.6211 153.145C96.1581 153.145 95.8832 152.939 95.8832 152.621C95.8832 152.344 96.0496 152.118 96.6645 152.118H97.5978V152.557C97.4459 152.947 97.0624 153.145 96.6211 153.145Z" fill="#B8B8CA"/>
<path d="M102.672 149.957V150.46C102.353 150.084 101.876 149.914 101.333 149.914C100.226 149.914 99.3798 150.637 99.3798 151.735C99.3798 152.833 100.226 153.57 101.333 153.57C101.854 153.57 102.31 153.407 102.628 153.067V153.265C102.628 154.03 102.252 154.413 101.398 154.413C100.863 154.413 100.313 154.236 99.973 153.96L99.5679 154.626C100.009 154.98 100.725 155.164 101.449 155.164C102.802 155.164 103.532 154.541 103.532 153.166V149.957H102.672ZM101.471 152.819C100.783 152.819 100.291 152.38 100.291 151.735C100.291 151.097 100.783 150.665 101.471 150.665C102.151 150.665 102.643 151.097 102.643 151.735C102.643 152.38 102.151 152.819 101.471 152.819Z" fill="#B8B8CA"/>
<path d="M111.105 153.244L110.468 152.649C110.678 152.33 110.83 151.948 110.924 151.515L110.194 151.282C110.128 151.6 110.034 151.884 109.911 152.118L108.819 151.097C109.55 150.694 109.853 150.325 109.853 149.815C109.853 149.142 109.318 148.724 108.501 148.724C107.611 148.724 107.032 149.199 107.032 149.893C107.032 150.254 107.184 150.58 107.596 150.984C106.772 151.438 106.424 151.87 106.424 152.486C106.424 153.265 107.198 153.811 108.269 153.811C108.935 153.811 109.513 153.598 109.969 153.216L110.606 153.818L111.105 153.244ZM108.501 149.355C108.877 149.355 109.087 149.546 109.087 149.829C109.087 150.099 108.899 150.304 108.312 150.616C107.951 150.261 107.857 150.099 107.857 149.879C107.857 149.574 108.095 149.355 108.501 149.355ZM108.334 153.088C107.712 153.088 107.307 152.805 107.307 152.394C107.307 152.04 107.509 151.778 108.095 151.459L109.434 152.713C109.123 152.961 108.754 153.088 108.334 153.088Z" fill="#B8B8CA"/>
<path d="M113.915 153.74H116.129C117.771 153.74 118.893 152.748 118.893 151.26C118.893 149.773 117.771 148.781 116.129 148.781H113.915V153.74ZM114.856 152.961V149.56H116.086C117.214 149.56 117.945 150.233 117.945 151.26C117.945 152.288 117.214 152.961 116.086 152.961H114.856Z" fill="#B8B8CA"/>
<path d="M120.666 150.509V149.957H119.806V153.74H120.71V151.905C120.71 151.133 121.144 150.736 121.831 150.736C121.896 150.736 121.961 150.743 122.041 150.757V149.914C121.397 149.914 120.927 150.113 120.666 150.509Z" fill="#B8B8CA"/>
<path d="M124.509 153.79C125.71 153.79 126.571 152.982 126.571 151.848C126.571 150.715 125.71 149.914 124.509 149.914C123.323 149.914 122.455 150.715 122.455 151.848C122.455 152.982 123.323 153.79 124.509 153.79ZM124.509 153.032C123.858 153.032 123.366 152.571 123.366 151.848C123.366 151.126 123.858 150.665 124.509 150.665C125.168 150.665 125.66 151.126 125.66 151.848C125.66 152.571 125.168 153.032 124.509 153.032Z" fill="#B8B8CA"/>
<path d="M129.577 149.914C129.049 149.914 128.601 150.091 128.297 150.453V149.957H127.436V155.114H128.34V153.279C128.651 153.627 129.085 153.79 129.577 153.79C130.706 153.79 131.538 153.024 131.538 151.848C131.538 150.679 130.706 149.914 129.577 149.914ZM129.476 153.032C128.825 153.032 128.326 152.571 128.326 151.848C128.326 151.126 128.825 150.665 129.476 150.665C130.127 150.665 130.619 151.126 130.619 151.848C130.619 152.571 130.127 153.032 129.476 153.032Z" fill="#B8B8CA"/>
<path d="M137.144 149.957L135.922 152.755L134.706 149.957H133.766L135.451 153.754L135.386 153.903C135.213 154.278 135.025 154.427 134.706 154.427C134.46 154.427 134.214 154.328 134.041 154.165L133.679 154.817C133.925 155.036 134.33 155.164 134.713 155.164C135.357 155.164 135.849 154.902 136.204 154.045L138.012 149.957H137.144Z" fill="#B8B8CA"/>
<path d="M140.208 153.79C141.409 153.79 142.27 152.982 142.27 151.848C142.27 150.715 141.409 149.914 140.208 149.914C139.022 149.914 138.153 150.715 138.153 151.848C138.153 152.982 139.022 153.79 140.208 153.79ZM140.208 153.032C139.557 153.032 139.065 152.571 139.065 151.848C139.065 151.126 139.557 150.665 140.208 150.665C140.866 150.665 141.358 151.126 141.358 151.848C141.358 152.571 140.866 153.032 140.208 153.032Z" fill="#B8B8CA"/>
<path d="M145.971 149.957V151.87C145.971 152.628 145.544 153.01 144.914 153.01C144.343 153.01 144.01 152.684 144.01 151.997V149.957H143.106V152.118C143.106 153.258 143.779 153.79 144.77 153.79C145.269 153.79 145.725 153.605 146.014 153.258V153.74H146.875V149.957H145.971Z" fill="#B8B8CA"/>
<path d="M148.92 150.509V149.957H148.059V153.74H148.963V151.905C148.963 151.133 149.398 150.736 150.085 150.736C150.15 150.736 150.215 150.743 150.295 150.757V149.914C149.651 149.914 149.181 150.113 148.92 150.509Z" fill="#B8B8CA"/>
<path d="M156.801 149.333C157.141 149.333 157.38 149.093 157.38 148.781C157.38 148.49 157.134 148.271 156.801 148.271C156.468 148.271 156.222 148.505 156.222 148.802C156.222 149.1 156.468 149.333 156.801 149.333ZM153.22 149.744V149.985H152.583V150.694H153.22V153.74H154.124V150.694H155.158V149.985H154.095V149.758C154.095 149.355 154.29 149.149 154.667 149.149C154.855 149.149 155.028 149.213 155.166 149.305L155.419 148.639C155.216 148.497 154.912 148.434 154.601 148.434C153.704 148.434 153.22 148.951 153.22 149.744ZM156.345 153.74H157.249V149.957H156.345V153.74Z" fill="#B8B8CA"/>
<path d="M158.438 153.74H159.342V148.483H158.438V153.74Z" fill="#B8B8CA"/>
<path d="M164.161 151.87C164.161 150.687 163.336 149.914 162.208 149.914C161.057 149.914 160.211 150.722 160.211 151.848C160.211 152.975 161.05 153.79 162.345 153.79C163.011 153.79 163.553 153.577 163.901 153.173L163.416 152.628C163.141 152.904 162.801 153.039 162.367 153.039C161.694 153.039 161.224 152.684 161.115 152.132H164.146C164.154 152.047 164.161 151.941 164.161 151.87ZM162.208 150.623C162.801 150.623 163.228 150.998 163.3 151.544H161.108C161.195 150.991 161.622 150.623 162.208 150.623Z" fill="#B8B8CA"/>
<path d="M166.223 153.79C167.309 153.79 167.974 153.329 167.974 152.621C167.974 151.14 165.587 151.82 165.587 151.055C165.587 150.807 165.847 150.63 166.397 150.63C166.766 150.63 167.135 150.701 167.504 150.913L167.851 150.24C167.504 150.035 166.918 149.914 166.404 149.914C165.362 149.914 164.704 150.382 164.704 151.097C164.704 152.606 167.092 151.926 167.092 152.649C167.092 152.911 166.853 153.067 166.281 153.067C165.797 153.067 165.276 152.911 164.936 152.691L164.588 153.364C164.936 153.605 165.579 153.79 166.223 153.79Z" fill="#B8B8CA"/>
<path d="M172.945 149.914C172.409 149.914 171.953 150.084 171.657 150.396V148.483H170.752V153.74H171.657V151.827C171.657 151.069 172.091 150.687 172.735 150.687C173.314 150.687 173.654 151.012 173.654 151.685V153.74H174.558V151.572C174.558 150.432 173.871 149.914 172.945 149.914Z" fill="#B8B8CA"/>
<path d="M179.372 151.87C179.372 150.687 178.547 149.914 177.419 149.914C176.269 149.914 175.422 150.722 175.422 151.848C175.422 152.975 176.261 153.79 177.556 153.79C178.222 153.79 178.765 153.577 179.112 153.173L178.627 152.628C178.352 152.904 178.012 153.039 177.578 153.039C176.905 153.039 176.435 152.684 176.326 152.132H179.358C179.365 152.047 179.372 151.941 179.372 151.87ZM177.419 150.623C178.012 150.623 178.439 150.998 178.511 151.544H176.319C176.406 150.991 176.833 150.623 177.419 150.623Z" fill="#B8B8CA"/>
<path d="M181.102 150.509V149.957H180.241V153.74H181.145V151.905C181.145 151.133 181.579 150.736 182.267 150.736C182.332 150.736 182.397 150.743 182.476 150.757V149.914C181.833 149.914 181.362 150.113 181.102 150.509Z" fill="#B8B8CA"/>
<path d="M186.84 151.87C186.84 150.687 186.015 149.914 184.887 149.914C183.736 149.914 182.89 150.722 182.89 151.848C182.89 152.975 183.729 153.79 185.024 153.79C185.69 153.79 186.232 153.577 186.58 153.173L186.095 152.628C185.82 152.904 185.48 153.039 185.046 153.039C184.373 153.039 183.903 152.684 183.794 152.132H186.826C186.833 152.047 186.84 151.941 186.84 151.87ZM184.887 150.623C185.48 150.623 185.907 150.998 185.979 151.544H183.787C183.874 150.991 184.301 150.623 184.887 150.623Z" fill="#B8B8CA"/>
<path d="M147.159 109.866H125.09C123.302 109.863 121.85 111.264 121.847 112.995C121.847 113.136 121.856 113.277 121.876 113.416C121.922 113.761 122.247 114.003 122.603 113.959C122.689 113.948 122.773 113.92 122.848 113.878C123.135 113.716 123.461 113.633 123.792 113.636H128.413C129.248 113.639 129.989 114.152 130.26 114.916L130.37 115.26C130.816 116.54 132.055 117.403 133.45 117.407H148.457C148.798 117.407 149.132 117.494 149.427 117.658C149.527 117.714 149.64 117.744 149.756 117.744C150.114 117.744 150.405 117.462 150.405 117.115V113.008C150.405 111.272 148.952 109.866 147.159 109.866Z" fill="#024DC8"/>
<path d="M150.686 116.283C150.171 115.987 149.585 115.832 148.989 115.832H133.337C132.467 115.83 131.694 115.286 131.411 114.476L131.296 114.111C130.83 112.754 129.539 111.839 128.083 111.836H123.263C122.681 111.83 122.109 111.979 121.605 112.266C120.538 112.854 119.877 113.963 119.878 115.166V131.154C119.878 132.993 121.393 134.485 123.263 134.485H148.989C150.859 134.485 152.374 132.993 152.374 131.154V119.163C152.378 117.974 151.734 116.875 150.686 116.283Z" fill="#587CFC"/>
<defs>
<filter id="filter0_d" x="0" y="0.36377" width="271.864" height="284.162" filterUnits="userSpaceOnUse" color-interpolation-filters="sRGB">
<feFlood flood-opacity="0" result="BackgroundImageFix"/>
<feColorMatrix in="SourceAlpha" type="matrix" values="0 0 0 0 0 0 0 0 0 0 0 0 0 0 0 0 0 0 127 0"/>
<feOffset dy="8"/>
<feGaussianBlur stdDeviation="7.5"/>
<feColorMatrix type="matrix" values="0 0 0 0 0.263379 0 0 0 0 0.104156 0 0 0 0 0.420833 0 0 0 0.1 0"/>
<feBlend mode="normal" in2="BackgroundImageFix" result="effect1_dropShadow"/>
<feBlend mode="normal" in="SourceGraphic" in2="effect1_dropShadow" result="shape"/>
</filter>
<linearGradient id="paint0_linear" x1="71.1521" y1="32.9771" x2="74.8567" y2="63.7716" gradientUnits="userSpaceOnUse">
<stop stop-color="#2D2F33"/>
<stop offset="0.518" stop-color="#282A2E"/>
<stop offset="1" stop-color="#212429"/>
</linearGradient>
<linearGradient id="paint1_linear" x1="71.1521" y1="32.9771" x2="74.8567" y2="63.7716" gradientUnits="userSpaceOnUse">
<stop stop-color="#2D2F33"/>
<stop offset="0.518" stop-color="#282A2E"/>
<stop offset="1" stop-color="#212429"/>
</linearGradient>
<linearGradient id="paint2_linear" x1="71.1521" y1="32.9771" x2="74.8567" y2="63.7716" gradientUnits="userSpaceOnUse">
<stop stop-color="#2D2F33"/>
<stop offset="0.518" stop-color="#282A2E"/>
<stop offset="1" stop-color="#212429"/>
</linearGradient>
<linearGradient id="paint3_linear" x1="71.1521" y1="32.9771" x2="74.8567" y2="63.7716" gradientUnits="userSpaceOnUse">
<stop stop-color="#2D2F33"/>
<stop offset="0.518" stop-color="#282A2E"/>
<stop offset="1" stop-color="#212429"/>
</linearGradient>
<linearGradient id="paint4_linear" x1="71.1521" y1="32.9771" x2="74.8567" y2="63.7716" gradientUnits="userSpaceOnUse">
<stop stop-color="#2D2F33"/>
<stop offset="0.518" stop-color="#282A2E"/>
<stop offset="1" stop-color="#212429"/>
</linearGradient>
<linearGradient id="paint5_linear" x1="71.1521" y1="32.9771" x2="74.8567" y2="63.7716" gradientUnits="userSpaceOnUse">
<stop stop-color="#2D2F33"/>
<stop offset="0.518" stop-color="#282A2E"/>
<stop offset="1" stop-color="#212429"/>
</linearGradient>
<linearGradient id="paint6_linear" x1="71.1521" y1="32.9771" x2="74.8567" y2="63.7716" gradientUnits="userSpaceOnUse">
<stop stop-color="#2D2F33"/>
<stop offset="0.518" stop-color="#282A2E"/>
<stop offset="1" stop-color="#212429"/>
</linearGradient>
<linearGradient id="paint7_linear" x1="71.1521" y1="32.9771" x2="74.8567" y2="63.7716" gradientUnits="userSpaceOnUse">
<stop stop-color="#2D2F33"/>
<stop offset="0.518" stop-color="#282A2E"/>
<stop offset="1" stop-color="#212429"/>
</linearGradient>
<linearGradient id="paint8_linear" x1="71.1521" y1="32.9771" x2="74.8567" y2="63.7716" gradientUnits="userSpaceOnUse">
<stop stop-color="#2D2F33"/>
<stop offset="0.518" stop-color="#282A2E"/>
<stop offset="1" stop-color="#212429"/>
</linearGradient>
<linearGradient id="paint9_linear" x1="71.1521" y1="32.9771" x2="74.8567" y2="63.7716" gradientUnits="userSpaceOnUse">
<stop stop-color="#2D2F33"/>
<stop offset="0.518" stop-color="#282A2E"/>
<stop offset="1" stop-color="#212429"/>
</linearGradient>
<linearGradient id="paint10_linear" x1="71.1521" y1="32.9771" x2="74.8567" y2="63.7716" gradientUnits="userSpaceOnUse">
<stop stop-color="#2D2F33"/>
<stop offset="0.518" stop-color="#282A2E"/>
<stop offset="1" stop-color="#212429"/>
</linearGradient>
<linearGradient id="paint11_linear" x1="71.1521" y1="32.9771" x2="74.8567" y2="63.7716" gradientUnits="userSpaceOnUse">
<stop stop-color="#2D2F33"/>
<stop offset="0.518" stop-color="#282A2E"/>
<stop offset="1" stop-color="#212429"/>
</linearGradient>
<linearGradient id="paint12_linear" x1="71.1521" y1="32.9771" x2="74.8567" y2="63.7716" gradientUnits="userSpaceOnUse">
<stop stop-color="#2D2F33"/>
<stop offset="0.518" stop-color="#282A2E"/>
<stop offset="1" stop-color="#212429"/>
</linearGradient>
</defs>
</svg>
