<svg width="559" height="351" viewBox="0 0 559 351" fill="none" xmlns="http://www.w3.org/2000/svg">
<path d="M0 12C0 5.37258 5.37258 0 12 0H547C553.627 0 559 5.37258 559 12V339C559 345.627 553.627 351 547 351H12C5.37259 351 0 345.627 0 339V12Z" fill="white"/>
<path opacity="0.5" d="M227 260.5C227 284.524 207.524 304 183.5 304C159.476 304 140 284.524 140 260.5C140 236.476 159.476 217 183.5 217C207.524 217 227 236.476 227 260.5Z" fill="#E0E0FF"/>
<path opacity="0.5" d="M339 260.5C339 284.524 319.524 304 295.5 304C271.476 304 252 284.524 252 260.5C252 236.476 271.476 217 295.5 217C319.524 217 339 236.476 339 260.5Z" fill="#E0E0FF"/>
<path opacity="0.5" d="M115 260.5C115 284.524 95.5244 304 71.5 304C47.4756 304 28 284.524 28 260.5C28 236.476 47.4756 217 71.5 217C95.5244 217 115 236.476 115 260.5Z" fill="#E0E0FF"/>
<path opacity="0.2" d="M107.317 235.814C111.534 241.933 114.113 249.03 114.809 256.428C115.505 263.826 114.293 271.279 111.291 278.077C108.288 284.874 103.595 290.789 97.6571 295.257C91.7197 299.725 84.7366 302.598 77.3737 303.602C70.0109 304.605 62.5137 303.705 55.5971 300.989C48.6806 298.272 42.5753 293.829 37.8634 288.083C33.1514 282.337 29.9901 275.48 28.6807 268.165C27.3713 260.85 27.9575 253.322 30.3835 246.299L71.5 260.5L107.317 235.814Z" fill="#4269F5"/>
<path opacity="0.4" d="M114.282 268.371C112.937 275.679 109.743 282.521 105.004 288.245C100.264 293.968 94.1374 298.382 87.2078 301.065C80.2783 303.748 72.7769 304.612 65.4189 303.573C58.0609 302.534 51.0917 299.628 45.1759 295.131C39.2601 290.634 34.5948 284.697 31.625 277.885C28.6552 271.073 27.4799 263.614 28.2111 256.219C28.9423 248.825 31.5557 241.74 35.8021 235.642C40.0485 229.544 45.7862 224.635 52.4682 221.384L71.5 260.5L114.282 268.371Z" fill="#4269F5"/>
<path d="M93.4827 298.037C87.8241 301.351 81.4896 303.342 74.9528 303.863C68.416 304.383 61.8462 303.419 55.7345 301.043C49.6229 298.666 44.1276 294.938 39.6597 290.139C35.1918 285.339 31.8669 279.591 29.9336 273.325C28.0002 267.059 27.5086 260.437 28.4953 253.954C29.4821 247.471 31.9217 241.296 35.6318 235.889C39.3419 230.482 44.2264 225.983 49.92 222.73C55.6137 219.477 61.9691 217.553 68.5111 217.103L71.5 260.5L93.4827 298.037Z" fill="#4269F5"/>
<path opacity="0.2" d="M214.259 229.741C218.568 234.05 221.924 239.216 224.108 244.904C226.293 250.593 227.258 256.677 226.941 262.762C226.624 268.848 225.032 274.799 222.269 280.23C219.505 285.66 215.631 290.45 210.898 294.288C206.164 298.126 200.678 300.927 194.793 302.509C188.908 304.091 182.757 304.418 176.737 303.471C170.718 302.524 164.964 300.322 159.85 297.009C154.736 293.696 150.374 289.346 147.049 284.239L183.5 260.5L214.259 229.741Z" fill="#9C42F5"/>
<path d="M163.418 299.087C154.605 294.5 147.628 287.035 143.646 277.933C139.665 268.831 138.919 258.641 141.532 249.056C144.146 239.471 149.962 231.07 158.013 225.249C166.064 219.428 175.864 216.538 185.786 217.06L183.5 260.5L163.418 299.087Z" fill="#9C42F5"/>
<path opacity="0.4" d="M220.378 283.571C214.259 293.351 204.506 300.301 193.263 302.89C182.021 305.48 170.21 303.497 160.429 297.378C150.649 291.259 143.699 281.506 141.11 270.263C138.52 259.021 140.503 247.21 146.622 237.429L183.5 260.5L220.378 283.571Z" fill="#9C42F5"/>
<path d="M279.711 301.033C271.694 297.911 264.783 292.481 259.853 285.43C254.922 278.38 252.193 270.026 252.01 261.424C251.827 252.823 254.199 244.36 258.826 237.106C263.453 229.853 270.126 224.134 278.003 220.674L295.5 260.5L279.711 301.033Z" fill="#F54282"/>
<path opacity="0.2" d="M310.134 219.535C316.549 221.827 322.336 225.593 327.029 230.53C331.722 235.467 335.19 241.437 337.153 247.959C339.117 254.482 339.522 261.374 338.334 268.082C337.147 274.789 334.402 281.124 330.318 286.576C326.235 292.028 320.929 296.445 314.826 299.471C308.724 302.497 301.996 304.048 295.184 303.999C288.373 303.949 281.668 302.301 275.61 299.187C269.553 296.072 264.311 291.578 260.307 286.068L295.5 260.5L310.134 219.535Z" fill="#F54282"/>
<path opacity="0.4" d="M339 260.5C339 267.312 337.4 274.028 334.33 280.108C331.259 286.189 326.804 291.463 321.322 295.507C315.841 299.55 309.486 302.25 302.77 303.388C296.054 304.527 289.165 304.072 282.657 302.061C276.149 300.05 270.204 296.539 265.302 291.81C260.399 287.081 256.675 281.267 254.43 274.836C252.185 268.405 251.482 261.537 252.377 254.784C253.272 248.031 255.741 241.584 259.583 235.959L295.5 260.5H339Z" fill="#F54282"/>
<path d="M267.202 34.6H263.704L259.59 41.442L255.476 34.6H251.692L257.654 44.5V50H261.218V44.544L267.202 34.6Z" fill="#212429"/>
<path d="M272.773 50.176C276.535 50.176 279.263 47.646 279.263 44.082C279.263 40.518 276.535 37.988 272.773 37.988C269.011 37.988 266.261 40.518 266.261 44.082C266.261 47.646 269.011 50.176 272.773 50.176ZM272.773 47.36C271.057 47.36 269.737 46.128 269.737 44.082C269.737 42.036 271.057 40.804 272.773 40.804C274.489 40.804 275.787 42.036 275.787 44.082C275.787 46.128 274.489 47.36 272.773 47.36Z" fill="#212429"/>
<path d="M290.049 38.164V44.016C290.049 46.194 288.905 47.206 287.321 47.206C285.803 47.206 284.923 46.326 284.923 44.346V38.164H281.491V44.852C281.491 48.504 283.581 50.176 286.551 50.176C288.003 50.176 289.323 49.626 290.225 48.592V50H293.481V38.164H290.049Z" fill="#212429"/>
<path d="M299.938 39.726V38.164H296.66V50H300.092V44.412C300.092 42.146 301.346 41.112 303.238 41.112C303.502 41.112 303.722 41.134 304.008 41.156V37.988C302.182 37.988 300.774 38.582 299.938 39.726Z" fill="#212429"/>
<path d="M317.139 37.988C315.247 37.988 313.333 38.494 312.035 39.418L313.267 41.816C314.125 41.134 315.423 40.716 316.677 40.716C318.525 40.716 319.405 41.574 319.405 43.048H316.677C313.069 43.048 311.595 44.5 311.595 46.59C311.595 48.636 313.245 50.176 316.017 50.176C317.755 50.176 318.987 49.604 319.625 48.526V50H322.837V43.246C322.837 39.66 320.747 37.988 317.139 37.988ZM316.875 47.866C315.665 47.866 314.939 47.294 314.939 46.436C314.939 45.644 315.445 45.05 317.051 45.05H319.405V46.26C319.009 47.338 318.019 47.866 316.875 47.866Z" fill="#212429"/>
<path d="M333.137 37.988C331.531 37.988 330.145 38.538 329.221 39.55V38.164H325.943V50H329.375V44.148C329.375 41.97 330.563 40.958 332.213 40.958C333.731 40.958 334.611 41.838 334.611 43.752V50H338.043V43.224C338.043 39.616 335.931 37.988 333.137 37.988Z" fill="#212429"/>
<path d="M345.928 37.988C344.036 37.988 342.122 38.494 340.824 39.418L342.056 41.816C342.914 41.134 344.212 40.716 345.466 40.716C347.314 40.716 348.194 41.574 348.194 43.048H345.466C341.858 43.048 340.384 44.5 340.384 46.59C340.384 48.636 342.034 50.176 344.806 50.176C346.544 50.176 347.776 49.604 348.414 48.526V50H351.626V43.246C351.626 39.66 349.536 37.988 345.928 37.988ZM345.664 47.866C344.454 47.866 343.728 47.294 343.728 46.436C343.728 45.644 344.234 45.05 345.84 45.05H348.194V46.26C347.798 47.338 346.808 47.866 345.664 47.866Z" fill="#212429"/>
<path d="M354.732 50H358.164V33.676H354.732V50Z" fill="#212429"/>
<path d="M369.798 38.164L366.454 46.194L363.132 38.164H359.59L364.716 50.088L364.672 50.198C364.21 51.254 363.682 51.672 362.736 51.672C362.054 51.672 361.328 51.386 360.8 50.924L359.546 53.366C360.316 54.048 361.636 54.444 362.846 54.444C364.98 54.444 366.608 53.586 367.752 50.726L373.098 38.164H369.798Z" fill="#212429"/>
<path d="M381.53 47.008C381.156 47.294 380.65 47.448 380.144 47.448C379.22 47.448 378.67 46.898 378.67 45.886V41.068H381.618V38.428H378.67V35.546H375.238V38.428H373.412V41.068H375.238V45.93C375.238 48.746 376.866 50.176 379.66 50.176C380.716 50.176 381.75 49.934 382.454 49.428L381.53 47.008Z" fill="#212429"/>
<path d="M386.097 36.514C387.373 36.514 388.231 35.678 388.231 34.534C388.231 33.478 387.373 32.686 386.097 32.686C384.821 32.686 383.963 33.522 383.963 34.6C383.963 35.678 384.821 36.514 386.097 36.514ZM384.381 50H387.813V38.164H384.381V50Z" fill="#212429"/>
<path d="M396.718 50.176C399.204 50.176 401.162 49.076 402.02 47.184L399.358 45.732C398.72 46.876 397.774 47.36 396.696 47.36C394.958 47.36 393.594 46.15 393.594 44.082C393.594 42.014 394.958 40.804 396.696 40.804C397.774 40.804 398.72 41.31 399.358 42.432L402.02 41.002C401.162 39.066 399.204 37.988 396.718 37.988C392.868 37.988 390.118 40.518 390.118 44.082C390.118 47.646 392.868 50.176 396.718 50.176Z" fill="#212429"/>
<path d="M407.978 50.176C411.52 50.176 413.566 48.614 413.566 46.414C413.566 41.75 406.416 43.708 406.416 41.684C406.416 41.068 407.076 40.584 408.616 40.584C409.694 40.584 410.86 40.804 412.026 41.464L413.17 39.022C412.048 38.362 410.244 37.988 408.616 37.988C405.162 37.988 403.138 39.572 403.138 41.816C403.138 46.546 410.288 44.566 410.288 46.502C410.288 47.162 409.694 47.58 408.11 47.58C406.658 47.58 405.052 47.118 403.996 46.436L402.852 48.9C403.952 49.626 405.976 50.176 407.978 50.176Z" fill="#212429"/>
<path d="M258.04 79L255.69 84.4L253.36 79H251.95L255.01 86H256.29L259.34 79H258.04Z" fill="#212429"/>
<path d="M260.638 79.78C261.108 79.78 261.438 79.44 261.438 79C261.438 78.59 261.098 78.28 260.638 78.28C260.178 78.28 259.838 78.61 259.838 79.03C259.838 79.45 260.178 79.78 260.638 79.78ZM260.008 86H261.258V80.66H260.008V86Z" fill="#212429"/>
<path d="M267.918 83.36C267.918 81.69 266.778 80.6 265.218 80.6C263.628 80.6 262.458 81.74 262.458 83.33C262.458 84.92 263.618 86.07 265.408 86.07C266.328 86.07 267.078 85.77 267.558 85.2L266.888 84.43C266.508 84.82 266.038 85.01 265.438 85.01C264.508 85.01 263.858 84.51 263.708 83.73H267.898C267.908 83.61 267.918 83.46 267.918 83.36ZM265.218 81.6C266.038 81.6 266.628 82.13 266.728 82.9H263.698C263.818 82.12 264.408 81.6 265.218 81.6Z" fill="#212429"/>
<path d="M276.241 80.66L274.791 84.62L273.351 80.66H272.301L270.831 84.6L269.421 80.66H268.241L270.201 86H271.401L272.801 82.32L274.181 86H275.381L277.351 80.66H276.241Z" fill="#212429"/>
<path d="M279.792 86.07C281.292 86.07 282.212 85.42 282.212 84.42C282.212 82.33 278.912 83.29 278.912 82.21C278.912 81.86 279.272 81.61 280.032 81.61C280.542 81.61 281.052 81.71 281.562 82.01L282.042 81.06C281.562 80.77 280.752 80.6 280.042 80.6C278.602 80.6 277.692 81.26 277.692 82.27C277.692 84.4 280.992 83.44 280.992 84.46C280.992 84.83 280.662 85.05 279.872 85.05C279.202 85.05 278.482 84.83 278.012 84.52L277.532 85.47C278.012 85.81 278.902 86.07 279.792 86.07Z" fill="#212429"/>
<path d="M258.768 103.098C257.454 103.098 256.392 103.476 255.654 104.214C255.744 101.802 257.094 100.56 259.2 100.56C260.046 100.56 260.856 100.722 261.558 101.19L262.638 99.0481C261.756 98.4901 260.46 98.1841 259.128 98.1841C255.33 98.1841 252.702 100.614 252.702 104.97C252.702 109.038 254.862 111.216 258.336 111.216C261 111.216 263.106 109.596 263.106 107.022C263.106 104.646 261.198 103.098 258.768 103.098ZM258.174 109.038C256.77 109.038 255.96 108.246 255.96 107.166C255.96 106.068 256.86 105.276 258.138 105.276C259.434 105.276 260.28 106.014 260.28 107.166C260.28 108.318 259.416 109.038 258.174 109.038Z" fill="#212429"/>
<path d="M269.027 98.4001V102.828H271.619V100.776H275.795L271.277 111H274.445L279.125 100.29V98.4001H269.027Z" fill="#212429"/>
<path d="M284.444 103.134H283.418L283.616 100.74H288.872V98.4001H281.186L280.538 105.492H283.76C286.046 105.492 286.694 106.14 286.694 107.13C286.694 108.156 285.794 108.768 284.336 108.768C283.022 108.768 281.708 108.354 280.754 107.634L279.602 109.866C280.826 110.73 282.662 111.216 284.408 111.216C288.008 111.216 289.646 109.272 289.646 107.04C289.646 104.808 288.17 103.134 284.444 103.134Z" fill="#212429"/>
<path d="M302.367 105.978H300.315V103.62H297.561V105.978H294.177L299.685 98.4001H296.625L290.685 106.392V108.354H297.471V111H300.315V108.354H302.367V105.978Z" fill="#212429"/>
<path d="M310.768 109.12L312.264 107.696C313.04 106.968 313.192 106.472 313.192 105.928C313.192 104.936 312.408 104.32 311.192 104.32C310.272 104.32 309.496 104.664 309.064 105.248L309.792 105.808C310.104 105.408 310.56 105.224 311.104 105.224C311.792 105.224 312.144 105.52 312.144 106.032C312.144 106.344 312.048 106.672 311.504 107.192L309.28 109.304V110H313.408V109.12H310.768Z" fill="#42F574"/>
<path d="M316.392 106.712L317.752 105.096V104.4H313.936V105.272H316.48L315.208 106.784V107.496H315.72C316.568 107.496 316.936 107.824 316.936 108.328C316.936 108.848 316.496 109.176 315.752 109.176C315.12 109.176 314.512 108.96 314.112 108.624L313.664 109.432C314.184 109.84 314.976 110.08 315.768 110.08C317.272 110.08 317.984 109.264 317.984 108.32C317.984 107.48 317.448 106.848 316.392 106.712Z" fill="#42F574"/>
<path d="M319.834 107.416C320.634 107.416 321.178 106.808 321.178 105.88C321.178 104.952 320.634 104.344 319.834 104.344C319.034 104.344 318.498 104.96 318.498 105.88C318.498 106.8 319.034 107.416 319.834 107.416ZM319.37 110H320.154L323.978 104.4H323.194L319.37 110ZM319.834 106.856C319.418 106.856 319.146 106.496 319.146 105.88C319.146 105.264 319.418 104.904 319.834 104.904C320.266 104.904 320.522 105.256 320.522 105.88C320.522 106.504 320.266 106.856 319.834 106.856ZM323.506 110.056C324.306 110.056 324.85 109.44 324.85 108.52C324.85 107.6 324.306 106.984 323.506 106.984C322.706 106.984 322.17 107.6 322.17 108.52C322.17 109.44 322.706 110.056 323.506 110.056ZM323.506 109.496C323.082 109.496 322.818 109.144 322.818 108.52C322.818 107.896 323.082 107.544 323.506 107.544C323.93 107.544 324.194 107.904 324.194 108.52C324.194 109.136 323.93 109.496 323.506 109.496Z" fill="#42F574"/>
<path d="M339.648 111.552H340.6C339.936 110.384 339.656 109.176 339.656 107.808C339.656 106.44 339.936 105.232 340.6 104.064H339.648C339.024 105.016 338.672 106.336 338.672 107.808C338.672 109.28 339.024 110.584 339.648 111.552Z" fill="#B8B8CA"/>
<path d="M343.718 109.056C343.566 109.176 343.366 109.232 343.158 109.232C342.774 109.232 342.566 109.008 342.566 108.592V106.56H343.71V105.76H342.566V104.784H341.566V105.76H340.862V106.56H341.566V108.616C341.566 109.56 342.102 110.056 343.038 110.056C343.398 110.056 343.758 109.96 343.998 109.768L343.718 109.056Z" fill="#B8B8CA"/>
<path d="M347.244 105.68C346.652 105.68 346.148 105.872 345.82 106.224V104.064H344.82V110H345.82V107.84C345.82 106.984 346.3 106.552 347.012 106.552C347.652 106.552 348.028 106.92 348.028 107.68V110H349.028V107.552C349.028 106.264 348.268 105.68 347.244 105.68Z" fill="#B8B8CA"/>
<path d="M351.929 105.68C351.241 105.68 350.577 105.856 350.121 106.208L350.513 106.936C350.833 106.672 351.329 106.512 351.809 106.512C352.521 106.512 352.873 106.856 352.873 107.44V107.504H351.769C350.473 107.504 349.993 108.064 349.993 108.776C349.993 109.52 350.609 110.056 351.585 110.056C352.225 110.056 352.689 109.848 352.929 109.48V110H353.873V107.496C353.873 106.264 353.161 105.68 351.929 105.68ZM351.793 109.328C351.281 109.328 350.977 109.096 350.977 108.736C350.977 108.424 351.161 108.168 351.841 108.168H352.873V108.664C352.705 109.104 352.281 109.328 351.793 109.328Z" fill="#B8B8CA"/>
<path d="M357.58 105.68C356.956 105.68 356.436 105.888 356.108 106.28V105.728H355.156V110H356.156V107.84C356.156 106.984 356.636 106.552 357.348 106.552C357.988 106.552 358.364 106.92 358.364 107.68V110H359.364V107.552C359.364 106.264 358.604 105.68 357.58 105.68Z" fill="#B8B8CA"/>
<path d="M362.844 110H363.844V104.064H362.844V110Z" fill="#B8B8CA"/>
<path d="M366.788 105.68C366.1 105.68 365.436 105.856 364.98 106.208L365.372 106.936C365.692 106.672 366.188 106.512 366.668 106.512C367.38 106.512 367.732 106.856 367.732 107.44V107.504H366.628C365.332 107.504 364.852 108.064 364.852 108.776C364.852 109.52 365.468 110.056 366.444 110.056C367.084 110.056 367.548 109.848 367.788 109.48V110H368.732V107.496C368.732 106.264 368.02 105.68 366.788 105.68ZM366.652 109.328C366.14 109.328 365.836 109.096 365.836 108.736C365.836 108.424 366.02 108.168 366.7 108.168H367.732V108.664C367.564 109.104 367.14 109.328 366.652 109.328Z" fill="#B8B8CA"/>
<path d="M371.336 110.056C372.536 110.056 373.272 109.536 373.272 108.736C373.272 107.064 370.632 107.832 370.632 106.968C370.632 106.688 370.92 106.488 371.528 106.488C371.936 106.488 372.344 106.568 372.752 106.808L373.136 106.048C372.752 105.816 372.104 105.68 371.536 105.68C370.384 105.68 369.656 106.208 369.656 107.016C369.656 108.72 372.296 107.952 372.296 108.768C372.296 109.064 372.032 109.24 371.4 109.24C370.864 109.24 370.288 109.064 369.912 108.816L369.528 109.576C369.912 109.848 370.624 110.056 371.336 110.056Z" fill="#B8B8CA"/>
<path d="M376.421 109.056C376.269 109.176 376.069 109.232 375.861 109.232C375.477 109.232 375.269 109.008 375.269 108.592V106.56H376.413V105.76H375.269V104.784H374.269V105.76H373.565V106.56H374.269V108.616C374.269 109.56 374.805 110.056 375.741 110.056C376.101 110.056 376.461 109.96 376.701 109.768L376.421 109.056Z" fill="#B8B8CA"/>
<path d="M385.51 105.728L384.35 108.896L383.198 105.728H382.358L381.182 108.88L380.054 105.728H379.11L380.678 110H381.638L382.758 107.056L383.862 110H384.822L386.398 105.728H385.51Z" fill="#B8B8CA"/>
<path d="M390.985 107.888C390.985 106.552 390.073 105.68 388.825 105.68C387.553 105.68 386.617 106.592 386.617 107.864C386.617 109.136 387.545 110.056 388.977 110.056C389.713 110.056 390.313 109.816 390.697 109.36L390.161 108.744C389.857 109.056 389.481 109.208 389.001 109.208C388.257 109.208 387.737 108.808 387.617 108.184H390.969C390.977 108.088 390.985 107.968 390.985 107.888ZM388.825 106.48C389.481 106.48 389.953 106.904 390.033 107.52H387.609C387.705 106.896 388.177 106.48 388.825 106.48Z" fill="#B8B8CA"/>
<path d="M395.961 107.888C395.961 106.552 395.049 105.68 393.801 105.68C392.529 105.68 391.593 106.592 391.593 107.864C391.593 109.136 392.521 110.056 393.953 110.056C394.689 110.056 395.289 109.816 395.673 109.36L395.137 108.744C394.833 109.056 394.457 109.208 393.977 109.208C393.233 109.208 392.713 108.808 392.593 108.184H395.945C395.953 108.088 395.961 107.968 395.961 107.888ZM393.801 106.48C394.457 106.48 394.929 106.904 395.009 107.52H392.585C392.681 106.896 393.153 106.48 393.801 106.48Z" fill="#B8B8CA"/>
<path d="M400.146 110H401.362L399.41 107.52L401.194 105.728H399.994L397.922 107.648V104.064H396.922V110H397.922V108.872L398.666 108.168L400.146 110Z" fill="#B8B8CA"/>
<path d="M402.48 111.552C403.112 110.584 403.456 109.28 403.456 107.808C403.456 106.336 403.112 105.016 402.48 104.064H401.528C402.192 105.232 402.48 106.44 402.48 107.808C402.48 109.176 402.192 110.384 401.528 111.552H402.48Z" fill="#B8B8CA"/>
<path d="M332.999 106.455C332.998 106.402 332.987 106.35 332.965 106.302C332.943 106.253 332.912 106.21 332.873 106.174L330.802 104.125C330.722 104.046 330.614 104.001 330.501 104C330.388 104.001 330.28 104.046 330.201 104.125L328.13 106.168C328.09 106.205 328.058 106.249 328.036 106.298C328.013 106.348 328.001 106.401 328 106.455C327.998 106.506 328.006 106.557 328.025 106.605C328.043 106.653 328.071 106.697 328.107 106.734C328.143 106.771 328.187 106.8 328.235 106.82C328.283 106.84 328.335 106.849 328.387 106.849C328.441 106.848 328.495 106.837 328.545 106.816C328.595 106.796 328.64 106.765 328.678 106.727L329.398 106.016L330.134 105.228L330.096 105.93L330.096 109.588C330.093 109.642 330.1 109.696 330.119 109.747C330.138 109.798 330.167 109.844 330.206 109.883C330.244 109.922 330.29 109.952 330.341 109.972C330.392 109.993 330.446 110.002 330.501 110C330.556 110.002 330.611 109.993 330.662 109.972C330.713 109.952 330.759 109.922 330.797 109.883C330.836 109.844 330.865 109.798 330.884 109.747C330.903 109.696 330.91 109.642 330.907 109.588L330.907 105.93L330.866 105.228L331.602 106.018L332.323 106.729C332.361 106.767 332.406 106.797 332.456 106.818C332.506 106.839 332.56 106.85 332.614 106.85C332.666 106.851 332.718 106.842 332.766 106.822C332.815 106.802 332.858 106.773 332.894 106.736C332.93 106.698 332.958 106.654 332.976 106.606C332.995 106.558 333.002 106.506 332.999 106.455Z" fill="#B8B8CA"/>
<path d="M58.248 325H60.696C62.512 325 63.752 323.88 63.752 322.2C63.752 320.52 62.512 319.4 60.696 319.4H58.248V325ZM59.288 324.12V320.28H60.648C61.896 320.28 62.704 321.04 62.704 322.2C62.704 323.36 61.896 324.12 60.648 324.12H59.288Z" fill="#212429"/>
<path d="M68.7774 322.888C68.7774 321.552 67.8654 320.68 66.6174 320.68C65.3454 320.68 64.4094 321.592 64.4094 322.864C64.4094 324.136 65.3374 325.056 66.7694 325.056C67.5054 325.056 68.1054 324.816 68.4894 324.36L67.9534 323.744C67.6494 324.056 67.2734 324.208 66.7934 324.208C66.0494 324.208 65.5294 323.808 65.4094 323.184H68.7614C68.7694 323.088 68.7774 322.968 68.7774 322.888ZM66.6174 321.48C67.2734 321.48 67.7454 321.904 67.8254 322.52H65.4014C65.4974 321.896 65.9694 321.48 66.6174 321.48Z" fill="#212429"/>
<path d="M72.6999 320.728L71.3319 323.896L70.0039 320.728H68.9639L70.7959 325H71.8279L73.6599 320.728H72.6999Z" fill="#212429"/>
<path d="M74.7889 320.024C75.1649 320.024 75.4289 319.752 75.4289 319.4C75.4289 319.072 75.1569 318.824 74.7889 318.824C74.4209 318.824 74.1489 319.088 74.1489 319.424C74.1489 319.76 74.4209 320.024 74.7889 320.024ZM74.2849 325H75.2849V320.728H74.2849V325Z" fill="#212429"/>
<path d="M78.5574 325.056C79.3894 325.056 80.0534 324.696 80.3814 324.056L79.6134 323.608C79.3574 324.016 78.9734 324.2 78.5494 324.2C77.8134 324.2 77.2534 323.696 77.2534 322.864C77.2534 322.04 77.8134 321.528 78.5494 321.528C78.9734 321.528 79.3574 321.712 79.6134 322.12L80.3814 321.672C80.0534 321.024 79.3894 320.68 78.5574 320.68C77.2054 320.68 76.2454 321.584 76.2454 322.864C76.2454 324.144 77.2054 325.056 78.5574 325.056Z" fill="#212429"/>
<path d="M85.1993 322.888C85.1993 321.552 84.2873 320.68 83.0393 320.68C81.7673 320.68 80.8313 321.592 80.8313 322.864C80.8313 324.136 81.7593 325.056 83.1913 325.056C83.9273 325.056 84.5273 324.816 84.9113 324.36L84.3753 323.744C84.0713 324.056 83.6953 324.208 83.2153 324.208C82.4713 324.208 81.9513 323.808 81.8313 323.184H85.1833C85.1913 323.088 85.1993 322.968 85.1993 322.888ZM83.0393 321.48C83.6953 321.48 84.1673 321.904 84.2473 322.52H81.8233C81.9193 321.896 82.3913 321.48 83.0393 321.48Z" fill="#212429"/>
<path d="M171.142 322.088C171.574 321.856 171.862 321.432 171.862 320.856C171.862 319.968 171.142 319.4 169.798 319.4H167.174V325H169.958C171.398 325 172.15 324.44 172.15 323.48C172.15 322.752 171.742 322.28 171.142 322.088ZM169.686 320.216C170.406 320.216 170.814 320.472 170.814 320.992C170.814 321.504 170.406 321.76 169.686 321.76H168.214V320.216H169.686ZM169.894 324.184H168.214V322.568H169.894C170.678 322.568 171.102 322.816 171.102 323.376C171.102 323.936 170.678 324.184 169.894 324.184Z" fill="#212429"/>
<path d="M174.116 321.352V320.728H173.164V325H174.164V322.928C174.164 322.056 174.644 321.608 175.404 321.608C175.476 321.608 175.548 321.616 175.636 321.632V320.68C174.924 320.68 174.404 320.904 174.116 321.352Z" fill="#212429"/>
<path d="M178.365 325.056C179.693 325.056 180.645 324.144 180.645 322.864C180.645 321.584 179.693 320.68 178.365 320.68C177.053 320.68 176.093 321.584 176.093 322.864C176.093 324.144 177.053 325.056 178.365 325.056ZM178.365 324.2C177.645 324.2 177.101 323.68 177.101 322.864C177.101 322.048 177.645 321.528 178.365 321.528C179.093 321.528 179.637 322.048 179.637 322.864C179.637 323.68 179.093 324.2 178.365 324.2Z" fill="#212429"/>
<path d="M187.26 320.728L186.1 323.896L184.948 320.728H184.108L182.932 323.88L181.804 320.728H180.86L182.428 325H183.388L184.508 322.056L185.612 325H186.572L188.148 320.728H187.26Z" fill="#212429"/>
<path d="M190.101 325.056C191.301 325.056 192.037 324.536 192.037 323.736C192.037 322.064 189.397 322.832 189.397 321.968C189.397 321.688 189.685 321.488 190.293 321.488C190.701 321.488 191.109 321.568 191.517 321.808L191.901 321.048C191.517 320.816 190.869 320.68 190.301 320.68C189.149 320.68 188.421 321.208 188.421 322.016C188.421 323.72 191.061 322.952 191.061 323.768C191.061 324.064 190.797 324.24 190.165 324.24C189.629 324.24 189.053 324.064 188.677 323.816L188.293 324.576C188.677 324.848 189.389 325.056 190.101 325.056Z" fill="#212429"/>
<path d="M196.914 322.888C196.914 321.552 196.002 320.68 194.754 320.68C193.482 320.68 192.546 321.592 192.546 322.864C192.546 324.136 193.474 325.056 194.906 325.056C195.642 325.056 196.242 324.816 196.626 324.36L196.09 323.744C195.786 324.056 195.41 324.208 194.93 324.208C194.186 324.208 193.666 323.808 193.546 323.184H196.898C196.906 323.088 196.914 322.968 196.914 322.888ZM194.754 321.48C195.41 321.48 195.882 321.904 195.962 322.52H193.538C193.634 321.896 194.106 321.48 194.754 321.48Z" fill="#212429"/>
<path d="M198.827 321.352V320.728H197.875V325H198.875V322.928C198.875 322.056 199.355 321.608 200.115 321.608C200.187 321.608 200.259 321.616 200.347 321.632V320.68C199.635 320.68 199.115 320.904 198.827 321.352Z" fill="#212429"/>
<path d="M284.743 325L283.455 323.16C284.215 322.864 284.647 322.24 284.647 321.392C284.647 320.152 283.735 319.4 282.263 319.4H279.959V325H280.999V323.368H282.263C282.335 323.368 282.407 323.368 282.479 323.36L283.623 325H284.743ZM283.599 321.392C283.599 322.096 283.127 322.512 282.215 322.512H280.999V320.28H282.215C283.127 320.28 283.599 320.688 283.599 321.392Z" fill="#212429"/>
<path d="M289.731 322.888C289.731 321.552 288.819 320.68 287.571 320.68C286.299 320.68 285.363 321.592 285.363 322.864C285.363 324.136 286.291 325.056 287.723 325.056C288.459 325.056 289.059 324.816 289.443 324.36L288.907 323.744C288.603 324.056 288.227 324.208 287.747 324.208C287.003 324.208 286.483 323.808 286.363 323.184H289.715C289.723 323.088 289.731 322.968 289.731 322.888ZM287.571 321.48C288.227 321.48 288.699 321.904 288.779 322.52H286.355C286.451 321.896 286.923 321.48 287.571 321.48Z" fill="#212429"/>
<path d="M292.427 319.816C292.635 319.816 292.827 319.888 292.979 319.992L293.259 319.24C293.035 319.08 292.699 319.008 292.355 319.008C291.363 319.008 290.827 319.592 290.827 320.488V320.76H290.123V321.56H290.827V325H291.827V321.56H292.971V320.76H291.795V320.504C291.795 320.048 292.011 319.816 292.427 319.816Z" fill="#212429"/>
<path d="M297.598 322.888C297.598 321.552 296.686 320.68 295.438 320.68C294.166 320.68 293.23 321.592 293.23 322.864C293.23 324.136 294.158 325.056 295.59 325.056C296.326 325.056 296.926 324.816 297.31 324.36L296.774 323.744C296.47 324.056 296.094 324.208 295.614 324.208C294.87 324.208 294.35 323.808 294.23 323.184H297.582C297.59 323.088 297.598 322.968 297.598 322.888ZM295.438 321.48C296.094 321.48 296.566 321.904 296.646 322.52H294.222C294.318 321.896 294.79 321.48 295.438 321.48Z" fill="#212429"/>
<path d="M299.51 321.352V320.728H298.558V325H299.558V322.928C299.558 322.056 300.038 321.608 300.798 321.608C300.87 321.608 300.942 321.616 301.03 321.632V320.68C300.318 320.68 299.798 320.904 299.51 321.352Z" fill="#212429"/>
<path d="M302.831 321.352V320.728H301.879V325H302.879V322.928C302.879 322.056 303.359 321.608 304.119 321.608C304.191 321.608 304.263 321.616 304.351 321.632V320.68C303.639 320.68 303.119 320.904 302.831 321.352Z" fill="#212429"/>
<path d="M309.176 322.888C309.176 321.552 308.264 320.68 307.016 320.68C305.744 320.68 304.808 321.592 304.808 322.864C304.808 324.136 305.736 325.056 307.168 325.056C307.904 325.056 308.504 324.816 308.888 324.36L308.352 323.744C308.048 324.056 307.672 324.208 307.192 324.208C306.448 324.208 305.928 323.808 305.808 323.184H309.16C309.168 323.088 309.176 322.968 309.176 322.888ZM307.016 321.48C307.672 321.48 308.144 321.904 308.224 322.52H305.8C305.896 321.896 306.368 321.48 307.016 321.48Z" fill="#212429"/>
<path d="M310.136 325H311.136V319.064H310.136V325Z" fill="#212429"/>
<path d="M254.24 141.91V139.98H257.62V138.91H254.24V137.09H258.05V136H252.94V143H258.19V141.91H254.24Z" fill="#212429"/>
<path d="M261.51 137.6C260.65 137.6 259.82 137.82 259.25 138.26L259.74 139.17C260.14 138.84 260.76 138.64 261.36 138.64C262.25 138.64 262.69 139.07 262.69 139.8V139.88H261.31C259.69 139.88 259.09 140.58 259.09 141.47C259.09 142.4 259.86 143.07 261.08 143.07C261.88 143.07 262.46 142.81 262.76 142.35V143H263.94V139.87C263.94 138.33 263.05 137.6 261.51 137.6ZM261.34 142.16C260.7 142.16 260.32 141.87 260.32 141.42C260.32 141.03 260.55 140.71 261.4 140.71H262.69V141.33C262.48 141.88 261.95 142.16 261.34 142.16Z" fill="#212429"/>
<path d="M266.735 138.44V137.66H265.545V143H266.795V140.41C266.795 139.32 267.395 138.76 268.345 138.76C268.435 138.76 268.525 138.77 268.635 138.79V137.6C267.745 137.6 267.095 137.88 266.735 138.44Z" fill="#212429"/>
<path d="M272.725 137.6C271.945 137.6 271.295 137.86 270.885 138.35V137.66H269.695V143H270.945V140.3C270.945 139.23 271.545 138.69 272.435 138.69C273.235 138.69 273.705 139.15 273.705 140.1V143H274.955V139.94C274.955 138.33 274.005 137.6 272.725 137.6Z" fill="#212429"/>
<path d="M277.171 136.78C277.641 136.78 277.971 136.44 277.971 136C277.971 135.59 277.631 135.28 277.171 135.28C276.711 135.28 276.371 135.61 276.371 136.03C276.371 136.45 276.711 136.78 277.171 136.78ZM276.541 143H277.791V137.66H276.541V143Z" fill="#212429"/>
<path d="M282.461 137.6C281.681 137.6 281.031 137.86 280.621 138.35V137.66H279.431V143H280.681V140.3C280.681 139.23 281.281 138.69 282.171 138.69C282.971 138.69 283.441 139.15 283.441 140.1V143H284.691V139.94C284.691 138.33 283.741 137.6 282.461 137.6Z" fill="#212429"/>
<path d="M290.436 137.66V138.37C289.996 137.84 289.336 137.6 288.586 137.6C287.056 137.6 285.886 138.62 285.886 140.17C285.886 141.72 287.056 142.76 288.586 142.76C289.306 142.76 289.936 142.53 290.376 142.05V142.33C290.376 143.41 289.856 143.95 288.676 143.95C287.936 143.95 287.176 143.7 286.706 143.31L286.146 144.25C286.756 144.75 287.746 145.01 288.746 145.01C290.616 145.01 291.626 144.13 291.626 142.19V137.66H290.436ZM288.776 141.7C287.826 141.7 287.146 141.08 287.146 140.17C287.146 139.27 287.826 138.66 288.776 138.66C289.716 138.66 290.396 139.27 290.396 140.17C290.396 141.08 289.716 141.7 288.776 141.7Z" fill="#212429"/>
<path d="M294.919 143.07C296.419 143.07 297.339 142.42 297.339 141.42C297.339 139.33 294.039 140.29 294.039 139.21C294.039 138.86 294.399 138.61 295.159 138.61C295.669 138.61 296.179 138.71 296.689 139.01L297.169 138.06C296.689 137.77 295.879 137.6 295.169 137.6C293.729 137.6 292.819 138.26 292.819 139.27C292.819 141.4 296.119 140.44 296.119 141.46C296.119 141.83 295.789 142.05 294.999 142.05C294.329 142.05 293.609 141.83 293.139 141.52L292.659 142.47C293.139 142.81 294.029 143.07 294.919 143.07Z" fill="#212429"/>
<path d="M262.98 164.31C262.98 161.772 260.784 161.106 258.786 160.638V157.578C259.686 157.686 260.622 157.992 261.54 158.514L262.44 156.3C261.45 155.67 260.136 155.31 258.786 155.202V153.24H256.986V155.238C254.142 155.562 252.756 157.2 252.756 159.108C252.756 161.682 254.988 162.348 256.986 162.834V165.84C255.69 165.714 254.394 165.228 253.494 164.562L252.504 166.758C253.494 167.532 255.204 168.09 256.986 168.198V170.16H258.786V168.144C261.612 167.802 262.98 166.182 262.98 164.31ZM255.654 158.964C255.654 158.37 256.032 157.848 256.986 157.632V160.188C256.194 159.936 255.654 159.594 255.654 158.964ZM258.786 165.768V163.284C259.56 163.554 260.082 163.896 260.082 164.526C260.082 165.102 259.686 165.57 258.786 165.768Z" fill="#212429"/>
<path d="M273.274 165.624L276.172 162.888C277.936 161.25 278.278 160.134 278.278 158.91C278.278 156.624 276.406 155.184 273.598 155.184C271.33 155.184 269.566 156.102 268.594 157.524L270.718 158.892C271.33 158.046 272.248 157.632 273.328 157.632C274.66 157.632 275.344 158.208 275.344 159.198C275.344 159.81 275.146 160.458 274.03 161.52L269.17 166.11V168H278.692V165.624H273.274Z" fill="#212429"/>
<path d="M291.059 160.098C289.745 160.098 288.683 160.476 287.945 161.214C288.035 158.802 289.385 157.56 291.491 157.56C292.337 157.56 293.147 157.722 293.849 158.19L294.929 156.048C294.047 155.49 292.751 155.184 291.419 155.184C287.621 155.184 284.993 157.614 284.993 161.97C284.993 166.038 287.153 168.216 290.627 168.216C293.291 168.216 295.397 166.596 295.397 164.022C295.397 161.646 293.489 160.098 291.059 160.098ZM290.465 166.038C289.061 166.038 288.251 165.246 288.251 164.166C288.251 163.068 289.151 162.276 290.429 162.276C291.725 162.276 292.571 163.014 292.571 164.166C292.571 165.318 291.707 166.038 290.465 166.038Z" fill="#212429"/>
<path d="M296.15 155.4V159.828H298.742V157.776H302.918L298.4 168H301.568L306.248 157.29V155.4H296.15Z" fill="#212429"/>
<path d="M315.869 161.376C316.805 160.8 317.345 159.918 317.345 158.784C317.345 156.57 315.365 155.184 312.467 155.184C309.605 155.184 307.625 156.57 307.625 158.784C307.625 159.918 308.147 160.8 309.083 161.376C307.877 161.988 307.175 162.996 307.175 164.346C307.175 166.722 309.281 168.216 312.467 168.216C315.671 168.216 317.795 166.722 317.795 164.346C317.795 162.996 317.093 161.988 315.869 161.376ZM312.467 157.326C313.655 157.326 314.447 157.92 314.447 158.91C314.447 159.864 313.673 160.458 312.467 160.458C311.279 160.458 310.523 159.864 310.523 158.91C310.523 157.92 311.297 157.326 312.467 157.326ZM312.467 166.074C311.027 166.074 310.127 165.372 310.127 164.256C310.127 163.14 311.027 162.456 312.467 162.456C313.925 162.456 314.843 163.14 314.843 164.256C314.843 165.372 313.925 166.074 312.467 166.074Z" fill="#212429"/>
<path d="M320.979 164.652C319.989 164.652 319.233 165.336 319.233 166.38C319.233 167.118 319.611 167.676 320.205 167.91L319.413 170.772H321.195L322.221 168.18C322.635 167.19 322.707 166.848 322.707 166.38C322.707 165.354 321.987 164.652 320.979 164.652Z" fill="#212429"/>
<path d="M328.188 165.624L331.086 162.888C332.85 161.25 333.192 160.134 333.192 158.91C333.192 156.624 331.32 155.184 328.512 155.184C326.244 155.184 324.48 156.102 323.508 157.524L325.632 158.892C326.244 158.046 327.162 157.632 328.242 157.632C329.574 157.632 330.258 158.208 330.258 159.198C330.258 159.81 330.06 160.458 328.944 161.52L324.084 166.11V168H333.606V165.624H328.188Z" fill="#212429"/>
<path d="M339.129 160.134H338.103L338.301 157.74H343.557V155.4H335.871L335.223 162.492H338.445C340.731 162.492 341.379 163.14 341.379 164.13C341.379 165.156 340.479 165.768 339.021 165.768C337.707 165.768 336.393 165.354 335.439 164.634L334.287 166.866C335.511 167.73 337.347 168.216 339.093 168.216C342.693 168.216 344.331 166.272 344.331 164.04C344.331 161.808 342.855 160.134 339.129 160.134Z" fill="#212429"/>
<path d="M351.064 161.4V162.272H352.248V167H353.288V161.4H351.064Z" fill="#42F574"/>
<path d="M355.815 166.12L357.311 164.696C358.087 163.968 358.239 163.472 358.239 162.928C358.239 161.936 357.455 161.32 356.239 161.32C355.319 161.32 354.543 161.664 354.111 162.248L354.839 162.808C355.151 162.408 355.607 162.224 356.151 162.224C356.839 162.224 357.191 162.52 357.191 163.032C357.191 163.344 357.095 163.672 356.551 164.192L354.327 166.304V167H358.455V166.12H355.815Z" fill="#42F574"/>
<path d="M360.381 164.416C361.181 164.416 361.725 163.808 361.725 162.88C361.725 161.952 361.181 161.344 360.381 161.344C359.581 161.344 359.045 161.96 359.045 162.88C359.045 163.8 359.581 164.416 360.381 164.416ZM359.917 167H360.701L364.525 161.4H363.741L359.917 167ZM360.381 163.856C359.965 163.856 359.693 163.496 359.693 162.88C359.693 162.264 359.965 161.904 360.381 161.904C360.813 161.904 361.069 162.256 361.069 162.88C361.069 163.504 360.813 163.856 360.381 163.856ZM364.053 167.056C364.853 167.056 365.397 166.44 365.397 165.52C365.397 164.6 364.853 163.984 364.053 163.984C363.253 163.984 362.717 164.6 362.717 165.52C362.717 166.44 363.253 167.056 364.053 167.056ZM364.053 166.496C363.629 166.496 363.365 166.144 363.365 165.52C363.365 164.896 363.629 164.544 364.053 164.544C364.477 164.544 364.741 164.904 364.741 165.52C364.741 166.136 364.477 166.496 364.053 166.496Z" fill="#42F574"/>
<path d="M379.648 168.552H380.6C379.936 167.384 379.656 166.176 379.656 164.808C379.656 163.44 379.936 162.232 380.6 161.064H379.648C379.024 162.016 378.672 163.336 378.672 164.808C378.672 166.28 379.024 167.584 379.648 168.552Z" fill="#B8B8CA"/>
<path d="M383.717 166.056C383.565 166.176 383.365 166.232 383.157 166.232C382.773 166.232 382.565 166.008 382.565 165.592V163.56H383.709V162.76H382.565V161.784H381.565V162.76H380.861V163.56H381.565V165.616C381.565 166.56 382.101 167.056 383.037 167.056C383.397 167.056 383.757 166.96 383.997 166.768L383.717 166.056Z" fill="#B8B8CA"/>
<path d="M387.244 162.68C386.652 162.68 386.148 162.872 385.82 163.224V161.064H384.82V167H385.82V164.84C385.82 163.984 386.3 163.552 387.012 163.552C387.652 163.552 388.028 163.92 388.028 164.68V167H389.028V164.552C389.028 163.264 388.268 162.68 387.244 162.68Z" fill="#B8B8CA"/>
<path d="M391.929 162.68C391.241 162.68 390.576 162.856 390.12 163.208L390.512 163.936C390.832 163.672 391.328 163.512 391.809 163.512C392.521 163.512 392.873 163.856 392.873 164.44V164.504H391.769C390.472 164.504 389.993 165.064 389.993 165.776C389.993 166.52 390.609 167.056 391.585 167.056C392.225 167.056 392.689 166.848 392.929 166.48V167H393.873V164.496C393.873 163.264 393.161 162.68 391.929 162.68ZM391.793 166.328C391.281 166.328 390.977 166.096 390.977 165.736C390.977 165.424 391.16 165.168 391.84 165.168H392.873V165.664C392.705 166.104 392.281 166.328 391.793 166.328Z" fill="#B8B8CA"/>
<path d="M397.58 162.68C396.956 162.68 396.436 162.888 396.108 163.28V162.728H395.156V167H396.156V164.84C396.156 163.984 396.636 163.552 397.348 163.552C397.988 163.552 398.364 163.92 398.364 164.68V167H399.364V164.552C399.364 163.264 398.604 162.68 397.58 162.68Z" fill="#B8B8CA"/>
<path d="M402.843 167H403.843V161.064H402.843V167Z" fill="#B8B8CA"/>
<path d="M406.788 162.68C406.1 162.68 405.436 162.856 404.98 163.208L405.372 163.936C405.692 163.672 406.188 163.512 406.668 163.512C407.38 163.512 407.732 163.856 407.732 164.44V164.504H406.628C405.332 164.504 404.852 165.064 404.852 165.776C404.852 166.52 405.468 167.056 406.444 167.056C407.084 167.056 407.548 166.848 407.788 166.48V167H408.732V164.496C408.732 163.264 408.02 162.68 406.788 162.68ZM406.652 166.328C406.14 166.328 405.836 166.096 405.836 165.736C405.836 165.424 406.02 165.168 406.7 165.168H407.732V165.664C407.564 166.104 407.14 166.328 406.652 166.328Z" fill="#B8B8CA"/>
<path d="M411.335 167.056C412.535 167.056 413.271 166.536 413.271 165.736C413.271 164.064 410.631 164.832 410.631 163.968C410.631 163.688 410.919 163.488 411.527 163.488C411.935 163.488 412.343 163.568 412.751 163.808L413.135 163.048C412.751 162.816 412.103 162.68 411.535 162.68C410.383 162.68 409.655 163.208 409.655 164.016C409.655 165.72 412.295 164.952 412.295 165.768C412.295 166.064 412.031 166.24 411.399 166.24C410.863 166.24 410.287 166.064 409.911 165.816L409.527 166.576C409.911 166.848 410.623 167.056 411.335 167.056Z" fill="#B8B8CA"/>
<path d="M416.42 166.056C416.268 166.176 416.068 166.232 415.86 166.232C415.476 166.232 415.268 166.008 415.268 165.592V163.56H416.412V162.76H415.268V161.784H414.268V162.76H413.564V163.56H414.268V165.616C414.268 166.56 414.804 167.056 415.74 167.056C416.1 167.056 416.46 166.96 416.7 166.768L416.42 166.056Z" fill="#B8B8CA"/>
<path d="M425.51 162.728L424.35 165.896L423.198 162.728H422.358L421.182 165.88L420.054 162.728H419.11L420.678 167H421.638L422.758 164.056L423.862 167H424.822L426.398 162.728H425.51Z" fill="#B8B8CA"/>
<path d="M430.984 164.888C430.984 163.552 430.072 162.68 428.824 162.68C427.552 162.68 426.616 163.592 426.616 164.864C426.616 166.136 427.544 167.056 428.976 167.056C429.712 167.056 430.312 166.816 430.696 166.36L430.16 165.744C429.856 166.056 429.48 166.208 429 166.208C428.256 166.208 427.736 165.808 427.616 165.184H430.968C430.976 165.088 430.984 164.968 430.984 164.888ZM428.824 163.48C429.48 163.48 429.952 163.904 430.032 164.52H427.608C427.704 163.896 428.176 163.48 428.824 163.48Z" fill="#B8B8CA"/>
<path d="M435.961 164.888C435.961 163.552 435.049 162.68 433.801 162.68C432.529 162.68 431.593 163.592 431.593 164.864C431.593 166.136 432.521 167.056 433.953 167.056C434.689 167.056 435.289 166.816 435.673 166.36L435.137 165.744C434.833 166.056 434.457 166.208 433.977 166.208C433.233 166.208 432.713 165.808 432.593 165.184H435.945C435.953 165.088 435.961 164.968 435.961 164.888ZM433.801 163.48C434.457 163.48 434.929 163.904 435.009 164.52H432.585C432.681 163.896 433.153 163.48 433.801 163.48Z" fill="#B8B8CA"/>
<path d="M440.146 167H441.361L439.41 164.52L441.194 162.728H439.993L437.921 164.648V161.064H436.921V167H437.921V165.872L438.666 165.168L440.146 167Z" fill="#B8B8CA"/>
<path d="M442.479 168.552C443.111 167.584 443.455 166.28 443.455 164.808C443.455 163.336 443.111 162.016 442.479 161.064H441.527C442.191 162.232 442.479 163.44 442.479 164.808C442.479 166.176 442.191 167.384 441.527 168.552H442.479Z" fill="#B8B8CA"/>
<path d="M372.999 163.455C372.998 163.402 372.987 163.35 372.965 163.302C372.943 163.253 372.912 163.21 372.873 163.174L370.802 161.125C370.722 161.046 370.614 161.001 370.501 161C370.388 161.001 370.28 161.046 370.201 161.125L368.13 163.168C368.09 163.205 368.058 163.249 368.036 163.298C368.013 163.348 368.001 163.401 368 163.455C367.998 163.506 368.006 163.557 368.025 163.605C368.043 163.653 368.071 163.697 368.107 163.734C368.143 163.771 368.187 163.8 368.235 163.82C368.283 163.84 368.335 163.849 368.387 163.849C368.441 163.848 368.495 163.837 368.545 163.816C368.595 163.796 368.64 163.765 368.678 163.727L369.398 163.016L370.134 162.228L370.096 162.93L370.096 166.588C370.093 166.642 370.1 166.696 370.119 166.747C370.138 166.798 370.167 166.844 370.206 166.883C370.244 166.922 370.29 166.952 370.341 166.972C370.392 166.993 370.446 167.002 370.501 167C370.556 167.002 370.611 166.993 370.662 166.972C370.713 166.952 370.759 166.922 370.797 166.883C370.836 166.844 370.865 166.798 370.884 166.747C370.903 166.696 370.91 166.642 370.907 166.588L370.907 162.93L370.866 162.228L371.602 163.018L372.323 163.729C372.361 163.767 372.406 163.797 372.456 163.818C372.506 163.839 372.56 163.85 372.614 163.85C372.666 163.851 372.718 163.842 372.766 163.822C372.815 163.802 372.858 163.773 372.894 163.736C372.93 163.698 372.958 163.654 372.976 163.606C372.995 163.558 373.002 163.506 372.999 163.455Z" fill="#B8B8CA"/>
</svg>
