<svg width="337" height="224" viewBox="0 0 337 224" fill="none" xmlns="http://www.w3.org/2000/svg">
<g filter="url(#filter0_d)">
<path d="M25 29C25 22.3726 30.3726 17 37 17H300C306.627 17 312 22.3726 312 29V179C312 185.627 306.627 191 300 191H37C30.3726 191 25 185.627 25 179V29Z" fill="white"/>
</g>
<g filter="url(#filter1_d)">
<path d="M45 152C45 149.791 46.7909 148 49 148H289C291.209 148 293 149.791 293 152V172C293 174.209 291.209 176 289 176H49C46.7909 176 45 174.209 45 172V152Z" fill="#9C42F5"/>
</g>
<path d="M55.9799 61.31C55.9799 58.772 53.7839 58.106 51.7859 57.638V54.578C52.6859 54.686 53.6219 54.992 54.5399 55.514L55.4399 53.3C54.4499 52.67 53.1359 52.31 51.7859 52.202V50.24H49.9859V52.238C47.1419 52.562 45.7559 54.2 45.7559 56.108C45.7559 58.682 47.9879 59.348 49.9859 59.834V62.84C48.6899 62.714 47.3939 62.228 46.4939 61.562L45.5039 63.758C46.4939 64.532 48.2039 65.09 49.9859 65.198V67.16H51.7859V65.144C54.6119 64.802 55.9799 63.182 55.9799 61.31ZM48.6539 55.964C48.6539 55.37 49.0319 54.848 49.9859 54.632V57.188C49.1939 56.936 48.6539 56.594 48.6539 55.964ZM51.7859 62.768V60.284C52.5599 60.554 53.0819 60.896 53.0819 61.526C53.0819 62.102 52.6859 62.57 51.7859 62.768Z" fill="#212429"/>
<path d="M66.2741 62.624L69.1721 59.888C70.9361 58.25 71.2781 57.134 71.2781 55.91C71.2781 53.624 69.4061 52.184 66.5981 52.184C64.3301 52.184 62.5661 53.102 61.5941 54.524L63.7181 55.892C64.3301 55.046 65.2481 54.632 66.3281 54.632C67.6601 54.632 68.3441 55.208 68.3441 56.198C68.3441 56.81 68.1461 57.458 67.0301 58.52L62.1701 63.11V65H71.6921V62.624H66.2741Z" fill="#212429"/>
<path d="M84.0589 57.098C82.7449 57.098 81.6829 57.476 80.9449 58.214C81.0349 55.802 82.3849 54.56 84.4909 54.56C85.3369 54.56 86.1469 54.722 86.8489 55.19L87.9289 53.048C87.0469 52.49 85.7509 52.184 84.4189 52.184C80.6209 52.184 77.9929 54.614 77.9929 58.97C77.9929 63.038 80.1529 65.216 83.6269 65.216C86.2909 65.216 88.3969 63.596 88.3969 61.022C88.3969 58.646 86.4889 57.098 84.0589 57.098ZM83.4649 63.038C82.0609 63.038 81.2509 62.246 81.2509 61.166C81.2509 60.068 82.1509 59.276 83.4289 59.276C84.7249 59.276 85.5709 60.014 85.5709 61.166C85.5709 62.318 84.7069 63.038 83.4649 63.038Z" fill="#212429"/>
<path d="M89.1495 52.4V56.828H91.7415V54.776H95.9175L91.3995 65H94.5675L99.2475 54.29V52.4H89.1495Z" fill="#212429"/>
<path d="M108.869 58.376C109.805 57.8 110.345 56.918 110.345 55.784C110.345 53.57 108.365 52.184 105.467 52.184C102.605 52.184 100.625 53.57 100.625 55.784C100.625 56.918 101.147 57.8 102.083 58.376C100.877 58.988 100.175 59.996 100.175 61.346C100.175 63.722 102.281 65.216 105.467 65.216C108.671 65.216 110.795 63.722 110.795 61.346C110.795 59.996 110.093 58.988 108.869 58.376ZM105.467 54.326C106.655 54.326 107.447 54.92 107.447 55.91C107.447 56.864 106.673 57.458 105.467 57.458C104.279 57.458 103.523 56.864 103.523 55.91C103.523 54.92 104.297 54.326 105.467 54.326ZM105.467 63.074C104.027 63.074 103.127 62.372 103.127 61.256C103.127 60.14 104.027 59.456 105.467 59.456C106.925 59.456 107.843 60.14 107.843 61.256C107.843 62.372 106.925 63.074 105.467 63.074Z" fill="#212429"/>
<path d="M113.979 61.652C112.989 61.652 112.233 62.336 112.233 63.38C112.233 64.118 112.611 64.676 113.205 64.91L112.413 67.772H114.195L115.221 65.18C115.635 64.19 115.707 63.848 115.707 63.38C115.707 62.354 114.987 61.652 113.979 61.652Z" fill="#212429"/>
<path d="M121.188 62.624L124.086 59.888C125.85 58.25 126.192 57.134 126.192 55.91C126.192 53.624 124.32 52.184 121.512 52.184C119.244 52.184 117.48 53.102 116.508 54.524L118.632 55.892C119.244 55.046 120.162 54.632 121.242 54.632C122.574 54.632 123.258 55.208 123.258 56.198C123.258 56.81 123.06 57.458 121.944 58.52L117.084 63.11V65H126.606V62.624H121.188Z" fill="#212429"/>
<path d="M132.129 57.134H131.103L131.301 54.74H136.557V52.4H128.871L128.223 59.492H131.445C133.731 59.492 134.379 60.14 134.379 61.13C134.379 62.156 133.479 62.768 132.021 62.768C130.707 62.768 129.393 62.354 128.439 61.634L127.287 63.866C128.511 64.73 130.347 65.216 132.093 65.216C135.693 65.216 137.331 63.272 137.331 61.04C137.331 58.808 135.855 57.134 132.129 57.134Z" fill="#212429"/>
<path d="M52.0752 32H50.7952L48.7252 35.41L46.6752 32H45.2852L48.0352 36.55V39H49.3352V36.53L52.0752 32Z" fill="#B8B8CA"/>
<path d="M54.6108 39.07C56.2708 39.07 57.4608 37.93 57.4608 36.33C57.4608 34.73 56.2708 33.6 54.6108 33.6C52.9708 33.6 51.7708 34.73 51.7708 36.33C51.7708 37.93 52.9708 39.07 54.6108 39.07ZM54.6108 38C53.7108 38 53.0308 37.35 53.0308 36.33C53.0308 35.31 53.7108 34.66 54.6108 34.66C55.5208 34.66 56.2008 35.31 56.2008 36.33C56.2008 37.35 55.5208 38 54.6108 38Z" fill="#B8B8CA"/>
<path d="M62.5761 33.66V36.36C62.5761 37.43 61.9861 37.97 61.1161 37.97C60.3261 37.97 59.8661 37.51 59.8661 36.54V33.66H58.6161V36.71C58.6161 38.32 59.5461 39.07 60.9161 39.07C61.6061 39.07 62.2361 38.81 62.6361 38.32V39H63.8261V33.66H62.5761Z" fill="#B8B8CA"/>
<path d="M66.6527 34.44V33.66H65.4627V39H66.7127V36.41C66.7127 35.32 67.3127 34.76 68.2627 34.76C68.3527 34.76 68.4427 34.77 68.5527 34.79V33.6C67.6627 33.6 67.0127 33.88 66.6527 34.44Z" fill="#B8B8CA"/>
<path d="M77.4456 36.36C77.4456 34.69 76.3056 33.6 74.7456 33.6C73.1556 33.6 71.9856 34.74 71.9856 36.33C71.9856 37.92 73.1456 39.07 74.9356 39.07C75.8556 39.07 76.6056 38.77 77.0856 38.2L76.4156 37.43C76.0356 37.82 75.5656 38.01 74.9656 38.01C74.0356 38.01 73.3856 37.51 73.2356 36.73H77.4256C77.4356 36.61 77.4456 36.46 77.4456 36.36ZM74.7456 34.6C75.5656 34.6 76.1556 35.13 76.2556 35.9H73.2256C73.3456 35.12 73.9356 34.6 74.7456 34.6Z" fill="#B8B8CA"/>
<path d="M80.5398 33.6C79.6798 33.6 78.8498 33.82 78.2798 34.26L78.7698 35.17C79.1698 34.84 79.7898 34.64 80.3898 34.64C81.2798 34.64 81.7198 35.07 81.7198 35.8V35.88H80.3398C78.7198 35.88 78.1198 36.58 78.1198 37.47C78.1198 38.4 78.8898 39.07 80.1098 39.07C80.9098 39.07 81.4898 38.81 81.7898 38.35V39H82.9698V35.87C82.9698 34.33 82.0798 33.6 80.5398 33.6ZM80.3698 38.16C79.7298 38.16 79.3498 37.87 79.3498 37.42C79.3498 37.03 79.5798 36.71 80.4298 36.71H81.7198V37.33C81.5098 37.88 80.9798 38.16 80.3698 38.16Z" fill="#B8B8CA"/>
<path d="M85.7641 34.44V33.66H84.5741V39H85.8241V36.41C85.8241 35.32 86.4241 34.76 87.3741 34.76C87.4641 34.76 87.5541 34.77 87.6641 34.79V33.6C86.7741 33.6 86.1241 33.88 85.7641 34.44Z" fill="#B8B8CA"/>
<path d="M91.7545 33.6C90.9745 33.6 90.3245 33.86 89.9145 34.35V33.66H88.7245V39H89.9745V36.3C89.9745 35.23 90.5745 34.69 91.4645 34.69C92.2645 34.69 92.7345 35.15 92.7345 36.1V39H93.9845V35.94C93.9845 34.33 93.0345 33.6 91.7545 33.6Z" fill="#B8B8CA"/>
<path d="M96.2002 32.78C96.6702 32.78 97.0002 32.44 97.0002 32C97.0002 31.59 96.6602 31.28 96.2002 31.28C95.7402 31.28 95.4002 31.61 95.4002 32.03C95.4002 32.45 95.7402 32.78 96.2002 32.78ZM95.5702 39H96.8202V33.66H95.5702V39Z" fill="#B8B8CA"/>
<path d="M101.491 33.6C100.711 33.6 100.061 33.86 99.6508 34.35V33.66H98.4608V39H99.7108V36.3C99.7108 35.23 100.311 34.69 101.201 34.69C102.001 34.69 102.471 35.15 102.471 36.1V39H103.721V35.94C103.721 34.33 102.771 33.6 101.491 33.6Z" fill="#B8B8CA"/>
<path d="M109.465 33.66V34.37C109.025 33.84 108.365 33.6 107.615 33.6C106.085 33.6 104.915 34.62 104.915 36.17C104.915 37.72 106.085 38.76 107.615 38.76C108.335 38.76 108.965 38.53 109.405 38.05V38.33C109.405 39.41 108.885 39.95 107.705 39.95C106.965 39.95 106.205 39.7 105.735 39.31L105.175 40.25C105.785 40.75 106.775 41.01 107.775 41.01C109.645 41.01 110.655 40.13 110.655 38.19V33.66H109.465ZM107.805 37.7C106.855 37.7 106.175 37.08 106.175 36.17C106.175 35.27 106.855 34.66 107.805 34.66C108.745 34.66 109.425 35.27 109.425 36.17C109.425 37.08 108.745 37.7 107.805 37.7Z" fill="#B8B8CA"/>
<path d="M113.949 39.07C115.449 39.07 116.369 38.42 116.369 37.42C116.369 35.33 113.069 36.29 113.069 35.21C113.069 34.86 113.429 34.61 114.189 34.61C114.699 34.61 115.209 34.71 115.719 35.01L116.199 34.06C115.719 33.77 114.909 33.6 114.199 33.6C112.759 33.6 111.849 34.26 111.849 35.27C111.849 37.4 115.149 36.44 115.149 37.46C115.149 37.83 114.819 38.05 114.029 38.05C113.359 38.05 112.639 37.83 112.169 37.52L111.689 38.47C112.169 38.81 113.059 39.07 113.949 39.07Z" fill="#B8B8CA"/>
<path d="M134.381 159L132.591 164.35L130.821 159H129.621L127.811 164.32L126.071 159H124.721L127.041 166H128.431L130.191 160.82L131.921 166H133.301L135.621 159H134.381Z" fill="white"/>
<path d="M137.239 159.78C137.709 159.78 138.039 159.44 138.039 159C138.039 158.59 137.699 158.28 137.239 158.28C136.779 158.28 136.439 158.61 136.439 159.03C136.439 159.45 136.779 159.78 137.239 159.78ZM136.609 166H137.859V160.66H136.609V166Z" fill="white"/>
<path d="M142.36 164.82C142.17 164.97 141.92 165.04 141.66 165.04C141.18 165.04 140.92 164.76 140.92 164.24V161.7H142.35V160.7H140.92V159.48H139.67V160.7H138.79V161.7H139.67V164.27C139.67 165.45 140.34 166.07 141.51 166.07C141.96 166.07 142.41 165.95 142.71 165.71L142.36 164.82Z" fill="white"/>
<path d="M146.768 160.6C146.028 160.6 145.398 160.84 144.988 161.28V158.58H143.738V166H144.988V163.3C144.988 162.23 145.588 161.69 146.478 161.69C147.278 161.69 147.748 162.15 147.748 163.1V166H148.998V162.94C148.998 161.33 148.048 160.6 146.768 160.6Z" fill="white"/>
<path d="M154.613 158.58V161.32C154.193 160.83 153.583 160.6 152.893 160.6C151.343 160.6 150.193 161.67 150.193 163.33C150.193 164.99 151.343 166.07 152.893 166.07C153.623 166.07 154.243 165.82 154.663 165.31V166H155.863V158.58H154.613ZM153.043 165C152.143 165 151.453 164.35 151.453 163.33C151.453 162.31 152.143 161.66 153.043 161.66C153.943 161.66 154.633 162.31 154.633 163.33C154.633 164.35 153.943 165 153.043 165Z" fill="white"/>
<path d="M158.688 161.44V160.66H157.498V166H158.748V163.41C158.748 162.32 159.348 161.76 160.298 161.76C160.388 161.76 160.478 161.77 160.588 161.79V160.6C159.698 160.6 159.048 160.88 158.688 161.44Z" fill="white"/>
<path d="M163.659 160.6C162.799 160.6 161.969 160.82 161.399 161.26L161.889 162.17C162.289 161.84 162.909 161.64 163.509 161.64C164.399 161.64 164.839 162.07 164.839 162.8V162.88H163.459C161.839 162.88 161.239 163.58 161.239 164.47C161.239 165.4 162.009 166.07 163.229 166.07C164.029 166.07 164.609 165.81 164.909 165.35V166H166.089V162.87C166.089 161.33 165.199 160.6 163.659 160.6ZM163.489 165.16C162.849 165.16 162.469 164.87 162.469 164.42C162.469 164.03 162.699 163.71 163.549 163.71H164.839V164.33C164.629 164.88 164.099 165.16 163.489 165.16Z" fill="white"/>
<path d="M174.815 160.66L173.365 164.62L171.925 160.66H170.875L169.405 164.6L167.995 160.66H166.815L168.775 166H169.975L171.375 162.32L172.755 166H173.955L175.925 160.66H174.815Z" fill="white"/>
<path d="M186.289 160.6C185.439 160.6 184.719 160.94 184.289 161.49C183.919 160.89 183.269 160.6 182.489 160.6C181.759 160.6 181.139 160.86 180.739 161.34V160.66H179.549V166H180.799V163.29C180.799 162.23 181.359 161.69 182.189 161.69C182.949 161.69 183.389 162.15 183.389 163.1V166H184.639V163.29C184.639 162.23 185.209 161.69 186.029 161.69C186.789 161.69 187.229 162.15 187.229 163.1V166H188.479V162.94C188.479 161.33 187.579 160.6 186.289 160.6Z" fill="white"/>
<path d="M192.525 166.07C194.185 166.07 195.375 164.93 195.375 163.33C195.375 161.73 194.185 160.6 192.525 160.6C190.885 160.6 189.685 161.73 189.685 163.33C189.685 164.93 190.885 166.07 192.525 166.07ZM192.525 165C191.625 165 190.945 164.35 190.945 163.33C190.945 162.31 191.625 161.66 192.525 161.66C193.435 161.66 194.115 162.31 194.115 163.33C194.115 164.35 193.435 165 192.525 165Z" fill="white"/>
<path d="M199.6 160.6C198.82 160.6 198.17 160.86 197.76 161.35V160.66H196.57V166H197.82V163.3C197.82 162.23 198.42 161.69 199.31 161.69C200.11 161.69 200.58 162.15 200.58 163.1V166H201.83V162.94C201.83 161.33 200.88 160.6 199.6 160.6Z" fill="white"/>
<path d="M208.485 163.36C208.485 161.69 207.345 160.6 205.785 160.6C204.195 160.6 203.025 161.74 203.025 163.33C203.025 164.92 204.185 166.07 205.975 166.07C206.895 166.07 207.645 165.77 208.125 165.2L207.455 164.43C207.075 164.82 206.605 165.01 206.005 165.01C205.075 165.01 204.425 164.51 204.275 163.73H208.465C208.475 163.61 208.485 163.46 208.485 163.36ZM205.785 161.6C206.605 161.6 207.195 162.13 207.295 162.9H204.265C204.385 162.12 204.975 161.6 205.785 161.6Z" fill="white"/>
<path d="M213.388 160.66L211.698 164.61L210.018 160.66H208.718L211.048 166.02L210.958 166.23C210.718 166.76 210.458 166.97 210.018 166.97C209.678 166.97 209.338 166.83 209.098 166.6L208.598 167.52C208.938 167.83 209.498 168.01 210.028 168.01C210.918 168.01 211.598 167.64 212.088 166.43L214.588 160.66H213.388Z" fill="white"/>
<path opacity="0.5" d="M294 57C294 57 279.237 90.0556 258.368 92.5C243.505 94.2409 237.67 76.5071 222.736 77.5C206.383 78.5874 203.483 104.385 187.104 105C171.675 105.579 166.906 87.5212 151.473 88C135.295 88.5019 131.972 113.182 115.841 114.5C101.195 115.696 94.8301 100.54 80.2089 102C63.0672 103.712 44 122 44 122V136H292.992L294 57Z" fill="url(#paint0_linear)"/>
<path d="M293.405 56.0856C293.91 56.3093 294.138 56.9 293.914 57.405L293.913 57.4074L293.911 57.4128L293.902 57.4325L293.868 57.5071C293.839 57.5722 293.795 57.6677 293.738 57.7917C293.623 58.0396 293.453 58.4014 293.23 58.8616C292.784 59.7817 292.124 61.0957 291.268 62.6787C289.557 65.8428 287.056 70.0916 283.898 74.4225C280.743 78.7496 276.912 83.1849 272.536 86.7013C268.163 90.216 263.194 92.8527 257.77 93.493C249.932 94.4185 244.487 90.1245 239.383 86.0629L239.289 85.9881C234.131 81.8832 229.294 78.0338 222.373 78.4977C218.608 78.75 215.592 80.4288 212.901 82.9049C210.205 85.3858 207.891 88.613 205.505 91.9405L205.505 91.9407L205.455 92.0098C203.079 95.3223 200.627 98.7327 197.724 101.34C194.794 103.972 191.354 105.834 186.997 105.999C178.933 106.304 173.652 101.685 168.7 97.3519L168.629 97.2902C163.581 92.8744 158.853 88.7739 151.644 88.9994C144.177 89.2329 139.619 95.0581 134.72 101.547L134.537 101.789C132.194 104.893 129.773 108.101 126.949 110.62C124.029 113.225 120.626 115.144 116.348 115.497C108.777 116.12 103.328 112.501 98.2037 109.099L98.0305 108.984C92.7959 105.509 87.8724 102.305 81.0194 102.995C72.7834 103.824 63.9798 108.696 57.1554 113.462C53.7611 115.832 50.8913 118.15 48.8705 119.876C47.8606 120.739 47.0638 121.452 46.5209 121.949C46.2494 122.197 46.0415 122.391 45.9021 122.522C45.8325 122.588 45.78 122.638 45.7452 122.671L45.7066 122.708L45.6974 122.717L45.6954 122.719C45.2984 123.102 44.665 123.092 44.2811 122.695C43.8972 122.298 43.9079 121.665 44.3049 121.281L44.3095 121.277L44.321 121.266L44.3643 121.224C44.4022 121.188 44.458 121.135 44.531 121.066C44.6771 120.929 44.8921 120.728 45.1711 120.473C45.7289 119.963 46.5427 119.234 47.5717 118.355C49.6288 116.598 52.5505 114.238 56.0104 111.822C62.8945 107.015 72.0505 101.888 80.8191 101.005C88.4672 100.235 93.9516 103.876 99.1304 107.314L99.1366 107.318C104.377 110.797 109.312 114.069 116.184 113.503C119.907 113.197 122.917 111.536 125.617 109.128C128.292 106.741 130.611 103.67 132.997 100.509L133.124 100.341C137.886 94.0348 143 87.2688 151.582 87.0004C159.618 86.749 164.889 91.3611 169.826 95.68L169.946 95.7849C174.992 100.199 179.718 104.273 186.922 104.001C190.689 103.858 193.701 102.265 196.387 99.8525C199.1 97.4163 201.427 94.194 203.83 90.8443L203.944 90.6852C206.282 87.4242 208.699 84.0545 211.547 81.4332C214.466 78.7471 217.893 76.7935 222.24 76.5021C229.939 75.9861 235.326 80.2761 240.332 84.2623L240.628 84.4979C245.808 88.6198 250.63 92.3222 257.536 91.5068C262.464 90.9249 267.089 88.5131 271.284 85.1423C275.476 81.7733 279.188 77.4864 282.282 73.2441C285.373 69.0054 287.827 64.8376 289.509 61.7274C290.349 60.1733 290.995 58.8857 291.431 57.9885C291.648 57.54 291.813 57.1892 291.923 56.9518C291.978 56.833 292.019 56.7426 292.046 56.6825L292.077 56.6152L292.085 56.5955C292.309 56.0905 292.9 55.8619 293.405 56.0856Z" fill="#9C42F5"/>
<defs>
<filter id="filter0_d" x="0" y="0" width="337" height="224" filterUnits="userSpaceOnUse" color-interpolation-filters="sRGB">
<feFlood flood-opacity="0" result="BackgroundImageFix"/>
<feColorMatrix in="SourceAlpha" type="matrix" values="0 0 0 0 0 0 0 0 0 0 0 0 0 0 0 0 0 0 127 0"/>
<feOffset dy="8"/>
<feGaussianBlur stdDeviation="12.5"/>
<feColorMatrix type="matrix" values="0 0 0 0 0.263379 0 0 0 0 0.104156 0 0 0 0 0.420833 0 0 0 0.18 0"/>
<feBlend mode="normal" in2="BackgroundImageFix" result="effect1_dropShadow"/>
<feBlend mode="normal" in="SourceGraphic" in2="effect1_dropShadow" result="shape"/>
</filter>
<filter id="filter1_d" x="37" y="148" width="264" height="44" filterUnits="userSpaceOnUse" color-interpolation-filters="sRGB">
<feFlood flood-opacity="0" result="BackgroundImageFix"/>
<feColorMatrix in="SourceAlpha" type="matrix" values="0 0 0 0 0 0 0 0 0 0 0 0 0 0 0 0 0 0 127 0"/>
<feOffset dy="8"/>
<feGaussianBlur stdDeviation="4"/>
<feColorMatrix type="matrix" values="0 0 0 0 0.611765 0 0 0 0 0.258824 0 0 0 0 0.960784 0 0 0 0.122 0"/>
<feBlend mode="normal" in2="BackgroundImageFix" result="effect1_dropShadow"/>
<feBlend mode="normal" in="SourceGraphic" in2="effect1_dropShadow" result="shape"/>
</filter>
<linearGradient id="paint0_linear" x1="169" y1="57" x2="169" y2="139" gradientUnits="userSpaceOnUse">
<stop stop-color="#9C42F5"/>
<stop offset="1" stop-color="#9C42F5" stop-opacity="0"/>
</linearGradient>
</defs>
</svg>
