<svg width="42" height="42" viewBox="0 0 42 42" fill="none" xmlns="http://www.w3.org/2000/svg">
<path fill-rule="evenodd" clip-rule="evenodd" d="M36.96 21.0022C36.96 29.8156 29.8145 36.9605 21 36.9605C12.1855 36.9605 5.03998 29.8156 5.03998 21.0022C5.03998 12.1884 12.1855 5.04355 21 5.04355C29.8145 5.04355 36.96 12.1884 36.96 21.0022ZM42 21.0022C42 32.5989 32.5978 42 21 42C9.40201 42 0 32.5989 0 21.0022C0 9.40519 9.40201 0.00403376 21 0.00403376C32.5978 0.00403376 42 9.40519 42 21.0022ZM41.9978 2.49977C41.9978 3.88037 40.8786 4.99954 39.4978 4.99954C38.1171 4.99954 36.9979 3.88037 36.9979 2.49977C36.9979 1.1192 38.1171 0 39.4978 0C40.8786 0 41.9978 1.1192 41.9978 2.49977ZM27.1171 21.1669C27.1171 24.4423 24.4619 27.0974 21.1863 27.0974C17.9108 27.0974 15.2554 24.4423 15.2554 21.1669C15.2554 17.8918 17.9108 15.2367 21.1863 15.2367C24.4619 15.2367 27.1171 17.8918 27.1171 21.1669ZM28.8119 21.1669C28.8119 25.3781 25.3979 28.7918 21.1863 28.7918C16.9749 28.7918 13.5609 25.3781 13.5609 21.1669C13.5609 16.956 16.9749 13.5423 21.1863 13.5423C25.3979 13.5423 28.8119 16.956 28.8119 21.1669Z" fill="#E0E0FF"/>
</svg>
