<svg width="26" height="26" viewBox="0 0 26 26" fill="none" xmlns="http://www.w3.org/2000/svg">
<path d="M7.23784 18.7449C11.3537 22.8692 16.2826 26 20.278 26C22.0549 26 23.631 25.3879 24.8857 23.983C25.6184 23.1602 26 22.2671 26 21.3439C26 20.511 25.6688 19.7082 24.8857 19.1463L20.8703 16.2864C20.1676 15.7846 19.6053 15.5639 19.1035 15.5639C18.4509 15.5639 17.8888 15.9452 17.2564 16.5673L16.2826 17.5507C16.132 17.7013 15.9313 17.7615 15.7606 17.7615C15.5398 17.7615 15.3189 17.6812 15.1784 17.5909C14.3151 17.0992 12.8494 15.8147 11.5143 14.4801C10.1791 13.1455 8.8942 11.6804 8.40233 10.8174C8.31197 10.6669 8.23166 10.4462 8.23166 10.2354C8.23166 10.0548 8.2919 9.86413 8.43244 9.71362L9.41622 8.73022C10.0487 8.10806 10.4201 7.54611 10.4201 6.88383C10.4201 6.39212 10.2093 5.82014 9.70733 5.12775L6.8363 1.10382C6.28417 0.331141 5.47105 0 4.6278 0C3.69422 0 2.80078 0.371277 2.00774 1.11385C0.612352 2.37824 0 3.96372 0 5.72984C0 9.73369 3.12202 14.6306 7.23784 18.7449Z" fill="white"/>
</svg>
